<svg xmlns="http://www.w3.org/2000/svg" width="168" height="41" viewBox="0 0 168 41" fill="none"><rect x="0.5" y="0.5" width="167" height="40" rx="19.5" fill="#0F1435" stroke="url(#paint0_linear_392_1566)"></rect><mask id="path-2-outside-1_392_1566" maskUnits="userSpaceOnUse" x="54" y="12" width="59" height="17" fill="black"><rect fill="white" x="54" y="12" width="59" height="17"></rect><path d="M57.073 15.6043V19.8662H61.7191V21.2381H57.073V25.6281H62.2679V27H55.4085V14.2324H62.2679V15.6043H57.073ZM68.3351 27.1646C67.5669 27.1646 66.8779 27.0366 66.2682 26.7805C65.6584 26.5122 65.1768 26.1464 64.8231 25.683C64.4695 25.2074 64.2744 24.6648 64.2378 24.055H65.9572C66.006 24.555 66.2377 24.9635 66.6523 25.2806C67.0791 25.5976 67.6339 25.7562 68.3168 25.7562C68.9509 25.7562 69.4509 25.6159 69.8168 25.3355C70.1826 25.055 70.3655 24.7013 70.3655 24.2745C70.3655 23.8355 70.1704 23.5124 69.7802 23.3051C69.39 23.0856 68.7863 22.8722 67.9693 22.6649C67.2254 22.4698 66.6157 22.2746 66.1401 22.0795C65.6767 21.8722 65.2743 21.5735 64.9329 21.1832C64.6036 20.7808 64.439 20.2565 64.439 19.6101C64.439 19.098 64.5914 18.6285 64.8963 18.2017C65.2011 17.7749 65.6341 17.4395 66.195 17.1956C66.7559 16.9396 67.3962 16.8115 68.1156 16.8115C69.2253 16.8115 70.1216 17.092 70.8045 17.6529C71.4874 18.2139 71.8532 18.9821 71.902 19.9577H70.2375C70.2009 19.4333 69.9875 19.0126 69.5973 18.6956C69.2192 18.3785 68.7071 18.22 68.0608 18.22C67.4632 18.22 66.9876 18.348 66.634 18.6041C66.2804 18.8602 66.1035 19.1955 66.1035 19.6101C66.1035 19.9394 66.2072 20.2138 66.4145 20.4333C66.634 20.6406 66.9023 20.8113 67.2193 20.9454C67.5486 21.0674 67.9998 21.2076 68.5729 21.3662C69.2924 21.5613 69.8777 21.7564 70.3289 21.9515C70.7801 22.1344 71.1642 22.4149 71.4813 22.7929C71.8106 23.1709 71.9813 23.6648 71.9935 24.2745C71.9935 24.8233 71.841 25.3172 71.5362 25.7562C71.2313 26.1952 70.7984 26.5427 70.2375 26.7988C69.6887 27.0427 69.0546 27.1646 68.3351 27.1646ZM73.7213 21.9698C73.7213 20.9332 73.9286 20.0309 74.3432 19.2626C74.7579 18.4822 75.331 17.8785 76.0627 17.4517C76.8065 17.0249 77.654 16.8115 78.6052 16.8115C79.8369 16.8115 80.849 17.1103 81.6416 17.7078C82.4465 18.3053 82.9769 19.1346 83.233 20.1955H81.4404C81.2697 19.5858 80.9344 19.1041 80.4344 18.7504C79.9466 18.3968 79.3369 18.22 78.6052 18.22C77.654 18.22 76.8858 18.5492 76.3005 19.2077C75.7151 19.854 75.4225 20.7747 75.4225 21.9698C75.4225 23.177 75.7151 24.1099 76.3005 24.7684C76.8858 25.4269 77.654 25.7562 78.6052 25.7562C79.3369 25.7562 79.9466 25.5854 80.4344 25.244C80.9222 24.9026 81.2575 24.4148 81.4404 23.7807H83.233C82.9647 24.805 82.4282 25.6281 81.6233 26.25C80.8185 26.8598 79.8125 27.1646 78.6052 27.1646C77.654 27.1646 76.8065 26.9512 76.0627 26.5244C75.331 26.0976 74.7579 25.494 74.3432 24.7135C73.9286 23.9331 73.7213 23.0185 73.7213 21.9698ZM84.8321 21.9515C84.8321 20.9272 85.0394 20.0309 85.454 19.2626C85.8686 18.4822 86.4357 17.8785 87.1552 17.4517C87.8868 17.0249 88.6978 16.8115 89.588 16.8115C90.466 16.8115 91.2281 17.0005 91.8744 17.3786C92.5207 17.7566 93.0024 18.2322 93.3195 18.8053V16.9761H95.0023V27H93.3195V25.1342C92.9902 25.7196 92.4963 26.2074 91.8378 26.5976C91.1915 26.9756 90.4355 27.1646 89.5697 27.1646C88.6795 27.1646 87.8746 26.9451 87.1552 26.5061C86.4357 26.0671 85.8686 25.4513 85.454 24.6587C85.0394 23.866 84.8321 22.9636 84.8321 21.9515ZM93.3195 21.9698C93.3195 21.2137 93.167 20.5552 92.8622 19.9943C92.5573 19.4333 92.1427 19.0065 91.6183 18.7139C91.1062 18.409 90.5391 18.2566 89.9172 18.2566C89.2953 18.2566 88.7282 18.4029 88.2161 18.6956C87.7039 18.9882 87.2954 19.415 86.9905 19.976C86.6857 20.5369 86.5332 21.1954 86.5332 21.9515C86.5332 22.7197 86.6857 23.3904 86.9905 23.9636C87.2954 24.5245 87.7039 24.9574 88.2161 25.2623C88.7282 25.555 89.2953 25.7013 89.9172 25.7013C90.5391 25.7013 91.1062 25.555 91.6183 25.2623C92.1427 24.9574 92.5573 24.5245 92.8622 23.9636C93.167 23.3904 93.3195 22.7258 93.3195 21.9698ZM99.4798 13.4641V27H97.8152V13.4641H99.4798ZM101.695 21.9515C101.695 20.9272 101.902 20.0309 102.317 19.2626C102.731 18.4822 103.298 17.8785 104.018 17.4517C104.749 17.0249 105.56 16.8115 106.451 16.8115C107.329 16.8115 108.091 17.0005 108.737 17.3786C109.383 17.7566 109.865 18.2322 110.182 18.8053V16.9761H111.865V27H110.182V25.1342C109.853 25.7196 109.359 26.2074 108.701 26.5976C108.054 26.9756 107.298 27.1646 106.432 27.1646C105.542 27.1646 104.737 26.9451 104.018 26.5061C103.298 26.0671 102.731 25.4513 102.317 24.6587C101.902 23.866 101.695 22.9636 101.695 21.9515ZM110.182 21.9698C110.182 21.2137 110.03 20.5552 109.725 19.9943C109.42 19.4333 109.005 19.0065 108.481 18.7139C107.969 18.409 107.402 18.2566 106.78 18.2566C106.158 18.2566 105.591 18.4029 105.079 18.6956C104.567 18.9882 104.158 19.415 103.853 19.976C103.548 20.5369 103.396 21.1954 103.396 21.9515C103.396 22.7197 103.548 23.3904 103.853 23.9636C104.158 24.5245 104.567 24.9574 105.079 25.2623C105.591 25.555 106.158 25.7013 106.78 25.7013C107.402 25.7013 107.969 25.555 108.481 25.2623C109.005 24.9574 109.42 24.5245 109.725 23.9636C110.03 23.3904 110.182 22.7258 110.182 21.9698Z"></path></mask><path d="M57.073 15.6043V19.8662H61.7191V21.2381H57.073V25.6281H62.2679V27H55.4085V14.2324H62.2679V15.6043H57.073ZM68.3351 27.1646C67.5669 27.1646 66.8779 27.0366 66.2682 26.7805C65.6584 26.5122 65.1768 26.1464 64.8231 25.683C64.4695 25.2074 64.2744 24.6648 64.2378 24.055H65.9572C66.006 24.555 66.2377 24.9635 66.6523 25.2806C67.0791 25.5976 67.6339 25.7562 68.3168 25.7562C68.9509 25.7562 69.4509 25.6159 69.8168 25.3355C70.1826 25.055 70.3655 24.7013 70.3655 24.2745C70.3655 23.8355 70.1704 23.5124 69.7802 23.3051C69.39 23.0856 68.7863 22.8722 67.9693 22.6649C67.2254 22.4698 66.6157 22.2746 66.1401 22.0795C65.6767 21.8722 65.2743 21.5735 64.9329 21.1832C64.6036 20.7808 64.439 20.2565 64.439 19.6101C64.439 19.098 64.5914 18.6285 64.8963 18.2017C65.2011 17.7749 65.6341 17.4395 66.195 17.1956C66.7559 16.9396 67.3962 16.8115 68.1156 16.8115C69.2253 16.8115 70.1216 17.092 70.8045 17.6529C71.4874 18.2139 71.8532 18.9821 71.902 19.9577H70.2375C70.2009 19.4333 69.9875 19.0126 69.5973 18.6956C69.2192 18.3785 68.7071 18.22 68.0608 18.22C67.4632 18.22 66.9876 18.348 66.634 18.6041C66.2804 18.8602 66.1035 19.1955 66.1035 19.6101C66.1035 19.9394 66.2072 20.2138 66.4145 20.4333C66.634 20.6406 66.9023 20.8113 67.2193 20.9454C67.5486 21.0674 67.9998 21.2076 68.5729 21.3662C69.2924 21.5613 69.8777 21.7564 70.3289 21.9515C70.7801 22.1344 71.1642 22.4149 71.4813 22.7929C71.8106 23.1709 71.9813 23.6648 71.9935 24.2745C71.9935 24.8233 71.841 25.3172 71.5362 25.7562C71.2313 26.1952 70.7984 26.5427 70.2375 26.7988C69.6887 27.0427 69.0546 27.1646 68.3351 27.1646ZM73.7213 21.9698C73.7213 20.9332 73.9286 20.0309 74.3432 19.2626C74.7579 18.4822 75.331 17.8785 76.0627 17.4517C76.8065 17.0249 77.654 16.8115 78.6052 16.8115C79.8369 16.8115 80.849 17.1103 81.6416 17.7078C82.4465 18.3053 82.9769 19.1346 83.233 20.1955H81.4404C81.2697 19.5858 80.9344 19.1041 80.4344 18.7504C79.9466 18.3968 79.3369 18.22 78.6052 18.22C77.654 18.22 76.8858 18.5492 76.3005 19.2077C75.7151 19.854 75.4225 20.7747 75.4225 21.9698C75.4225 23.177 75.7151 24.1099 76.3005 24.7684C76.8858 25.4269 77.654 25.7562 78.6052 25.7562C79.3369 25.7562 79.9466 25.5854 80.4344 25.244C80.9222 24.9026 81.2575 24.4148 81.4404 23.7807H83.233C82.9647 24.805 82.4282 25.6281 81.6233 26.25C80.8185 26.8598 79.8125 27.1646 78.6052 27.1646C77.654 27.1646 76.8065 26.9512 76.0627 26.5244C75.331 26.0976 74.7579 25.494 74.3432 24.7135C73.9286 23.9331 73.7213 23.0185 73.7213 21.9698ZM84.8321 21.9515C84.8321 20.9272 85.0394 20.0309 85.454 19.2626C85.8686 18.4822 86.4357 17.8785 87.1552 17.4517C87.8868 17.0249 88.6978 16.8115 89.588 16.8115C90.466 16.8115 91.2281 17.0005 91.8744 17.3786C92.5207 17.7566 93.0024 18.2322 93.3195 18.8053V16.9761H95.0023V27H93.3195V25.1342C92.9902 25.7196 92.4963 26.2074 91.8378 26.5976C91.1915 26.9756 90.4355 27.1646 89.5697 27.1646C88.6795 27.1646 87.8746 26.9451 87.1552 26.5061C86.4357 26.0671 85.8686 25.4513 85.454 24.6587C85.0394 23.866 84.8321 22.9636 84.8321 21.9515ZM93.3195 21.9698C93.3195 21.2137 93.167 20.5552 92.8622 19.9943C92.5573 19.4333 92.1427 19.0065 91.6183 18.7139C91.1062 18.409 90.5391 18.2566 89.9172 18.2566C89.2953 18.2566 88.7282 18.4029 88.2161 18.6956C87.7039 18.9882 87.2954 19.415 86.9905 19.976C86.6857 20.5369 86.5332 21.1954 86.5332 21.9515C86.5332 22.7197 86.6857 23.3904 86.9905 23.9636C87.2954 24.5245 87.7039 24.9574 88.2161 25.2623C88.7282 25.555 89.2953 25.7013 89.9172 25.7013C90.5391 25.7013 91.1062 25.555 91.6183 25.2623C92.1427 24.9574 92.5573 24.5245 92.8622 23.9636C93.167 23.3904 93.3195 22.7258 93.3195 21.9698ZM99.4798 13.4641V27H97.8152V13.4641H99.4798ZM101.695 21.9515C101.695 20.9272 101.902 20.0309 102.317 19.2626C102.731 18.4822 103.298 17.8785 104.018 17.4517C104.749 17.0249 105.56 16.8115 106.451 16.8115C107.329 16.8115 108.091 17.0005 108.737 17.3786C109.383 17.7566 109.865 18.2322 110.182 18.8053V16.9761H111.865V27H110.182V25.1342C109.853 25.7196 109.359 26.2074 108.701 26.5976C108.054 26.9756 107.298 27.1646 106.432 27.1646C105.542 27.1646 104.737 26.9451 104.018 26.5061C103.298 26.0671 102.731 25.4513 102.317 24.6587C101.902 23.866 101.695 22.9636 101.695 21.9515ZM110.182 21.9698C110.182 21.2137 110.03 20.5552 109.725 19.9943C109.42 19.4333 109.005 19.0065 108.481 18.7139C107.969 18.409 107.402 18.2566 106.78 18.2566C106.158 18.2566 105.591 18.4029 105.079 18.6956C104.567 18.9882 104.158 19.415 103.853 19.976C103.548 20.5369 103.396 21.1954 103.396 21.9515C103.396 22.7197 103.548 23.3904 103.853 23.9636C104.158 24.5245 104.567 24.9574 105.079 25.2623C105.591 25.555 106.158 25.7013 106.78 25.7013C107.402 25.7013 107.969 25.555 108.481 25.2623C109.005 24.9574 109.42 24.5245 109.725 23.9636C110.03 23.3904 110.182 22.7258 110.182 21.9698Z" fill="#A8A8A8"></path><path d="M57.073 15.6043V14.6043H56.073V15.6043H57.073ZM57.073 19.8662H56.073V20.8662H57.073V19.8662ZM61.7191 19.8662H62.7191V18.8662H61.7191V19.8662ZM61.7191 21.2381V22.2381H62.7191V21.2381H61.7191ZM57.073 21.2381V20.2381H56.073V21.2381H57.073ZM57.073 25.6281H56.073V26.6281H57.073V25.6281ZM62.2679 25.6281H63.2679V24.6281H62.2679V25.6281ZM62.2679 27V28H63.2679V27H62.2679ZM55.4085 27H54.4085V28H55.4085V27ZM55.4085 14.2324V13.2324H54.4085V14.2324H55.4085ZM62.2679 14.2324H63.2679V13.2324H62.2679V14.2324ZM62.2679 15.6043V16.6043H63.2679V15.6043H62.2679ZM57.073 15.6043H56.073V19.8662H57.073H58.073V15.6043H57.073ZM57.073 19.8662V20.8662H61.7191V19.8662V18.8662H57.073V19.8662ZM61.7191 19.8662H60.7191V21.2381H61.7191H62.7191V19.8662H61.7191ZM61.7191 21.2381V20.2381H57.073V21.2381V22.2381H61.7191V21.2381ZM57.073 21.2381H56.073V25.6281H57.073H58.073V21.2381H57.073ZM57.073 25.6281V26.6281H62.2679V25.6281V24.6281H57.073V25.6281ZM62.2679 25.6281H61.2679V27H62.2679H63.2679V25.6281H62.2679ZM62.2679 27V26H55.4085V27V28H62.2679V27ZM55.4085 27H56.4085V14.2324H55.4085H54.4085V27H55.4085ZM55.4085 14.2324V15.2324H62.2679V14.2324V13.2324H55.4085V14.2324ZM62.2679 14.2324H61.2679V15.6043H62.2679H63.2679V14.2324H62.2679ZM62.2679 15.6043V14.6043H57.073V15.6043V16.6043H62.2679V15.6043ZM66.2682 26.7805L65.8654 27.6958L65.8732 27.6992L65.8809 27.7025L66.2682 26.7805ZM64.8231 25.683L64.0206 26.2797L64.0282 26.2897L64.8231 25.683ZM64.2378 24.055V23.055H63.176L63.2396 24.1149L64.2378 24.055ZM65.9572 24.055L66.9525 23.9579L66.8644 23.055H65.9572V24.055ZM66.6523 25.2806L66.0448 26.075L66.056 26.0833L66.6523 25.2806ZM69.7802 23.3051L69.2899 24.1766L69.3004 24.1825L69.311 24.1882L69.7802 23.3051ZM67.9693 22.6649L67.7156 23.6322L67.7234 23.6341L67.9693 22.6649ZM66.1401 22.0795L65.7318 22.9923L65.7461 22.9987L65.7606 23.0047L66.1401 22.0795ZM64.9329 21.1832L64.1589 21.8165L64.1694 21.8293L64.1803 21.8417L64.9329 21.1832ZM64.8963 18.2017L64.0826 17.6204L64.8963 18.2017ZM66.195 17.1956L66.5937 18.1127L66.602 18.1091L66.6103 18.1053L66.195 17.1956ZM70.8045 17.6529L70.1698 18.4257L70.8045 17.6529ZM71.902 19.9577V20.9577H72.9533L72.9008 19.9078L71.902 19.9577ZM70.2375 19.9577L69.2399 20.0273L69.3048 20.9577H70.2375V19.9577ZM69.5973 18.6956L68.9546 19.4618L68.9606 19.4668L68.9667 19.4717L69.5973 18.6956ZM66.634 18.6041L66.0475 17.7942H66.0475L66.634 18.6041ZM66.4145 20.4333L65.6875 21.1199L65.7071 21.1407L65.7279 21.1603L66.4145 20.4333ZM67.2193 20.9454L66.8297 21.8664L66.8507 21.8753L66.872 21.8832L67.2193 20.9454ZM68.5729 21.3662L68.3063 22.33L68.3112 22.3313L68.5729 21.3662ZM70.3289 21.9515L69.932 22.8693L69.9426 22.8739L69.9532 22.8782L70.3289 21.9515ZM71.4813 22.7929L70.7151 23.4355L70.7211 23.4427L70.7272 23.4497L71.4813 22.7929ZM71.9935 24.2745H72.9935V24.2645L72.9933 24.2545L71.9935 24.2745ZM71.5362 25.7562L70.7148 25.1858L71.5362 25.7562ZM70.2375 26.7988L70.6436 27.7126L70.6528 27.7085L70.2375 26.7988ZM68.3351 27.1646V26.1646C67.6786 26.1646 67.1243 26.0555 66.6554 25.8585L66.2682 26.7805L65.8809 27.7025C66.6315 28.0177 67.4552 28.1646 68.3351 28.1646V27.1646ZM66.2682 26.7805L66.6709 25.8652C66.1935 25.6551 65.8553 25.3872 65.6181 25.0763L64.8231 25.683L64.0282 26.2897C64.4982 26.9056 65.1233 27.3693 65.8654 27.6958L66.2682 26.7805ZM64.8231 25.683L65.6256 25.0863C65.3917 24.7718 65.2613 24.417 65.236 23.9951L64.2378 24.055L63.2396 24.1149C63.2874 24.9125 63.5472 25.643 64.0207 26.2797L64.8231 25.683ZM64.2378 24.055V25.055H65.9572V24.055V23.055H64.2378V24.055ZM65.9572 24.055L64.9619 24.1521C65.0388 24.9402 65.4195 25.5968 66.0448 26.0749L66.6523 25.2806L67.2597 24.4862C67.0558 24.3303 66.9732 24.1698 66.9525 23.9579L65.9572 24.055ZM66.6523 25.2806L66.056 26.0833C66.6987 26.5608 67.4805 26.7562 68.3168 26.7562V25.7562V24.7562C67.7874 24.7562 67.4595 24.6345 67.2486 24.4778L66.6523 25.2806ZM68.3168 25.7562V26.7562C69.0896 26.7562 69.8297 26.5856 70.4252 26.1291L69.8168 25.3355L69.2083 24.5418C69.0722 24.6462 68.8123 24.7562 68.3168 24.7562V25.7562ZM69.8168 25.3355L70.4252 26.1291C71.015 25.6769 71.3655 25.0401 71.3655 24.2745H70.3655H69.3655C69.3655 24.3626 69.3502 24.4331 69.2083 24.5418L69.8168 25.3355ZM70.3655 24.2745H71.3655C71.3655 23.903 71.2814 23.5275 71.0752 23.1861C70.8693 22.8449 70.5766 22.5958 70.2493 22.422L69.7802 23.3051L69.311 24.1882C69.344 24.2057 69.3596 24.2186 69.3647 24.2233C69.3692 24.2273 69.3669 24.2261 69.3631 24.2198C69.3593 24.2135 69.359 24.2104 69.3602 24.215C69.3616 24.2205 69.3655 24.2389 69.3655 24.2745H70.3655ZM69.7802 23.3051L70.2704 22.4335C69.7631 22.1481 69.0566 21.9091 68.2152 21.6956L67.9693 22.6649L67.7234 23.6341C68.516 23.8353 69.0168 24.023 69.2899 24.1766L69.7802 23.3051ZM67.9693 22.6649L68.223 21.6976C67.5032 21.5088 66.9396 21.3266 66.5197 21.1544L66.1401 22.0795L65.7606 23.0047C66.2918 23.2227 66.9477 23.4307 67.7156 23.6321L67.9693 22.6649ZM66.1401 22.0795L66.5485 21.1667C66.2197 21.0196 65.9339 20.8087 65.6854 20.5247L64.9329 21.1832L64.1803 21.8417C64.6147 22.3382 65.1337 22.7248 65.7318 22.9923L66.1401 22.0795ZM64.9329 21.1832L65.7068 20.55C65.5565 20.3663 65.439 20.0833 65.439 19.6101H64.439H63.439C63.439 20.4296 63.6507 21.1953 64.1589 21.8165L64.9329 21.1832ZM64.439 19.6101H65.439C65.439 19.3117 65.5232 19.0445 65.71 18.7829L64.8963 18.2017L64.0826 17.6204C63.6597 18.2125 63.439 18.8842 63.439 19.6101H64.439ZM64.8963 18.2017L65.71 18.7829C65.8931 18.5266 66.171 18.2965 66.5937 18.1127L66.195 17.1956L65.7963 16.2786C65.0971 16.5826 64.5092 17.0232 64.0826 17.6204L64.8963 18.2017ZM66.195 17.1956L66.6103 18.1053C67.0209 17.9179 67.5157 17.8115 68.1156 17.8115V16.8115V15.8115C67.2766 15.8115 66.491 15.9612 65.7797 16.286L66.195 17.1956ZM68.1156 16.8115V17.8115C69.0545 17.8115 69.7076 18.0461 70.1698 18.4257L70.8045 17.6529L71.4392 16.8802C70.5356 16.1379 69.3961 15.8115 68.1156 15.8115V16.8115ZM70.8045 17.6529L70.1698 18.4257C70.6106 18.7878 70.8669 19.2805 70.9033 20.0076L71.902 19.9577L72.9008 19.9078C72.8396 18.6838 72.3642 17.64 71.4392 16.8802L70.8045 17.6529ZM71.902 19.9577V18.9577H70.2375V19.9577V20.9577H71.902V19.9577ZM70.2375 19.9577L71.235 19.8881C71.1802 19.1017 70.8437 18.4198 70.2278 17.9194L69.5973 18.6956L68.9667 19.4717C69.1313 19.6054 69.2216 19.7649 69.2399 20.0273L70.2375 19.9577ZM69.5973 18.6956L70.2399 17.9294C69.6323 17.4198 68.8683 17.22 68.0608 17.22V18.22V19.22C68.5459 19.22 68.8061 19.3372 68.9546 19.4618L69.5973 18.6956ZM68.0608 18.22V17.22C67.3286 17.22 66.6245 17.3764 66.0475 17.7942L66.634 18.6041L67.2205 19.414C67.3508 19.3197 67.5978 19.22 68.0608 19.22V18.22ZM66.634 18.6041L66.0475 17.7942C65.4503 18.2266 65.1035 18.8554 65.1035 19.6101H66.1035H67.1035C67.1035 19.5498 67.1151 19.5248 67.1207 19.5141C67.1273 19.5015 67.1492 19.4657 67.2205 19.414L66.634 18.6041ZM66.1035 19.6101H65.1035C65.1035 20.1695 65.2883 20.6972 65.6875 21.1199L66.4145 20.4333L67.1415 19.7467C67.1261 19.7303 67.1035 19.7093 67.1035 19.6101H66.1035ZM66.4145 20.4333L65.7279 21.1603C66.0453 21.4601 66.4181 21.6923 66.8297 21.8664L67.2193 20.9454L67.609 20.0245C67.3865 19.9303 67.2227 19.8211 67.1011 19.7063L66.4145 20.4333ZM67.2193 20.9454L66.872 21.8832C67.2397 22.0194 67.7218 22.1683 68.3063 22.33L68.5729 21.3662L68.8395 20.4023C68.2778 20.247 67.8575 20.1154 67.5666 20.0077L67.2193 20.9454ZM68.5729 21.3662L68.3112 22.3313C69.0055 22.5196 69.5409 22.7002 69.932 22.8693L70.3289 21.9515L70.7258 21.0336C70.2145 20.8125 69.5793 20.603 68.8347 20.401L68.5729 21.3662ZM70.3289 21.9515L69.9532 22.8782C70.2509 22.9989 70.5016 23.1809 70.7151 23.4355L71.4813 22.7929L72.2475 22.1503C71.8269 21.6488 71.3093 21.2699 70.7046 21.0247L70.3289 21.9515ZM71.4813 22.7929L70.7272 23.4497C70.871 23.6148 70.9851 23.8666 70.9937 24.2945L71.9935 24.2745L72.9933 24.2545C72.9774 23.463 72.7501 22.7271 72.2354 22.1361L71.4813 22.7929ZM71.9935 24.2745H70.9935C70.9935 24.6252 70.9001 24.9189 70.7148 25.1858L71.5362 25.7562L72.3575 26.3266C72.782 25.7154 72.9935 25.0214 72.9935 24.2745H71.9935ZM71.5362 25.7562L70.7148 25.1858C70.5273 25.4558 70.2453 25.696 69.8222 25.8891L70.2375 26.7988L70.6528 27.7085C71.3516 27.3895 71.9354 26.9345 72.3575 26.3266L71.5362 25.7562ZM70.2375 26.7988L69.8313 25.885C69.4332 26.0619 68.9419 26.1646 68.3351 26.1646V27.1646V28.1646C69.1673 28.1646 69.9443 28.0234 70.6436 27.7126L70.2375 26.7988ZM74.3432 19.2626L75.2233 19.7375L75.2264 19.7318L74.3432 19.2626ZM76.0627 17.4517L75.565 16.5843L75.5588 16.5879L76.0627 17.4517ZM81.6416 17.7078L81.0397 18.5064L81.0455 18.5107L81.6416 17.7078ZM83.233 20.1955V21.1955H84.5031L84.2051 19.9608L83.233 20.1955ZM81.4404 20.1955L80.4775 20.4651L80.682 21.1955H81.4404V20.1955ZM80.4344 18.7504L79.8474 19.5601L79.8569 19.5669L80.4344 18.7504ZM76.3005 19.2077L77.0417 19.879L77.0479 19.8721L76.3005 19.2077ZM76.3005 24.7684L77.0479 24.104L76.3005 24.7684ZM80.4344 25.244L81.0078 26.0632V26.0632L80.4344 25.244ZM81.4404 23.7807V22.7807H80.6881L80.4796 23.5035L81.4404 23.7807ZM83.233 23.7807L84.2004 24.034L84.5286 22.7807H83.233V23.7807ZM81.6233 26.25L82.2272 27.0472L82.2348 27.0413L81.6233 26.25ZM76.0627 26.5244L75.5588 27.3882L75.565 27.3918L76.0627 26.5244ZM74.3432 24.7135L73.4601 25.1827L74.3432 24.7135ZM73.7213 21.9698H74.7213C74.7213 21.068 74.9009 20.3348 75.2233 19.7375L74.3432 19.2626L73.4632 18.7877C72.9563 19.7269 72.7213 20.7985 72.7213 21.9698H73.7213ZM74.3432 19.2626L75.2264 19.7318C75.5577 19.1081 76.0027 18.6444 76.5665 18.3155L76.0627 17.4517L75.5588 16.5879C74.6593 17.1126 73.958 17.8562 73.4601 18.7935L74.3432 19.2626ZM76.0627 17.4517L76.5603 18.3191C77.1367 17.9884 77.8092 17.8115 78.6052 17.8115V16.8115V15.8115C77.4989 15.8115 76.4764 16.0614 75.565 16.5844L76.0627 17.4517ZM78.6052 16.8115V17.8115C79.6729 17.8115 80.4587 18.0683 81.0397 18.5063L81.6416 17.7078L82.2436 16.9093C81.2393 16.1522 80.0008 15.8115 78.6052 15.8115V16.8115ZM81.6416 17.7078L81.0455 18.5107C81.6452 18.9559 82.0546 19.5751 82.2609 20.4301L83.233 20.1955L84.2051 19.9608C83.8993 18.694 83.2477 17.6547 82.2377 16.9049L81.6416 17.7078ZM83.233 20.1955V19.1955H81.4404V20.1955V21.1955H83.233V20.1955ZM81.4404 20.1955L82.4034 19.9259C82.173 19.1031 81.7061 18.4251 81.0118 17.934L80.4344 18.7504L79.8569 19.5669C80.1626 19.7831 80.3664 20.0684 80.4775 20.4651L81.4404 20.1955ZM80.4344 18.7504L81.0213 17.9408C80.329 17.4389 79.5016 17.22 78.6052 17.22V18.22V19.22C79.1722 19.22 79.5642 19.3547 79.8474 19.56L80.4344 18.7504ZM78.6052 18.22V17.22C77.394 17.22 76.3445 17.653 75.553 18.5434L76.3005 19.2077L77.0479 19.8721C77.4271 19.4455 77.9141 19.22 78.6052 19.22V18.22ZM76.3005 19.2077L75.5593 18.5365C74.7542 19.4254 74.4225 20.6193 74.4225 21.9698H75.4225H76.4225C76.4225 20.9302 76.6761 20.2827 77.0417 19.879L76.3005 19.2077ZM75.4225 21.9698H74.4225C74.4225 23.3308 74.7532 24.5329 75.553 25.4328L76.3005 24.7684L77.0479 24.104C76.677 23.6869 76.4225 23.0233 76.4225 21.9698H75.4225ZM76.3005 24.7684L75.553 25.4328C76.3445 26.3232 77.394 26.7562 78.6052 26.7562V25.7562V24.7562C77.9141 24.7562 77.4271 24.5306 77.0479 24.104L76.3005 24.7684ZM78.6052 25.7562V26.7562C79.4945 26.7562 80.3168 26.5469 81.0078 26.0632L80.4344 25.244L79.8609 24.4248C79.5764 24.6239 79.1793 24.7562 78.6052 24.7562V25.7562ZM80.4344 25.244L81.0078 26.0632C81.7034 25.5763 82.1623 24.8863 82.4013 24.0578L81.4404 23.7807L80.4796 23.5035C80.3527 23.9433 80.1409 24.2288 79.8609 24.4248L80.4344 25.244ZM81.4404 23.7807V24.7807H83.233V23.7807V22.7807H81.4404V23.7807ZM83.233 23.7807L82.2656 23.5273C82.0509 24.3474 81.6344 24.9778 81.0119 25.4588L81.6233 26.25L82.2348 27.0413C83.222 26.2785 83.8786 25.2626 84.2004 24.034L83.233 23.7807ZM81.6233 26.25L81.0195 25.4529C80.4205 25.9067 79.6384 26.1646 78.6052 26.1646V27.1646V28.1646C79.9865 28.1646 81.2165 27.8128 82.2272 27.0471L81.6233 26.25ZM78.6052 27.1646V26.1646C77.8092 26.1646 77.1367 25.9877 76.5603 25.657L76.0627 26.5244L75.565 27.3918C76.4764 27.9147 77.4989 28.1646 78.6052 28.1646V27.1646ZM76.0627 26.5244L76.5665 25.6606C76.0027 25.3317 75.5577 24.868 75.2264 24.2444L74.3432 24.7135L73.4601 25.1827C73.958 26.1199 74.6593 26.8635 75.5588 27.3882L76.0627 26.5244ZM74.3432 24.7135L75.2264 24.2444C74.9016 23.6331 74.7213 22.8854 74.7213 21.9698H73.7213H72.7213C72.7213 23.1516 72.9556 24.2331 73.4601 25.1827L74.3432 24.7135ZM85.454 19.2626L86.3341 19.7375L86.3371 19.7318L85.454 19.2626ZM87.1552 17.4517L86.6513 16.5879L86.645 16.5917L87.1552 17.4517ZM91.8744 17.3786L91.3695 18.2417L91.8744 17.3786ZM93.3195 18.8053L92.4444 19.2894L94.3195 18.8053H93.3195ZM93.3195 16.9761V15.9761H92.3195V16.9761H93.3195ZM95.0023 16.9761H96.0023V15.9761H95.0023V16.9761ZM95.0023 27V28H96.0023V27H95.0023ZM93.3195 27H92.3195V28H93.3195V27ZM93.3195 25.1342H94.3195V21.3167L92.4479 24.644L93.3195 25.1342ZM91.8378 26.5976L92.3427 27.4608L92.3476 27.4579L91.8378 26.5976ZM87.1552 26.5061L86.6343 27.3598L87.1552 26.5061ZM85.454 24.6587L86.3401 24.1952L85.454 24.6587ZM91.6183 18.7139L91.1068 19.5731L91.1188 19.5803L91.131 19.5871L91.6183 18.7139ZM88.2161 18.6956L87.7199 17.8273L88.2161 18.6956ZM86.9905 19.976L87.8692 20.4535L86.9905 19.976ZM86.9905 23.9636L86.1076 24.4332L86.1119 24.4411L86.9905 23.9636ZM88.2161 25.2623L87.7046 26.1216L87.7122 26.1261L87.7199 26.1305L88.2161 25.2623ZM91.6183 25.2623L92.1145 26.1306L92.121 26.1268L91.6183 25.2623ZM92.8622 23.9636L93.7408 24.4411L93.745 24.4332L92.8622 23.9636ZM84.8321 21.9515H85.8321C85.8321 21.0641 86.0108 20.3365 86.334 19.7375L85.454 19.2626L84.574 18.7877C84.068 19.7253 83.8321 20.7902 83.8321 21.9515H84.8321ZM85.454 19.2626L86.3371 19.7318C86.6707 19.1038 87.1127 18.6396 87.6654 18.3118L87.1552 17.4517L86.645 16.5917C85.7586 17.1175 85.0665 17.8605 84.5709 18.7935L85.454 19.2626ZM87.1552 17.4517L87.659 18.3155C88.2299 17.9825 88.8654 17.8115 89.588 17.8115V16.8115V15.8115C88.5301 15.8115 87.5438 16.0673 86.6513 16.5879L87.1552 17.4517ZM89.588 16.8115V17.8115C90.3194 17.8115 90.9011 17.9677 91.3695 18.2417L91.8744 17.3786L92.3793 16.5154C91.5552 16.0333 90.6125 15.8115 89.588 15.8115V16.8115ZM91.8744 17.3786L91.3695 18.2417C91.8832 18.5422 92.2263 18.8951 92.4444 19.2894L93.3195 18.8053L94.1945 18.3213C93.7785 17.5693 93.1582 16.971 92.3793 16.5154L91.8744 17.3786ZM93.3195 18.8053H94.3195V16.9761H93.3195H92.3195V18.8053H93.3195ZM93.3195 16.9761V17.9761H95.0023V16.9761V15.9761H93.3195V16.9761ZM95.0023 16.9761H94.0023V27H95.0023H96.0023V16.9761H95.0023ZM95.0023 27V26H93.3195V27V28H95.0023V27ZM93.3195 27H94.3195V25.1342H93.3195H92.3195V27H93.3195ZM93.3195 25.1342L92.4479 24.644C92.2161 25.056 91.857 25.4238 91.328 25.7373L91.8378 26.5976L92.3476 27.4579C93.1357 26.9909 93.7643 26.3832 94.191 25.6245L93.3195 25.1342ZM91.8378 26.5976L91.333 25.7344C90.8624 26.0096 90.2861 26.1646 89.5697 26.1646V27.1646V28.1646C90.5848 28.1646 91.5207 27.9416 92.3427 27.4608L91.8378 26.5976ZM89.5697 27.1646V26.1646C88.8525 26.1646 88.2297 25.9903 87.676 25.6525L87.1552 26.5061L86.6343 27.3598C87.5196 27.8999 88.5065 28.1646 89.5697 28.1646V27.1646ZM87.1552 26.5061L87.676 25.6525C87.121 25.3138 86.676 24.8373 86.3401 24.1952L85.454 24.6587L84.5679 25.1222C85.0613 26.0653 85.7503 26.8204 86.6343 27.3598L87.1552 26.5061ZM85.454 24.6587L86.3401 24.1952C86.0097 23.5634 85.8321 22.8237 85.8321 21.9515H84.8321H83.8321C83.8321 23.1036 84.0691 24.1686 84.5679 25.1222L85.454 24.6587ZM93.3195 21.9698H94.3195C94.3195 21.0777 94.1388 20.2491 93.7408 19.5168L92.8622 19.9943L91.9835 20.4718C92.1953 20.8614 92.3195 21.3498 92.3195 21.9698H93.3195ZM92.8622 19.9943L93.7408 19.5168C93.3515 18.8005 92.8059 18.2315 92.1057 17.8407L91.6183 18.7139L91.131 19.5871C91.4795 19.7816 91.7631 20.0661 91.9835 20.4718L92.8622 19.9943ZM91.6183 18.7139L92.1298 17.8546C91.4561 17.4535 90.711 17.2566 89.9172 17.2566V18.2566V19.2566C90.3672 19.2566 90.7563 19.3645 91.1068 19.5731L91.6183 18.7139ZM89.9172 18.2566V17.2566C89.1311 17.2566 88.3915 17.4436 87.7199 17.8273L88.2161 18.6956L88.7122 19.5638C89.065 19.3622 89.4595 19.2566 89.9172 19.2566V18.2566ZM88.2161 18.6956L87.7199 17.8273C87.0332 18.2197 86.4979 18.7882 86.1119 19.4985L86.9905 19.976L87.8692 20.4535C88.0929 20.0418 88.3746 19.7567 88.7122 19.5638L88.2161 18.6956ZM86.9905 19.976L86.1119 19.4985C85.7139 20.2308 85.5332 21.0594 85.5332 21.9515H86.5332H87.5332C87.5332 21.3315 87.6574 20.8431 87.8692 20.4535L86.9905 19.976ZM86.5332 21.9515H85.5332C85.5332 22.8535 85.7129 23.6911 86.1077 24.4332L86.9905 23.9636L87.8734 23.494C87.6584 23.0898 87.5332 22.586 87.5332 21.9515H86.5332ZM86.9905 23.9636L86.1119 24.4411C86.4963 25.1483 87.0269 25.7182 87.7046 26.1216L88.2161 25.2623L88.7276 24.403C88.3809 24.1966 88.0945 23.9007 87.8692 23.4861L86.9905 23.9636ZM88.2161 25.2623L87.7199 26.1305C88.3915 26.5143 89.1311 26.7013 89.9172 26.7013V25.7013V24.7013C89.4595 24.7013 89.065 24.5956 88.7122 24.394L88.2161 25.2623ZM89.9172 25.7013V26.7013C90.7033 26.7013 91.4429 26.5143 92.1145 26.1305L91.6183 25.2623L91.1222 24.394C90.7694 24.5956 90.3749 24.7013 89.9172 24.7013V25.7013ZM91.6183 25.2623L92.121 26.1268C92.8122 25.7249 93.3532 25.1542 93.7408 24.4411L92.8622 23.9636L91.9835 23.4861C91.7614 23.8948 91.4732 24.19 91.1157 24.3978L91.6183 25.2623ZM92.8622 23.9636L93.745 24.4332C94.1386 23.6933 94.3195 22.8625 94.3195 21.9698H93.3195H92.3195C92.3195 22.5891 92.1955 23.0875 91.9793 23.494L92.8622 23.9636ZM99.4798 13.4641H100.48V12.4641H99.4798V13.4641ZM99.4798 27V28H100.48V27H99.4798ZM97.8152 27H96.8152V28H97.8152V27ZM97.8152 13.4641V12.4641H96.8152V13.4641H97.8152ZM99.4798 13.4641H98.4798V27H99.4798H100.48V13.4641H99.4798ZM99.4798 27V26H97.8152V27V28H99.4798V27ZM97.8152 27H98.8152V13.4641H97.8152H96.8152V27H97.8152ZM97.8152 13.4641V14.4641H99.4798V13.4641V12.4641H97.8152V13.4641ZM102.317 19.2626L103.197 19.7375L103.2 19.7318L102.317 19.2626ZM104.018 17.4517L103.514 16.5879L103.508 16.5917L104.018 17.4517ZM108.737 17.3786L108.232 18.2417L108.737 17.3786ZM110.182 18.8053L109.307 19.2894L111.182 18.8053H110.182ZM110.182 16.9761V15.9761H109.182V16.9761H110.182ZM111.865 16.9761H112.865V15.9761H111.865V16.9761ZM111.865 27V28H112.865V27H111.865ZM110.182 27H109.182V28H110.182V27ZM110.182 25.1342H111.182V21.3167L109.311 24.644L110.182 25.1342ZM108.701 26.5976L109.205 27.4608L109.21 27.4579L108.701 26.5976ZM104.018 26.5061L103.497 27.3598L104.018 26.5061ZM102.317 24.6587L103.203 24.1952L102.317 24.6587ZM108.481 18.7139L107.97 19.5731L107.981 19.5803L107.994 19.5871L108.481 18.7139ZM105.079 18.6956L104.583 17.8273H104.583L105.079 18.6956ZM103.853 19.976L104.732 20.4535L103.853 19.976ZM103.853 23.9636L102.97 24.4332L102.975 24.4411L103.853 23.9636ZM105.079 25.2623L104.567 26.1216L104.575 26.1261L104.583 26.1305L105.079 25.2623ZM108.481 25.2623L108.977 26.1306L108.984 26.1268L108.481 25.2623ZM109.725 23.9636L110.604 24.4411L110.608 24.4332L109.725 23.9636ZM101.695 21.9515H102.695C102.695 21.0641 102.873 20.3365 103.197 19.7375L102.317 19.2626L101.437 18.7877C100.931 19.7253 100.695 20.7902 100.695 21.9515H101.695ZM102.317 19.2626L103.2 19.7318C103.533 19.1038 103.975 18.6396 104.528 18.3118L104.018 17.4517L103.508 16.5917C102.621 17.1175 101.929 17.8605 101.434 18.7935L102.317 19.2626ZM104.018 17.4517L104.522 18.3155C105.093 17.9825 105.728 17.8115 106.451 17.8115V16.8115V15.8115C105.393 15.8115 104.406 16.0673 103.514 16.5879L104.018 17.4517ZM106.451 16.8115V17.8115C107.182 17.8115 107.764 17.9677 108.232 18.2417L108.737 17.3786L109.242 16.5154C108.418 16.0333 107.475 15.8115 106.451 15.8115V16.8115ZM108.737 17.3786L108.232 18.2417C108.746 18.5422 109.089 18.8951 109.307 19.2894L110.182 18.8053L111.057 18.3213C110.641 17.5693 110.021 16.971 109.242 16.5154L108.737 17.3786ZM110.182 18.8053H111.182V16.9761H110.182H109.182V18.8053H110.182ZM110.182 16.9761V17.9761H111.865V16.9761V15.9761H110.182V16.9761ZM111.865 16.9761H110.865V27H111.865H112.865V16.9761H111.865ZM111.865 27V26H110.182V27V28H111.865V27ZM110.182 27H111.182V25.1342H110.182H109.182V27H110.182ZM110.182 25.1342L109.311 24.644C109.079 25.056 108.72 25.4238 108.191 25.7373L108.701 26.5976L109.21 27.4579C109.998 26.9909 110.627 26.3832 111.054 25.6245L110.182 25.1342ZM108.701 26.5976L108.196 25.7344C107.725 26.0096 107.149 26.1646 106.432 26.1646V27.1646V28.1646C107.447 28.1646 108.383 27.9416 109.205 27.4608L108.701 26.5976ZM106.432 27.1646V26.1646C105.715 26.1646 105.092 25.9903 104.539 25.6525L104.018 26.5061L103.497 27.3598C104.382 27.8999 105.369 28.1646 106.432 28.1646V27.1646ZM104.018 26.5061L104.539 25.6525C103.984 25.3138 103.539 24.8373 103.203 24.1952L102.317 24.6587L101.431 25.1222C101.924 26.0653 102.613 26.8204 103.497 27.3598L104.018 26.5061ZM102.317 24.6587L103.203 24.1952C102.872 23.5634 102.695 22.8237 102.695 21.9515H101.695H100.695C100.695 23.1036 100.932 24.1686 101.431 25.1222L102.317 24.6587ZM110.182 21.9698H111.182C111.182 21.0777 111.001 20.2491 110.603 19.5168L109.725 19.9943L108.846 20.4718C109.058 20.8614 109.182 21.3498 109.182 21.9698H110.182ZM109.725 19.9943L110.603 19.5168C110.214 18.8005 109.669 18.2315 108.968 17.8407L108.481 18.7139L107.994 19.5871C108.342 19.7816 108.626 20.0661 108.846 20.4718L109.725 19.9943ZM108.481 18.7139L108.992 17.8546C108.319 17.4535 107.574 17.2566 106.78 17.2566V18.2566V19.2566C107.23 19.2566 107.619 19.3645 107.97 19.5731L108.481 18.7139ZM106.78 18.2566V17.2566C105.994 17.2566 105.254 17.4436 104.583 17.8273L105.079 18.6956L105.575 19.5638C105.928 19.3622 106.322 19.2566 106.78 19.2566V18.2566ZM105.079 18.6956L104.583 17.8273C103.896 18.2197 103.361 18.7882 102.975 19.4985L103.853 19.976L104.732 20.4535C104.956 20.0418 105.237 19.7567 105.575 19.5638L105.079 18.6956ZM103.853 19.976L102.975 19.4985C102.577 20.2308 102.396 21.0594 102.396 21.9515H103.396H104.396C104.396 21.3315 104.52 20.8431 104.732 20.4535L103.853 19.976ZM103.396 21.9515H102.396C102.396 22.8535 102.576 23.6911 102.97 24.4332L103.853 23.9636L104.736 23.494C104.521 23.0898 104.396 22.586 104.396 21.9515H103.396ZM103.853 23.9636L102.975 24.4411C103.359 25.1483 103.89 25.7182 104.567 26.1216L105.079 25.2623L105.59 24.403C105.244 24.1966 104.957 23.9007 104.732 23.4861L103.853 23.9636ZM105.079 25.2623L104.583 26.1305C105.254 26.5143 105.994 26.7013 106.78 26.7013V25.7013V24.7013C106.322 24.7013 105.928 24.5956 105.575 24.394L105.079 25.2623ZM106.78 25.7013V26.7013C107.566 26.7013 108.306 26.5143 108.977 26.1305L108.481 25.2623L107.985 24.394C107.632 24.5956 107.238 24.7013 106.78 24.7013V25.7013ZM108.481 25.2623L108.984 26.1268C109.675 25.7249 110.216 25.1542 110.603 24.4411L109.725 23.9636L108.846 23.4861C108.624 23.8948 108.336 24.19 107.978 24.3978L108.481 25.2623ZM109.725 23.9636L110.608 24.4332C111.001 23.6933 111.182 22.8625 111.182 21.9698H110.182H109.182C109.182 22.5891 109.058 23.0875 108.842 23.494L109.725 23.9636Z" fill="url(#paint1_linear_392_1566)" mask="url(#path-2-outside-1_392_1566)"></path><defs><linearGradient id="paint0_linear_392_1566" x1="84" y1="0" x2="84" y2="41" gradientUnits="userSpaceOnUse"><stop stop-color="#808FB0"></stop><stop offset="1" stop-color="#141F47"></stop></linearGradient><linearGradient id="paint1_linear_392_1566" x1="84" y1="7" x2="84" y2="34" gradientUnits="userSpaceOnUse"><stop stop-color="#808FB0"></stop><stop offset="1" stop-color="#141F47"></stop></linearGradient></defs></svg>