<svg xmlns="http://www.w3.org/2000/svg" width="168" height="41" viewBox="0 0 168 41" fill="none"><rect x="0.5" y="0.5" width="167" height="40" rx="19.5" fill="#0F1435" stroke="url(#paint0_linear_392_1569)"></rect><mask id="path-2-outside-1_392_1569" maskUnits="userSpaceOnUse" x="33" y="12" width="101" height="17" fill="black"><rect fill="white" x="33" y="12" width="101" height="17"></rect><path d="M34.7865 20.6162C34.7865 19.3724 35.067 18.2566 35.628 17.2688C36.1889 16.2689 36.9511 15.4884 37.9144 14.9275C38.89 14.3665 39.9692 14.0861 41.1521 14.0861C42.5422 14.0861 43.7556 14.4214 44.7921 15.0921C45.8286 15.7628 46.5847 16.714 47.0603 17.9456H45.0665C44.7128 17.1774 44.2007 16.5859 43.53 16.1713C42.8715 15.7567 42.0788 15.5494 41.1521 15.5494C40.2619 15.5494 39.4631 15.7567 38.7558 16.1713C38.0486 16.5859 37.4937 17.1774 37.0913 17.9456C36.6889 18.7017 36.4877 19.5919 36.4877 20.6162C36.4877 21.6283 36.6889 22.5185 37.0913 23.2868C37.4937 24.0428 38.0486 24.6282 38.7558 25.0428C39.4631 25.4574 40.2619 25.6647 41.1521 25.6647C42.0788 25.6647 42.8715 25.4635 43.53 25.0611C44.2007 24.6465 44.7128 24.055 45.0665 23.2868H47.0603C46.5847 24.5062 45.8286 25.4513 44.7921 26.122C43.7556 26.7805 42.5422 27.1098 41.1521 27.1098C39.9692 27.1098 38.89 26.8354 37.9144 26.2866C36.9511 25.7257 36.1889 24.9513 35.628 23.9636C35.067 22.9758 34.7865 21.86 34.7865 20.6162ZM53.9098 27.1646C52.9708 27.1646 52.1172 26.9512 51.349 26.5244C50.5929 26.0976 49.9954 25.494 49.5564 24.7135C49.1296 23.9209 48.9162 23.0063 48.9162 21.9698C48.9162 20.9454 49.1357 20.0431 49.5747 19.2626C50.0259 18.47 50.6356 17.8663 51.4038 17.4517C52.1721 17.0249 53.0318 16.8115 53.983 16.8115C54.9342 16.8115 55.7939 17.0249 56.5621 17.4517C57.3304 17.8663 57.934 18.4639 58.373 19.2443C58.8242 20.0248 59.0498 20.9332 59.0498 21.9698C59.0498 23.0063 58.8181 23.9209 58.3547 24.7135C57.9035 25.494 57.2877 26.0976 56.5072 26.5244C55.7268 26.9512 54.861 27.1646 53.9098 27.1646ZM53.9098 25.7013C54.5073 25.7013 55.0683 25.5611 55.5927 25.2806C56.117 25.0001 56.5377 24.5794 56.8548 24.0185C57.184 23.4575 57.3487 22.7746 57.3487 21.9698C57.3487 21.1649 57.1901 20.4821 56.8731 19.9211C56.556 19.3602 56.1414 18.9455 55.6292 18.6773C55.1171 18.3968 54.5622 18.2566 53.9647 18.2566C53.355 18.2566 52.794 18.3968 52.2819 18.6773C51.7819 18.9455 51.3795 19.3602 51.0746 19.9211C50.7697 20.4821 50.6173 21.1649 50.6173 21.9698C50.6173 22.7868 50.7636 23.4758 51.0563 24.0367C51.3612 24.5977 51.7636 25.0184 52.2636 25.2989C52.7635 25.5671 53.3123 25.7013 53.9098 25.7013ZM66.1222 16.7932C67.3417 16.7932 68.3294 17.1652 69.0855 17.909C69.8416 18.6407 70.2196 19.7016 70.2196 21.0918V27H68.5733V21.3296C68.5733 20.3296 68.3234 19.5675 67.8234 19.0431C67.3234 18.5065 66.6405 18.2383 65.7747 18.2383C64.8967 18.2383 64.1955 18.5126 63.6712 19.0614C63.159 19.6101 62.9029 20.4089 62.9029 21.4576V27H61.2384V16.9761H62.9029V18.4029C63.2322 17.8907 63.6773 17.4944 64.2382 17.2139C64.8113 16.9335 65.4394 16.7932 66.1222 16.7932ZM76.6701 25.4635L79.7797 16.9761H81.554L77.6213 27H75.6824L71.7497 16.9761H73.5423L76.6701 25.4635ZM92.3378 21.6039C92.3378 21.921 92.3195 22.2563 92.283 22.61H84.2712C84.3322 23.5977 84.6675 24.3721 85.2772 24.933C85.8992 25.4818 86.6491 25.7562 87.5271 25.7562C88.2466 25.7562 88.8441 25.5915 89.3197 25.2623C89.8075 24.9208 90.1489 24.4696 90.344 23.9087H92.1366C91.8684 24.8721 91.3318 25.6586 90.527 26.2683C89.7221 26.8659 88.7222 27.1646 87.5271 27.1646C86.576 27.1646 85.7223 26.9512 84.9663 26.5244C84.2224 26.0976 83.6371 25.494 83.2103 24.7135C82.7835 23.9209 82.5701 23.0063 82.5701 21.9698C82.5701 20.9332 82.7774 20.0248 83.192 19.2443C83.6066 18.4639 84.1858 17.8663 84.9297 17.4517C85.6858 17.0249 86.5516 16.8115 87.5271 16.8115C88.4783 16.8115 89.3197 17.0188 90.0514 17.4334C90.783 17.848 91.344 18.4212 91.7342 19.1529C92.1366 19.8723 92.3378 20.6894 92.3378 21.6039ZM90.6184 21.2564C90.6184 20.6223 90.4782 20.0796 90.1977 19.6284C89.9172 19.165 89.5331 18.8175 89.0453 18.5858C88.5697 18.3419 88.0393 18.22 87.454 18.22C86.6125 18.22 85.8931 18.4883 85.2955 19.0248C84.7102 19.5614 84.3748 20.3052 84.2895 21.2564H90.6184ZM96.1995 18.6041C96.4922 18.031 96.9068 17.5859 97.4434 17.2688C97.9921 16.9518 98.6567 16.7932 99.4372 16.7932V18.5126H98.9982C97.1324 18.5126 96.1995 19.5248 96.1995 21.5491V27H94.535V16.9761H96.1995V18.6041ZM104.907 27.1646C104.139 27.1646 103.45 27.0366 102.84 26.7805C102.231 26.5122 101.749 26.1464 101.395 25.683C101.042 25.2074 100.846 24.6648 100.81 24.055H102.529C102.578 24.555 102.81 24.9635 103.224 25.2806C103.651 25.5976 104.206 25.7562 104.889 25.7562C105.523 25.7562 106.023 25.6159 106.389 25.3355C106.755 25.055 106.938 24.7013 106.938 24.2745C106.938 23.8355 106.743 23.5124 106.352 23.3051C105.962 23.0856 105.358 22.8722 104.541 22.6649C103.798 22.4698 103.188 22.2746 102.712 22.0795C102.249 21.8722 101.846 21.5735 101.505 21.1832C101.176 20.7808 101.011 20.2565 101.011 19.6101C101.011 19.098 101.164 18.6285 101.468 18.2017C101.773 17.7749 102.206 17.4395 102.767 17.1956C103.328 16.9396 103.968 16.8115 104.688 16.8115C105.797 16.8115 106.694 17.092 107.377 17.6529C108.06 18.2139 108.425 18.9821 108.474 19.9577H106.81C106.773 19.4333 106.56 19.0126 106.169 18.6956C105.791 18.3785 105.279 18.22 104.633 18.22C104.035 18.22 103.56 18.348 103.206 18.6041C102.852 18.8602 102.676 19.1955 102.676 19.6101C102.676 19.9394 102.779 20.2138 102.987 20.4333C103.206 20.6406 103.474 20.8113 103.791 20.9454C104.121 21.0674 104.572 21.2076 105.145 21.3662C105.865 21.5613 106.45 21.7564 106.901 21.9515C107.352 22.1344 107.736 22.4149 108.053 22.7929C108.383 23.1709 108.553 23.6648 108.566 24.2745C108.566 24.8233 108.413 25.3172 108.108 25.7562C107.803 26.1952 107.371 26.5427 106.81 26.7988C106.261 27.0427 105.627 27.1646 104.907 27.1646ZM110.293 21.9515C110.293 20.9272 110.501 20.0309 110.915 19.2626C111.33 18.4822 111.897 17.8785 112.616 17.4517C113.348 17.0249 114.159 16.8115 115.049 16.8115C115.927 16.8115 116.689 17.0005 117.336 17.3786C117.982 17.7566 118.464 18.2322 118.781 18.8053V16.9761H120.464V27H118.781V25.1342C118.452 25.7196 117.958 26.2074 117.299 26.5976C116.653 26.9756 115.897 27.1646 115.031 27.1646C114.141 27.1646 113.336 26.9451 112.616 26.5061C111.897 26.0671 111.33 25.4513 110.915 24.6587C110.501 23.866 110.293 22.9636 110.293 21.9515ZM118.781 21.9698C118.781 21.2137 118.628 20.5552 118.324 19.9943C118.019 19.4333 117.604 19.0065 117.08 18.7139C116.567 18.409 116 18.2566 115.379 18.2566C114.757 18.2566 114.19 18.4029 113.677 18.6956C113.165 18.9882 112.757 19.415 112.452 19.976C112.147 20.5369 111.995 21.1954 111.995 21.9515C111.995 22.7197 112.147 23.3904 112.452 23.9636C112.757 24.5245 113.165 24.9574 113.677 25.2623C114.19 25.555 114.757 25.7013 115.379 25.7013C116 25.7013 116.567 25.555 117.08 25.2623C117.604 24.9574 118.019 24.5245 118.324 23.9636C118.628 23.3904 118.781 22.7258 118.781 21.9698ZM113.019 15.8969C113.104 15.275 113.305 14.7994 113.623 14.4702C113.952 14.1409 114.36 13.9763 114.848 13.9763C115.08 13.9763 115.275 14.019 115.433 14.1043C115.604 14.1775 115.805 14.2873 116.037 14.4336C116.208 14.5555 116.36 14.6531 116.494 14.7263C116.628 14.7872 116.775 14.8177 116.933 14.8177C117.141 14.8177 117.317 14.7506 117.464 14.6165C117.61 14.4824 117.702 14.2873 117.738 14.0312H118.689C118.616 14.6409 118.415 15.1104 118.086 15.4396C117.756 15.7689 117.348 15.9335 116.86 15.9335C116.628 15.9335 116.421 15.8969 116.238 15.8238C116.068 15.7384 115.872 15.6165 115.653 15.4579C115.458 15.336 115.299 15.2445 115.177 15.1836C115.068 15.1226 114.933 15.0921 114.775 15.0921C114.568 15.0921 114.391 15.1592 114.244 15.2933C114.11 15.4274 114.025 15.6287 113.988 15.8969H113.019ZM127.648 27.1646C126.709 27.1646 125.856 26.9512 125.087 26.5244C124.331 26.0976 123.734 25.494 123.295 24.7135C122.868 23.9209 122.655 23.0063 122.655 21.9698C122.655 20.9454 122.874 20.0431 123.313 19.2626C123.764 18.47 124.374 17.8663 125.142 17.4517C125.911 17.0249 126.77 16.8115 127.721 16.8115C128.673 16.8115 129.532 17.0249 130.301 17.4517C131.069 17.8663 131.672 18.4639 132.111 19.2443C132.563 20.0248 132.788 20.9332 132.788 21.9698C132.788 23.0063 132.557 23.9209 132.093 24.7135C131.642 25.494 131.026 26.0976 130.246 26.5244C129.465 26.9512 128.599 27.1646 127.648 27.1646ZM127.648 25.7013C128.246 25.7013 128.807 25.5611 129.331 25.2806C129.855 25.0001 130.276 24.5794 130.593 24.0185C130.922 23.4575 131.087 22.7746 131.087 21.9698C131.087 21.1649 130.929 20.4821 130.612 19.9211C130.294 19.3602 129.88 18.9455 129.368 18.6773C128.856 18.3968 128.301 18.2566 127.703 18.2566C127.093 18.2566 126.532 18.3968 126.02 18.6773C125.52 18.9455 125.118 19.3602 124.813 19.9211C124.508 20.4821 124.356 21.1649 124.356 21.9698C124.356 22.7868 124.502 23.4758 124.795 24.0367C125.1 24.5977 125.502 25.0184 126.002 25.2989C126.502 25.5671 127.051 25.7013 127.648 25.7013Z"></path></mask><path d="M34.7865 20.6162C34.7865 19.3724 35.067 18.2566 35.628 17.2688C36.1889 16.2689 36.9511 15.4884 37.9144 14.9275C38.89 14.3665 39.9692 14.0861 41.1521 14.0861C42.5422 14.0861 43.7556 14.4214 44.7921 15.0921C45.8286 15.7628 46.5847 16.714 47.0603 17.9456H45.0665C44.7128 17.1774 44.2007 16.5859 43.53 16.1713C42.8715 15.7567 42.0788 15.5494 41.1521 15.5494C40.2619 15.5494 39.4631 15.7567 38.7558 16.1713C38.0486 16.5859 37.4937 17.1774 37.0913 17.9456C36.6889 18.7017 36.4877 19.5919 36.4877 20.6162C36.4877 21.6283 36.6889 22.5185 37.0913 23.2868C37.4937 24.0428 38.0486 24.6282 38.7558 25.0428C39.4631 25.4574 40.2619 25.6647 41.1521 25.6647C42.0788 25.6647 42.8715 25.4635 43.53 25.0611C44.2007 24.6465 44.7128 24.055 45.0665 23.2868H47.0603C46.5847 24.5062 45.8286 25.4513 44.7921 26.122C43.7556 26.7805 42.5422 27.1098 41.1521 27.1098C39.9692 27.1098 38.89 26.8354 37.9144 26.2866C36.9511 25.7257 36.1889 24.9513 35.628 23.9636C35.067 22.9758 34.7865 21.86 34.7865 20.6162ZM53.9098 27.1646C52.9708 27.1646 52.1172 26.9512 51.349 26.5244C50.5929 26.0976 49.9954 25.494 49.5564 24.7135C49.1296 23.9209 48.9162 23.0063 48.9162 21.9698C48.9162 20.9454 49.1357 20.0431 49.5747 19.2626C50.0259 18.47 50.6356 17.8663 51.4038 17.4517C52.1721 17.0249 53.0318 16.8115 53.983 16.8115C54.9342 16.8115 55.7939 17.0249 56.5621 17.4517C57.3304 17.8663 57.934 18.4639 58.373 19.2443C58.8242 20.0248 59.0498 20.9332 59.0498 21.9698C59.0498 23.0063 58.8181 23.9209 58.3547 24.7135C57.9035 25.494 57.2877 26.0976 56.5072 26.5244C55.7268 26.9512 54.861 27.1646 53.9098 27.1646ZM53.9098 25.7013C54.5073 25.7013 55.0683 25.5611 55.5927 25.2806C56.117 25.0001 56.5377 24.5794 56.8548 24.0185C57.184 23.4575 57.3487 22.7746 57.3487 21.9698C57.3487 21.1649 57.1901 20.4821 56.8731 19.9211C56.556 19.3602 56.1414 18.9455 55.6292 18.6773C55.1171 18.3968 54.5622 18.2566 53.9647 18.2566C53.355 18.2566 52.794 18.3968 52.2819 18.6773C51.7819 18.9455 51.3795 19.3602 51.0746 19.9211C50.7697 20.4821 50.6173 21.1649 50.6173 21.9698C50.6173 22.7868 50.7636 23.4758 51.0563 24.0367C51.3612 24.5977 51.7636 25.0184 52.2636 25.2989C52.7635 25.5671 53.3123 25.7013 53.9098 25.7013ZM66.1222 16.7932C67.3417 16.7932 68.3294 17.1652 69.0855 17.909C69.8416 18.6407 70.2196 19.7016 70.2196 21.0918V27H68.5733V21.3296C68.5733 20.3296 68.3234 19.5675 67.8234 19.0431C67.3234 18.5065 66.6405 18.2383 65.7747 18.2383C64.8967 18.2383 64.1955 18.5126 63.6712 19.0614C63.159 19.6101 62.9029 20.4089 62.9029 21.4576V27H61.2384V16.9761H62.9029V18.4029C63.2322 17.8907 63.6773 17.4944 64.2382 17.2139C64.8113 16.9335 65.4394 16.7932 66.1222 16.7932ZM76.6701 25.4635L79.7797 16.9761H81.554L77.6213 27H75.6824L71.7497 16.9761H73.5423L76.6701 25.4635ZM92.3378 21.6039C92.3378 21.921 92.3195 22.2563 92.283 22.61H84.2712C84.3322 23.5977 84.6675 24.3721 85.2772 24.933C85.8992 25.4818 86.6491 25.7562 87.5271 25.7562C88.2466 25.7562 88.8441 25.5915 89.3197 25.2623C89.8075 24.9208 90.1489 24.4696 90.344 23.9087H92.1366C91.8684 24.8721 91.3318 25.6586 90.527 26.2683C89.7221 26.8659 88.7222 27.1646 87.5271 27.1646C86.576 27.1646 85.7223 26.9512 84.9663 26.5244C84.2224 26.0976 83.6371 25.494 83.2103 24.7135C82.7835 23.9209 82.5701 23.0063 82.5701 21.9698C82.5701 20.9332 82.7774 20.0248 83.192 19.2443C83.6066 18.4639 84.1858 17.8663 84.9297 17.4517C85.6858 17.0249 86.5516 16.8115 87.5271 16.8115C88.4783 16.8115 89.3197 17.0188 90.0514 17.4334C90.783 17.848 91.344 18.4212 91.7342 19.1529C92.1366 19.8723 92.3378 20.6894 92.3378 21.6039ZM90.6184 21.2564C90.6184 20.6223 90.4782 20.0796 90.1977 19.6284C89.9172 19.165 89.5331 18.8175 89.0453 18.5858C88.5697 18.3419 88.0393 18.22 87.454 18.22C86.6125 18.22 85.8931 18.4883 85.2955 19.0248C84.7102 19.5614 84.3748 20.3052 84.2895 21.2564H90.6184ZM96.1995 18.6041C96.4922 18.031 96.9068 17.5859 97.4434 17.2688C97.9921 16.9518 98.6567 16.7932 99.4372 16.7932V18.5126H98.9982C97.1324 18.5126 96.1995 19.5248 96.1995 21.5491V27H94.535V16.9761H96.1995V18.6041ZM104.907 27.1646C104.139 27.1646 103.45 27.0366 102.84 26.7805C102.231 26.5122 101.749 26.1464 101.395 25.683C101.042 25.2074 100.846 24.6648 100.81 24.055H102.529C102.578 24.555 102.81 24.9635 103.224 25.2806C103.651 25.5976 104.206 25.7562 104.889 25.7562C105.523 25.7562 106.023 25.6159 106.389 25.3355C106.755 25.055 106.938 24.7013 106.938 24.2745C106.938 23.8355 106.743 23.5124 106.352 23.3051C105.962 23.0856 105.358 22.8722 104.541 22.6649C103.798 22.4698 103.188 22.2746 102.712 22.0795C102.249 21.8722 101.846 21.5735 101.505 21.1832C101.176 20.7808 101.011 20.2565 101.011 19.6101C101.011 19.098 101.164 18.6285 101.468 18.2017C101.773 17.7749 102.206 17.4395 102.767 17.1956C103.328 16.9396 103.968 16.8115 104.688 16.8115C105.797 16.8115 106.694 17.092 107.377 17.6529C108.06 18.2139 108.425 18.9821 108.474 19.9577H106.81C106.773 19.4333 106.56 19.0126 106.169 18.6956C105.791 18.3785 105.279 18.22 104.633 18.22C104.035 18.22 103.56 18.348 103.206 18.6041C102.852 18.8602 102.676 19.1955 102.676 19.6101C102.676 19.9394 102.779 20.2138 102.987 20.4333C103.206 20.6406 103.474 20.8113 103.791 20.9454C104.121 21.0674 104.572 21.2076 105.145 21.3662C105.865 21.5613 106.45 21.7564 106.901 21.9515C107.352 22.1344 107.736 22.4149 108.053 22.7929C108.383 23.1709 108.553 23.6648 108.566 24.2745C108.566 24.8233 108.413 25.3172 108.108 25.7562C107.803 26.1952 107.371 26.5427 106.81 26.7988C106.261 27.0427 105.627 27.1646 104.907 27.1646ZM110.293 21.9515C110.293 20.9272 110.501 20.0309 110.915 19.2626C111.33 18.4822 111.897 17.8785 112.616 17.4517C113.348 17.0249 114.159 16.8115 115.049 16.8115C115.927 16.8115 116.689 17.0005 117.336 17.3786C117.982 17.7566 118.464 18.2322 118.781 18.8053V16.9761H120.464V27H118.781V25.1342C118.452 25.7196 117.958 26.2074 117.299 26.5976C116.653 26.9756 115.897 27.1646 115.031 27.1646C114.141 27.1646 113.336 26.9451 112.616 26.5061C111.897 26.0671 111.33 25.4513 110.915 24.6587C110.501 23.866 110.293 22.9636 110.293 21.9515ZM118.781 21.9698C118.781 21.2137 118.628 20.5552 118.324 19.9943C118.019 19.4333 117.604 19.0065 117.08 18.7139C116.567 18.409 116 18.2566 115.379 18.2566C114.757 18.2566 114.19 18.4029 113.677 18.6956C113.165 18.9882 112.757 19.415 112.452 19.976C112.147 20.5369 111.995 21.1954 111.995 21.9515C111.995 22.7197 112.147 23.3904 112.452 23.9636C112.757 24.5245 113.165 24.9574 113.677 25.2623C114.19 25.555 114.757 25.7013 115.379 25.7013C116 25.7013 116.567 25.555 117.08 25.2623C117.604 24.9574 118.019 24.5245 118.324 23.9636C118.628 23.3904 118.781 22.7258 118.781 21.9698ZM113.019 15.8969C113.104 15.275 113.305 14.7994 113.623 14.4702C113.952 14.1409 114.36 13.9763 114.848 13.9763C115.08 13.9763 115.275 14.019 115.433 14.1043C115.604 14.1775 115.805 14.2873 116.037 14.4336C116.208 14.5555 116.36 14.6531 116.494 14.7263C116.628 14.7872 116.775 14.8177 116.933 14.8177C117.141 14.8177 117.317 14.7506 117.464 14.6165C117.61 14.4824 117.702 14.2873 117.738 14.0312H118.689C118.616 14.6409 118.415 15.1104 118.086 15.4396C117.756 15.7689 117.348 15.9335 116.86 15.9335C116.628 15.9335 116.421 15.8969 116.238 15.8238C116.068 15.7384 115.872 15.6165 115.653 15.4579C115.458 15.336 115.299 15.2445 115.177 15.1836C115.068 15.1226 114.933 15.0921 114.775 15.0921C114.568 15.0921 114.391 15.1592 114.244 15.2933C114.11 15.4274 114.025 15.6287 113.988 15.8969H113.019ZM127.648 27.1646C126.709 27.1646 125.856 26.9512 125.087 26.5244C124.331 26.0976 123.734 25.494 123.295 24.7135C122.868 23.9209 122.655 23.0063 122.655 21.9698C122.655 20.9454 122.874 20.0431 123.313 19.2626C123.764 18.47 124.374 17.8663 125.142 17.4517C125.911 17.0249 126.77 16.8115 127.721 16.8115C128.673 16.8115 129.532 17.0249 130.301 17.4517C131.069 17.8663 131.672 18.4639 132.111 19.2443C132.563 20.0248 132.788 20.9332 132.788 21.9698C132.788 23.0063 132.557 23.9209 132.093 24.7135C131.642 25.494 131.026 26.0976 130.246 26.5244C129.465 26.9512 128.599 27.1646 127.648 27.1646ZM127.648 25.7013C128.246 25.7013 128.807 25.5611 129.331 25.2806C129.855 25.0001 130.276 24.5794 130.593 24.0185C130.922 23.4575 131.087 22.7746 131.087 21.9698C131.087 21.1649 130.929 20.4821 130.612 19.9211C130.294 19.3602 129.88 18.9455 129.368 18.6773C128.856 18.3968 128.301 18.2566 127.703 18.2566C127.093 18.2566 126.532 18.3968 126.02 18.6773C125.52 18.9455 125.118 19.3602 124.813 19.9211C124.508 20.4821 124.356 21.1649 124.356 21.9698C124.356 22.7868 124.502 23.4758 124.795 24.0367C125.1 24.5977 125.502 25.0184 126.002 25.2989C126.502 25.5671 127.051 25.7013 127.648 25.7013Z" fill="#A8A8A8"></path><path d="M35.628 17.2688L36.4975 17.7626L36.5001 17.7581L35.628 17.2688ZM37.9144 14.9275L37.4159 14.0606L37.4112 14.0633L37.9144 14.9275ZM44.7921 15.0921L45.3354 14.2525L45.3354 14.2525L44.7921 15.0921ZM47.0603 17.9456V18.9456H48.5184L47.9932 17.5854L47.0603 17.9456ZM45.0665 17.9456L44.1581 18.3637L44.4259 18.9456H45.0665V17.9456ZM43.53 16.1713L42.9972 17.0176L43.0042 17.0219L43.53 16.1713ZM38.7558 16.1713L39.2616 17.034H39.2616L38.7558 16.1713ZM37.0913 17.9456L37.9741 18.4155L37.9771 18.4096L37.0913 17.9456ZM37.0913 23.2868L36.2054 23.7508L36.2086 23.7566L37.0913 23.2868ZM38.7558 25.0428L39.2616 24.1801H39.2616L38.7558 25.0428ZM43.53 25.0611L44.0514 25.9144L44.0558 25.9117L43.53 25.0611ZM45.0665 23.2868V22.2868H44.4259L44.1581 22.8686L45.0665 23.2868ZM47.0603 23.2868L47.9919 23.6501L48.5236 22.2868H47.0603V23.2868ZM44.7921 26.122L45.3284 26.9661L45.3354 26.9616L44.7921 26.122ZM37.9144 26.2866L37.4112 27.1508L37.4177 27.1545L37.4242 27.1582L37.9144 26.2866ZM35.628 23.9636L36.4975 23.4698L35.628 23.9636ZM34.7865 20.6162H35.7865C35.7865 19.5286 36.03 18.5858 36.4975 17.7626L35.628 17.2688L34.7584 16.775C34.104 17.9273 33.7865 19.2161 33.7865 20.6162H34.7865ZM35.628 17.2688L36.5001 17.7581C36.9763 16.9091 37.613 16.2601 38.4176 15.7916L37.9144 14.9275L37.4112 14.0633C36.2891 14.7167 35.4015 15.6286 34.7558 16.7796L35.628 17.2688ZM37.9144 14.9275L38.4129 15.7944C39.2289 15.3252 40.1348 15.0861 41.1521 15.0861V14.0861V13.0861C39.8036 13.0861 38.551 13.4079 37.416 14.0606L37.9144 14.9275ZM41.1521 14.0861V15.0861C42.3745 15.0861 43.394 15.3785 44.2489 15.9317L44.7921 15.0921L45.3354 14.2525C44.1172 13.4643 42.7099 13.0861 41.1521 13.0861V14.0861ZM44.7921 15.0921L44.2489 15.9317C45.0956 16.4795 45.7223 17.2566 46.1274 18.3058L47.0603 17.9456L47.9932 17.5854C47.4471 16.1713 46.5617 15.046 45.3354 14.2525L44.7921 15.0921ZM47.0603 17.9456V16.9456H45.0665V17.9456V18.9456H47.0603V17.9456ZM45.0665 17.9456L45.9749 17.5275C45.5453 16.5942 44.9061 15.8463 44.0558 15.3207L43.53 16.1713L43.0042 17.0219C43.4953 17.3255 43.8804 17.7605 44.1581 18.3637L45.0665 17.9456ZM43.53 16.1713L44.0628 15.3251C43.2165 14.7922 42.231 14.5494 41.1521 14.5494V15.5494V16.5494C41.9267 16.5494 42.5265 16.7212 42.9972 17.0175L43.53 16.1713ZM41.1521 15.5494V14.5494C40.0998 14.5494 39.1238 14.7964 38.2501 15.3086L38.7558 16.1713L39.2616 17.034C39.8024 16.7169 40.4239 16.5494 41.1521 16.5494V15.5494ZM38.7558 16.1713L38.2501 15.3086C37.3718 15.8235 36.6895 16.5575 36.2055 17.4816L37.0913 17.9456L37.9771 18.4096C38.2979 17.7972 38.7253 17.3484 39.2616 17.034L38.7558 16.1713ZM37.0913 17.9456L36.2086 17.4758C35.7154 18.4023 35.4877 19.46 35.4877 20.6162H36.4877H37.4877C37.4877 19.7238 37.6624 19.0011 37.974 18.4155L37.0913 17.9456ZM36.4877 20.6162H35.4877C35.4877 21.7629 35.7164 22.8172 36.2055 23.7508L37.0913 23.2868L37.9771 22.8228C37.6613 22.2199 37.4877 21.4938 37.4877 20.6162H36.4877ZM37.0913 23.2868L36.2086 23.7566C36.6938 24.6683 37.3759 25.393 38.2501 25.9055L38.7558 25.0428L39.2616 24.1801C38.7212 23.8633 38.2936 23.4173 37.974 22.8169L37.0913 23.2868ZM38.7558 25.0428L38.2501 25.9055C39.1238 26.4176 40.0998 26.6647 41.1521 26.6647V25.6647V24.6647C40.4239 24.6647 39.8024 24.4972 39.2616 24.1801L38.7558 25.0428ZM41.1521 25.6647V26.6647C42.2257 26.6647 43.207 26.4304 44.0514 25.9144L43.53 25.0611L43.0085 24.2078C42.536 24.4966 41.932 24.6647 41.1521 24.6647V25.6647ZM43.53 25.0611L44.0558 25.9117C44.9061 25.3861 45.5453 24.6382 45.9749 23.7049L45.0665 23.2868L44.1581 22.8686C43.8804 23.4719 43.4953 23.9069 43.0042 24.2105L43.53 25.0611ZM45.0665 23.2868V24.2868H47.0603V23.2868V22.2868H45.0665V23.2868ZM47.0603 23.2868L46.1286 22.9234C45.7244 23.9598 45.0982 24.7328 44.2489 25.2824L44.7921 26.122L45.3354 26.9616C46.5591 26.1698 47.445 25.0527 47.9919 23.6501L47.0603 23.2868ZM44.7921 26.122L44.2559 25.2779C43.4001 25.8216 42.3781 26.1098 41.1521 26.1098V27.1098V28.1098C42.7064 28.1098 44.1111 27.7394 45.3283 26.9661L44.7921 26.122ZM41.1521 27.1098V26.1098C40.1308 26.1098 39.222 25.8748 38.4047 25.415L37.9144 26.2866L37.4242 27.1582C38.558 27.796 39.8076 28.1098 41.1521 28.1098V27.1098ZM37.9144 26.2866L38.4176 25.4224C37.61 24.9522 36.9729 24.3069 36.4975 23.4698L35.628 23.9636L34.7584 24.4574C35.4049 25.5957 36.2922 26.4992 37.4112 27.1508L37.9144 26.2866ZM35.628 23.9636L36.4975 23.4698C36.03 22.6466 35.7865 21.7038 35.7865 20.6162H34.7865H33.7865C33.7865 22.0163 34.104 23.3051 34.7584 24.4574L35.628 23.9636ZM51.349 26.5244L50.8574 27.3953L50.8633 27.3986L51.349 26.5244ZM49.5564 24.7135L48.6759 25.1876L48.6803 25.1958L48.6848 25.2038L49.5564 24.7135ZM49.5747 19.2626L48.7056 18.7679L48.7031 18.7723L49.5747 19.2626ZM51.4038 17.4517L51.8788 18.3318L51.8895 18.3259L51.4038 17.4517ZM56.5621 17.4517L56.0764 18.3259L56.0872 18.3317L56.5621 17.4517ZM58.373 19.2443L57.5014 19.7346L57.5073 19.7448L58.373 19.2443ZM58.3547 24.7135L57.4914 24.2088L57.489 24.213L58.3547 24.7135ZM56.5072 26.5244L56.987 27.4018H56.9871L56.5072 26.5244ZM56.8548 24.0185L55.9924 23.5123L55.9882 23.5193L55.9842 23.5264L56.8548 24.0185ZM55.6292 18.6773L55.1489 19.5544L55.157 19.5588L55.1652 19.5631L55.6292 18.6773ZM52.2819 18.6773L52.7547 19.5585L52.7622 19.5544L52.2819 18.6773ZM51.0746 19.9211L51.9532 20.3986L51.0746 19.9211ZM51.0563 24.0367L50.1697 24.4993L50.1736 24.5068L50.1777 24.5143L51.0563 24.0367ZM52.2636 25.2989L51.7743 26.171L51.7825 26.1756L51.7907 26.18L52.2636 25.2989ZM53.9098 27.1646V26.1646C53.1288 26.1646 52.4442 25.9889 51.8346 25.6503L51.349 26.5244L50.8633 27.3986C51.7903 27.9135 52.8129 28.1646 53.9098 28.1646V27.1646ZM51.349 26.5244L51.8406 25.6536C51.2487 25.3195 50.7804 24.8498 50.428 24.2233L49.5564 24.7135L48.6848 25.2038C49.2104 26.1382 49.9371 26.8757 50.8574 27.3952L51.349 26.5244ZM49.5564 24.7135L50.4369 24.2394C50.0997 23.6132 49.9162 22.8661 49.9162 21.9698H48.9162H47.9162C47.9162 23.1465 48.1595 24.2286 48.6759 25.1876L49.5564 24.7135ZM48.9162 21.9698H49.9162C49.9162 21.0921 50.1029 20.3632 50.4463 19.7529L49.5747 19.2626L48.7031 18.7723C48.1684 19.7229 47.9162 20.7988 47.9162 21.9698H48.9162ZM49.5747 19.2626L50.4437 19.7573C50.8066 19.1198 51.283 18.6533 51.8788 18.3317L51.4038 17.4517L50.9289 16.5717C49.9882 17.0794 49.2451 17.8201 48.7056 18.7679L49.5747 19.2626ZM51.4038 17.4517L51.8895 18.3259C52.4971 17.9883 53.1874 17.8115 53.983 17.8115V16.8115V15.8115C52.8763 15.8115 51.8471 16.0615 50.9182 16.5776L51.4038 17.4517ZM53.983 16.8115V17.8115C54.7786 17.8115 55.4689 17.9883 56.0765 18.3259L56.5621 17.4517L57.0478 16.5776C56.1189 16.0615 55.0897 15.8115 53.983 15.8115V16.8115ZM56.5621 17.4517L56.0872 18.3317C56.6846 18.6541 57.1526 19.1145 57.5014 19.7346L58.373 19.2443L59.2446 18.7541C58.7154 17.8133 57.9762 17.0785 57.037 16.5717L56.5621 17.4517ZM58.373 19.2443L57.5073 19.7448C57.858 20.3516 58.0498 21.0823 58.0498 21.9698H59.0498H60.0498C60.0498 20.7842 59.7903 19.698 59.2387 18.7438L58.373 19.2443ZM59.0498 21.9698H58.0498C58.0498 22.8523 57.8542 23.5883 57.4914 24.2088L58.3547 24.7135L59.218 25.2182C59.782 24.2535 60.0498 23.1603 60.0498 21.9698H59.0498ZM58.3547 24.7135L57.489 24.213C57.1282 24.8371 56.6449 25.3094 56.0274 25.647L56.5072 26.5244L56.9871 27.4018C57.9305 26.8858 58.6788 26.1508 59.2204 25.214L58.3547 24.7135ZM56.5072 26.5244L56.0274 25.647C55.4043 25.9878 54.7053 26.1646 53.9098 26.1646V27.1646V28.1646C55.0167 28.1646 56.0493 27.9146 56.987 27.4018L56.5072 26.5244ZM53.9098 25.7013V26.7013C54.6711 26.7013 55.3941 26.5208 56.0643 26.1624L55.5927 25.2806L55.121 24.3988C54.7425 24.6013 54.3436 24.7013 53.9098 24.7013V25.7013ZM55.5927 25.2806L56.0643 26.1624C56.7699 25.785 57.3231 25.2222 57.7253 24.5105L56.8548 24.0185L55.9842 23.5264C55.7524 23.9366 55.4642 24.2152 55.121 24.3988L55.5927 25.2806ZM56.8548 24.0185L57.7172 24.5247C58.1556 23.7777 58.3487 22.9106 58.3487 21.9698H57.3487H56.3487C56.3487 22.6386 56.2124 23.1373 55.9924 23.5123L56.8548 24.0185ZM57.3487 21.9698H58.3487C58.3487 21.0349 58.1642 20.1731 57.7436 19.429L56.8731 19.9211L56.0025 20.4132C56.2161 20.791 56.3487 21.295 56.3487 21.9698H57.3487ZM56.8731 19.9211L57.7436 19.429C57.343 18.7203 56.7952 18.1591 56.0932 17.7914L55.6292 18.6773L55.1652 19.5631C55.4877 19.732 55.769 20 56.0025 20.4132L56.8731 19.9211ZM55.6292 18.6773L56.1096 17.8002C55.4466 17.4371 54.726 17.2566 53.9647 17.2566V18.2566V19.2566C54.3984 19.2566 54.7875 19.3565 55.1489 19.5544L55.6292 18.6773ZM53.9647 18.2566V17.2566C53.1948 17.2566 52.4676 17.4354 51.8015 17.8002L52.2819 18.6773L52.7622 19.5544C53.1205 19.3581 53.5152 19.2566 53.9647 19.2566V18.2566ZM52.2819 18.6773L51.809 17.7961C51.1164 18.1678 50.5819 18.7336 50.196 19.4436L51.0746 19.9211L51.9532 20.3986C52.1771 19.9867 52.4473 19.7233 52.7547 19.5584L52.2819 18.6773ZM51.0746 19.9211L50.196 19.4436C49.7933 20.1845 49.6173 21.0408 49.6173 21.9698H50.6173H51.6173C51.6173 21.2891 51.7461 20.7796 51.9532 20.3986L51.0746 19.9211ZM50.6173 21.9698H49.6173C49.6173 22.9024 49.784 23.76 50.1697 24.4993L51.0563 24.0367L51.9429 23.5742C51.7433 23.1915 51.6173 22.6712 51.6173 21.9698H50.6173ZM51.0563 24.0367L50.1777 24.5143C50.562 25.2214 51.0917 25.7881 51.7743 26.171L52.2636 25.2989L52.7528 24.4267C52.4355 24.2487 52.1603 23.974 51.9349 23.5592L51.0563 24.0367ZM52.2636 25.2989L51.7907 26.18C52.4439 26.5305 53.1563 26.7013 53.9098 26.7013V25.7013V24.7013C53.4682 24.7013 53.0832 24.6038 52.7364 24.4177L52.2636 25.2989ZM69.0855 17.909L68.3841 18.6219L68.3901 18.6276L69.0855 17.909ZM70.2196 27V28H71.2196V27H70.2196ZM68.5733 27H67.5733V28H68.5733V27ZM67.8234 19.0431L67.0917 19.7249L67.0996 19.7332L67.8234 19.0431ZM63.6712 19.0614L62.9481 18.3705L62.9401 18.3791L63.6712 19.0614ZM62.9029 27V28H63.9029V27H62.9029ZM61.2384 27H60.2384V28H61.2384V27ZM61.2384 16.9761V15.9761H60.2384V16.9761H61.2384ZM62.9029 16.9761H63.9029V15.9761H62.9029V16.9761ZM62.9029 18.4029H61.9029V21.8077L63.7441 18.9437L62.9029 18.4029ZM64.2382 17.2139L63.7986 16.3157L63.791 16.3195L64.2382 17.2139ZM66.1222 16.7932V17.7932C67.1218 17.7932 67.8434 18.0898 68.3842 18.6219L69.0855 17.909L69.7868 17.1962C68.8155 16.2405 67.5616 15.7932 66.1222 15.7932V16.7932ZM69.0855 17.909L68.3901 18.6276C68.8947 19.116 69.2196 19.8818 69.2196 21.0918H70.2196H71.2196C71.2196 19.5214 70.7884 18.1654 69.7809 17.1904L69.0855 17.909ZM70.2196 21.0918H69.2196V27H70.2196H71.2196V21.0918H70.2196ZM70.2196 27V26H68.5733V27V28H70.2196V27ZM68.5733 27H69.5733V21.3296H68.5733H67.5733V27H68.5733ZM68.5733 21.3296H69.5733C69.5733 20.1716 69.2826 19.1244 68.5471 18.353L67.8234 19.0431L67.0996 19.7332C67.3641 20.0105 67.5733 20.4876 67.5733 21.3296H68.5733ZM67.8234 19.0431L68.555 18.3614C67.8317 17.5851 66.8635 17.2383 65.7747 17.2383V18.2383V19.2383C66.4176 19.2383 66.8152 19.428 67.0918 19.7248L67.8234 19.0431ZM65.7747 18.2383V17.2383C64.6703 17.2383 63.6912 17.593 62.9482 18.3705L63.6712 19.0614L64.3941 19.7523C64.6998 19.4323 65.1231 19.2383 65.7747 19.2383V18.2383ZM63.6712 19.0614L62.9401 18.3791C62.1967 19.1756 61.9029 20.2567 61.9029 21.4576H62.9029H63.9029C63.9029 20.5611 64.1213 20.0447 64.4022 19.7437L63.6712 19.0614ZM62.9029 21.4576H61.9029V27H62.9029H63.9029V21.4576H62.9029ZM62.9029 27V26H61.2384V27V28H62.9029V27ZM61.2384 27H62.2384V16.9761H61.2384H60.2384V27H61.2384ZM61.2384 16.9761V17.9761H62.9029V16.9761V15.9761H61.2384V16.9761ZM62.9029 16.9761H61.9029V18.4029H62.9029H63.9029V16.9761H62.9029ZM62.9029 18.4029L63.7441 18.9437C63.9732 18.5873 64.2801 18.311 64.6854 18.1084L64.2382 17.2139L63.791 16.3195C63.0744 16.6778 62.4912 17.1941 62.0617 17.8621L62.9029 18.4029ZM64.2382 17.2139L64.6778 18.1122C65.1046 17.9033 65.5808 17.7932 66.1222 17.7932V16.7932V15.7932C65.2979 15.7932 64.5181 15.9636 63.7986 16.3157L64.2382 17.2139ZM76.6701 25.4635L75.7318 25.8093L76.6729 28.3628L77.6091 25.8075L76.6701 25.4635ZM79.7797 16.9761V15.9761H79.0811L78.8408 16.6321L79.7797 16.9761ZM81.554 16.9761L82.4849 17.3414L83.0206 15.9761H81.554V16.9761ZM77.6213 27V28H78.3032L78.5522 27.3652L77.6213 27ZM75.6824 27L74.7515 27.3652L75.0005 28H75.6824V27ZM71.7497 16.9761V15.9761H70.2831L70.8187 17.3414L71.7497 16.9761ZM73.5423 16.9761L74.4806 16.6303L74.2395 15.9761H73.5423V16.9761ZM76.6701 25.4635L77.6091 25.8075L80.7187 17.3202L79.7797 16.9761L78.8408 16.6321L75.7312 25.1195L76.6701 25.4635ZM79.7797 16.9761V17.9761H81.554V16.9761V15.9761H79.7797V16.9761ZM81.554 16.9761L80.6231 16.6109L76.6904 26.6348L77.6213 27L78.5522 27.3652L82.4849 17.3414L81.554 16.9761ZM77.6213 27V26H75.6824V27V28H77.6213V27ZM75.6824 27L76.6133 26.6348L72.6806 16.6109L71.7497 16.9761L70.8187 17.3414L74.7515 27.3652L75.6824 27ZM71.7497 16.9761V17.9761H73.5423V16.9761V15.9761H71.7497V16.9761ZM73.5423 16.9761L72.6039 17.3219L75.7318 25.8093L76.6701 25.4635L77.6084 25.1177L74.4806 16.6303L73.5423 16.9761ZM92.283 22.61V23.61H93.1849L93.2777 22.7129L92.283 22.61ZM84.2712 22.61V21.61H83.2076L83.2731 22.6716L84.2712 22.61ZM85.2772 24.933L84.6002 25.669L84.6078 25.676L84.6156 25.6829L85.2772 24.933ZM89.3197 25.2623L89.8889 26.0845L89.8932 26.0815L89.3197 25.2623ZM90.344 23.9087V22.9087H89.6331L89.3995 23.5802L90.344 23.9087ZM92.1366 23.9087L93.1 24.177L93.4532 22.9087H92.1366V23.9087ZM90.527 26.2683L91.1231 27.0713L91.1308 27.0654L90.527 26.2683ZM84.9663 26.5244L84.4686 27.3918L84.4747 27.3952L84.9663 26.5244ZM83.2103 24.7135L82.3298 25.1876L82.3329 25.1933L83.2103 24.7135ZM83.192 19.2443L84.0751 19.7135L83.192 19.2443ZM84.9297 17.4517L85.4166 18.3252L85.4213 18.3226L84.9297 17.4517ZM90.0514 17.4334L89.5584 18.3035V18.3035L90.0514 17.4334ZM91.7342 19.1529L90.8519 19.6234L90.8566 19.6323L90.8615 19.641L91.7342 19.1529ZM90.6184 21.2564V22.2564H91.6184V21.2564H90.6184ZM90.1977 19.6284L89.3422 20.1463L89.3484 20.1564L90.1977 19.6284ZM89.0453 18.5858L88.589 19.4756L88.6025 19.4826L88.6163 19.4891L89.0453 18.5858ZM85.2955 19.0248L84.6274 18.2807L84.6198 18.2877L85.2955 19.0248ZM84.2895 21.2564L83.2935 21.167L83.1957 22.2564H84.2895V21.2564ZM92.3378 21.6039H91.3378C91.3378 21.8828 91.3217 22.1836 91.2883 22.5071L92.283 22.61L93.2777 22.7129C93.3174 22.3291 93.3378 21.9592 93.3378 21.6039H92.3378ZM92.283 22.61V21.61H84.2712V22.61V23.61H92.283V22.61ZM84.2712 22.61L83.2731 22.6716C83.3467 23.8637 83.7643 24.9 84.6002 25.669L85.2772 24.933L85.9543 24.1971C85.5707 23.8442 85.3177 23.3317 85.2693 22.5484L84.2712 22.61ZM85.2772 24.933L84.6156 25.6829C85.4316 26.4028 86.421 26.7562 87.5271 26.7562V25.7562V24.7562C86.8772 24.7562 86.3667 24.5607 85.9389 24.1832L85.2772 24.933ZM87.5271 25.7562V26.7562C88.4 26.7562 89.2093 26.555 89.8889 26.0845L89.3197 25.2623L88.7505 24.4401C88.479 24.6281 88.0932 24.7562 87.5271 24.7562V25.7562ZM89.3197 25.2623L89.8932 26.0815C90.5527 25.6199 91.0242 24.9972 91.2885 24.2372L90.344 23.9087L89.3995 23.5802C89.2737 23.9421 89.0623 24.2218 88.7462 24.4431L89.3197 25.2623ZM90.344 23.9087V24.9087H92.1366V23.9087V22.9087H90.344V23.9087ZM92.1366 23.9087L91.1733 23.6404C90.9643 24.3907 90.5553 24.9923 89.9231 25.4712L90.527 26.2683L91.1308 27.0654C92.1083 26.3249 92.7724 25.3534 93.1 24.177L92.1366 23.9087ZM90.527 26.2683L89.9309 25.4654C89.3297 25.9118 88.5499 26.1646 87.5271 26.1646V27.1646V28.1646C88.8944 28.1646 90.1146 27.82 91.1231 27.0712L90.527 26.2683ZM87.5271 27.1646V26.1646C86.7313 26.1646 86.0499 25.9878 85.4579 25.6536L84.9663 26.5244L84.4747 27.3952C85.3948 27.9147 86.4206 28.1646 87.5271 28.1646V27.1646ZM84.9663 26.5244L85.464 25.657C84.8861 25.3255 84.4295 24.8588 84.0876 24.2337L83.2103 24.7135L82.3329 25.1933C82.8447 26.1292 83.5588 26.8697 84.4686 27.3918L84.9663 26.5244ZM83.2103 24.7135L84.0907 24.2394C83.7536 23.6132 83.5701 22.8661 83.5701 21.9698H82.5701H81.5701C81.5701 23.1465 81.8134 24.2286 82.3298 25.1876L83.2103 24.7135ZM82.5701 21.9698H83.5701C83.5701 21.0685 83.7495 20.3264 84.0751 19.7135L83.192 19.2443L82.3089 18.7752C81.8052 19.7232 81.5701 20.798 81.5701 21.9698H82.5701ZM83.192 19.2443L84.0751 19.7135C84.4029 19.0964 84.8475 18.6424 85.4166 18.3252L84.9297 17.4517L84.4428 16.5782C83.5241 17.0903 82.8103 17.8314 82.3089 18.7752L83.192 19.2443ZM84.9297 17.4517L85.4213 18.3226C86.0095 17.9905 86.7021 17.8115 87.5271 17.8115V16.8115V15.8115C86.401 15.8115 85.362 16.0594 84.4381 16.5809L84.9297 17.4517ZM87.5271 16.8115V17.8115C88.3285 17.8115 88.9959 17.9847 89.5584 18.3035L90.0514 17.4334L90.5444 16.5634C89.6435 16.0529 88.6281 15.8115 87.5271 15.8115V16.8115ZM90.0514 17.4334L89.5584 18.3035C90.1275 18.626 90.5522 19.0616 90.8519 19.6234L91.7342 19.1529L92.6166 18.6823C92.1357 17.7807 91.4386 17.0701 90.5444 16.5634L90.0514 17.4334ZM91.7342 19.1529L90.8615 19.641C91.1716 20.1955 91.3378 20.8412 91.3378 21.6039H92.3378H93.3378C93.3378 20.5376 93.1017 19.5492 92.607 18.6647L91.7342 19.1529ZM90.6184 21.2564H91.6184C91.6184 20.4722 91.4436 19.7385 91.047 19.1005L90.1977 19.6284L89.3484 20.1564C89.5128 20.4207 89.6184 20.7724 89.6184 21.2564H90.6184ZM90.1977 19.6284L91.0532 19.1106C90.6717 18.4803 90.1396 17.9985 89.4744 17.6825L89.0453 18.5858L88.6163 19.4891C88.9267 19.6365 89.1628 19.8498 89.3422 20.1462L90.1977 19.6284ZM89.0453 18.5858L89.5017 17.696C88.8718 17.373 88.1826 17.22 87.454 17.22V18.22V19.22C87.896 19.22 88.2677 19.3109 88.589 19.4756L89.0453 18.5858ZM87.454 18.22V17.22C86.3788 17.22 85.4178 17.571 84.6274 18.2808L85.2955 19.0248L85.9637 19.7689C86.3683 19.4055 86.8463 19.22 87.454 19.22V18.22ZM85.2955 19.0248L84.6198 18.2877C83.8149 19.0255 83.3964 20.0206 83.2935 21.167L84.2895 21.2564L85.2855 21.3458C85.3533 20.5898 85.6055 20.0972 85.9713 19.762L85.2955 19.0248ZM84.2895 21.2564V22.2564H90.6184V21.2564V20.2564H84.2895V21.2564ZM96.1995 18.6041H95.1995L97.0901 19.0589L96.1995 18.6041ZM97.4434 17.2688L96.9431 16.4029L96.9346 16.4079L97.4434 17.2688ZM99.4372 16.7932H100.437V15.7932H99.4372V16.7932ZM99.4372 18.5126V19.5126H100.437V18.5126H99.4372ZM96.1995 27V28H97.1995V27H96.1995ZM94.535 27H93.535V28H94.535V27ZM94.535 16.9761V15.9761H93.535V16.9761H94.535ZM96.1995 16.9761H97.1995V15.9761H96.1995V16.9761ZM96.1995 18.6041L97.0901 19.0589C97.2996 18.6488 97.5843 18.3471 97.9521 18.1297L97.4434 17.2688L96.9346 16.4079C96.2294 16.8246 95.6849 17.4131 95.3089 18.1493L96.1995 18.6041ZM97.4434 17.2688L97.9437 18.1347C98.3088 17.9237 98.792 17.7932 99.4372 17.7932V16.7932V15.7932C98.5214 15.7932 97.6754 15.9798 96.9431 16.4029L97.4434 17.2688ZM99.4372 16.7932H98.4372V18.5126H99.4372H100.437V16.7932H99.4372ZM99.4372 18.5126V17.5126H98.9982V18.5126V19.5126H99.4372V18.5126ZM98.9982 18.5126V17.5126C97.8892 17.5126 96.8799 17.8172 96.1639 18.594C95.4621 19.3554 95.1995 20.4021 95.1995 21.5491H96.1995H97.1995C97.1995 20.6718 97.4034 20.2002 97.6345 19.9495C97.8514 19.7141 98.2413 19.5126 98.9982 19.5126V18.5126ZM96.1995 21.5491H95.1995V27H96.1995H97.1995V21.5491H96.1995ZM96.1995 27V26H94.535V27V28H96.1995V27ZM94.535 27H95.535V16.9761H94.535H93.535V27H94.535ZM94.535 16.9761V17.9761H96.1995V16.9761V15.9761H94.535V16.9761ZM96.1995 16.9761H95.1995V18.6041H96.1995H97.1995V16.9761H96.1995ZM102.84 26.7805L102.438 27.6958L102.445 27.6992L102.453 27.7025L102.84 26.7805ZM101.395 25.683L100.593 26.2797L100.6 26.2897L101.395 25.683ZM100.81 24.055V23.055H99.7481L99.8117 24.1149L100.81 24.055ZM102.529 24.055L103.525 23.9579L103.437 23.055H102.529V24.055ZM103.224 25.2806L102.617 26.075L102.628 26.0833L103.224 25.2806ZM106.352 23.3051L105.862 24.1766L105.873 24.1825L105.883 24.1882L106.352 23.3051ZM104.541 22.6649L104.288 23.6322L104.295 23.6341L104.541 22.6649ZM102.712 22.0795L102.304 22.9923L102.318 22.9987L102.333 23.0047L102.712 22.0795ZM101.505 21.1832L100.731 21.8165L100.742 21.8293L100.752 21.8417L101.505 21.1832ZM101.468 18.2017L100.655 17.6204L101.468 18.2017ZM102.767 17.1956L103.166 18.1127L103.174 18.1091L103.182 18.1053L102.767 17.1956ZM107.377 17.6529L106.742 18.4257L107.377 17.6529ZM108.474 19.9577V20.9577H109.525L109.473 19.9078L108.474 19.9577ZM106.81 19.9577L105.812 20.0273L105.877 20.9577H106.81V19.9577ZM106.169 18.6956L105.527 19.4618L105.533 19.4668L105.539 19.4717L106.169 18.6956ZM103.206 18.6041L102.62 17.7942L103.206 18.6041ZM102.987 20.4333L102.26 21.1199L102.279 21.1407L102.3 21.1603L102.987 20.4333ZM103.791 20.9454L103.402 21.8664L103.423 21.8753L103.444 21.8832L103.791 20.9454ZM105.145 21.3662L104.878 22.33L104.883 22.3313L105.145 21.3662ZM106.901 21.9515L106.504 22.8693L106.515 22.8739L106.525 22.8782L106.901 21.9515ZM108.053 22.7929L107.287 23.4355L107.293 23.4427L107.299 23.4497L108.053 22.7929ZM108.566 24.2745H109.566V24.2645L109.565 24.2545L108.566 24.2745ZM108.108 25.7562L107.287 25.1858L108.108 25.7562ZM106.81 26.7988L107.216 27.7126L107.225 27.7085L106.81 26.7988ZM104.907 27.1646V26.1646C104.251 26.1646 103.696 26.0555 103.228 25.8585L102.84 26.7805L102.453 27.7025C103.204 28.0177 104.027 28.1646 104.907 28.1646V27.1646ZM102.84 26.7805L103.243 25.8652C102.766 25.6551 102.427 25.3872 102.19 25.0763L101.395 25.683L100.6 26.2897C101.07 26.9056 101.695 27.3693 102.438 27.6958L102.84 26.7805ZM101.395 25.683L102.198 25.0863C101.964 24.7718 101.833 24.417 101.808 23.9951L100.81 24.055L99.8117 24.1149C99.8596 24.9125 100.119 25.643 100.593 26.2797L101.395 25.683ZM100.81 24.055V25.055H102.529V24.055V23.055H100.81V24.055ZM102.529 24.055L101.534 24.1521C101.611 24.9402 101.992 25.5968 102.617 26.0749L103.224 25.2806L103.832 24.4862C103.628 24.3303 103.545 24.1698 103.525 23.9579L102.529 24.055ZM103.224 25.2806L102.628 26.0833C103.271 26.5608 104.053 26.7562 104.889 26.7562V25.7562V24.7562C104.359 24.7562 104.032 24.6345 103.821 24.4778L103.224 25.2806ZM104.889 25.7562V26.7562C105.662 26.7562 106.402 26.5856 106.997 26.1291L106.389 25.3355L105.78 24.5418C105.644 24.6462 105.384 24.7562 104.889 24.7562V25.7562ZM106.389 25.3355L106.997 26.1291C107.587 25.6769 107.938 25.0401 107.938 24.2745H106.938H105.938C105.938 24.3626 105.922 24.4331 105.78 24.5418L106.389 25.3355ZM106.938 24.2745H107.938C107.938 23.903 107.854 23.5275 107.647 23.1861C107.441 22.8449 107.149 22.5958 106.821 22.422L106.352 23.3051L105.883 24.1882C105.916 24.2057 105.932 24.2186 105.937 24.2233C105.941 24.2273 105.939 24.2261 105.935 24.2198C105.931 24.2135 105.931 24.2104 105.932 24.215C105.934 24.2205 105.938 24.2389 105.938 24.2745H106.938ZM106.352 23.3051L106.843 22.4335C106.335 22.1481 105.629 21.9091 104.787 21.6956L104.541 22.6649L104.295 23.6341C105.088 23.8353 105.589 24.023 105.862 24.1766L106.352 23.3051ZM104.541 22.6649L104.795 21.6976C104.075 21.5088 103.512 21.3266 103.092 21.1544L102.712 22.0795L102.333 23.0047C102.864 23.2227 103.52 23.4307 104.288 23.6321L104.541 22.6649ZM102.712 22.0795L103.121 21.1667C102.792 21.0196 102.506 20.8087 102.258 20.5247L101.505 21.1832L100.752 21.8417C101.187 22.3382 101.706 22.7248 102.304 22.9923L102.712 22.0795ZM101.505 21.1832L102.279 20.55C102.129 20.3663 102.011 20.0833 102.011 19.6101H101.011H100.011C100.011 20.4296 100.223 21.1953 100.731 21.8165L101.505 21.1832ZM101.011 19.6101H102.011C102.011 19.3117 102.095 19.0445 102.282 18.7829L101.468 18.2017L100.655 17.6204C100.232 18.2125 100.011 18.8842 100.011 19.6101H101.011ZM101.468 18.2017L102.282 18.7829C102.465 18.5266 102.743 18.2965 103.166 18.1127L102.767 17.1956L102.368 16.2786C101.669 16.5826 101.081 17.0232 100.655 17.6204L101.468 18.2017ZM102.767 17.1956L103.182 18.1053C103.593 17.9179 104.088 17.8115 104.688 17.8115V16.8115V15.8115C103.849 15.8115 103.063 15.9612 102.352 16.286L102.767 17.1956ZM104.688 16.8115V17.8115C105.627 17.8115 106.28 18.0461 106.742 18.4257L107.377 17.6529L108.011 16.8802C107.108 16.1379 105.968 15.8115 104.688 15.8115V16.8115ZM107.377 17.6529L106.742 18.4257C107.183 18.7878 107.439 19.2805 107.475 20.0076L108.474 19.9577L109.473 19.9078C109.412 18.6838 108.936 17.64 108.011 16.8802L107.377 17.6529ZM108.474 19.9577V18.9577H106.81V19.9577V20.9577H108.474V19.9577ZM106.81 19.9577L107.807 19.8881C107.752 19.1017 107.416 18.4198 106.8 17.9194L106.169 18.6956L105.539 19.4717C105.703 19.6054 105.794 19.7649 105.812 20.0273L106.81 19.9577ZM106.169 18.6956L106.812 17.9294C106.204 17.4198 105.44 17.22 104.633 17.22V18.22V19.22C105.118 19.22 105.378 19.3372 105.527 19.4618L106.169 18.6956ZM104.633 18.22V17.22C103.901 17.22 103.197 17.3764 102.62 17.7942L103.206 18.6041L103.793 19.414C103.923 19.3197 104.17 19.22 104.633 19.22V18.22ZM103.206 18.6041L102.62 17.7942C102.022 18.2266 101.676 18.8554 101.676 19.6101H102.676H103.676C103.676 19.5498 103.687 19.5248 103.693 19.5141C103.699 19.5015 103.721 19.4657 103.793 19.414L103.206 18.6041ZM102.676 19.6101H101.676C101.676 20.1695 101.86 20.6972 102.26 21.1199L102.987 20.4333L103.714 19.7467C103.698 19.7303 103.676 19.7093 103.676 19.6101H102.676ZM102.987 20.4333L102.3 21.1603C102.617 21.4601 102.99 21.6923 103.402 21.8664L103.791 20.9454L104.181 20.0245C103.959 19.9303 103.795 19.8211 103.673 19.7063L102.987 20.4333ZM103.791 20.9454L103.444 21.8832C103.812 22.0194 104.294 22.1683 104.878 22.33L105.145 21.3662L105.412 20.4023C104.85 20.247 104.43 20.1154 104.139 20.0077L103.791 20.9454ZM105.145 21.3662L104.883 22.3313C105.578 22.5196 106.113 22.7002 106.504 22.8693L106.901 21.9515L107.298 21.0336C106.787 20.8125 106.151 20.603 105.407 20.401L105.145 21.3662ZM106.901 21.9515L106.525 22.8782C106.823 22.9989 107.074 23.1809 107.287 23.4355L108.053 22.7929L108.82 22.1503C108.399 21.6488 107.881 21.2699 107.277 21.0247L106.901 21.9515ZM108.053 22.7929L107.299 23.4497C107.443 23.6148 107.557 23.8666 107.566 24.2945L108.566 24.2745L109.565 24.2545C109.55 23.463 109.322 22.7271 108.808 22.1361L108.053 22.7929ZM108.566 24.2745H107.566C107.566 24.6252 107.472 24.9189 107.287 25.1858L108.108 25.7562L108.93 26.3266C109.354 25.7154 109.566 25.0214 109.566 24.2745H108.566ZM108.108 25.7562L107.287 25.1858C107.099 25.4558 106.817 25.696 106.394 25.8891L106.81 26.7988L107.225 27.7085C107.924 27.3895 108.507 26.9345 108.93 26.3266L108.108 25.7562ZM106.81 26.7988L106.403 25.885C106.005 26.0619 105.514 26.1646 104.907 26.1646V27.1646V28.1646C105.739 28.1646 106.516 28.0234 107.216 27.7126L106.81 26.7988ZM110.915 19.2626L111.795 19.7375L111.798 19.7318L110.915 19.2626ZM112.616 17.4517L112.113 16.5879L112.106 16.5917L112.616 17.4517ZM117.336 17.3786L116.831 18.2417L117.336 17.3786ZM118.781 18.8053L117.906 19.2894L119.781 18.8053H118.781ZM118.781 16.9761V15.9761H117.781V16.9761H118.781ZM120.464 16.9761H121.464V15.9761H120.464V16.9761ZM120.464 27V28H121.464V27H120.464ZM118.781 27H117.781V28H118.781V27ZM118.781 25.1342H119.781V21.3167L117.909 24.644L118.781 25.1342ZM117.299 26.5976L117.804 27.4608L117.809 27.4579L117.299 26.5976ZM112.616 26.5061L112.096 27.3598L112.616 26.5061ZM110.915 24.6587L111.801 24.1952L110.915 24.6587ZM117.08 18.7139L116.568 19.5731L116.58 19.5803L116.592 19.5871L117.08 18.7139ZM113.677 18.6956L113.181 17.8273L113.677 18.6956ZM112.452 19.976L113.33 20.4535L112.452 19.976ZM112.452 23.9636L111.569 24.4332L111.573 24.4411L112.452 23.9636ZM113.677 25.2623L113.166 26.1216L113.174 26.1261L113.181 26.1305L113.677 25.2623ZM117.08 25.2623L117.576 26.1306L117.582 26.1268L117.08 25.2623ZM118.324 23.9636L119.202 24.4411L119.206 24.4332L118.324 23.9636ZM113.019 15.8969L112.028 15.761L111.872 16.8969H113.019V15.8969ZM113.623 14.4702L112.915 13.7631L112.909 13.7697L112.902 13.7765L113.623 14.4702ZM115.433 14.1043L114.959 14.9848L114.999 15.0059L115.039 15.0235L115.433 14.1043ZM116.037 14.4336L116.618 13.6199L116.595 13.6033L116.571 13.5881L116.037 14.4336ZM116.494 14.7263L116.015 15.6042L116.047 15.6216L116.081 15.6366L116.494 14.7263ZM117.464 14.6165L116.788 13.8794V13.8794L117.464 14.6165ZM117.738 14.0312V13.0312H116.871L116.748 13.8898L117.738 14.0312ZM118.689 14.0312L119.682 14.1503L119.817 13.0312H118.689V14.0312ZM118.086 15.4396L117.379 14.7325V14.7325L118.086 15.4396ZM116.238 15.8238L115.791 16.7182L115.828 16.7368L115.867 16.7522L116.238 15.8238ZM115.653 15.4579L116.238 14.6473L116.211 14.6277L116.183 14.6099L115.653 15.4579ZM115.177 15.1836L114.692 16.0577L114.711 16.0683L114.73 16.078L115.177 15.1836ZM114.244 15.2933L113.569 14.5561L113.553 14.5708L113.537 14.5862L114.244 15.2933ZM113.988 15.8969V16.8969H114.861L114.979 16.032L113.988 15.8969ZM110.293 21.9515H111.293C111.293 21.0641 111.472 20.3365 111.795 19.7375L110.915 19.2626L110.035 18.7877C109.529 19.7253 109.293 20.7902 109.293 21.9515H110.293ZM110.915 19.2626L111.798 19.7318C112.132 19.1038 112.574 18.6396 113.127 18.3118L112.616 17.4517L112.106 16.5917C111.22 17.1175 110.528 17.8605 110.032 18.7935L110.915 19.2626ZM112.616 17.4517L113.12 18.3155C113.691 17.9825 114.327 17.8115 115.049 17.8115V16.8115V15.8115C113.991 15.8115 113.005 16.0673 112.113 16.5879L112.616 17.4517ZM115.049 16.8115V17.8115C115.781 17.8115 116.362 17.9677 116.831 18.2417L117.336 17.3786L117.841 16.5154C117.017 16.0333 116.074 15.8115 115.049 15.8115V16.8115ZM117.336 17.3786L116.831 18.2417C117.345 18.5422 117.688 18.8951 117.906 19.2894L118.781 18.8053L119.656 18.3213C119.24 17.5693 118.62 16.971 117.841 16.5154L117.336 17.3786ZM118.781 18.8053H119.781V16.9761H118.781H117.781V18.8053H118.781ZM118.781 16.9761V17.9761H120.464V16.9761V15.9761H118.781V16.9761ZM120.464 16.9761H119.464V27H120.464H121.464V16.9761H120.464ZM120.464 27V26H118.781V27V28H120.464V27ZM118.781 27H119.781V25.1342H118.781H117.781V27H118.781ZM118.781 25.1342L117.909 24.644C117.677 25.056 117.318 25.4238 116.789 25.7373L117.299 26.5976L117.809 27.4579C118.597 26.9909 119.226 26.3832 119.652 25.6245L118.781 25.1342ZM117.299 26.5976L116.794 25.7344C116.324 26.0096 115.747 26.1646 115.031 26.1646V27.1646V28.1646C116.046 28.1646 116.982 27.9416 117.804 27.4608L117.299 26.5976ZM115.031 27.1646V26.1646C114.314 26.1646 113.691 25.9903 113.137 25.6525L112.616 26.5061L112.096 27.3598C112.981 27.8999 113.968 28.1646 115.031 28.1646V27.1646ZM112.616 26.5061L113.137 25.6525C112.582 25.3138 112.137 24.8373 111.801 24.1952L110.915 24.6587L110.029 25.1222C110.523 26.0653 111.212 26.8204 112.096 27.3598L112.616 26.5061ZM110.915 24.6587L111.801 24.1952C111.471 23.5634 111.293 22.8237 111.293 21.9515H110.293H109.293C109.293 23.1036 109.53 24.1686 110.029 25.1222L110.915 24.6587ZM118.781 21.9698H119.781C119.781 21.0777 119.6 20.2491 119.202 19.5168L118.324 19.9943L117.445 20.4718C117.657 20.8614 117.781 21.3498 117.781 21.9698H118.781ZM118.324 19.9943L119.202 19.5168C118.813 18.8005 118.267 18.2315 117.567 17.8407L117.08 18.7139L116.592 19.5871C116.941 19.7816 117.224 20.0661 117.445 20.4718L118.324 19.9943ZM117.08 18.7139L117.591 17.8546C116.917 17.4535 116.172 17.2566 115.379 17.2566V18.2566V19.2566C115.829 19.2566 116.218 19.3645 116.568 19.5731L117.08 18.7139ZM115.379 18.2566V17.2566C114.592 17.2566 113.853 17.4436 113.181 17.8273L113.677 18.6956L114.174 19.5638C114.526 19.3622 114.921 19.2566 115.379 19.2566V18.2566ZM113.677 18.6956L113.181 17.8273C112.495 18.2197 111.959 18.7882 111.573 19.4985L112.452 19.976L113.33 20.4535C113.554 20.0418 113.836 19.7567 114.174 19.5638L113.677 18.6956ZM112.452 19.976L111.573 19.4985C111.175 20.2308 110.995 21.0594 110.995 21.9515H111.995H112.995C112.995 21.3315 113.119 20.8431 113.33 20.4535L112.452 19.976ZM111.995 21.9515H110.995C110.995 22.8535 111.174 23.6911 111.569 24.4332L112.452 23.9636L113.335 23.494C113.12 23.0898 112.995 22.586 112.995 21.9515H111.995ZM112.452 23.9636L111.573 24.4411C111.958 25.1483 112.488 25.7182 113.166 26.1216L113.677 25.2623L114.189 24.403C113.842 24.1966 113.556 23.9007 113.33 23.4861L112.452 23.9636ZM113.677 25.2623L113.181 26.1305C113.853 26.5143 114.592 26.7013 115.379 26.7013V25.7013V24.7013C114.921 24.7013 114.526 24.5956 114.174 24.394L113.677 25.2623ZM115.379 25.7013V26.7013C116.165 26.7013 116.904 26.5143 117.576 26.1305L117.08 25.2623L116.584 24.394C116.231 24.5956 115.836 24.7013 115.379 24.7013V25.7013ZM117.08 25.2623L117.582 26.1268C118.274 25.7249 118.815 25.1542 119.202 24.4411L118.324 23.9636L117.445 23.4861C117.223 23.8948 116.935 24.19 116.577 24.3978L117.08 25.2623ZM118.324 23.9636L119.206 24.4332C119.6 23.6933 119.781 22.8625 119.781 21.9698H118.781H117.781C117.781 22.5891 117.657 23.0875 117.441 23.494L118.324 23.9636ZM113.019 15.8969L114.01 16.0329C114.077 15.5441 114.219 15.2928 114.343 15.1638L113.623 14.4702L112.902 13.7765C112.392 14.306 112.132 15.0059 112.028 15.761L113.019 15.8969ZM113.623 14.4702L114.33 15.1773C114.462 15.0453 114.611 14.9763 114.848 14.9763V13.9763V12.9763C114.109 12.9763 113.442 13.2366 112.915 13.7631L113.623 14.4702ZM114.848 13.9763V14.9763C114.96 14.9763 114.982 14.9972 114.959 14.9848L115.433 14.1043L115.908 13.2239C115.567 13.0407 115.199 12.9763 114.848 12.9763V13.9763ZM115.433 14.1043L115.039 15.0235C115.145 15.0686 115.297 15.149 115.503 15.2791L116.037 14.4336L116.571 13.5881C116.314 13.4255 116.064 13.2864 115.827 13.1852L115.433 14.1043ZM116.037 14.4336L115.456 15.2473C115.648 15.3847 115.836 15.5061 116.015 15.6042L116.494 14.7263L116.973 13.8484C116.885 13.8001 116.767 13.7263 116.618 13.6199L116.037 14.4336ZM116.494 14.7263L116.081 15.6366C116.354 15.7611 116.643 15.8177 116.933 15.8177V14.8177V13.8177C116.918 13.8177 116.911 13.8163 116.909 13.8159C116.907 13.8155 116.907 13.8154 116.908 13.8159L116.494 14.7263ZM116.933 14.8177V15.8177C117.379 15.8177 117.8 15.6649 118.14 15.3537L117.464 14.6165L116.788 13.8794C116.804 13.865 116.831 13.8461 116.867 13.8324C116.902 13.819 116.927 13.8177 116.933 13.8177V14.8177ZM117.464 14.6165L118.14 15.3537C118.502 15.0212 118.669 14.5874 118.728 14.1726L117.738 14.0312L116.748 13.8898C116.741 13.9388 116.733 13.9531 116.737 13.9451C116.739 13.9408 116.744 13.9314 116.753 13.919C116.762 13.9064 116.773 13.8927 116.788 13.8794L117.464 14.6165ZM117.738 14.0312V15.0312H118.689V14.0312V13.0312H117.738V14.0312ZM118.689 14.0312L117.696 13.912C117.641 14.3704 117.505 14.6059 117.379 14.7325L118.086 15.4396L118.793 16.1467C119.325 15.6149 119.591 14.9114 119.682 14.1503L118.689 14.0312ZM118.086 15.4396L117.379 14.7325C117.247 14.8645 117.097 14.9335 116.86 14.9335V15.9335V16.9335C117.599 16.9335 118.266 16.6732 118.793 16.1467L118.086 15.4396ZM116.86 15.9335V14.9335C116.734 14.9335 116.656 14.9137 116.61 14.8953L116.238 15.8238L115.867 16.7522C116.187 16.8802 116.523 16.9335 116.86 16.9335V15.9335ZM116.238 15.8238L116.685 14.9293C116.578 14.8758 116.431 14.7861 116.238 14.6473L115.653 15.4579L115.067 16.2686C115.314 16.4468 115.557 16.601 115.791 16.7182L116.238 15.8238ZM115.653 15.4579L116.183 14.6099C115.976 14.4809 115.787 14.3706 115.625 14.2891L115.177 15.1836L114.73 16.078C114.811 16.1185 114.939 16.1911 115.123 16.3059L115.653 15.4579ZM115.177 15.1836L115.663 14.3094C115.371 14.1469 115.06 14.0921 114.775 14.0921V15.0921V16.0921C114.807 16.0921 114.765 16.0982 114.692 16.0577L115.177 15.1836ZM114.775 15.0921V14.0921C114.33 14.0921 113.908 14.2449 113.569 14.5561L114.244 15.2933L114.92 16.0305C114.905 16.0448 114.878 16.0637 114.841 16.0774C114.806 16.0908 114.781 16.0921 114.775 16.0921V15.0921ZM114.244 15.2933L113.537 14.5862C113.195 14.9286 113.051 15.3668 112.998 15.7618L113.988 15.8969L114.979 16.032C114.984 15.9997 114.989 15.976 114.993 15.9597C114.997 15.9434 115 15.9359 115 15.9354C115 15.9352 114.988 15.9639 114.952 16.0004L114.244 15.2933ZM113.988 15.8969V14.8969H113.019V15.8969V16.8969H113.988V15.8969ZM125.087 26.5244L124.596 27.3953L124.602 27.3986L125.087 26.5244ZM123.295 24.7135L122.414 25.1876L122.419 25.1958L122.423 25.2038L123.295 24.7135ZM123.313 19.2626L122.444 18.7679L122.442 18.7723L123.313 19.2626ZM125.142 17.4517L125.617 18.3318L125.628 18.3259L125.142 17.4517ZM130.301 17.4517L129.815 18.3259L129.826 18.3317L130.301 17.4517ZM132.111 19.2443L131.24 19.7346L131.246 19.7448L132.111 19.2443ZM132.093 24.7135L131.23 24.2088L131.227 24.213L132.093 24.7135ZM130.246 26.5244L130.726 27.4018L130.246 26.5244ZM130.593 24.0185L129.731 23.5123L129.727 23.5193L129.723 23.5264L130.593 24.0185ZM129.368 18.6773L128.887 19.5544L128.896 19.5588L128.904 19.5631L129.368 18.6773ZM126.02 18.6773L126.493 19.5585L126.501 19.5544L126.02 18.6773ZM124.813 19.9211L125.692 20.3986L124.813 19.9211ZM124.795 24.0367L123.908 24.4993L123.912 24.5068L123.916 24.5143L124.795 24.0367ZM126.002 25.2989L125.513 26.171L125.521 26.1756L125.529 26.18L126.002 25.2989ZM127.648 27.1646V26.1646C126.867 26.1646 126.183 25.9889 125.573 25.6503L125.087 26.5244L124.602 27.3986C125.529 27.9135 126.551 28.1646 127.648 28.1646V27.1646ZM125.087 26.5244L125.579 25.6536C124.987 25.3195 124.519 24.8498 124.166 24.2233L123.295 24.7135L122.423 25.2038C122.949 26.1382 123.676 26.8757 124.596 27.3952L125.087 26.5244ZM123.295 24.7135L124.175 24.2394C123.838 23.6132 123.655 22.8661 123.655 21.9698H122.655H121.655C121.655 23.1465 121.898 24.2286 122.414 25.1876L123.295 24.7135ZM122.655 21.9698H123.655C123.655 21.0921 123.841 20.3632 124.185 19.7529L123.313 19.2626L122.442 18.7723C121.907 19.7229 121.655 20.7988 121.655 21.9698H122.655ZM123.313 19.2626L124.182 19.7573C124.545 19.1198 125.021 18.6533 125.617 18.3317L125.142 17.4517L124.667 16.5717C123.727 17.0794 122.984 17.8201 122.444 18.7679L123.313 19.2626ZM125.142 17.4517L125.628 18.3259C126.236 17.9883 126.926 17.8115 127.721 17.8115V16.8115V15.8115C126.615 15.8115 125.586 16.0615 124.657 16.5776L125.142 17.4517ZM127.721 16.8115V17.8115C128.517 17.8115 129.207 17.9883 129.815 18.3259L130.301 17.4517L130.786 16.5776C129.857 16.0615 128.828 15.8115 127.721 15.8115V16.8115ZM130.301 17.4517L129.826 18.3317C130.423 18.6541 130.891 19.1145 131.24 19.7346L132.111 19.2443L132.983 18.7541C132.454 17.8133 131.715 17.0785 130.776 16.5717L130.301 17.4517ZM132.111 19.2443L131.246 19.7448C131.596 20.3516 131.788 21.0823 131.788 21.9698H132.788H133.788C133.788 20.7842 133.529 19.698 132.977 18.7438L132.111 19.2443ZM132.788 21.9698H131.788C131.788 22.8523 131.593 23.5883 131.23 24.2088L132.093 24.7135L132.956 25.2182C133.52 24.2535 133.788 23.1603 133.788 21.9698H132.788ZM132.093 24.7135L131.227 24.213C130.867 24.8371 130.383 25.3094 129.766 25.647L130.246 26.5244L130.726 27.4018C131.669 26.8858 132.417 26.1508 132.959 25.214L132.093 24.7135ZM130.246 26.5244L129.766 25.647C129.143 25.9878 128.444 26.1646 127.648 26.1646V27.1646V28.1646C128.755 28.1646 129.788 27.9146 130.726 27.4018L130.246 26.5244ZM127.648 25.7013V26.7013C128.41 26.7013 129.133 26.5208 129.803 26.1624L129.331 25.2806L128.859 24.3988C128.481 24.6013 128.082 24.7013 127.648 24.7013V25.7013ZM129.331 25.2806L129.803 26.1624C130.508 25.785 131.062 25.2222 131.464 24.5105L130.593 24.0185L129.723 23.5264C129.491 23.9366 129.203 24.2152 128.859 24.3988L129.331 25.2806ZM130.593 24.0185L131.456 24.5247C131.894 23.7777 132.087 22.9106 132.087 21.9698H131.087H130.087C130.087 22.6386 129.951 23.1373 129.731 23.5123L130.593 24.0185ZM131.087 21.9698H132.087C132.087 21.0349 131.903 20.1731 131.482 19.429L130.612 19.9211L129.741 20.4132C129.955 20.791 130.087 21.295 130.087 21.9698H131.087ZM130.612 19.9211L131.482 19.429C131.081 18.7203 130.534 18.1591 129.832 17.7914L129.368 18.6773L128.904 19.5631C129.226 19.732 129.507 20 129.741 20.4132L130.612 19.9211ZM129.368 18.6773L129.848 17.8002C129.185 17.4371 128.464 17.2566 127.703 17.2566V18.2566V19.2566C128.137 19.2566 128.526 19.3565 128.887 19.5544L129.368 18.6773ZM127.703 18.2566V17.2566C126.933 17.2566 126.206 17.4354 125.54 17.8002L126.02 18.6773L126.501 19.5544C126.859 19.3581 127.254 19.2566 127.703 19.2566V18.2566ZM126.02 18.6773L125.548 17.7961C124.855 18.1678 124.32 18.7336 123.934 19.4436L124.813 19.9211L125.692 20.3986C125.916 19.9867 126.186 19.7233 126.493 19.5584L126.02 18.6773ZM124.813 19.9211L123.934 19.4436C123.532 20.1845 123.356 21.0408 123.356 21.9698H124.356H125.356C125.356 21.2891 125.485 20.7796 125.692 20.3986L124.813 19.9211ZM124.356 21.9698H123.356C123.356 22.9024 123.522 23.76 123.908 24.4993L124.795 24.0367L125.681 23.5742C125.482 23.1915 125.356 22.6712 125.356 21.9698H124.356ZM124.795 24.0367L123.916 24.5143C124.3 25.2214 124.83 25.7881 125.513 26.171L126.002 25.2989L126.491 24.4267C126.174 24.2487 125.899 23.974 125.673 23.5592L124.795 24.0367ZM126.002 25.2989L125.529 26.18C126.182 26.5305 126.895 26.7013 127.648 26.7013V25.7013V24.7013C127.207 24.7013 126.822 24.6038 126.475 24.4177L126.002 25.2989Z" fill="url(#paint1_linear_392_1569)" mask="url(#path-2-outside-1_392_1569)"></path><defs><linearGradient id="paint0_linear_392_1569" x1="84" y1="0" x2="84" y2="41" gradientUnits="userSpaceOnUse"><stop stop-color="#808FB0"></stop><stop offset="1" stop-color="#141F47"></stop></linearGradient><linearGradient id="paint1_linear_392_1569" x1="84" y1="7" x2="84" y2="34" gradientUnits="userSpaceOnUse"><stop stop-color="#808FB0"></stop><stop offset="1" stop-color="#141F47"></stop></linearGradient></defs></svg>