<svg xmlns="http://www.w3.org/2000/svg" width="168" height="41" viewBox="0 0 168 41" fill="none"><rect x="0.5" y="0.5" width="167" height="40" rx="19.5" fill="#0F1435" stroke="url(#paint0_linear_392_1572)"></rect><mask id="path-2-outside-1_392_1572" maskUnits="userSpaceOnUse" x="47" y="10" width="72" height="23" fill="black"><rect fill="white" x="47" y="10" width="72" height="23"></rect><path d="M57.2556 14.2507V15.6043H53.7802V27H52.1156V15.6043H48.6219V14.2507H57.2556ZM60.9691 18.6041C61.2618 18.031 61.6764 17.5859 62.2129 17.2688C62.7617 16.9518 63.4263 16.7932 64.2067 16.7932V18.5126H63.7677C61.902 18.5126 60.9691 19.5248 60.9691 21.5491V27H59.3046V16.9761H60.9691V18.6041ZM65.5063 21.9515C65.5063 20.9272 65.7136 20.0309 66.1282 19.2626C66.5428 18.4822 67.1099 17.8785 67.8294 17.4517C68.561 17.0249 69.372 16.8115 70.2622 16.8115C71.1402 16.8115 71.9023 17.0005 72.5486 17.3786C73.1949 17.7566 73.6766 18.2322 73.9937 18.8053V16.9761H75.6765V27H73.9937V25.1342C73.6644 25.7196 73.1705 26.2074 72.512 26.5976C71.8657 26.9756 71.1097 27.1646 70.2439 27.1646C69.3537 27.1646 68.5488 26.9451 67.8294 26.5061C67.1099 26.0671 66.5428 25.4513 66.1282 24.6587C65.7136 23.866 65.5063 22.9636 65.5063 21.9515ZM73.9937 21.9698C73.9937 21.2137 73.8412 20.5552 73.5364 19.9943C73.2315 19.4333 72.8169 19.0065 72.2925 18.7139C71.7804 18.409 71.2133 18.2566 70.5914 18.2566C69.9695 18.2566 69.4024 18.4029 68.8903 18.6956C68.3781 18.9882 67.9696 19.415 67.6647 19.976C67.3599 20.5369 67.2074 21.1954 67.2074 21.9515C67.2074 22.7197 67.3599 23.3904 67.6647 23.9636C67.9696 24.5245 68.3781 24.9574 68.8903 25.2623C69.4024 25.555 69.9695 25.7013 70.5914 25.7013C71.2133 25.7013 71.7804 25.555 72.2925 25.2623C72.8169 24.9574 73.2315 24.5245 73.5364 23.9636C73.8412 23.3904 73.9937 22.7258 73.9937 21.9698ZM72.695 14.1409L68.7988 16.2262V14.9823L72.695 12.6959V14.1409ZM82.5685 18.348H80.4649V27H78.8004V18.348H77.5017V16.9761H78.8004V16.2628C78.8004 15.1409 79.087 14.3238 79.6601 13.8117C80.2454 13.2873 81.1783 13.0251 82.4587 13.0251V14.4153C81.7271 14.4153 81.2088 14.5616 80.9039 14.8543C80.6113 15.1348 80.4649 15.6043 80.4649 16.2628V16.9761H82.5685V18.348ZM93.6551 21.6039C93.6551 21.921 93.6368 22.2563 93.6002 22.61H85.5885C85.6494 23.5977 85.9848 24.3721 86.5945 24.933C87.2164 25.4818 87.9664 25.7562 88.8444 25.7562C89.5639 25.7562 90.1614 25.5915 90.637 25.2623C91.1248 24.9208 91.4662 24.4696 91.6613 23.9087H93.4539C93.1856 24.8721 92.6491 25.6586 91.8442 26.2683C91.0394 26.8659 90.0395 27.1646 88.8444 27.1646C87.8932 27.1646 87.0396 26.9512 86.2836 26.5244C85.5397 26.0976 84.9544 25.494 84.5275 24.7135C84.1007 23.9209 83.8873 23.0063 83.8873 21.9698C83.8873 20.9332 84.0946 20.0248 84.5093 19.2443C84.9239 18.4639 85.5031 17.8663 86.247 17.4517C87.003 17.0249 87.8688 16.8115 88.8444 16.8115C89.7956 16.8115 90.637 17.0188 91.3686 17.4334C92.1003 17.848 92.6613 18.4212 93.0515 19.1529C93.4539 19.8723 93.6551 20.6894 93.6551 21.6039ZM91.9357 21.2564C91.9357 20.6223 91.7955 20.0796 91.515 19.6284C91.2345 19.165 90.8504 18.8175 90.3626 18.5858C89.887 18.3419 89.3566 18.22 88.7712 18.22C87.9298 18.22 87.2103 18.4883 86.6128 19.0248C86.0275 19.5614 85.6921 20.3052 85.6068 21.2564H91.9357ZM99.9862 16.8115C100.852 16.8115 101.608 17.0005 102.254 17.3786C102.913 17.7566 103.401 18.2322 103.718 18.8053V16.9761H105.401V27.2195C105.401 28.1341 105.205 28.945 104.815 29.6523C104.425 30.3718 103.864 30.9327 103.132 31.3351C102.413 31.7376 101.571 31.9388 100.608 31.9388C99.2911 31.9388 98.1936 31.6278 97.3156 31.0059C96.4376 30.384 95.9193 29.5365 95.7608 28.4633H97.4071C97.59 29.0731 97.968 29.5608 98.5411 29.9267C99.1143 30.3047 99.8033 30.4937 100.608 30.4937C101.523 30.4937 102.267 30.2071 102.84 29.634C103.425 29.0609 103.718 28.256 103.718 27.2195V25.116C103.388 25.7013 102.901 26.1891 102.254 26.5793C101.608 26.9695 100.852 27.1646 99.9862 27.1646C99.096 27.1646 98.2851 26.9451 97.5534 26.5061C96.8339 26.0671 96.2669 25.4513 95.8523 24.6587C95.4376 23.866 95.2303 22.9636 95.2303 21.9515C95.2303 20.9272 95.4376 20.0309 95.8523 19.2626C96.2669 18.4822 96.8339 17.8785 97.5534 17.4517C98.2851 17.0249 99.096 16.8115 99.9862 16.8115ZM103.718 21.9698C103.718 21.2137 103.565 20.5552 103.26 19.9943C102.956 19.4333 102.541 19.0065 102.017 18.7139C101.504 18.409 100.937 18.2566 100.315 18.2566C99.6935 18.2566 99.1265 18.4029 98.6143 18.6956C98.1021 18.9882 97.6936 19.415 97.3888 19.976C97.0839 20.5369 96.9315 21.1954 96.9315 21.9515C96.9315 22.7197 97.0839 23.3904 97.3888 23.9636C97.6936 24.5245 98.1021 24.9574 98.6143 25.2623C99.1265 25.555 99.6935 25.7013 100.315 25.7013C100.937 25.7013 101.504 25.555 102.017 25.2623C102.541 24.9574 102.956 24.5245 103.26 23.9636C103.565 23.3904 103.718 22.7258 103.718 21.9698ZM112.585 27.1646C111.646 27.1646 110.793 26.9512 110.024 26.5244C109.268 26.0976 108.671 25.494 108.232 24.7135C107.805 23.9209 107.592 23.0063 107.592 21.9698C107.592 20.9454 107.811 20.0431 108.25 19.2626C108.701 18.47 109.311 17.8663 110.079 17.4517C110.847 17.0249 111.707 16.8115 112.658 16.8115C113.61 16.8115 114.469 17.0249 115.237 17.4517C116.006 17.8663 116.609 18.4639 117.048 19.2443C117.5 20.0248 117.725 20.9332 117.725 21.9698C117.725 23.0063 117.493 23.9209 117.03 24.7135C116.579 25.494 115.963 26.0976 115.183 26.5244C114.402 26.9512 113.536 27.1646 112.585 27.1646ZM112.585 25.7013C113.183 25.7013 113.744 25.5611 114.268 25.2806C114.792 25.0001 115.213 24.5794 115.53 24.0185C115.859 23.4575 116.024 22.7746 116.024 21.9698C116.024 21.1649 115.865 20.4821 115.548 19.9211C115.231 19.3602 114.817 18.9455 114.305 18.6773C113.792 18.3968 113.238 18.2566 112.64 18.2566C112.03 18.2566 111.469 18.3968 110.957 18.6773C110.457 18.9455 110.055 19.3602 109.75 19.9211C109.445 20.4821 109.293 21.1649 109.293 21.9698C109.293 22.7868 109.439 23.4758 109.732 24.0367C110.037 24.5977 110.439 25.0184 110.939 25.2989C111.439 25.5671 111.988 25.7013 112.585 25.7013Z"></path></mask><path d="M57.2556 14.2507V15.6043H53.7802V27H52.1156V15.6043H48.6219V14.2507H57.2556ZM60.9691 18.6041C61.2618 18.031 61.6764 17.5859 62.2129 17.2688C62.7617 16.9518 63.4263 16.7932 64.2067 16.7932V18.5126H63.7677C61.902 18.5126 60.9691 19.5248 60.9691 21.5491V27H59.3046V16.9761H60.9691V18.6041ZM65.5063 21.9515C65.5063 20.9272 65.7136 20.0309 66.1282 19.2626C66.5428 18.4822 67.1099 17.8785 67.8294 17.4517C68.561 17.0249 69.372 16.8115 70.2622 16.8115C71.1402 16.8115 71.9023 17.0005 72.5486 17.3786C73.1949 17.7566 73.6766 18.2322 73.9937 18.8053V16.9761H75.6765V27H73.9937V25.1342C73.6644 25.7196 73.1705 26.2074 72.512 26.5976C71.8657 26.9756 71.1097 27.1646 70.2439 27.1646C69.3537 27.1646 68.5488 26.9451 67.8294 26.5061C67.1099 26.0671 66.5428 25.4513 66.1282 24.6587C65.7136 23.866 65.5063 22.9636 65.5063 21.9515ZM73.9937 21.9698C73.9937 21.2137 73.8412 20.5552 73.5364 19.9943C73.2315 19.4333 72.8169 19.0065 72.2925 18.7139C71.7804 18.409 71.2133 18.2566 70.5914 18.2566C69.9695 18.2566 69.4024 18.4029 68.8903 18.6956C68.3781 18.9882 67.9696 19.415 67.6647 19.976C67.3599 20.5369 67.2074 21.1954 67.2074 21.9515C67.2074 22.7197 67.3599 23.3904 67.6647 23.9636C67.9696 24.5245 68.3781 24.9574 68.8903 25.2623C69.4024 25.555 69.9695 25.7013 70.5914 25.7013C71.2133 25.7013 71.7804 25.555 72.2925 25.2623C72.8169 24.9574 73.2315 24.5245 73.5364 23.9636C73.8412 23.3904 73.9937 22.7258 73.9937 21.9698ZM72.695 14.1409L68.7988 16.2262V14.9823L72.695 12.6959V14.1409ZM82.5685 18.348H80.4649V27H78.8004V18.348H77.5017V16.9761H78.8004V16.2628C78.8004 15.1409 79.087 14.3238 79.6601 13.8117C80.2454 13.2873 81.1783 13.0251 82.4587 13.0251V14.4153C81.7271 14.4153 81.2088 14.5616 80.9039 14.8543C80.6113 15.1348 80.4649 15.6043 80.4649 16.2628V16.9761H82.5685V18.348ZM93.6551 21.6039C93.6551 21.921 93.6368 22.2563 93.6002 22.61H85.5885C85.6494 23.5977 85.9848 24.3721 86.5945 24.933C87.2164 25.4818 87.9664 25.7562 88.8444 25.7562C89.5639 25.7562 90.1614 25.5915 90.637 25.2623C91.1248 24.9208 91.4662 24.4696 91.6613 23.9087H93.4539C93.1856 24.8721 92.6491 25.6586 91.8442 26.2683C91.0394 26.8659 90.0395 27.1646 88.8444 27.1646C87.8932 27.1646 87.0396 26.9512 86.2836 26.5244C85.5397 26.0976 84.9544 25.494 84.5275 24.7135C84.1007 23.9209 83.8873 23.0063 83.8873 21.9698C83.8873 20.9332 84.0946 20.0248 84.5093 19.2443C84.9239 18.4639 85.5031 17.8663 86.247 17.4517C87.003 17.0249 87.8688 16.8115 88.8444 16.8115C89.7956 16.8115 90.637 17.0188 91.3686 17.4334C92.1003 17.848 92.6613 18.4212 93.0515 19.1529C93.4539 19.8723 93.6551 20.6894 93.6551 21.6039ZM91.9357 21.2564C91.9357 20.6223 91.7955 20.0796 91.515 19.6284C91.2345 19.165 90.8504 18.8175 90.3626 18.5858C89.887 18.3419 89.3566 18.22 88.7712 18.22C87.9298 18.22 87.2103 18.4883 86.6128 19.0248C86.0275 19.5614 85.6921 20.3052 85.6068 21.2564H91.9357ZM99.9862 16.8115C100.852 16.8115 101.608 17.0005 102.254 17.3786C102.913 17.7566 103.401 18.2322 103.718 18.8053V16.9761H105.401V27.2195C105.401 28.1341 105.205 28.945 104.815 29.6523C104.425 30.3718 103.864 30.9327 103.132 31.3351C102.413 31.7376 101.571 31.9388 100.608 31.9388C99.2911 31.9388 98.1936 31.6278 97.3156 31.0059C96.4376 30.384 95.9193 29.5365 95.7608 28.4633H97.4071C97.59 29.0731 97.968 29.5608 98.5411 29.9267C99.1143 30.3047 99.8033 30.4937 100.608 30.4937C101.523 30.4937 102.267 30.2071 102.84 29.634C103.425 29.0609 103.718 28.256 103.718 27.2195V25.116C103.388 25.7013 102.901 26.1891 102.254 26.5793C101.608 26.9695 100.852 27.1646 99.9862 27.1646C99.096 27.1646 98.2851 26.9451 97.5534 26.5061C96.8339 26.0671 96.2669 25.4513 95.8523 24.6587C95.4376 23.866 95.2303 22.9636 95.2303 21.9515C95.2303 20.9272 95.4376 20.0309 95.8523 19.2626C96.2669 18.4822 96.8339 17.8785 97.5534 17.4517C98.2851 17.0249 99.096 16.8115 99.9862 16.8115ZM103.718 21.9698C103.718 21.2137 103.565 20.5552 103.26 19.9943C102.956 19.4333 102.541 19.0065 102.017 18.7139C101.504 18.409 100.937 18.2566 100.315 18.2566C99.6935 18.2566 99.1265 18.4029 98.6143 18.6956C98.1021 18.9882 97.6936 19.415 97.3888 19.976C97.0839 20.5369 96.9315 21.1954 96.9315 21.9515C96.9315 22.7197 97.0839 23.3904 97.3888 23.9636C97.6936 24.5245 98.1021 24.9574 98.6143 25.2623C99.1265 25.555 99.6935 25.7013 100.315 25.7013C100.937 25.7013 101.504 25.555 102.017 25.2623C102.541 24.9574 102.956 24.5245 103.26 23.9636C103.565 23.3904 103.718 22.7258 103.718 21.9698ZM112.585 27.1646C111.646 27.1646 110.793 26.9512 110.024 26.5244C109.268 26.0976 108.671 25.494 108.232 24.7135C107.805 23.9209 107.592 23.0063 107.592 21.9698C107.592 20.9454 107.811 20.0431 108.25 19.2626C108.701 18.47 109.311 17.8663 110.079 17.4517C110.847 17.0249 111.707 16.8115 112.658 16.8115C113.61 16.8115 114.469 17.0249 115.237 17.4517C116.006 17.8663 116.609 18.4639 117.048 19.2443C117.5 20.0248 117.725 20.9332 117.725 21.9698C117.725 23.0063 117.493 23.9209 117.03 24.7135C116.579 25.494 115.963 26.0976 115.183 26.5244C114.402 26.9512 113.536 27.1646 112.585 27.1646ZM112.585 25.7013C113.183 25.7013 113.744 25.5611 114.268 25.2806C114.792 25.0001 115.213 24.5794 115.53 24.0185C115.859 23.4575 116.024 22.7746 116.024 21.9698C116.024 21.1649 115.865 20.4821 115.548 19.9211C115.231 19.3602 114.817 18.9455 114.305 18.6773C113.792 18.3968 113.238 18.2566 112.64 18.2566C112.03 18.2566 111.469 18.3968 110.957 18.6773C110.457 18.9455 110.055 19.3602 109.75 19.9211C109.445 20.4821 109.293 21.1649 109.293 21.9698C109.293 22.7868 109.439 23.4758 109.732 24.0367C110.037 24.5977 110.439 25.0184 110.939 25.2989C111.439 25.5671 111.988 25.7013 112.585 25.7013Z" fill="#A8A8A8"></path><path d="M57.2556 14.2507H58.2556V13.2507H57.2556V14.2507ZM57.2556 15.6043V16.6043H58.2556V15.6043H57.2556ZM53.7802 15.6043V14.6043H52.7802V15.6043H53.7802ZM53.7802 27V28H54.7802V27H53.7802ZM52.1156 27H51.1156V28H52.1156V27ZM52.1156 15.6043H53.1156V14.6043H52.1156V15.6043ZM48.6219 15.6043H47.6219V16.6043H48.6219V15.6043ZM48.6219 14.2507V13.2507H47.6219V14.2507H48.6219ZM57.2556 14.2507H56.2556V15.6043H57.2556H58.2556V14.2507H57.2556ZM57.2556 15.6043V14.6043H53.7802V15.6043V16.6043H57.2556V15.6043ZM53.7802 15.6043H52.7802V27H53.7802H54.7802V15.6043H53.7802ZM53.7802 27V26H52.1156V27V28H53.7802V27ZM52.1156 27H53.1156V15.6043H52.1156H51.1156V27H52.1156ZM52.1156 15.6043V14.6043H48.6219V15.6043V16.6043H52.1156V15.6043ZM48.6219 15.6043H49.6219V14.2507H48.6219H47.6219V15.6043H48.6219ZM48.6219 14.2507V15.2507H57.2556V14.2507V13.2507H48.6219V14.2507ZM60.9691 18.6041H59.9691L61.8597 19.0589L60.9691 18.6041ZM62.2129 17.2688L61.7126 16.4029L61.7042 16.4079L62.2129 17.2688ZM64.2067 16.7932H65.2067V15.7932H64.2067V16.7932ZM64.2067 18.5126V19.5126H65.2067V18.5126H64.2067ZM60.9691 27V28H61.9691V27H60.9691ZM59.3046 27H58.3046V28H59.3046V27ZM59.3046 16.9761V15.9761H58.3046V16.9761H59.3046ZM60.9691 16.9761H61.9691V15.9761H60.9691V16.9761ZM60.9691 18.6041L61.8597 19.0589C62.0691 18.6488 62.3539 18.3471 62.7217 18.1297L62.2129 17.2688L61.7042 16.4079C60.9989 16.8246 60.4544 17.4131 60.0785 18.1493L60.9691 18.6041ZM62.2129 17.2688L62.7132 18.1347C63.0784 17.9237 63.5616 17.7932 64.2067 17.7932V16.7932V15.7932C63.291 15.7932 62.445 15.9798 61.7127 16.4029L62.2129 17.2688ZM64.2067 16.7932H63.2067V18.5126H64.2067H65.2067V16.7932H64.2067ZM64.2067 18.5126V17.5126H63.7677V18.5126V19.5126H64.2067V18.5126ZM63.7677 18.5126V17.5126C62.6588 17.5126 61.6494 17.8172 60.9335 18.594C60.2317 19.3554 59.9691 20.4021 59.9691 21.5491H60.9691H61.9691C61.9691 20.6718 62.173 20.2002 62.4041 19.9495C62.621 19.7141 63.0109 19.5126 63.7677 19.5126V18.5126ZM60.9691 21.5491H59.9691V27H60.9691H61.9691V21.5491H60.9691ZM60.9691 27V26H59.3046V27V28H60.9691V27ZM59.3046 27H60.3046V16.9761H59.3046H58.3046V27H59.3046ZM59.3046 16.9761V17.9761H60.9691V16.9761V15.9761H59.3046V16.9761ZM60.9691 16.9761H59.9691V18.6041H60.9691H61.9691V16.9761H60.9691ZM66.1282 19.2626L67.0083 19.7375L67.0113 19.7318L66.1282 19.2626ZM67.8294 17.4517L67.3255 16.5879L67.3192 16.5917L67.8294 17.4517ZM72.5486 17.3786L72.0437 18.2417H72.0437L72.5486 17.3786ZM73.9937 18.8053L73.1186 19.2894L74.9937 18.8053H73.9937ZM73.9937 16.9761V15.9761H72.9937V16.9761H73.9937ZM75.6765 16.9761H76.6765V15.9761H75.6765V16.9761ZM75.6765 27V28H76.6765V27H75.6765ZM73.9937 27H72.9937V28H73.9937V27ZM73.9937 25.1342H74.9937V21.3167L73.1221 24.644L73.9937 25.1342ZM72.512 26.5976L73.0169 27.4608L73.0218 27.4579L72.512 26.5976ZM67.8294 26.5061L67.3085 27.3598L67.8294 26.5061ZM66.1282 24.6587L67.0143 24.1952L66.1282 24.6587ZM72.2925 18.7139L71.7811 19.5731L71.793 19.5803L71.8052 19.5871L72.2925 18.7139ZM68.8903 18.6956L68.3941 17.8273L68.8903 18.6956ZM67.6647 19.976L68.5434 20.4535H68.5434L67.6647 19.976ZM67.6647 23.9636L66.7818 24.4332L66.7861 24.4411L67.6647 23.9636ZM68.8903 25.2623L68.3788 26.1216L68.3864 26.1261L68.3941 26.1305L68.8903 25.2623ZM72.2925 25.2623L72.7887 26.1306L72.7952 26.1268L72.2925 25.2623ZM73.5364 23.9636L74.415 24.4411L74.4192 24.4332L73.5364 23.9636ZM72.695 14.1409L73.1668 15.0226L73.695 14.7399V14.1409H72.695ZM68.7988 16.2262H67.7988V17.8956L69.2707 17.1078L68.7988 16.2262ZM68.7988 14.9823L68.2927 14.1199L67.7988 14.4097V14.9823H68.7988ZM72.695 12.6959H73.695V10.9495L72.1888 11.8334L72.695 12.6959ZM65.5063 21.9515H66.5063C66.5063 21.0641 66.685 20.3365 67.0083 19.7375L66.1282 19.2626L65.2482 18.7877C64.7422 19.7253 64.5063 20.7902 64.5063 21.9515H65.5063ZM66.1282 19.2626L67.0113 19.7318C67.3449 19.1038 67.7869 18.6396 68.3396 18.3118L67.8294 17.4517L67.3192 16.5917C66.4328 17.1175 65.7407 17.8605 65.2451 18.7935L66.1282 19.2626ZM67.8294 17.4517L68.3332 18.3155C68.9041 17.9825 69.5396 17.8115 70.2622 17.8115V16.8115V15.8115C69.2043 15.8115 68.218 16.0673 67.3255 16.5879L67.8294 17.4517ZM70.2622 16.8115V17.8115C70.9936 17.8115 71.5753 17.9677 72.0437 18.2417L72.5486 17.3786L73.0535 16.5154C72.2294 16.0333 71.2867 15.8115 70.2622 15.8115V16.8115ZM72.5486 17.3786L72.0437 18.2417C72.5574 18.5422 72.9005 18.8951 73.1186 19.2894L73.9937 18.8053L74.8687 18.3213C74.4527 17.5693 73.8324 16.971 73.0535 16.5154L72.5486 17.3786ZM73.9937 18.8053H74.9937V16.9761H73.9937H72.9937V18.8053H73.9937ZM73.9937 16.9761V17.9761H75.6765V16.9761V15.9761H73.9937V16.9761ZM75.6765 16.9761H74.6765V27H75.6765H76.6765V16.9761H75.6765ZM75.6765 27V26H73.9937V27V28H75.6765V27ZM73.9937 27H74.9937V25.1342H73.9937H72.9937V27H73.9937ZM73.9937 25.1342L73.1221 24.644C72.8903 25.056 72.5312 25.4238 72.0022 25.7373L72.512 26.5976L73.0218 27.4579C73.8099 26.9909 74.4385 26.3832 74.8652 25.6245L73.9937 25.1342ZM72.512 26.5976L72.0072 25.7344C71.5366 26.0096 70.9603 26.1646 70.2439 26.1646V27.1646V28.1646C71.259 28.1646 72.1949 27.9416 73.0169 27.4608L72.512 26.5976ZM70.2439 27.1646V26.1646C69.5267 26.1646 68.9039 25.9903 68.3502 25.6525L67.8294 26.5061L67.3085 27.3598C68.1938 27.8999 69.1807 28.1646 70.2439 28.1646V27.1646ZM67.8294 26.5061L68.3502 25.6525C67.7952 25.3138 67.3502 24.8373 67.0143 24.1952L66.1282 24.6587L65.2421 25.1222C65.7355 26.0653 66.4245 26.8204 67.3085 27.3598L67.8294 26.5061ZM66.1282 24.6587L67.0143 24.1952C66.6839 23.5634 66.5063 22.8237 66.5063 21.9515H65.5063H64.5063C64.5063 23.1036 64.7434 24.1686 65.2421 25.1222L66.1282 24.6587ZM73.9937 21.9698H74.9937C74.9937 21.0777 74.813 20.2491 74.415 19.5168L73.5364 19.9943L72.6577 20.4718C72.8695 20.8614 72.9937 21.3498 72.9937 21.9698H73.9937ZM73.5364 19.9943L74.415 19.5168C74.0257 18.8005 73.4801 18.2315 72.7799 17.8407L72.2925 18.7139L71.8052 19.5871C72.1537 19.7816 72.4373 20.0661 72.6577 20.4718L73.5364 19.9943ZM72.2925 18.7139L72.804 17.8546C72.1303 17.4535 71.3852 17.2566 70.5914 17.2566V18.2566V19.2566C71.0414 19.2566 71.4305 19.3645 71.7811 19.5731L72.2925 18.7139ZM70.5914 18.2566V17.2566C69.8053 17.2566 69.0657 17.4436 68.3941 17.8273L68.8903 18.6956L69.3864 19.5638C69.7392 19.3622 70.1337 19.2566 70.5914 19.2566V18.2566ZM68.8903 18.6956L68.3941 17.8273C67.7074 18.2197 67.1721 18.7882 66.7861 19.4985L67.6647 19.976L68.5434 20.4535C68.7671 20.0418 69.0488 19.7567 69.3864 19.5638L68.8903 18.6956ZM67.6647 19.976L66.7861 19.4985C66.3881 20.2308 66.2074 21.0594 66.2074 21.9515H67.2074H68.2074C68.2074 21.3315 68.3316 20.8431 68.5434 20.4535L67.6647 19.976ZM67.2074 21.9515H66.2074C66.2074 22.8535 66.3871 23.6911 66.7819 24.4332L67.6647 23.9636L68.5476 23.494C68.3326 23.0898 68.2074 22.586 68.2074 21.9515H67.2074ZM67.6647 23.9636L66.7861 24.4411C67.1705 25.1483 67.7011 25.7182 68.3788 26.1216L68.8903 25.2623L69.4018 24.403C69.0551 24.1966 68.7687 23.9007 68.5434 23.4861L67.6647 23.9636ZM68.8903 25.2623L68.3941 26.1305C69.0657 26.5143 69.8053 26.7013 70.5914 26.7013V25.7013V24.7013C70.1337 24.7013 69.7392 24.5956 69.3864 24.394L68.8903 25.2623ZM70.5914 25.7013V26.7013C71.3775 26.7013 72.1171 26.5143 72.7887 26.1305L72.2925 25.2623L71.7964 24.394C71.4436 24.5956 71.0491 24.7013 70.5914 24.7013V25.7013ZM72.2925 25.2623L72.7952 26.1268C73.4864 25.7249 74.0274 25.1542 74.415 24.4411L73.5364 23.9636L72.6577 23.4861C72.4356 23.8948 72.1474 24.19 71.7899 24.3978L72.2925 25.2623ZM73.5364 23.9636L74.4192 24.4332C74.8128 23.6933 74.9937 22.8625 74.9937 21.9698H73.9937H72.9937C72.9937 22.5891 72.8697 23.0875 72.6535 23.494L73.5364 23.9636ZM72.695 14.1409L72.2231 13.2593L68.3269 15.3445L68.7988 16.2262L69.2707 17.1078L73.1668 15.0226L72.695 14.1409ZM68.7988 16.2262H69.7988V14.9823H68.7988H67.7988V16.2262H68.7988ZM68.7988 14.9823L69.305 15.8448L73.2011 13.5583L72.695 12.6959L72.1888 11.8334L68.2927 14.1199L68.7988 14.9823ZM72.695 12.6959H71.695V14.1409H72.695H73.695V12.6959H72.695ZM82.5685 18.348V19.348H83.5685V18.348H82.5685ZM80.4649 18.348V17.348H79.4649V18.348H80.4649ZM80.4649 27V28H81.4649V27H80.4649ZM78.8004 27H77.8004V28H78.8004V27ZM78.8004 18.348H79.8004V17.348H78.8004V18.348ZM77.5017 18.348H76.5017V19.348H77.5017V18.348ZM77.5017 16.9761V15.9761H76.5017V16.9761H77.5017ZM78.8004 16.9761V17.9761H79.8004V16.9761H78.8004ZM79.6601 13.8117L80.3264 14.5573L80.3273 14.5565L79.6601 13.8117ZM82.4587 13.0251H83.4587V12.0251H82.4587V13.0251ZM82.4587 14.4153V15.4153H83.4587V14.4153H82.4587ZM80.9039 14.8543L81.5958 15.5763L81.5965 15.5757L80.9039 14.8543ZM80.4649 16.9761H79.4649V17.9761H80.4649V16.9761ZM82.5685 16.9761H83.5685V15.9761H82.5685V16.9761ZM82.5685 18.348V17.348H80.4649V18.348V19.348H82.5685V18.348ZM80.4649 18.348H79.4649V27H80.4649H81.4649V18.348H80.4649ZM80.4649 27V26H78.8004V27V28H80.4649V27ZM78.8004 27H79.8004V18.348H78.8004H77.8004V27H78.8004ZM78.8004 18.348V17.348H77.5017V18.348V19.348H78.8004V18.348ZM77.5017 18.348H78.5017V16.9761H77.5017H76.5017V18.348H77.5017ZM77.5017 16.9761V17.9761H78.8004V16.9761V15.9761H77.5017V16.9761ZM78.8004 16.9761H79.8004V16.2628H78.8004H77.8004V16.9761H78.8004ZM78.8004 16.2628H79.8004C79.8004 15.2925 80.0479 14.8062 80.3264 14.5573L79.6601 13.8117L78.9938 13.066C78.126 13.8414 77.8004 14.9892 77.8004 16.2628H78.8004ZM79.6601 13.8117L80.3273 14.5565C80.6439 14.2729 81.2789 14.0251 82.4587 14.0251V13.0251V12.0251C81.0777 12.0251 79.8469 12.3017 78.9928 13.0668L79.6601 13.8117ZM82.4587 13.0251H81.4587V14.4153H82.4587H83.4587V13.0251H82.4587ZM82.4587 14.4153V13.4153C81.6434 13.4153 80.7987 13.5691 80.2114 14.1329L80.9039 14.8543L81.5965 15.5757C81.6189 15.5542 81.8107 15.4153 82.4587 15.4153V14.4153ZM80.9039 14.8543L80.212 14.1323C79.6294 14.6907 79.4649 15.4955 79.4649 16.2628H80.4649H81.4649C81.4649 15.713 81.5932 15.5789 81.5958 15.5763L80.9039 14.8543ZM80.4649 16.2628H79.4649V16.9761H80.4649H81.4649V16.2628H80.4649ZM80.4649 16.9761V17.9761H82.5685V16.9761V15.9761H80.4649V16.9761ZM82.5685 16.9761H81.5685V18.348H82.5685H83.5685V16.9761H82.5685ZM93.6002 22.61V23.61H94.5021L94.5949 22.7129L93.6002 22.61ZM85.5885 22.61V21.61H84.5248L84.5904 22.6716L85.5885 22.61ZM86.5945 24.933L85.9175 25.669L85.9251 25.676L85.9329 25.6829L86.5945 24.933ZM90.637 25.2623L91.2062 26.0845L91.2104 26.0815L90.637 25.2623ZM91.6613 23.9087V22.9087H90.9504L90.7168 23.5802L91.6613 23.9087ZM93.4539 23.9087L94.4172 24.177L94.7704 22.9087H93.4539V23.9087ZM91.8442 26.2683L92.4404 27.0713L92.4481 27.0654L91.8442 26.2683ZM86.2836 26.5244L85.7859 27.3918L85.792 27.3952L86.2836 26.5244ZM84.5275 24.7135L83.6471 25.1876L83.6502 25.1933L84.5275 24.7135ZM84.5093 19.2443L85.3924 19.7135L84.5093 19.2443ZM86.247 17.4517L86.7338 18.3252L86.7386 18.3226L86.247 17.4517ZM91.3686 17.4334L90.8756 18.3035V18.3035L91.3686 17.4334ZM93.0515 19.1529L92.1691 19.6234L92.1738 19.6323L92.1787 19.641L93.0515 19.1529ZM91.9357 21.2564V22.2564H92.9357V21.2564H91.9357ZM91.515 19.6284L90.6594 20.1463L90.6657 20.1564L91.515 19.6284ZM90.3626 18.5858L89.9063 19.4756L89.9198 19.4826L89.9335 19.4891L90.3626 18.5858ZM86.6128 19.0248L85.9446 18.2807L85.9371 18.2877L86.6128 19.0248ZM85.6068 21.2564L84.6108 21.167L84.513 22.2564H85.6068V21.2564ZM93.6551 21.6039H92.6551C92.6551 21.8828 92.639 22.1836 92.6055 22.5071L93.6002 22.61L94.5949 22.7129C94.6346 22.3291 94.6551 21.9592 94.6551 21.6039H93.6551ZM93.6002 22.61V21.61H85.5885V22.61V23.61H93.6002V22.61ZM85.5885 22.61L84.5904 22.6716C84.664 23.8637 85.0816 24.9 85.9175 25.669L86.5945 24.933L87.2716 24.1971C86.888 23.8442 86.6349 23.3317 86.5866 22.5484L85.5885 22.61ZM86.5945 24.933L85.9329 25.6829C86.7488 26.4028 87.7383 26.7562 88.8444 26.7562V25.7562V24.7562C88.1945 24.7562 87.684 24.5607 87.2561 24.1832L86.5945 24.933ZM88.8444 25.7562V26.7562C89.7173 26.7562 90.5265 26.555 91.2062 26.0845L90.637 25.2623L90.0678 24.4401C89.7963 24.6281 89.4104 24.7562 88.8444 24.7562V25.7562ZM90.637 25.2623L91.2104 26.0815C91.8699 25.6199 92.3415 24.9972 92.6058 24.2372L91.6613 23.9087L90.7168 23.5802C90.5909 23.9421 90.3796 24.2218 90.0635 24.4431L90.637 25.2623ZM91.6613 23.9087V24.9087H93.4539V23.9087V22.9087H91.6613V23.9087ZM93.4539 23.9087L92.4906 23.6404C92.2816 24.3907 91.8726 24.9923 91.2404 25.4712L91.8442 26.2683L92.4481 27.0654C93.4256 26.3249 94.0896 25.3534 94.4172 24.177L93.4539 23.9087ZM91.8442 26.2683L91.2481 25.4654C90.6469 25.9118 89.8672 26.1646 88.8444 26.1646V27.1646V28.1646C90.2117 28.1646 91.4319 27.82 92.4403 27.0712L91.8442 26.2683ZM88.8444 27.1646V26.1646C88.0486 26.1646 87.3671 25.9878 86.7751 25.6536L86.2836 26.5244L85.792 27.3952C86.7121 27.9147 87.7379 28.1646 88.8444 28.1646V27.1646ZM86.2836 26.5244L86.7812 25.657C86.2034 25.3255 85.7467 24.8588 85.4049 24.2337L84.5275 24.7135L83.6502 25.1933C84.162 26.1292 84.876 26.8697 85.7859 27.3918L86.2836 26.5244ZM84.5275 24.7135L85.408 24.2394C85.0708 23.6132 84.8873 22.8661 84.8873 21.9698H83.8873H82.8873C82.8873 23.1465 83.1307 24.2286 83.6471 25.1876L84.5275 24.7135ZM83.8873 21.9698H84.8873C84.8873 21.0685 85.0668 20.3264 85.3924 19.7135L84.5093 19.2443L83.6261 18.7752C83.1225 19.7232 82.8873 20.798 82.8873 21.9698H83.8873ZM84.5093 19.2443L85.3924 19.7135C85.7202 19.0964 86.1648 18.6424 86.7338 18.3252L86.247 17.4517L85.7601 16.5782C84.8414 17.0903 84.1275 17.8314 83.6261 18.7752L84.5093 19.2443ZM86.247 17.4517L86.7386 18.3226C87.3268 17.9905 88.0194 17.8115 88.8444 17.8115V16.8115V15.8115C87.7183 15.8115 86.6793 16.0594 85.7554 16.5809L86.247 17.4517ZM88.8444 16.8115V17.8115C89.6458 17.8115 90.3132 17.9847 90.8756 18.3035L91.3686 17.4334L91.8617 16.5634C90.9608 16.0529 89.9453 15.8115 88.8444 15.8115V16.8115ZM91.3686 17.4334L90.8756 18.3035C91.4447 18.626 91.8695 19.0616 92.1691 19.6234L93.0515 19.1529L93.9338 18.6823C93.453 17.7807 92.7559 17.0701 91.8617 16.5634L91.3686 17.4334ZM93.0515 19.1529L92.1787 19.641C92.4889 20.1955 92.6551 20.8412 92.6551 21.6039H93.6551H94.6551C94.6551 20.5376 94.419 19.5492 93.9242 18.6647L93.0515 19.1529ZM91.9357 21.2564H92.9357C92.9357 20.4722 92.7609 19.7385 92.3643 19.1005L91.515 19.6284L90.6657 20.1564C90.83 20.4207 90.9357 20.7724 90.9357 21.2564H91.9357ZM91.515 19.6284L92.3705 19.1106C91.989 18.4803 91.4568 17.9985 90.7917 17.6825L90.3626 18.5858L89.9335 19.4891C90.2439 19.6365 90.48 19.8498 90.6595 20.1462L91.515 19.6284ZM90.3626 18.5858L90.8189 17.696C90.189 17.373 89.4999 17.22 88.7712 17.22V18.22V19.22C89.2133 19.22 89.585 19.3109 89.9063 19.4756L90.3626 18.5858ZM88.7712 18.22V17.22C87.6961 17.22 86.7351 17.571 85.9447 18.2808L86.6128 19.0248L87.2809 19.7689C87.6856 19.4055 88.1636 19.22 88.7712 19.22V18.22ZM86.6128 19.0248L85.9371 18.2877C85.1321 19.0255 84.7136 20.0206 84.6108 21.167L85.6068 21.2564L86.6028 21.3458C86.6706 20.5898 86.9228 20.0972 87.2885 19.762L86.6128 19.0248ZM85.6068 21.2564V22.2564H91.9357V21.2564V20.2564H85.6068V21.2564ZM102.254 17.3786L101.749 18.2418L101.756 18.2458L102.254 17.3786ZM103.718 18.8053L102.843 19.2894L104.718 18.8053H103.718ZM103.718 16.9761V15.9761H102.718V16.9761H103.718ZM105.401 16.9761H106.401V15.9761H105.401V16.9761ZM104.815 29.6523L103.94 29.1692L103.936 29.1755L104.815 29.6523ZM103.132 31.3351L102.65 30.4589L102.644 30.4624L103.132 31.3351ZM97.3156 31.0059L96.7376 31.8219L97.3156 31.0059ZM95.7608 28.4633V27.4633H94.6022L94.7715 28.6095L95.7608 28.4633ZM97.4071 28.4633L98.3649 28.176L98.1511 27.4633H97.4071V28.4633ZM98.5411 29.9267L99.0917 29.0919L99.0855 29.0878L99.0792 29.0838L98.5411 29.9267ZM102.84 29.634L102.14 28.9195L102.133 28.9269L102.84 29.634ZM103.718 25.116H104.718V21.2984L102.846 24.6257L103.718 25.116ZM102.254 26.5793L101.737 25.7232L102.254 26.5793ZM97.5534 26.5061L97.0325 27.3598L97.0389 27.3636L97.5534 26.5061ZM95.8523 24.6587L96.7384 24.1952L95.8523 24.6587ZM95.8523 19.2626L96.7323 19.7375L96.7354 19.7318L95.8523 19.2626ZM97.5534 17.4517L97.0495 16.5879L97.0432 16.5917L97.5534 17.4517ZM102.017 18.7139L101.505 19.5731L101.517 19.5803L101.529 19.5871L102.017 18.7139ZM98.6143 18.6956L98.1182 17.8273H98.1182L98.6143 18.6956ZM97.3888 19.976L98.2674 20.4535L97.3888 19.976ZM97.3888 23.9636L96.5059 24.4332L96.5101 24.4411L97.3888 23.9636ZM98.6143 25.2623L98.1028 26.1216L98.1105 26.1261L98.1182 26.1305L98.6143 25.2623ZM102.017 25.2623L102.513 26.1306L102.519 26.1268L102.017 25.2623ZM103.26 23.9636L104.139 24.4411L104.143 24.4332L103.26 23.9636ZM99.9862 16.8115V17.8115C100.703 17.8115 101.279 17.9665 101.749 18.2417L102.254 17.3786L102.759 16.5154C101.937 16.0345 101.001 15.8115 99.9862 15.8115V16.8115ZM102.254 17.3786L101.756 18.2458C102.282 18.5476 102.627 18.9 102.843 19.2894L103.718 18.8053L104.593 18.3213C104.174 17.5643 103.543 16.9655 102.752 16.5113L102.254 17.3786ZM103.718 18.8053H104.718V16.9761H103.718H102.718V18.8053H103.718ZM103.718 16.9761V17.9761H105.401V16.9761V15.9761H103.718V16.9761ZM105.401 16.9761H104.401V27.2195H105.401H106.401V16.9761H105.401ZM105.401 27.2195H104.401C104.401 27.9878 104.238 28.6285 103.94 29.1692L104.815 29.6523L105.691 30.1354C106.173 29.2615 106.401 28.2804 106.401 27.2195H105.401ZM104.815 29.6523L103.936 29.1755C103.639 29.723 103.218 30.1469 102.65 30.4589L103.132 31.3351L103.614 32.2114C104.51 31.7186 105.211 31.0206 105.694 30.1291L104.815 29.6523ZM103.132 31.3351L102.644 30.4624C102.097 30.7683 101.43 30.9388 100.608 30.9388V31.9388V32.9388C101.713 32.9388 102.728 32.7068 103.621 32.2079L103.132 31.3351ZM100.608 31.9388V30.9388C99.4511 30.9388 98.5679 30.6675 97.8936 30.1899L97.3156 31.0059L96.7376 31.8219C97.8193 32.5881 99.1311 32.9388 100.608 32.9388V31.9388ZM97.3156 31.0059L97.8936 30.1899C97.2404 29.7272 96.8691 29.1227 96.7501 28.3172L95.7608 28.4633L94.7715 28.6095C94.9696 29.9502 95.6347 31.0407 96.7376 31.8219L97.3156 31.0059ZM95.7608 28.4633V29.4633H97.4071V28.4633V27.4633H95.7608V28.4633ZM97.4071 28.4633L96.4492 28.7507C96.7059 29.6063 97.2429 30.2844 98.0031 30.7696L98.5411 29.9267L99.0792 29.0838C98.6931 28.8373 98.474 28.5398 98.3649 28.176L97.4071 28.4633ZM98.5411 29.9267L97.9905 30.7614C98.7536 31.2648 99.6419 31.4937 100.608 31.4937V30.4937V29.4937C99.9646 29.4937 99.4749 29.3446 99.0917 29.0919L98.5411 29.9267ZM100.608 30.4937V31.4937C101.751 31.4937 102.761 31.1265 103.547 30.3411L102.84 29.634L102.133 28.9269C101.772 29.2878 101.295 29.4937 100.608 29.4937V30.4937ZM102.84 29.634L103.539 30.3485C104.365 29.5404 104.718 28.4496 104.718 27.2195H103.718H102.718C102.718 28.0624 102.485 28.5813 102.14 28.9195L102.84 29.634ZM103.718 27.2195H104.718V25.116H103.718H102.718V27.2195H103.718ZM103.718 25.116L102.846 24.6257C102.612 25.0425 102.255 25.411 101.737 25.7232L102.254 26.5793L102.771 27.4354C103.547 26.9672 104.165 26.36 104.589 25.6062L103.718 25.116ZM102.254 26.5793L101.737 25.7232C101.269 26.0061 100.697 26.1646 99.9862 26.1646V27.1646V28.1646C101.007 28.1646 101.947 27.9329 102.771 27.4354L102.254 26.5793ZM99.9862 27.1646V26.1646C99.269 26.1646 98.6373 25.9902 98.0679 25.6486L97.5534 26.5061L97.0389 27.3636C97.9329 27.9 98.923 28.1646 99.9862 28.1646V27.1646ZM97.5534 26.5061L98.0743 25.6525C97.5193 25.3138 97.0742 24.8373 96.7384 24.1952L95.8523 24.6587L94.9662 25.1222C95.4595 26.0653 96.1486 26.8204 97.0325 27.3598L97.5534 26.5061ZM95.8523 24.6587L96.7384 24.1952C96.4079 23.5634 96.2303 22.8237 96.2303 21.9515H95.2303H94.2303C94.2303 23.1036 94.4674 24.1686 94.9662 25.1222L95.8523 24.6587ZM95.2303 21.9515H96.2303C96.2303 21.0641 96.4091 20.3365 96.7323 19.7375L95.8523 19.2626L94.9722 18.7877C94.4662 19.7253 94.2303 20.7902 94.2303 21.9515H95.2303ZM95.8523 19.2626L96.7354 19.7318C97.069 19.1038 97.511 18.6396 98.0636 18.3118L97.5534 17.4517L97.0432 16.5917C96.1569 17.1175 95.4648 17.8605 94.9691 18.7935L95.8523 19.2626ZM97.5534 17.4517L98.0573 18.3155C98.6281 17.9825 99.2637 17.8115 99.9862 17.8115V16.8115V15.8115C98.9283 15.8115 97.942 16.0673 97.0495 16.5879L97.5534 17.4517ZM103.718 21.9698H104.718C104.718 21.0777 104.537 20.2491 104.139 19.5168L103.26 19.9943L102.382 20.4718C102.594 20.8614 102.718 21.3498 102.718 21.9698H103.718ZM103.26 19.9943L104.139 19.5168C103.75 18.8005 103.204 18.2315 102.504 17.8407L102.017 18.7139L101.529 19.5871C101.878 19.7816 102.161 20.0661 102.382 20.4718L103.26 19.9943ZM102.017 18.7139L102.528 17.8546C101.854 17.4535 101.109 17.2566 100.315 17.2566V18.2566V19.2566C100.765 19.2566 101.155 19.3645 101.505 19.5731L102.017 18.7139ZM100.315 18.2566V17.2566C99.5293 17.2566 98.7897 17.4436 98.1182 17.8273L98.6143 18.6956L99.1104 19.5638C99.4632 19.3622 99.8577 19.2566 100.315 19.2566V18.2566ZM98.6143 18.6956L98.1182 17.8273C97.4314 18.2197 96.8961 18.7882 96.5101 19.4985L97.3888 19.976L98.2674 20.4535C98.4911 20.0418 98.7729 19.7567 99.1104 19.5638L98.6143 18.6956ZM97.3888 19.976L96.5101 19.4985C96.1121 20.2308 95.9315 21.0594 95.9315 21.9515H96.9315H97.9315C97.9315 21.3315 98.0557 20.8431 98.2674 20.4535L97.3888 19.976ZM96.9315 21.9515H95.9315C95.9315 22.8535 96.1112 23.6911 96.5059 24.4332L97.3888 23.9636L98.2716 23.494C98.0566 23.0898 97.9315 22.586 97.9315 21.9515H96.9315ZM97.3888 23.9636L96.5101 24.4411C96.8945 25.1483 97.4252 25.7182 98.1028 26.1216L98.6143 25.2623L99.1258 24.403C98.7791 24.1966 98.4927 23.9007 98.2674 23.4861L97.3888 23.9636ZM98.6143 25.2623L98.1182 26.1305C98.7897 26.5143 99.5293 26.7013 100.315 26.7013V25.7013V24.7013C99.8577 24.7013 99.4632 24.5956 99.1104 24.394L98.6143 25.2623ZM100.315 25.7013V26.7013C101.102 26.7013 101.841 26.5143 102.513 26.1305L102.017 25.2623L101.52 24.394C101.168 24.5956 100.773 24.7013 100.315 24.7013V25.7013ZM102.017 25.2623L102.519 26.1268C103.21 25.7249 103.751 25.1542 104.139 24.4411L103.26 23.9636L102.382 23.4861C102.16 23.8948 101.871 24.19 101.514 24.3978L102.017 25.2623ZM103.26 23.9636L104.143 24.4332C104.537 23.6933 104.718 22.8625 104.718 21.9698H103.718H102.718C102.718 22.5891 102.594 23.0875 102.378 23.494L103.26 23.9636ZM110.024 26.5244L109.533 27.3953L109.539 27.3986L110.024 26.5244ZM108.232 24.7135L107.351 25.1876L107.356 25.1958L107.36 25.2038L108.232 24.7135ZM108.25 19.2626L107.381 18.7679L107.378 18.7723L108.25 19.2626ZM110.079 17.4517L110.554 18.3318L110.565 18.3259L110.079 17.4517ZM115.237 17.4517L114.752 18.3259L114.763 18.3317L115.237 17.4517ZM117.048 19.2443L116.177 19.7346L116.183 19.7448L117.048 19.2443ZM117.03 24.7135L116.167 24.2088L116.164 24.213L117.03 24.7135ZM115.183 26.5244L115.662 27.4018L115.183 26.5244ZM115.53 24.0185L114.668 23.5123L114.664 23.5193L114.66 23.5264L115.53 24.0185ZM114.305 18.6773L113.824 19.5544L113.832 19.5588L113.841 19.5631L114.305 18.6773ZM110.957 18.6773L111.43 19.5585L111.438 19.5544L110.957 18.6773ZM109.75 19.9211L110.629 20.3986L109.75 19.9211ZM109.732 24.0367L108.845 24.4993L108.849 24.5068L108.853 24.5143L109.732 24.0367ZM110.939 25.2989L110.45 26.171L110.458 26.1756L110.466 26.18L110.939 25.2989ZM112.585 27.1646V26.1646C111.804 26.1646 111.12 25.9889 110.51 25.6503L110.024 26.5244L109.539 27.3986C110.466 27.9135 111.488 28.1646 112.585 28.1646V27.1646ZM110.024 26.5244L110.516 25.6536C109.924 25.3195 109.456 24.8498 109.103 24.2233L108.232 24.7135L107.36 25.2038C107.886 26.1382 108.612 26.8757 109.533 27.3952L110.024 26.5244ZM108.232 24.7135L109.112 24.2394C108.775 23.6132 108.592 22.8661 108.592 21.9698H107.592H106.592C106.592 23.1465 106.835 24.2286 107.351 25.1876L108.232 24.7135ZM107.592 21.9698H108.592C108.592 21.0921 108.778 20.3632 109.122 19.7529L108.25 19.2626L107.378 18.7723C106.844 19.7229 106.592 20.7988 106.592 21.9698H107.592ZM108.25 19.2626L109.119 19.7573C109.482 19.1198 109.958 18.6533 110.554 18.3317L110.079 17.4517L109.604 16.5717C108.664 17.0794 107.921 17.8201 107.381 18.7679L108.25 19.2626ZM110.079 17.4517L110.565 18.3259C111.172 17.9883 111.863 17.8115 112.658 17.8115V16.8115V15.8115C111.552 15.8115 110.522 16.0615 109.594 16.5776L110.079 17.4517ZM112.658 16.8115V17.8115C113.454 17.8115 114.144 17.9883 114.752 18.3259L115.237 17.4517L115.723 16.5776C114.794 16.0615 113.765 15.8115 112.658 15.8115V16.8115ZM115.237 17.4517L114.763 18.3317C115.36 18.6541 115.828 19.1145 116.177 19.7346L117.048 19.2443L117.92 18.7541C117.391 17.8133 116.652 17.0785 115.712 16.5717L115.237 17.4517ZM117.048 19.2443L116.183 19.7448C116.533 20.3516 116.725 21.0823 116.725 21.9698H117.725H118.725C118.725 20.7842 118.466 19.698 117.914 18.7438L117.048 19.2443ZM117.725 21.9698H116.725C116.725 22.8523 116.53 23.5883 116.167 24.2088L117.03 24.7135L117.893 25.2182C118.457 24.2535 118.725 23.1603 118.725 21.9698H117.725ZM117.03 24.7135L116.164 24.213C115.804 24.8371 115.32 25.3094 114.703 25.647L115.183 26.5244L115.662 27.4018C116.606 26.8858 117.354 26.1508 117.896 25.214L117.03 24.7135ZM115.183 26.5244L114.703 25.647C114.08 25.9878 113.381 26.1646 112.585 26.1646V27.1646V28.1646C113.692 28.1646 114.725 27.9146 115.662 27.4018L115.183 26.5244ZM112.585 25.7013V26.7013C113.346 26.7013 114.069 26.5208 114.74 26.1624L114.268 25.2806L113.796 24.3988C113.418 24.6013 113.019 24.7013 112.585 24.7013V25.7013ZM114.268 25.2806L114.74 26.1624C115.445 25.785 115.998 25.2222 116.401 24.5105L115.53 24.0185L114.66 23.5264C114.428 23.9366 114.14 24.2152 113.796 24.3988L114.268 25.2806ZM115.53 24.0185L116.393 24.5247C116.831 23.7777 117.024 22.9106 117.024 21.9698H116.024H115.024C115.024 22.6386 114.888 23.1373 114.668 23.5123L115.53 24.0185ZM116.024 21.9698H117.024C117.024 21.0349 116.84 20.1731 116.419 19.429L115.548 19.9211L114.678 20.4132C114.891 20.791 115.024 21.295 115.024 21.9698H116.024ZM115.548 19.9211L116.419 19.429C116.018 18.7203 115.471 18.1591 114.769 17.7914L114.305 18.6773L113.841 19.5631C114.163 19.732 114.444 20 114.678 20.4132L115.548 19.9211ZM114.305 18.6773L114.785 17.8002C114.122 17.4371 113.401 17.2566 112.64 17.2566V18.2566V19.2566C113.074 19.2566 113.463 19.3565 113.824 19.5544L114.305 18.6773ZM112.64 18.2566V17.2566C111.87 17.2566 111.143 17.4354 110.477 17.8002L110.957 18.6773L111.438 19.5544C111.796 19.3581 112.191 19.2566 112.64 19.2566V18.2566ZM110.957 18.6773L110.484 17.7961C109.792 18.1678 109.257 18.7336 108.871 19.4436L109.75 19.9211L110.629 20.3986C110.852 19.9867 111.123 19.7233 111.43 19.5584L110.957 18.6773ZM109.75 19.9211L108.871 19.4436C108.469 20.1845 108.293 21.0408 108.293 21.9698H109.293H110.293C110.293 21.2891 110.422 20.7796 110.629 20.3986L109.75 19.9211ZM109.293 21.9698H108.293C108.293 22.9024 108.459 23.76 108.845 24.4993L109.732 24.0367L110.618 23.5742C110.419 23.1915 110.293 22.6712 110.293 21.9698H109.293ZM109.732 24.0367L108.853 24.5143C109.237 25.2214 109.767 25.7881 110.45 26.171L110.939 25.2989L111.428 24.4267C111.111 24.2487 110.836 23.974 110.61 23.5592L109.732 24.0367ZM110.939 25.2989L110.466 26.18C111.119 26.5305 111.832 26.7013 112.585 26.7013V25.7013V24.7013C112.144 24.7013 111.759 24.6038 111.412 24.4177L110.939 25.2989Z" fill="url(#paint1_linear_392_1572)" mask="url(#path-2-outside-1_392_1572)"></path><defs><linearGradient id="paint0_linear_392_1572" x1="84" y1="0" x2="84" y2="41" gradientUnits="userSpaceOnUse"><stop stop-color="#808FB0"></stop><stop offset="1" stop-color="#141F47"></stop></linearGradient><linearGradient id="paint1_linear_392_1572" x1="83.5" y1="7" x2="83.5" y2="34" gradientUnits="userSpaceOnUse"><stop stop-color="#808FB0"></stop><stop offset="1" stop-color="#141F47"></stop></linearGradient></defs></svg>