<svg xmlns="http://www.w3.org/2000/svg" width="168" height="41" viewBox="0 0 168 41" fill="none"><rect x="0.5" y="0.5" width="167" height="40" rx="19.5" fill="#0F1435" stroke="url(#paint0_linear_392_1575)"></rect><mask id="path-2-outside-1_392_1575" maskUnits="userSpaceOnUse" x="49" y="12" width="69" height="17" fill="black"><rect fill="white" x="49" y="12" width="69" height="17"></rect><path d="M57.1886 27.128C56.0058 27.128 54.9266 26.8537 53.951 26.3049C52.9755 25.744 52.2011 24.9696 51.628 23.9819C51.067 22.9819 50.7865 21.86 50.7865 20.6162C50.7865 19.3724 51.067 18.2566 51.628 17.2688C52.2011 16.2689 52.9755 15.4945 53.951 14.9458C54.9266 14.3848 56.0058 14.1043 57.1886 14.1043C58.3837 14.1043 59.469 14.3848 60.4446 14.9458C61.4201 15.4945 62.1884 16.2628 62.7493 17.2505C63.3103 18.2383 63.5907 19.3602 63.5907 20.6162C63.5907 21.8722 63.3103 22.9941 62.7493 23.9819C62.1884 24.9696 61.4201 25.744 60.4446 26.3049C59.469 26.8537 58.3837 27.128 57.1886 27.128ZM57.1886 25.683C58.0788 25.683 58.8776 25.4757 59.5849 25.0611C60.3043 24.6465 60.8653 24.055 61.2677 23.2868C61.6823 22.5185 61.8896 21.6283 61.8896 20.6162C61.8896 19.5919 61.6823 18.7017 61.2677 17.9456C60.8653 17.1774 60.3104 16.5859 59.6031 16.1713C58.8959 15.7567 58.091 15.5494 57.1886 15.5494C56.2863 15.5494 55.4814 15.7567 54.7741 16.1713C54.0669 16.5859 53.5059 17.1774 53.0913 17.9456C52.6889 18.7017 52.4877 19.5919 52.4877 20.6162C52.4877 21.6283 52.6889 22.5185 53.0913 23.2868C53.5059 24.055 54.0669 24.6465 54.7741 25.0611C55.4936 25.4757 56.2984 25.683 57.1886 25.683ZM69.8672 18.348H67.7637V27H66.0991V18.348H64.8004V16.9761H66.0991V16.2628C66.0991 15.1409 66.3857 14.3238 66.9588 13.8117C67.5442 13.2873 68.4771 13.0251 69.7575 13.0251V14.4153C69.0258 14.4153 68.5075 14.5616 68.2027 14.8543C67.91 15.1348 67.7637 15.6043 67.7637 16.2628V16.9761H69.8672V18.348ZM80.9539 21.6039C80.9539 21.921 80.9356 22.2563 80.899 22.61H72.8872C72.9482 23.5977 73.2835 24.3721 73.8933 24.933C74.5152 25.4818 75.2651 25.7562 76.1431 25.7562C76.8626 25.7562 77.4601 25.5915 77.9357 25.2623C78.4235 24.9208 78.765 24.4696 78.9601 23.9087H80.7527C80.4844 24.8721 79.9478 25.6586 79.143 26.2683C78.3381 26.8659 77.3382 27.1646 76.1431 27.1646C75.192 27.1646 74.3384 26.9512 73.5823 26.5244C72.8384 26.0976 72.2531 25.494 71.8263 24.7135C71.3995 23.9209 71.1861 23.0063 71.1861 21.9698C71.1861 20.9332 71.3934 20.0248 71.808 19.2443C72.2226 18.4639 72.8019 17.8663 73.5457 17.4517C74.3018 17.0249 75.1676 16.8115 76.1431 16.8115C77.0943 16.8115 77.9357 17.0188 78.6674 17.4334C79.3991 17.848 79.96 18.4212 80.3502 19.1529C80.7527 19.8723 80.9539 20.6894 80.9539 21.6039ZM79.2344 21.2564C79.2344 20.6223 79.0942 20.0796 78.8137 19.6284C78.5333 19.165 78.1491 18.8175 77.6614 18.5858C77.1858 18.3419 76.6553 18.22 76.07 18.22C75.2286 18.22 74.5091 18.4883 73.9116 19.0248C73.3262 19.5614 72.9909 20.3052 72.9055 21.2564H79.2344ZM84.8156 18.6041C85.1082 18.031 85.5228 17.5859 86.0594 17.2688C86.6081 16.9518 87.2727 16.7932 88.0532 16.7932V18.5126H87.6142C85.7484 18.5126 84.8156 19.5248 84.8156 21.5491V27H83.151V16.9761H84.8156V18.6041ZM92.0051 18.348V24.2562C92.0051 24.744 92.1087 25.0916 92.316 25.2989C92.5233 25.494 92.8831 25.5915 93.3952 25.5915H94.6208V27H93.1209C92.1941 27 91.499 26.7866 91.0356 26.3598C90.5722 25.933 90.3405 25.2318 90.3405 24.2562V18.348H89.0418V16.9761H90.3405V14.4519H92.0051V16.9761H94.6208V18.348H92.0051ZM96.0157 21.9515C96.0157 20.9272 96.223 20.0309 96.6376 19.2626C97.0522 18.4822 97.6192 17.8785 98.3387 17.4517C99.0704 17.0249 99.8813 16.8115 100.772 16.8115C101.65 16.8115 102.412 17.0005 103.058 17.3786C103.704 17.7566 104.186 18.2322 104.503 18.8053V16.9761H106.186V27H104.503V25.1342C104.174 25.7196 103.68 26.2074 103.021 26.5976C102.375 26.9756 101.619 27.1646 100.753 27.1646C99.863 27.1646 99.0582 26.9451 98.3387 26.5061C97.6192 26.0671 97.0522 25.4513 96.6376 24.6587C96.223 23.866 96.0157 22.9636 96.0157 21.9515ZM104.503 21.9698C104.503 21.2137 104.351 20.5552 104.046 19.9943C103.741 19.4333 103.326 19.0065 102.802 18.7139C102.29 18.409 101.723 18.2566 101.101 18.2566C100.479 18.2566 99.9118 18.4029 99.3996 18.6956C98.8875 18.9882 98.4789 19.415 98.1741 19.976C97.8692 20.5369 97.7168 21.1954 97.7168 21.9515C97.7168 22.7197 97.8692 23.3904 98.1741 23.9636C98.4789 24.5245 98.8875 24.9574 99.3996 25.2623C99.9118 25.555 100.479 25.7013 101.101 25.7013C101.723 25.7013 102.29 25.555 102.802 25.2623C103.326 24.9574 103.741 24.5245 104.046 23.9636C104.351 23.3904 104.503 22.7258 104.503 21.9698ZM112.547 27.1646C111.779 27.1646 111.09 27.0366 110.48 26.7805C109.871 26.5122 109.389 26.1464 109.035 25.683C108.682 25.2074 108.487 24.6648 108.45 24.055H110.169C110.218 24.555 110.45 24.9635 110.865 25.2806C111.291 25.5976 111.846 25.7562 112.529 25.7562C113.163 25.7562 113.663 25.6159 114.029 25.3355C114.395 25.055 114.578 24.7013 114.578 24.2745C114.578 23.8355 114.383 23.5124 113.992 23.3051C113.602 23.0856 112.999 22.8722 112.182 22.6649C111.438 22.4698 110.828 22.2746 110.352 22.0795C109.889 21.8722 109.487 21.5735 109.145 21.1832C108.816 20.7808 108.651 20.2565 108.651 19.6101C108.651 19.098 108.804 18.6285 109.109 18.2017C109.413 17.7749 109.846 17.4395 110.407 17.1956C110.968 16.9396 111.608 16.8115 112.328 16.8115C113.438 16.8115 114.334 17.092 115.017 17.6529C115.7 18.2139 116.065 18.9821 116.114 19.9577H114.45C114.413 19.4333 114.2 19.0126 113.809 18.6956C113.431 18.3785 112.919 18.22 112.273 18.22C111.675 18.22 111.2 18.348 110.846 18.6041C110.493 18.8602 110.316 19.1955 110.316 19.6101C110.316 19.9394 110.419 20.2138 110.627 20.4333C110.846 20.6406 111.115 20.8113 111.432 20.9454C111.761 21.0674 112.212 21.2076 112.785 21.3662C113.505 21.5613 114.09 21.7564 114.541 21.9515C114.992 22.1344 115.376 22.4149 115.694 22.7929C116.023 23.1709 116.194 23.6648 116.206 24.2745C116.206 24.8233 116.053 25.3172 115.748 25.7562C115.444 26.1952 115.011 26.5427 114.45 26.7988C113.901 27.0427 113.267 27.1646 112.547 27.1646Z"></path></mask><path d="M57.1886 27.128C56.0058 27.128 54.9266 26.8537 53.951 26.3049C52.9755 25.744 52.2011 24.9696 51.628 23.9819C51.067 22.9819 50.7865 21.86 50.7865 20.6162C50.7865 19.3724 51.067 18.2566 51.628 17.2688C52.2011 16.2689 52.9755 15.4945 53.951 14.9458C54.9266 14.3848 56.0058 14.1043 57.1886 14.1043C58.3837 14.1043 59.469 14.3848 60.4446 14.9458C61.4201 15.4945 62.1884 16.2628 62.7493 17.2505C63.3103 18.2383 63.5907 19.3602 63.5907 20.6162C63.5907 21.8722 63.3103 22.9941 62.7493 23.9819C62.1884 24.9696 61.4201 25.744 60.4446 26.3049C59.469 26.8537 58.3837 27.128 57.1886 27.128ZM57.1886 25.683C58.0788 25.683 58.8776 25.4757 59.5849 25.0611C60.3043 24.6465 60.8653 24.055 61.2677 23.2868C61.6823 22.5185 61.8896 21.6283 61.8896 20.6162C61.8896 19.5919 61.6823 18.7017 61.2677 17.9456C60.8653 17.1774 60.3104 16.5859 59.6031 16.1713C58.8959 15.7567 58.091 15.5494 57.1886 15.5494C56.2863 15.5494 55.4814 15.7567 54.7741 16.1713C54.0669 16.5859 53.5059 17.1774 53.0913 17.9456C52.6889 18.7017 52.4877 19.5919 52.4877 20.6162C52.4877 21.6283 52.6889 22.5185 53.0913 23.2868C53.5059 24.055 54.0669 24.6465 54.7741 25.0611C55.4936 25.4757 56.2984 25.683 57.1886 25.683ZM69.8672 18.348H67.7637V27H66.0991V18.348H64.8004V16.9761H66.0991V16.2628C66.0991 15.1409 66.3857 14.3238 66.9588 13.8117C67.5442 13.2873 68.4771 13.0251 69.7575 13.0251V14.4153C69.0258 14.4153 68.5075 14.5616 68.2027 14.8543C67.91 15.1348 67.7637 15.6043 67.7637 16.2628V16.9761H69.8672V18.348ZM80.9539 21.6039C80.9539 21.921 80.9356 22.2563 80.899 22.61H72.8872C72.9482 23.5977 73.2835 24.3721 73.8933 24.933C74.5152 25.4818 75.2651 25.7562 76.1431 25.7562C76.8626 25.7562 77.4601 25.5915 77.9357 25.2623C78.4235 24.9208 78.765 24.4696 78.9601 23.9087H80.7527C80.4844 24.8721 79.9478 25.6586 79.143 26.2683C78.3381 26.8659 77.3382 27.1646 76.1431 27.1646C75.192 27.1646 74.3384 26.9512 73.5823 26.5244C72.8384 26.0976 72.2531 25.494 71.8263 24.7135C71.3995 23.9209 71.1861 23.0063 71.1861 21.9698C71.1861 20.9332 71.3934 20.0248 71.808 19.2443C72.2226 18.4639 72.8019 17.8663 73.5457 17.4517C74.3018 17.0249 75.1676 16.8115 76.1431 16.8115C77.0943 16.8115 77.9357 17.0188 78.6674 17.4334C79.3991 17.848 79.96 18.4212 80.3502 19.1529C80.7527 19.8723 80.9539 20.6894 80.9539 21.6039ZM79.2344 21.2564C79.2344 20.6223 79.0942 20.0796 78.8137 19.6284C78.5333 19.165 78.1491 18.8175 77.6614 18.5858C77.1858 18.3419 76.6553 18.22 76.07 18.22C75.2286 18.22 74.5091 18.4883 73.9116 19.0248C73.3262 19.5614 72.9909 20.3052 72.9055 21.2564H79.2344ZM84.8156 18.6041C85.1082 18.031 85.5228 17.5859 86.0594 17.2688C86.6081 16.9518 87.2727 16.7932 88.0532 16.7932V18.5126H87.6142C85.7484 18.5126 84.8156 19.5248 84.8156 21.5491V27H83.151V16.9761H84.8156V18.6041ZM92.0051 18.348V24.2562C92.0051 24.744 92.1087 25.0916 92.316 25.2989C92.5233 25.494 92.8831 25.5915 93.3952 25.5915H94.6208V27H93.1209C92.1941 27 91.499 26.7866 91.0356 26.3598C90.5722 25.933 90.3405 25.2318 90.3405 24.2562V18.348H89.0418V16.9761H90.3405V14.4519H92.0051V16.9761H94.6208V18.348H92.0051ZM96.0157 21.9515C96.0157 20.9272 96.223 20.0309 96.6376 19.2626C97.0522 18.4822 97.6192 17.8785 98.3387 17.4517C99.0704 17.0249 99.8813 16.8115 100.772 16.8115C101.65 16.8115 102.412 17.0005 103.058 17.3786C103.704 17.7566 104.186 18.2322 104.503 18.8053V16.9761H106.186V27H104.503V25.1342C104.174 25.7196 103.68 26.2074 103.021 26.5976C102.375 26.9756 101.619 27.1646 100.753 27.1646C99.863 27.1646 99.0582 26.9451 98.3387 26.5061C97.6192 26.0671 97.0522 25.4513 96.6376 24.6587C96.223 23.866 96.0157 22.9636 96.0157 21.9515ZM104.503 21.9698C104.503 21.2137 104.351 20.5552 104.046 19.9943C103.741 19.4333 103.326 19.0065 102.802 18.7139C102.29 18.409 101.723 18.2566 101.101 18.2566C100.479 18.2566 99.9118 18.4029 99.3996 18.6956C98.8875 18.9882 98.4789 19.415 98.1741 19.976C97.8692 20.5369 97.7168 21.1954 97.7168 21.9515C97.7168 22.7197 97.8692 23.3904 98.1741 23.9636C98.4789 24.5245 98.8875 24.9574 99.3996 25.2623C99.9118 25.555 100.479 25.7013 101.101 25.7013C101.723 25.7013 102.29 25.555 102.802 25.2623C103.326 24.9574 103.741 24.5245 104.046 23.9636C104.351 23.3904 104.503 22.7258 104.503 21.9698ZM112.547 27.1646C111.779 27.1646 111.09 27.0366 110.48 26.7805C109.871 26.5122 109.389 26.1464 109.035 25.683C108.682 25.2074 108.487 24.6648 108.45 24.055H110.169C110.218 24.555 110.45 24.9635 110.865 25.2806C111.291 25.5976 111.846 25.7562 112.529 25.7562C113.163 25.7562 113.663 25.6159 114.029 25.3355C114.395 25.055 114.578 24.7013 114.578 24.2745C114.578 23.8355 114.383 23.5124 113.992 23.3051C113.602 23.0856 112.999 22.8722 112.182 22.6649C111.438 22.4698 110.828 22.2746 110.352 22.0795C109.889 21.8722 109.487 21.5735 109.145 21.1832C108.816 20.7808 108.651 20.2565 108.651 19.6101C108.651 19.098 108.804 18.6285 109.109 18.2017C109.413 17.7749 109.846 17.4395 110.407 17.1956C110.968 16.9396 111.608 16.8115 112.328 16.8115C113.438 16.8115 114.334 17.092 115.017 17.6529C115.7 18.2139 116.065 18.9821 116.114 19.9577H114.45C114.413 19.4333 114.2 19.0126 113.809 18.6956C113.431 18.3785 112.919 18.22 112.273 18.22C111.675 18.22 111.2 18.348 110.846 18.6041C110.493 18.8602 110.316 19.1955 110.316 19.6101C110.316 19.9394 110.419 20.2138 110.627 20.4333C110.846 20.6406 111.115 20.8113 111.432 20.9454C111.761 21.0674 112.212 21.2076 112.785 21.3662C113.505 21.5613 114.09 21.7564 114.541 21.9515C114.992 22.1344 115.376 22.4149 115.694 22.7929C116.023 23.1709 116.194 23.6648 116.206 24.2745C116.206 24.8233 116.053 25.3172 115.748 25.7562C115.444 26.1952 115.011 26.5427 114.45 26.7988C113.901 27.0427 113.267 27.1646 112.547 27.1646Z" fill="#A8A8A8"></path><path d="M53.951 26.3049L53.4525 27.1719L53.4607 27.1765L53.951 26.3049ZM51.628 23.9819L50.7558 24.4711L50.7594 24.4775L50.763 24.4837L51.628 23.9819ZM51.628 17.2688L50.7604 16.7715L50.7584 16.775L51.628 17.2688ZM53.951 14.9458L54.4413 15.8174L54.4495 15.8127L53.951 14.9458ZM60.4446 14.9458L59.9461 15.8127L59.9543 15.8173L60.4446 14.9458ZM62.7493 17.2505L63.6189 16.7567L62.7493 17.2505ZM62.7493 23.9819L61.8798 23.488L62.7493 23.9819ZM60.4446 26.3049L60.9349 27.1765L60.943 27.1718L60.4446 26.3049ZM59.5849 25.0611L59.0855 24.1946L59.0791 24.1984L59.5849 25.0611ZM61.2677 23.2868L60.3876 22.8118L60.3819 22.8228L61.2677 23.2868ZM61.2677 17.9456L60.3819 18.4096L60.3863 18.4181L60.3909 18.4264L61.2677 17.9456ZM59.6031 16.1713L59.0974 17.034H59.0974L59.6031 16.1713ZM54.7741 16.1713L55.2799 17.034H55.2799L54.7741 16.1713ZM53.0913 17.9456L52.2113 17.4707L52.2086 17.4758L53.0913 17.9456ZM53.0913 23.2868L52.2054 23.7508L52.2113 23.7617L53.0913 23.2868ZM54.7741 25.0611L54.2684 25.9238L54.2748 25.9275L54.7741 25.0611ZM57.1886 27.128V26.128C56.1674 26.128 55.2586 25.8931 54.4413 25.4333L53.951 26.3049L53.4607 27.1765C54.5946 27.8143 55.8441 28.128 57.1886 28.128V27.128ZM53.951 26.3049L54.4495 25.438C53.6283 24.9658 52.9794 24.3184 52.4929 23.48L51.628 23.9819L50.763 24.4837C51.4228 25.6208 52.3226 26.5221 53.4525 27.1718L53.951 26.3049ZM51.628 23.9819L52.5001 23.4926C52.03 22.6546 51.7865 21.7036 51.7865 20.6162H50.7865H49.7865C49.7865 22.0164 50.104 23.3092 50.7558 24.4711L51.628 23.9819ZM50.7865 20.6162H51.7865C51.7865 19.5286 52.03 18.5858 52.4975 17.7626L51.628 17.2688L50.7584 16.775C50.104 17.9273 49.7865 19.2161 49.7865 20.6162H50.7865ZM51.628 17.2688L52.4956 17.7661C52.9818 16.9178 53.6278 16.2749 54.4413 15.8173L53.951 14.9458L53.4607 14.0742C52.3231 14.7141 51.4204 15.6199 50.7604 16.7715L51.628 17.2688ZM53.951 14.9458L54.4495 15.8127C55.2655 15.3434 56.1714 15.1043 57.1886 15.1043V14.1043V13.1043C55.8401 13.1043 54.5876 13.4262 53.4525 14.0789L53.951 14.9458ZM57.1886 14.1043V15.1043C58.22 15.1043 59.1316 15.3444 59.9461 15.8127L60.4446 14.9458L60.943 14.0789C59.8064 13.4253 58.5474 13.1043 57.1886 13.1043V14.1043ZM60.4446 14.9458L59.9543 15.8173C60.769 16.2756 61.4072 16.9122 61.8798 17.7443L62.7493 17.2505L63.6189 16.7567C62.9696 15.6134 62.0713 14.7134 60.9348 14.0742L60.4446 14.9458ZM62.7493 17.2505L61.8798 17.7443C62.3464 18.566 62.5907 19.5145 62.5907 20.6162H63.5907H64.5907C64.5907 19.2058 64.2741 17.9105 63.6189 16.7567L62.7493 17.2505ZM63.5907 20.6162H62.5907C62.5907 21.7178 62.3464 22.6663 61.8798 23.488L62.7493 23.9819L63.6189 24.4757C64.2741 23.3219 64.5907 22.0266 64.5907 20.6162H63.5907ZM62.7493 23.9819L61.8798 23.488C61.4061 24.3221 60.7653 24.9669 59.9461 25.438L60.4446 26.3049L60.943 27.1718C62.0749 26.521 62.9706 25.6172 63.6189 24.4757L62.7493 23.9819ZM60.4446 26.3049L59.9543 25.4333C59.1386 25.8922 58.224 26.128 57.1886 26.128V27.128V28.128C58.5434 28.128 59.7995 27.8151 60.9348 27.1765L60.4446 26.3049ZM57.1886 25.683V26.683C58.2409 26.683 59.2169 26.4359 60.0906 25.9238L59.5849 25.0611L59.0791 24.1984C58.5383 24.5154 57.9168 24.683 57.1886 24.683V25.683ZM59.5849 25.0611L60.0842 25.9275C60.9756 25.4138 61.6672 24.6793 62.1535 23.7508L61.2677 23.2868L60.3819 22.8228C60.0634 23.4308 59.6331 23.8791 59.0856 24.1946L59.5849 25.0611ZM61.2677 23.2868L62.1477 23.7617C62.6528 22.8258 62.8896 21.7676 62.8896 20.6162H61.8896H60.8896C60.8896 21.4891 60.7118 22.2112 60.3877 22.8118L61.2677 23.2868ZM61.8896 20.6162H62.8896C62.8896 19.4554 62.6539 18.3936 62.1445 17.4648L61.2677 17.9456L60.3909 18.4264C60.7107 19.0097 60.8896 19.7284 60.8896 20.6162H61.8896ZM61.2677 17.9456L62.1535 17.4816C61.6695 16.5575 60.9872 15.8235 60.1089 15.3086L59.6031 16.1713L59.0974 17.034C59.6337 17.3484 60.0611 17.7972 60.3819 18.4096L61.2677 17.9456ZM59.6031 16.1713L60.1089 15.3086C59.2331 14.7952 58.2504 14.5494 57.1886 14.5494V15.5494V16.5494C57.9317 16.5494 58.5587 16.7182 59.0974 17.034L59.6031 16.1713ZM57.1886 15.5494V14.5494C56.1269 14.5494 55.1442 14.7952 54.2684 15.3086L54.7741 16.1713L55.2799 17.034C55.8186 16.7182 56.4456 16.5494 57.1886 16.5494V15.5494ZM54.7741 16.1713L54.2684 15.3086C53.3929 15.8218 52.707 16.5522 52.2113 17.4707L53.0913 17.9456L53.9713 18.4205C54.3049 17.8025 54.7408 17.35 55.2799 17.034L54.7741 16.1713ZM53.0913 17.9456L52.2086 17.4758C51.7154 18.4023 51.4877 19.46 51.4877 20.6162H52.4877H53.4877C53.4877 19.7238 53.6624 19.0011 53.974 18.4155L53.0913 17.9456ZM52.4877 20.6162H51.4877C51.4877 21.7629 51.7164 22.8172 52.2055 23.7508L53.0913 23.2868L53.9771 22.8228C53.6613 22.2199 53.4877 21.4938 53.4877 20.6162H52.4877ZM53.0913 23.2868L52.2113 23.7617C52.707 24.6802 53.3929 25.4105 54.2684 25.9238L54.7741 25.0611L55.2799 24.1984C54.7408 23.8824 54.3049 23.4299 53.9713 22.8118L53.0913 23.2868ZM54.7741 25.0611L54.2748 25.9275C55.1571 26.4359 56.1362 26.683 57.1886 26.683V25.683V24.683C56.4607 24.683 55.8301 24.5155 55.2734 24.1946L54.7741 25.0611ZM69.8672 18.348V19.348H70.8672V18.348H69.8672ZM67.7637 18.348V17.348H66.7637V18.348H67.7637ZM67.7637 27V28H68.7637V27H67.7637ZM66.0991 27H65.0991V28H66.0991V27ZM66.0991 18.348H67.0991V17.348H66.0991V18.348ZM64.8004 18.348H63.8004V19.348H64.8004V18.348ZM64.8004 16.9761V15.9761H63.8004V16.9761H64.8004ZM66.0991 16.9761V17.9761H67.0991V16.9761H66.0991ZM66.9588 13.8117L67.6252 14.5573L67.6261 14.5565L66.9588 13.8117ZM69.7575 13.0251H70.7575V12.0251H69.7575V13.0251ZM69.7575 14.4153V15.4153H70.7575V14.4153H69.7575ZM68.2027 14.8543L68.8946 15.5763L68.8952 15.5757L68.2027 14.8543ZM67.7637 16.9761H66.7637V17.9761H67.7637V16.9761ZM69.8672 16.9761H70.8672V15.9761H69.8672V16.9761ZM69.8672 18.348V17.348H67.7637V18.348V19.348H69.8672V18.348ZM67.7637 18.348H66.7637V27H67.7637H68.7637V18.348H67.7637ZM67.7637 27V26H66.0991V27V28H67.7637V27ZM66.0991 27H67.0991V18.348H66.0991H65.0991V27H66.0991ZM66.0991 18.348V17.348H64.8004V18.348V19.348H66.0991V18.348ZM64.8004 18.348H65.8004V16.9761H64.8004H63.8004V18.348H64.8004ZM64.8004 16.9761V17.9761H66.0991V16.9761V15.9761H64.8004V16.9761ZM66.0991 16.9761H67.0991V16.2628H66.0991H65.0991V16.9761H66.0991ZM66.0991 16.2628H67.0991C67.0991 15.2925 67.3466 14.8062 67.6252 14.5573L66.9588 13.8117L66.2925 13.066C65.4248 13.8414 65.0991 14.9892 65.0991 16.2628H66.0991ZM66.9588 13.8117L67.6261 14.5565C67.9427 14.2729 68.5777 14.0251 69.7575 14.0251V13.0251V12.0251C68.3765 12.0251 67.1457 12.3017 66.2916 13.0668L66.9588 13.8117ZM69.7575 13.0251H68.7575V14.4153H69.7575H70.7575V13.0251H69.7575ZM69.7575 14.4153V13.4153C68.9421 13.4153 68.0975 13.5691 67.5102 14.1329L68.2027 14.8543L68.8952 15.5757C68.9176 15.5542 69.1095 15.4153 69.7575 15.4153V14.4153ZM68.2027 14.8543L67.5108 14.1323C66.9281 14.6907 66.7637 15.4955 66.7637 16.2628H67.7637H68.7637C68.7637 15.713 68.8919 15.5789 68.8946 15.5763L68.2027 14.8543ZM67.7637 16.2628H66.7637V16.9761H67.7637H68.7637V16.2628H67.7637ZM67.7637 16.9761V17.9761H69.8672V16.9761V15.9761H67.7637V16.9761ZM69.8672 16.9761H68.8672V18.348H69.8672H70.8672V16.9761H69.8672ZM80.899 22.61V23.61H81.8009L81.8937 22.7129L80.899 22.61ZM72.8872 22.61V21.61H71.8236L71.8891 22.6716L72.8872 22.61ZM73.8933 24.933L73.2162 25.669L73.2239 25.676L73.2316 25.6829L73.8933 24.933ZM77.9357 25.2623L78.5049 26.0845L78.5092 26.0815L77.9357 25.2623ZM78.9601 23.9087V22.9087H78.2491L78.0156 23.5802L78.9601 23.9087ZM80.7527 23.9087L81.716 24.177L82.0692 22.9087H80.7527V23.9087ZM79.143 26.2683L79.7391 27.0713L79.7468 27.0654L79.143 26.2683ZM73.5823 26.5244L73.0846 27.3918L73.0907 27.3952L73.5823 26.5244ZM71.8263 24.7135L70.9458 25.1876L70.9489 25.1933L71.8263 24.7135ZM71.808 19.2443L72.6911 19.7135L71.808 19.2443ZM73.5457 17.4517L74.0326 18.3252L74.0373 18.3226L73.5457 17.4517ZM78.6674 17.4334L78.1744 18.3035V18.3035L78.6674 17.4334ZM80.3502 19.1529L79.4679 19.6234L79.4726 19.6323L79.4775 19.641L80.3502 19.1529ZM79.2344 21.2564V22.2564H80.2344V21.2564H79.2344ZM78.8137 19.6284L77.9582 20.1463L77.9644 20.1564L78.8137 19.6284ZM77.6614 18.5858L77.205 19.4756L77.2186 19.4826L77.2323 19.4891L77.6614 18.5858ZM73.9116 19.0248L73.2434 18.2807L73.2358 18.2877L73.9116 19.0248ZM72.9055 21.2564L71.9095 21.167L71.8117 22.2564H72.9055V21.2564ZM80.9539 21.6039H79.9539C79.9539 21.8828 79.9378 22.1836 79.9043 22.5071L80.899 22.61L81.8937 22.7129C81.9334 22.3291 81.9539 21.9592 81.9539 21.6039H80.9539ZM80.899 22.61V21.61H72.8872V22.61V23.61H80.899V22.61ZM72.8872 22.61L71.8891 22.6716C71.9627 23.8637 72.3804 24.9 73.2162 25.669L73.8933 24.933L74.5703 24.1971C74.1867 23.8442 73.9337 23.3317 73.8853 22.5484L72.8872 22.61ZM73.8933 24.933L73.2316 25.6829C74.0476 26.4028 75.037 26.7562 76.1431 26.7562V25.7562V24.7562C75.4932 24.7562 74.9828 24.5607 74.5549 24.1832L73.8933 24.933ZM76.1431 25.7562V26.7562C77.0161 26.7562 77.8253 26.555 78.5049 26.0845L77.9357 25.2623L77.3665 24.4401C77.095 24.6281 76.7092 24.7562 76.1431 24.7562V25.7562ZM77.9357 25.2623L78.5092 26.0815C79.1687 25.6199 79.6402 24.9972 79.9046 24.2372L78.9601 23.9087L78.0156 23.5802C77.8897 23.9421 77.6783 24.2218 77.3623 24.4431L77.9357 25.2623ZM78.9601 23.9087V24.9087H80.7527V23.9087V22.9087H78.9601V23.9087ZM80.7527 23.9087L79.7893 23.6404C79.5804 24.3907 79.1713 24.9923 78.5391 25.4712L79.143 26.2683L79.7468 27.0654C80.7243 26.3249 81.3884 25.3534 81.716 24.177L80.7527 23.9087ZM79.143 26.2683L78.5469 25.4654C77.9457 25.9118 77.166 26.1646 76.1431 26.1646V27.1646V28.1646C77.5104 28.1646 78.7306 27.82 79.7391 27.0712L79.143 26.2683ZM76.1431 27.1646V26.1646C75.3473 26.1646 74.6659 25.9878 74.0739 25.6536L73.5823 26.5244L73.0907 27.3952C74.0108 27.9147 75.0366 28.1646 76.1431 28.1646V27.1646ZM73.5823 26.5244L74.08 25.657C73.5021 25.3255 73.0455 24.8588 72.7037 24.2337L71.8263 24.7135L70.9489 25.1933C71.4607 26.1292 72.1748 26.8697 73.0846 27.3918L73.5823 26.5244ZM71.8263 24.7135L72.7068 24.2394C72.3696 23.6132 72.1861 22.8661 72.1861 21.9698H71.1861H70.1861C70.1861 23.1465 70.4294 24.2286 70.9458 25.1876L71.8263 24.7135ZM71.1861 21.9698H72.1861C72.1861 21.0685 72.3655 20.3264 72.6911 19.7135L71.808 19.2443L70.9249 18.7752C70.4213 19.7232 70.1861 20.798 70.1861 21.9698H71.1861ZM71.808 19.2443L72.6911 19.7135C73.019 19.0964 73.4636 18.6424 74.0326 18.3252L73.5457 17.4517L73.0589 16.5782C72.1402 17.0903 71.4263 17.8314 70.9249 18.7752L71.808 19.2443ZM73.5457 17.4517L74.0373 18.3226C74.6255 17.9905 75.3181 17.8115 76.1431 17.8115V16.8115V15.8115C75.017 15.8115 73.978 16.0594 73.0541 16.5809L73.5457 17.4517ZM76.1431 16.8115V17.8115C76.9445 17.8115 77.6119 17.9847 78.1744 18.3035L78.6674 17.4334L79.1604 16.5634C78.2596 16.0529 77.2441 15.8115 76.1431 15.8115V16.8115ZM78.6674 17.4334L78.1744 18.3035C78.7435 18.626 79.1683 19.0616 79.4679 19.6234L80.3502 19.1529L81.2326 18.6823C80.7518 17.7807 80.0546 17.0701 79.1604 16.5634L78.6674 17.4334ZM80.3502 19.1529L79.4775 19.641C79.7876 20.1955 79.9539 20.8412 79.9539 21.6039H80.9539H81.9539C81.9539 20.5376 81.7177 19.5492 81.223 18.6647L80.3502 19.1529ZM79.2344 21.2564H80.2344C80.2344 20.4722 80.0596 19.7385 79.663 19.1005L78.8137 19.6284L77.9644 20.1564C78.1288 20.4207 78.2344 20.7724 78.2344 21.2564H79.2344ZM78.8137 19.6284L79.6692 19.1106C79.2877 18.4803 78.7556 17.9985 78.0904 17.6825L77.6614 18.5858L77.2323 19.4891C77.5427 19.6365 77.7788 19.8498 77.9582 20.1462L78.8137 19.6284ZM77.6614 18.5858L78.1177 17.696C77.4878 17.373 76.7986 17.22 76.07 17.22V18.22V19.22C76.512 19.22 76.8837 19.3109 77.205 19.4756L77.6614 18.5858ZM76.07 18.22V17.22C74.9948 17.22 74.0339 17.571 73.2434 18.2808L73.9116 19.0248L74.5797 19.7689C74.9843 19.4055 75.4623 19.22 76.07 19.22V18.22ZM73.9116 19.0248L73.2358 18.2877C72.4309 19.0255 72.0124 20.0206 71.9095 21.167L72.9055 21.2564L73.9015 21.3458C73.9693 20.5898 74.2215 20.0972 74.5873 19.762L73.9116 19.0248ZM72.9055 21.2564V22.2564H79.2344V21.2564V20.2564H72.9055V21.2564ZM84.8156 18.6041H83.8156L85.7062 19.0589L84.8156 18.6041ZM86.0594 17.2688L85.5591 16.4029L85.5507 16.4079L86.0594 17.2688ZM88.0532 16.7932H89.0532V15.7932H88.0532V16.7932ZM88.0532 18.5126V19.5126H89.0532V18.5126H88.0532ZM84.8156 27V28H85.8156V27H84.8156ZM83.151 27H82.151V28H83.151V27ZM83.151 16.9761V15.9761H82.151V16.9761H83.151ZM84.8156 16.9761H85.8156V15.9761H84.8156V16.9761ZM84.8156 18.6041L85.7062 19.0589C85.9156 18.6488 86.2003 18.3471 86.5681 18.1297L86.0594 17.2688L85.5507 16.4079C84.8454 16.8246 84.3009 17.4131 83.925 18.1493L84.8156 18.6041ZM86.0594 17.2688L86.5597 18.1347C86.9248 17.9237 87.408 17.7932 88.0532 17.7932V16.7932V15.7932C87.1375 15.7932 86.2915 15.9798 85.5591 16.4029L86.0594 17.2688ZM88.0532 16.7932H87.0532V18.5126H88.0532H89.0532V16.7932H88.0532ZM88.0532 18.5126V17.5126H87.6142V18.5126V19.5126H88.0532V18.5126ZM87.6142 18.5126V17.5126C86.5053 17.5126 85.4959 17.8172 84.7799 18.594C84.0781 19.3554 83.8156 20.4021 83.8156 21.5491H84.8156H85.8156C85.8156 20.6718 86.0194 20.2002 86.2505 19.9495C86.4674 19.7141 86.8574 19.5126 87.6142 19.5126V18.5126ZM84.8156 21.5491H83.8156V27H84.8156H85.8156V21.5491H84.8156ZM84.8156 27V26H83.151V27V28H84.8156V27ZM83.151 27H84.151V16.9761H83.151H82.151V27H83.151ZM83.151 16.9761V17.9761H84.8156V16.9761V15.9761H83.151V16.9761ZM84.8156 16.9761H83.8156V18.6041H84.8156H85.8156V16.9761H84.8156ZM92.0051 18.348V17.348H91.0051V18.348H92.0051ZM92.316 25.2989L91.6089 26.006L91.6196 26.0167L91.6307 26.0271L92.316 25.2989ZM94.6208 25.5915H95.6208V24.5915H94.6208V25.5915ZM94.6208 27V28H95.6208V27H94.6208ZM91.0356 26.3598L90.3581 27.0953L91.0356 26.3598ZM90.3405 18.348H91.3405V17.348H90.3405V18.348ZM89.0418 18.348H88.0418V19.348H89.0418V18.348ZM89.0418 16.9761V15.9761H88.0418V16.9761H89.0418ZM90.3405 16.9761V17.9761H91.3405V16.9761H90.3405ZM90.3405 14.4519V13.4519H89.3405V14.4519H90.3405ZM92.0051 14.4519H93.0051V13.4519H92.0051V14.4519ZM92.0051 16.9761H91.0051V17.9761H92.0051V16.9761ZM94.6208 16.9761H95.6208V15.9761H94.6208V16.9761ZM94.6208 18.348V19.348H95.6208V18.348H94.6208ZM92.0051 18.348H91.0051V24.2562H92.0051H93.0051V18.348H92.0051ZM92.0051 24.2562H91.0051C91.0051 24.8427 91.1223 25.5194 91.6089 26.006L92.316 25.2989L93.0231 24.5918C93.0616 24.6302 93.0565 24.6488 93.0411 24.5969C93.0246 24.5416 93.0051 24.4344 93.0051 24.2562H92.0051ZM92.316 25.2989L91.6307 26.0271C92.1242 26.4916 92.8126 26.5915 93.3952 26.5915V25.5915V24.5915C93.1971 24.5915 93.0725 24.5721 93.003 24.5532C92.9343 24.5346 92.9542 24.5262 93.0014 24.5707L92.316 25.2989ZM93.3952 25.5915V26.5915H94.6208V25.5915V24.5915H93.3952V25.5915ZM94.6208 25.5915H93.6208V27H94.6208H95.6208V25.5915H94.6208ZM94.6208 27V26H93.1209V27V28H94.6208V27ZM93.1209 27V26C92.3288 26 91.9211 25.8159 91.7131 25.6242L91.0356 26.3598L90.3581 27.0953C91.0768 27.7573 92.0594 28 93.1209 28V27ZM91.0356 26.3598L91.7131 25.6242C91.5451 25.4695 91.3405 25.1038 91.3405 24.2562H90.3405H89.3405C89.3405 25.3598 89.5993 26.3965 90.3581 27.0953L91.0356 26.3598ZM90.3405 24.2562H91.3405V18.348H90.3405H89.3405V24.2562H90.3405ZM90.3405 18.348V17.348H89.0418V18.348V19.348H90.3405V18.348ZM89.0418 18.348H90.0418V16.9761H89.0418H88.0418V18.348H89.0418ZM89.0418 16.9761V17.9761H90.3405V16.9761V15.9761H89.0418V16.9761ZM90.3405 16.9761H91.3405V14.4519H90.3405H89.3405V16.9761H90.3405ZM90.3405 14.4519V15.4519H92.0051V14.4519V13.4519H90.3405V14.4519ZM92.0051 14.4519H91.0051V16.9761H92.0051H93.0051V14.4519H92.0051ZM92.0051 16.9761V17.9761H94.6208V16.9761V15.9761H92.0051V16.9761ZM94.6208 16.9761H93.6208V18.348H94.6208H95.6208V16.9761H94.6208ZM94.6208 18.348V17.348H92.0051V18.348V19.348H94.6208V18.348ZM96.6376 19.2626L97.5176 19.7375L97.5207 19.7318L96.6376 19.2626ZM98.3387 17.4517L97.8348 16.5879L97.8285 16.5917L98.3387 17.4517ZM103.058 17.3786L102.553 18.2417L103.058 17.3786ZM104.503 18.8053L103.628 19.2894L105.503 18.8053H104.503ZM104.503 16.9761V15.9761H103.503V16.9761H104.503ZM106.186 16.9761H107.186V15.9761H106.186V16.9761ZM106.186 27V28H107.186V27H106.186ZM104.503 27H103.503V28H104.503V27ZM104.503 25.1342H105.503V21.3167L103.631 24.644L104.503 25.1342ZM103.021 26.5976L103.526 27.4608L103.531 27.4579L103.021 26.5976ZM98.3387 26.5061L97.8178 27.3598L98.3387 26.5061ZM96.6376 24.6587L97.5237 24.1952L96.6376 24.6587ZM102.802 18.7139L102.29 19.5731L102.302 19.5803L102.315 19.5871L102.802 18.7139ZM99.3996 18.6956L98.9035 17.8273H98.9035L99.3996 18.6956ZM98.1741 19.976L99.0527 20.4535L98.1741 19.976ZM98.1741 23.9636L97.2912 24.4332L97.2955 24.4411L98.1741 23.9636ZM99.3996 25.2623L98.8881 26.1216L98.8958 26.1261L98.9035 26.1305L99.3996 25.2623ZM102.802 25.2623L103.298 26.1306L103.305 26.1268L102.802 25.2623ZM104.046 23.9636L104.924 24.4411L104.929 24.4332L104.046 23.9636ZM96.0157 21.9515H97.0157C97.0157 21.0641 97.1944 20.3365 97.5176 19.7375L96.6376 19.2626L95.7576 18.7877C95.2516 19.7253 95.0157 20.7902 95.0157 21.9515H96.0157ZM96.6376 19.2626L97.5207 19.7318C97.8543 19.1038 98.2963 18.6396 98.8489 18.3118L98.3387 17.4517L97.8285 16.5917C96.9422 17.1175 96.2501 17.8605 95.7545 18.7935L96.6376 19.2626ZM98.3387 17.4517L98.8426 18.3155C99.4134 17.9825 100.049 17.8115 100.772 17.8115V16.8115V15.8115C99.7136 15.8115 98.7273 16.0673 97.8348 16.5879L98.3387 17.4517ZM100.772 16.8115V17.8115C101.503 17.8115 102.085 17.9677 102.553 18.2417L103.058 17.3786L103.563 16.5154C102.739 16.0333 101.796 15.8115 100.772 15.8115V16.8115ZM103.058 17.3786L102.553 18.2417C103.067 18.5422 103.41 18.8951 103.628 19.2894L104.503 18.8053L105.378 18.3213C104.962 17.5693 104.342 16.971 103.563 16.5154L103.058 17.3786ZM104.503 18.8053H105.503V16.9761H104.503H103.503V18.8053H104.503ZM104.503 16.9761V17.9761H106.186V16.9761V15.9761H104.503V16.9761ZM106.186 16.9761H105.186V27H106.186H107.186V16.9761H106.186ZM106.186 27V26H104.503V27V28H106.186V27ZM104.503 27H105.503V25.1342H104.503H103.503V27H104.503ZM104.503 25.1342L103.631 24.644C103.4 25.056 103.041 25.4238 102.512 25.7373L103.021 26.5976L103.531 27.4579C104.319 26.9909 104.948 26.3832 105.375 25.6245L104.503 25.1342ZM103.021 26.5976L102.517 25.7344C102.046 26.0096 101.47 26.1646 100.753 26.1646V27.1646V28.1646C101.768 28.1646 102.704 27.9416 103.526 27.4608L103.021 26.5976ZM100.753 27.1646V26.1646C100.036 26.1646 99.4132 25.9903 98.8596 25.6525L98.3387 26.5061L97.8178 27.3598C98.7031 27.8999 99.69 28.1646 100.753 28.1646V27.1646ZM98.3387 26.5061L98.8596 25.6525C98.3046 25.3138 97.8596 24.8373 97.5237 24.1952L96.6376 24.6587L95.7515 25.1222C96.2448 26.0653 96.9339 26.8204 97.8178 27.3598L98.3387 26.5061ZM96.6376 24.6587L97.5237 24.1952C97.1932 23.5634 97.0157 22.8237 97.0157 21.9515H96.0157H95.0157C95.0157 23.1036 95.2527 24.1686 95.7515 25.1222L96.6376 24.6587ZM104.503 21.9698H105.503C105.503 21.0777 105.322 20.2491 104.924 19.5168L104.046 19.9943L103.167 20.4718C103.379 20.8614 103.503 21.3498 103.503 21.9698H104.503ZM104.046 19.9943L104.924 19.5168C104.535 18.8005 103.989 18.2315 103.289 17.8407L102.802 18.7139L102.315 19.5871C102.663 19.7816 102.947 20.0661 103.167 20.4718L104.046 19.9943ZM102.802 18.7139L103.313 17.8546C102.64 17.4535 101.895 17.2566 101.101 17.2566V18.2566V19.2566C101.551 19.2566 101.94 19.3645 102.29 19.5731L102.802 18.7139ZM101.101 18.2566V17.2566C100.315 17.2566 99.575 17.4436 98.9035 17.8273L99.3996 18.6956L99.8958 19.5638C100.249 19.3622 100.643 19.2566 101.101 19.2566V18.2566ZM99.3996 18.6956L98.9035 17.8273C98.2168 18.2197 97.6815 18.7882 97.2955 19.4985L98.1741 19.976L99.0527 20.4535C99.2764 20.0418 99.5582 19.7567 99.8958 19.5638L99.3996 18.6956ZM98.1741 19.976L97.2955 19.4985C96.8975 20.2308 96.7168 21.0594 96.7168 21.9515H97.7168H98.7168C98.7168 21.3315 98.841 20.8431 99.0527 20.4535L98.1741 19.976ZM97.7168 21.9515H96.7168C96.7168 22.8535 96.8965 23.6911 97.2912 24.4332L98.1741 23.9636L99.057 23.494C98.8419 23.0898 98.7168 22.586 98.7168 21.9515H97.7168ZM98.1741 23.9636L97.2955 24.4411C97.6798 25.1483 98.2105 25.7182 98.8881 26.1216L99.3996 25.2623L99.9111 24.403C99.5644 24.1966 99.2781 23.9007 99.0527 23.4861L98.1741 23.9636ZM99.3996 25.2623L98.9035 26.1305C99.575 26.5143 100.315 26.7013 101.101 26.7013V25.7013V24.7013C100.643 24.7013 100.249 24.5956 99.8958 24.394L99.3996 25.2623ZM101.101 25.7013V26.7013C101.887 26.7013 102.626 26.5143 103.298 26.1305L102.802 25.2623L102.306 24.394C101.953 24.5956 101.558 24.7013 101.101 24.7013V25.7013ZM102.802 25.2623L103.305 26.1268C103.996 25.7249 104.537 25.1542 104.924 24.4411L104.046 23.9636L103.167 23.4861C102.945 23.8948 102.657 24.19 102.299 24.3978L102.802 25.2623ZM104.046 23.9636L104.929 24.4332C105.322 23.6933 105.503 22.8625 105.503 21.9698H104.503H103.503C103.503 22.5891 103.379 23.0875 103.163 23.494L104.046 23.9636ZM110.48 26.7805L110.078 27.6958L110.085 27.6992L110.093 27.7025L110.48 26.7805ZM109.035 25.683L108.233 26.2797L108.24 26.2897L109.035 25.683ZM108.45 24.055V23.055H107.388L107.452 24.1149L108.45 24.055ZM110.169 24.055L111.165 23.9579L111.077 23.055H110.169V24.055ZM110.865 25.2806L110.257 26.075L110.268 26.0833L110.865 25.2806ZM113.992 23.3051L113.502 24.1766L113.513 24.1825L113.523 24.1882L113.992 23.3051ZM112.182 22.6649L111.928 23.6322L111.936 23.6341L112.182 22.6649ZM110.352 22.0795L109.944 22.9923L109.958 22.9987L109.973 23.0047L110.352 22.0795ZM109.145 21.1832L108.371 21.8165L108.382 21.8293L108.393 21.8417L109.145 21.1832ZM109.109 18.2017L108.295 17.6204L109.109 18.2017ZM110.407 17.1956L110.806 18.1127L110.814 18.1091L110.823 18.1053L110.407 17.1956ZM115.017 17.6529L114.382 18.4257L115.017 17.6529ZM116.114 19.9577V20.9577H117.165L117.113 19.9078L116.114 19.9577ZM114.45 19.9577L113.452 20.0273L113.517 20.9577H114.45V19.9577ZM113.809 18.6956L113.167 19.4618L113.173 19.4668L113.179 19.4717L113.809 18.6956ZM110.846 18.6041L110.26 17.7942L110.846 18.6041ZM110.627 20.4333L109.9 21.1199L109.919 21.1407L109.94 21.1603L110.627 20.4333ZM111.432 20.9454L111.042 21.8664L111.063 21.8753L111.084 21.8832L111.432 20.9454ZM112.785 21.3662L112.519 22.33L112.523 22.3313L112.785 21.3662ZM114.541 21.9515L114.144 22.8693L114.155 22.8739L114.165 22.8782L114.541 21.9515ZM115.694 22.7929L114.927 23.4355L114.933 23.4427L114.939 23.4497L115.694 22.7929ZM116.206 24.2745H117.206V24.2645L117.206 24.2545L116.206 24.2745ZM115.748 25.7562L114.927 25.1858L115.748 25.7562ZM114.45 26.7988L114.856 27.7126L114.865 27.7085L114.45 26.7988ZM112.547 27.1646V26.1646C111.891 26.1646 111.337 26.0555 110.868 25.8585L110.48 26.7805L110.093 27.7025C110.844 28.0177 111.667 28.1646 112.547 28.1646V27.1646ZM110.48 26.7805L110.883 25.8652C110.406 25.6551 110.068 25.3872 109.83 25.0763L109.035 25.683L108.24 26.2897C108.71 26.9056 109.336 27.3693 110.078 27.6958L110.48 26.7805ZM109.035 25.683L109.838 25.0863C109.604 24.7718 109.474 24.417 109.448 23.9951L108.45 24.055L107.452 24.1149C107.5 24.9125 107.759 25.643 108.233 26.2797L109.035 25.683ZM108.45 24.055V25.055H110.169V24.055V23.055H108.45V24.055ZM110.169 24.055L109.174 24.1521C109.251 24.9402 109.632 25.5968 110.257 26.0749L110.865 25.2806L111.472 24.4862C111.268 24.3303 111.185 24.1698 111.165 23.9579L110.169 24.055ZM110.865 25.2806L110.268 26.0833C110.911 26.5608 111.693 26.7562 112.529 26.7562V25.7562V24.7562C112 24.7562 111.672 24.6345 111.461 24.4778L110.865 25.2806ZM112.529 25.7562V26.7562C113.302 26.7562 114.042 26.5856 114.637 26.1291L114.029 25.3355L113.421 24.5418C113.284 24.6462 113.025 24.7562 112.529 24.7562V25.7562ZM114.029 25.3355L114.637 26.1291C115.227 25.6769 115.578 25.0401 115.578 24.2745H114.578H113.578C113.578 24.3626 113.562 24.4331 113.421 24.5418L114.029 25.3355ZM114.578 24.2745H115.578C115.578 23.903 115.494 23.5275 115.287 23.1861C115.082 22.8449 114.789 22.5958 114.462 22.422L113.992 23.3051L113.523 24.1882C113.556 24.2057 113.572 24.2186 113.577 24.2233C113.581 24.2273 113.579 24.2261 113.575 24.2198C113.572 24.2135 113.571 24.2104 113.572 24.215C113.574 24.2205 113.578 24.2389 113.578 24.2745H114.578ZM113.992 23.3051L114.483 22.4335C113.975 22.1481 113.269 21.9091 112.427 21.6956L112.182 22.6649L111.936 23.6341C112.728 23.8353 113.229 24.023 113.502 24.1766L113.992 23.3051ZM112.182 22.6649L112.435 21.6976C111.715 21.5088 111.152 21.3266 110.732 21.1544L110.352 22.0795L109.973 23.0047C110.504 23.2227 111.16 23.4307 111.928 23.6321L112.182 22.6649ZM110.352 22.0795L110.761 21.1667C110.432 21.0196 110.146 20.8087 109.898 20.5247L109.145 21.1832L108.393 21.8417C108.827 22.3382 109.346 22.7248 109.944 22.9923L110.352 22.0795ZM109.145 21.1832L109.919 20.55C109.769 20.3663 109.651 20.0833 109.651 19.6101H108.651H107.651C107.651 20.4296 107.863 21.1953 108.371 21.8165L109.145 21.1832ZM108.651 19.6101H109.651C109.651 19.3117 109.735 19.0445 109.922 18.7829L109.109 18.2017L108.295 17.6204C107.872 18.2125 107.651 18.8842 107.651 19.6101H108.651ZM109.109 18.2017L109.922 18.7829C110.105 18.5266 110.383 18.2965 110.806 18.1127L110.407 17.1956L110.009 16.2786C109.309 16.5826 108.721 17.0232 108.295 17.6204L109.109 18.2017ZM110.407 17.1956L110.823 18.1053C111.233 17.9179 111.728 17.8115 112.328 17.8115V16.8115V15.8115C111.489 15.8115 110.703 15.9612 109.992 16.286L110.407 17.1956ZM112.328 16.8115V17.8115C113.267 17.8115 113.92 18.0461 114.382 18.4257L115.017 17.6529L115.651 16.8802C114.748 16.1379 113.608 15.8115 112.328 15.8115V16.8115ZM115.017 17.6529L114.382 18.4257C114.823 18.7878 115.079 19.2805 115.116 20.0076L116.114 19.9577L117.113 19.9078C117.052 18.6838 116.576 17.64 115.651 16.8802L115.017 17.6529ZM116.114 19.9577V18.9577H114.45V19.9577V20.9577H116.114V19.9577ZM114.45 19.9577L115.447 19.8881C115.392 19.1017 115.056 18.4198 114.44 17.9194L113.809 18.6956L113.179 19.4717C113.344 19.6054 113.434 19.7649 113.452 20.0273L114.45 19.9577ZM113.809 18.6956L114.452 17.9294C113.845 17.4198 113.08 17.22 112.273 17.22V18.22V19.22C112.758 19.22 113.018 19.3372 113.167 19.4618L113.809 18.6956ZM112.273 18.22V17.22C111.541 17.22 110.837 17.3764 110.26 17.7942L110.846 18.6041L111.433 19.414C111.563 19.3197 111.81 19.22 112.273 19.22V18.22ZM110.846 18.6041L110.26 17.7942C109.663 18.2266 109.316 18.8554 109.316 19.6101H110.316H111.316C111.316 19.5498 111.327 19.5248 111.333 19.5141C111.34 19.5015 111.361 19.4657 111.433 19.414L110.846 18.6041ZM110.316 19.6101H109.316C109.316 20.1695 109.501 20.6972 109.9 21.1199L110.627 20.4333L111.354 19.7467C111.338 19.7303 111.316 19.7093 111.316 19.6101H110.316ZM110.627 20.4333L109.94 21.1603C110.258 21.4601 110.63 21.6923 111.042 21.8664L111.432 20.9454L111.821 20.0245C111.599 19.9303 111.435 19.8211 111.313 19.7063L110.627 20.4333ZM111.432 20.9454L111.084 21.8832C111.452 22.0194 111.934 22.1683 112.519 22.33L112.785 21.3662L113.052 20.4023C112.49 20.247 112.07 20.1154 111.779 20.0077L111.432 20.9454ZM112.785 21.3662L112.523 22.3313C113.218 22.5196 113.753 22.7002 114.144 22.8693L114.541 21.9515L114.938 21.0336C114.427 20.8125 113.792 20.603 113.047 20.401L112.785 21.3662ZM114.541 21.9515L114.165 22.8782C114.463 22.9989 114.714 23.1809 114.927 23.4355L115.694 22.7929L116.46 22.1503C116.039 21.6488 115.522 21.2699 114.917 21.0247L114.541 21.9515ZM115.694 22.7929L114.939 23.4497C115.083 23.6148 115.197 23.8666 115.206 24.2945L116.206 24.2745L117.206 24.2545C117.19 23.463 116.962 22.7271 116.448 22.1361L115.694 22.7929ZM116.206 24.2745H115.206C115.206 24.6252 115.112 24.9189 114.927 25.1858L115.748 25.7562L116.57 26.3266C116.994 25.7154 117.206 25.0214 117.206 24.2745H116.206ZM115.748 25.7562L114.927 25.1858C114.74 25.4558 114.457 25.696 114.034 25.8891L114.45 26.7988L114.865 27.7085C115.564 27.3895 116.148 26.9345 116.57 26.3266L115.748 25.7562ZM114.45 26.7988L114.044 25.885C113.645 26.0619 113.154 26.1646 112.547 26.1646V27.1646V28.1646C113.38 28.1646 114.156 28.0234 114.856 27.7126L114.45 26.7988Z" fill="url(#paint1_linear_392_1575)" mask="url(#path-2-outside-1_392_1575)"></path><defs><linearGradient id="paint0_linear_392_1575" x1="84" y1="0" x2="84" y2="41" gradientUnits="userSpaceOnUse"><stop stop-color="#808FB0"></stop><stop offset="1" stop-color="#141F47"></stop></linearGradient><linearGradient id="paint1_linear_392_1575" x1="84" y1="7" x2="84" y2="34" gradientUnits="userSpaceOnUse"><stop stop-color="#808FB0"></stop><stop offset="1" stop-color="#141F47"></stop></linearGradient></defs></svg>