<svg xmlns="http://www.w3.org/2000/svg" width="168" height="41" viewBox="0 0 168 41" fill="none"><rect x="0.5" y="0.5" width="167" height="40" rx="19.5" fill="#0F1435" stroke="url(#paint0_linear_392_1578)"></rect><mask id="path-2-outside-1_392_1578" maskUnits="userSpaceOnUse" x="59" y="13" width="50" height="16" fill="black"><rect fill="white" x="59" y="13" width="50" height="16"></rect><path d="M62.073 25.6464H66.5362V27H60.4085V14.2507H62.073V25.6464ZM77.1937 16.9761V27H75.5291V25.5184C75.2121 26.0305 74.767 26.433 74.1938 26.7256C73.6329 27.0061 73.011 27.1463 72.3281 27.1463C71.5476 27.1463 70.8465 26.9878 70.2245 26.6707C69.6026 26.3415 69.1087 25.8537 68.7429 25.2074C68.3893 24.5611 68.2124 23.7746 68.2124 22.8478V16.9761H69.8587V22.6283C69.8587 23.616 70.1087 24.3782 70.6087 24.9147C71.1086 25.4391 71.7915 25.7013 72.6573 25.7013C73.5475 25.7013 74.2487 25.4269 74.7609 24.8782C75.2731 24.3294 75.5291 23.5307 75.5291 22.4819V16.9761H77.1937ZM79.3823 21.9698C79.3823 20.9332 79.5896 20.0309 80.0042 19.2626C80.4188 18.4822 80.9919 17.8785 81.7236 17.4517C82.4675 17.0249 83.315 16.8115 84.2661 16.8115C85.4978 16.8115 86.5099 17.1103 87.3026 17.7078C88.1074 18.3053 88.6379 19.1346 88.8939 20.1955H87.1014C86.9306 19.5858 86.5953 19.1041 86.0953 18.7504C85.6075 18.3968 84.9978 18.22 84.2661 18.22C83.315 18.22 82.5467 18.5492 81.9614 19.2077C81.3761 19.854 81.0834 20.7747 81.0834 21.9698C81.0834 23.177 81.3761 24.1099 81.9614 24.7684C82.5467 25.4269 83.315 25.7562 84.2661 25.7562C84.9978 25.7562 85.6075 25.5854 86.0953 25.244C86.5831 24.9026 86.9184 24.4148 87.1014 23.7807H88.8939C88.6257 24.805 88.0891 25.6281 87.2843 26.25C86.4794 26.8598 85.4734 27.1646 84.2661 27.1646C83.315 27.1646 82.4675 26.9512 81.7236 26.5244C80.9919 26.0976 80.4188 25.494 80.0042 24.7135C79.5896 23.9331 79.3823 23.0185 79.3823 21.9698ZM92.7795 18.6041C93.0722 18.031 93.4868 17.5859 94.0233 17.2688C94.5721 16.9518 95.2367 16.7932 96.0171 16.7932V18.5126H95.5781C93.7124 18.5126 92.7795 19.5248 92.7795 21.5491V27H91.115V16.9761H92.7795V18.6041ZM102.31 27.1646C101.371 27.1646 100.518 26.9512 99.7495 26.5244C98.9934 26.0976 98.3959 25.494 97.9569 24.7135C97.5301 23.9209 97.3167 23.0063 97.3167 21.9698C97.3167 20.9454 97.5362 20.0431 97.9752 19.2626C98.4264 18.47 99.0361 17.8663 99.8044 17.4517C100.573 17.0249 101.432 16.8115 102.384 16.8115C103.335 16.8115 104.194 17.0249 104.963 17.4517C105.731 17.8663 106.335 18.4639 106.774 19.2443C107.225 20.0248 107.45 20.9332 107.45 21.9698C107.45 23.0063 107.219 23.9209 106.755 24.7135C106.304 25.494 105.688 26.0976 104.908 26.5244C104.127 26.9512 103.262 27.1646 102.31 27.1646ZM102.31 25.7013C102.908 25.7013 103.469 25.5611 103.993 25.2806C104.518 25.0001 104.938 24.5794 105.255 24.0185C105.585 23.4575 105.749 22.7746 105.749 21.9698C105.749 21.1649 105.591 20.4821 105.274 19.9211C104.957 19.3602 104.542 18.9455 104.03 18.6773C103.518 18.3968 102.963 18.2566 102.365 18.2566C101.755 18.2566 101.195 18.3968 100.682 18.6773C100.182 18.9455 99.78 19.3602 99.4751 19.9211C99.1703 20.4821 99.0178 21.1649 99.0178 21.9698C99.0178 22.7868 99.1642 23.4758 99.4568 24.0367C99.7617 24.5977 100.164 25.0184 100.664 25.2989C101.164 25.5671 101.713 25.7013 102.31 25.7013Z"></path></mask><path d="M62.073 25.6464H66.5362V27H60.4085V14.2507H62.073V25.6464ZM77.1937 16.9761V27H75.5291V25.5184C75.2121 26.0305 74.767 26.433 74.1938 26.7256C73.6329 27.0061 73.011 27.1463 72.3281 27.1463C71.5476 27.1463 70.8465 26.9878 70.2245 26.6707C69.6026 26.3415 69.1087 25.8537 68.7429 25.2074C68.3893 24.5611 68.2124 23.7746 68.2124 22.8478V16.9761H69.8587V22.6283C69.8587 23.616 70.1087 24.3782 70.6087 24.9147C71.1086 25.4391 71.7915 25.7013 72.6573 25.7013C73.5475 25.7013 74.2487 25.4269 74.7609 24.8782C75.2731 24.3294 75.5291 23.5307 75.5291 22.4819V16.9761H77.1937ZM79.3823 21.9698C79.3823 20.9332 79.5896 20.0309 80.0042 19.2626C80.4188 18.4822 80.9919 17.8785 81.7236 17.4517C82.4675 17.0249 83.315 16.8115 84.2661 16.8115C85.4978 16.8115 86.5099 17.1103 87.3026 17.7078C88.1074 18.3053 88.6379 19.1346 88.8939 20.1955H87.1014C86.9306 19.5858 86.5953 19.1041 86.0953 18.7504C85.6075 18.3968 84.9978 18.22 84.2661 18.22C83.315 18.22 82.5467 18.5492 81.9614 19.2077C81.3761 19.854 81.0834 20.7747 81.0834 21.9698C81.0834 23.177 81.3761 24.1099 81.9614 24.7684C82.5467 25.4269 83.315 25.7562 84.2661 25.7562C84.9978 25.7562 85.6075 25.5854 86.0953 25.244C86.5831 24.9026 86.9184 24.4148 87.1014 23.7807H88.8939C88.6257 24.805 88.0891 25.6281 87.2843 26.25C86.4794 26.8598 85.4734 27.1646 84.2661 27.1646C83.315 27.1646 82.4675 26.9512 81.7236 26.5244C80.9919 26.0976 80.4188 25.494 80.0042 24.7135C79.5896 23.9331 79.3823 23.0185 79.3823 21.9698ZM92.7795 18.6041C93.0722 18.031 93.4868 17.5859 94.0233 17.2688C94.5721 16.9518 95.2367 16.7932 96.0171 16.7932V18.5126H95.5781C93.7124 18.5126 92.7795 19.5248 92.7795 21.5491V27H91.115V16.9761H92.7795V18.6041ZM102.31 27.1646C101.371 27.1646 100.518 26.9512 99.7495 26.5244C98.9934 26.0976 98.3959 25.494 97.9569 24.7135C97.5301 23.9209 97.3167 23.0063 97.3167 21.9698C97.3167 20.9454 97.5362 20.0431 97.9752 19.2626C98.4264 18.47 99.0361 17.8663 99.8044 17.4517C100.573 17.0249 101.432 16.8115 102.384 16.8115C103.335 16.8115 104.194 17.0249 104.963 17.4517C105.731 17.8663 106.335 18.4639 106.774 19.2443C107.225 20.0248 107.45 20.9332 107.45 21.9698C107.45 23.0063 107.219 23.9209 106.755 24.7135C106.304 25.494 105.688 26.0976 104.908 26.5244C104.127 26.9512 103.262 27.1646 102.31 27.1646ZM102.31 25.7013C102.908 25.7013 103.469 25.5611 103.993 25.2806C104.518 25.0001 104.938 24.5794 105.255 24.0185C105.585 23.4575 105.749 22.7746 105.749 21.9698C105.749 21.1649 105.591 20.4821 105.274 19.9211C104.957 19.3602 104.542 18.9455 104.03 18.6773C103.518 18.3968 102.963 18.2566 102.365 18.2566C101.755 18.2566 101.195 18.3968 100.682 18.6773C100.182 18.9455 99.78 19.3602 99.4751 19.9211C99.1703 20.4821 99.0178 21.1649 99.0178 21.9698C99.0178 22.7868 99.1642 23.4758 99.4568 24.0367C99.7617 24.5977 100.164 25.0184 100.664 25.2989C101.164 25.5671 101.713 25.7013 102.31 25.7013Z" fill="#A8A8A8"></path><path d="M62.073 25.6464H61.073V26.6464H62.073V25.6464ZM66.5362 25.6464H67.5362V24.6464H66.5362V25.6464ZM66.5362 27V28H67.5362V27H66.5362ZM60.4085 27H59.4085V28H60.4085V27ZM60.4085 14.2507V13.2507H59.4085V14.2507H60.4085ZM62.073 14.2507H63.073V13.2507H62.073V14.2507ZM62.073 25.6464V26.6464H66.5362V25.6464V24.6464H62.073V25.6464ZM66.5362 25.6464H65.5362V27H66.5362H67.5362V25.6464H66.5362ZM66.5362 27V26H60.4085V27V28H66.5362V27ZM60.4085 27H61.4085V14.2507H60.4085H59.4085V27H60.4085ZM60.4085 14.2507V15.2507H62.073V14.2507V13.2507H60.4085V14.2507ZM62.073 14.2507H61.073V25.6464H62.073H63.073V14.2507H62.073ZM77.1937 16.9761H78.1937V15.9761H77.1937V16.9761ZM77.1937 27V28H78.1937V27H77.1937ZM75.5291 27H74.5291V28H75.5291V27ZM75.5291 25.5184H76.5291V22.0031L74.6789 24.992L75.5291 25.5184ZM74.1938 26.7256L74.6411 27.6201L74.6486 27.6162L74.1938 26.7256ZM70.2245 26.6707L69.7566 27.5545L69.7635 27.5581L69.7704 27.5617L70.2245 26.6707ZM68.7429 25.2074L67.8656 25.6874L67.8691 25.6937L67.8727 25.7L68.7429 25.2074ZM68.2124 16.9761V15.9761H67.2124V16.9761H68.2124ZM69.8587 16.9761H70.8587V15.9761H69.8587V16.9761ZM70.6087 24.9147L69.877 25.5965L69.8849 25.6048L70.6087 24.9147ZM74.7609 24.8782L74.0298 24.1958L74.7609 24.8782ZM75.5291 16.9761V15.9761H74.5291V16.9761H75.5291ZM77.1937 16.9761H76.1937V27H77.1937H78.1937V16.9761H77.1937ZM77.1937 27V26H75.5291V27V28H77.1937V27ZM75.5291 27H76.5291V25.5184H75.5291H74.5291V27H75.5291ZM75.5291 25.5184L74.6789 24.992C74.4645 25.3383 74.1612 25.6195 73.7391 25.835L74.1938 26.7256L74.6486 27.6162C75.3728 27.2464 75.9596 26.7228 76.3794 26.0447L75.5291 25.5184ZM74.1938 26.7256L73.7466 25.8312C73.3366 26.0362 72.8698 26.1463 72.3281 26.1463V27.1463V28.1463C73.1522 28.1463 73.9292 27.976 74.6411 27.6201L74.1938 26.7256ZM72.3281 27.1463V26.1463C71.6867 26.1463 71.1441 26.0171 70.6787 25.7798L70.2245 26.6707L69.7704 27.5617C70.5488 27.9585 71.4086 28.1463 72.3281 28.1463V27.1463ZM70.2245 26.6707L70.6924 25.787C70.2488 25.5521 69.8904 25.2046 69.6132 24.7148L68.7429 25.2074L67.8727 25.7C68.3271 26.5028 68.9565 27.1309 69.7566 27.5545L70.2245 26.6707ZM68.7429 25.2074L69.6202 24.7274C69.3652 24.2615 69.2124 23.6493 69.2124 22.8478H68.2124H67.2124C67.2124 23.8998 67.4133 24.8607 67.8656 25.6874L68.7429 25.2074ZM68.2124 22.8478H69.2124V16.9761H68.2124H67.2124V22.8478H68.2124ZM68.2124 16.9761V17.9761H69.8587V16.9761V15.9761H68.2124V16.9761ZM69.8587 16.9761H68.8587V22.6283H69.8587H70.8587V16.9761H69.8587ZM69.8587 22.6283H68.8587C68.8587 23.7797 69.152 24.8184 69.8771 25.5965L70.6087 24.9147L71.3403 24.233C71.0653 23.938 70.8587 23.4524 70.8587 22.6283H69.8587ZM70.6087 24.9147L69.8849 25.6048C70.61 26.3652 71.5756 26.7013 72.6573 26.7013V25.7013V24.7013C72.0074 24.7013 71.6073 24.513 71.3324 24.2247L70.6087 24.9147ZM72.6573 25.7013V26.7013C73.7687 26.7013 74.7556 26.3495 75.4919 25.5605L74.7609 24.8782L74.0298 24.1958C73.7419 24.5044 73.3263 24.7013 72.6573 24.7013V25.7013ZM74.7609 24.8782L75.4919 25.5605C76.2354 24.7639 76.5291 23.6828 76.5291 22.4819H75.5291H74.5291C74.5291 23.3785 74.3107 23.8949 74.0298 24.1958L74.7609 24.8782ZM75.5291 22.4819H76.5291V16.9761H75.5291H74.5291V22.4819H75.5291ZM75.5291 16.9761V17.9761H77.1937V16.9761V15.9761H75.5291V16.9761ZM80.0042 19.2626L80.8842 19.7375L80.8873 19.7318L80.0042 19.2626ZM81.7236 17.4517L81.2259 16.5843L81.2197 16.5879L81.7236 17.4517ZM87.3026 17.7078L86.7006 18.5064L86.7065 18.5107L87.3026 17.7078ZM88.8939 20.1955V21.1955H90.164L89.866 19.9608L88.8939 20.1955ZM87.1014 20.1955L86.1384 20.4651L86.3429 21.1955H87.1014V20.1955ZM86.0953 18.7504L85.5083 19.5601L85.5178 19.5669L86.0953 18.7504ZM81.9614 19.2077L82.7026 19.879L82.7088 19.8721L81.9614 19.2077ZM81.9614 24.7684L82.7088 24.104L81.9614 24.7684ZM86.0953 25.244L86.6688 26.0632V26.0632L86.0953 25.244ZM87.1014 23.7807V22.7807H86.349L86.1405 23.5035L87.1014 23.7807ZM88.8939 23.7807L89.8613 24.034L90.1896 22.7807H88.8939V23.7807ZM87.2843 26.25L87.8882 27.0472L87.8957 27.0413L87.2843 26.25ZM81.7236 26.5244L81.2197 27.3882L81.2259 27.3918L81.7236 26.5244ZM80.0042 24.7135L79.1211 25.1827L80.0042 24.7135ZM79.3823 21.9698H80.3823C80.3823 21.068 80.5619 20.3348 80.8842 19.7375L80.0042 19.2626L79.1242 18.7877C78.6173 19.7269 78.3823 20.7985 78.3823 21.9698H79.3823ZM80.0042 19.2626L80.8873 19.7318C81.2186 19.1081 81.6636 18.6444 82.2275 18.3155L81.7236 17.4517L81.2197 16.5879C80.3203 17.1126 79.619 17.8562 79.1211 18.7935L80.0042 19.2626ZM81.7236 17.4517L82.2213 18.3191C82.7976 17.9884 83.4701 17.8115 84.2661 17.8115V16.8115V15.8115C83.1599 15.8115 82.1373 16.0614 81.2259 16.5844L81.7236 17.4517ZM84.2661 16.8115V17.8115C85.3338 17.8115 86.1196 18.0683 86.7006 18.5063L87.3026 17.7078L87.9045 16.9093C86.9003 16.1522 85.6617 15.8115 84.2661 15.8115V16.8115ZM87.3026 17.7078L86.7065 18.5107C87.3062 18.9559 87.7155 19.5751 87.9219 20.4301L88.8939 20.1955L89.866 19.9608C89.5602 18.694 88.9087 17.6547 87.8987 16.9049L87.3026 17.7078ZM88.8939 20.1955V19.1955H87.1014V20.1955V21.1955H88.8939V20.1955ZM87.1014 20.1955L88.0643 19.9259C87.834 19.1031 87.367 18.4251 86.6728 17.934L86.0953 18.7504L85.5178 19.5669C85.8236 19.7831 86.0273 20.0684 86.1384 20.4651L87.1014 20.1955ZM86.0953 18.7504L86.6823 17.9408C85.9899 17.4389 85.1625 17.22 84.2661 17.22V18.22V19.22C84.8331 19.22 85.2252 19.3547 85.5083 19.56L86.0953 18.7504ZM84.2661 18.22V17.22C83.0549 17.22 82.0054 17.653 81.214 18.5434L81.9614 19.2077L82.7088 19.8721C83.088 19.4455 83.575 19.22 84.2661 19.22V18.22ZM81.9614 19.2077L81.2202 18.5365C80.4151 19.4254 80.0834 20.6193 80.0834 21.9698H81.0834H82.0834C82.0834 20.9302 82.337 20.2827 82.7026 19.879L81.9614 19.2077ZM81.0834 21.9698H80.0834C80.0834 23.3308 80.4141 24.5329 81.214 25.4328L81.9614 24.7684L82.7088 24.104C82.338 23.6869 82.0834 23.0233 82.0834 21.9698H81.0834ZM81.9614 24.7684L81.214 25.4328C82.0054 26.3232 83.0549 26.7562 84.2661 26.7562V25.7562V24.7562C83.575 24.7562 83.088 24.5306 82.7088 24.104L81.9614 24.7684ZM84.2661 25.7562V26.7562C85.1554 26.7562 85.9778 26.5469 86.6688 26.0632L86.0953 25.244L85.5219 24.4248C85.2373 24.6239 84.8402 24.7562 84.2661 24.7562V25.7562ZM86.0953 25.244L86.6688 26.0632C87.3643 25.5763 87.8232 24.8863 88.0622 24.0578L87.1014 23.7807L86.1405 23.5035C86.0137 23.9433 85.8018 24.2288 85.5219 24.4248L86.0953 25.244ZM87.1014 23.7807V24.7807H88.8939V23.7807V22.7807H87.1014V23.7807ZM88.8939 23.7807L87.9266 23.5273C87.7118 24.3474 87.2953 24.9778 86.6728 25.4588L87.2843 26.25L87.8957 27.0413C88.8829 26.2785 89.5395 25.2626 89.8613 24.034L88.8939 23.7807ZM87.2843 26.25L86.6804 25.4529C86.0814 25.9067 85.2993 26.1646 84.2661 26.1646V27.1646V28.1646C85.6474 28.1646 86.8775 27.8128 87.8881 27.0471L87.2843 26.25ZM84.2661 27.1646V26.1646C83.4701 26.1646 82.7976 25.9877 82.2213 25.657L81.7236 26.5244L81.2259 27.3918C82.1373 27.9147 83.1599 28.1646 84.2661 28.1646V27.1646ZM81.7236 26.5244L82.2275 25.6606C81.6636 25.3317 81.2186 24.868 80.8873 24.2444L80.0042 24.7135L79.1211 25.1827C79.619 26.1199 80.3203 26.8635 81.2197 27.3882L81.7236 26.5244ZM80.0042 24.7135L80.8873 24.2444C80.5625 23.6331 80.3823 22.8854 80.3823 21.9698H79.3823H78.3823C78.3823 23.1516 78.6166 24.2331 79.1211 25.1827L80.0042 24.7135ZM92.7795 18.6041H91.7795L93.6701 19.0589L92.7795 18.6041ZM94.0233 17.2688L93.523 16.4029L93.5146 16.4079L94.0233 17.2688ZM96.0171 16.7932H97.0171V15.7932H96.0171V16.7932ZM96.0171 18.5126V19.5126H97.0171V18.5126H96.0171ZM92.7795 27V28H93.7795V27H92.7795ZM91.115 27H90.115V28H91.115V27ZM91.115 16.9761V15.9761H90.115V16.9761H91.115ZM92.7795 16.9761H93.7795V15.9761H92.7795V16.9761ZM92.7795 18.6041L93.6701 19.0589C93.8795 18.6488 94.1642 18.3471 94.5321 18.1297L94.0233 17.2688L93.5146 16.4079C92.8093 16.8246 92.2648 17.4131 91.8889 18.1493L92.7795 18.6041ZM94.0233 17.2688L94.5236 18.1347C94.8888 17.9237 95.372 17.7932 96.0171 17.7932V16.7932V15.7932C95.1014 15.7932 94.2554 15.9798 93.5231 16.4029L94.0233 17.2688ZM96.0171 16.7932H95.0171V18.5126H96.0171H97.0171V16.7932H96.0171ZM96.0171 18.5126V17.5126H95.5781V18.5126V19.5126H96.0171V18.5126ZM95.5781 18.5126V17.5126C94.4692 17.5126 93.4598 17.8172 92.7439 18.594C92.0421 19.3554 91.7795 20.4021 91.7795 21.5491H92.7795H93.7795C93.7795 20.6718 93.9834 20.2002 94.2145 19.9495C94.4314 19.7141 94.8213 19.5126 95.5781 19.5126V18.5126ZM92.7795 21.5491H91.7795V27H92.7795H93.7795V21.5491H92.7795ZM92.7795 27V26H91.115V27V28H92.7795V27ZM91.115 27H92.115V16.9761H91.115H90.115V27H91.115ZM91.115 16.9761V17.9761H92.7795V16.9761V15.9761H91.115V16.9761ZM92.7795 16.9761H91.7795V18.6041H92.7795H93.7795V16.9761H92.7795ZM99.7495 26.5244L99.2579 27.3953L99.2639 27.3986L99.7495 26.5244ZM97.9569 24.7135L97.0764 25.1876L97.0808 25.1958L97.0853 25.2038L97.9569 24.7135ZM97.9752 19.2626L97.1061 18.7679L97.1036 18.7723L97.9752 19.2626ZM99.8044 17.4517L100.279 18.3318L100.29 18.3259L99.8044 17.4517ZM104.963 17.4517L104.477 18.3259L104.488 18.3317L104.963 17.4517ZM106.774 19.2443L105.902 19.7346L105.908 19.7448L106.774 19.2443ZM106.755 24.7135L105.892 24.2088L105.889 24.213L106.755 24.7135ZM104.908 26.5244L105.388 27.4018L104.908 26.5244ZM105.255 24.0185L104.393 23.5123L104.389 23.5193L104.385 23.5264L105.255 24.0185ZM104.03 18.6773L103.549 19.5544L103.558 19.5588L103.566 19.5631L104.03 18.6773ZM100.682 18.6773L101.155 19.5585L101.163 19.5544L100.682 18.6773ZM99.4751 19.9211L100.354 20.3986L99.4751 19.9211ZM99.4568 24.0367L98.5703 24.4993L98.5742 24.5068L98.5782 24.5143L99.4568 24.0367ZM100.664 25.2989L100.175 26.171L100.183 26.1756L100.191 26.18L100.664 25.2989ZM102.31 27.1646V26.1646C101.529 26.1646 100.845 25.9889 100.235 25.6503L99.7495 26.5244L99.2639 27.3986C100.191 27.9135 101.213 28.1646 102.31 28.1646V27.1646ZM99.7495 26.5244L100.241 25.6536C99.6492 25.3195 99.1809 24.8498 98.8285 24.2233L97.9569 24.7135L97.0853 25.2038C97.6109 26.1382 98.3377 26.8757 99.2579 27.3952L99.7495 26.5244ZM97.9569 24.7135L98.8374 24.2394C98.5002 23.6132 98.3167 22.8661 98.3167 21.9698H97.3167H96.3167C96.3167 23.1465 96.56 24.2286 97.0764 25.1876L97.9569 24.7135ZM97.3167 21.9698H98.3167C98.3167 21.0921 98.5035 20.3632 98.8468 19.7529L97.9752 19.2626L97.1036 18.7723C96.569 19.7229 96.3167 20.7988 96.3167 21.9698H97.3167ZM97.9752 19.2626L98.8443 19.7573C99.2071 19.1198 99.6835 18.6533 100.279 18.3317L99.8044 17.4517L99.3294 16.5717C98.3887 17.0794 97.6457 17.8201 97.1061 18.7679L97.9752 19.2626ZM99.8044 17.4517L100.29 18.3259C100.898 17.9883 101.588 17.8115 102.384 17.8115V16.8115V15.8115C101.277 15.8115 100.248 16.0615 99.3187 16.5776L99.8044 17.4517ZM102.384 16.8115V17.8115C103.179 17.8115 103.869 17.9883 104.477 18.3259L104.963 17.4517L105.448 16.5776C104.519 16.0615 103.49 15.8115 102.384 15.8115V16.8115ZM104.963 17.4517L104.488 18.3317C105.085 18.6541 105.553 19.1145 105.902 19.7346L106.774 19.2443L107.645 18.7541C107.116 17.8133 106.377 17.0785 105.438 16.5717L104.963 17.4517ZM106.774 19.2443L105.908 19.7448C106.259 20.3516 106.45 21.0823 106.45 21.9698H107.45H108.45C108.45 20.7842 108.191 19.698 107.639 18.7438L106.774 19.2443ZM107.45 21.9698H106.45C106.45 22.8523 106.255 23.5883 105.892 24.2088L106.755 24.7135L107.619 25.2182C108.183 24.2535 108.45 23.1603 108.45 21.9698H107.45ZM106.755 24.7135L105.889 24.213C105.529 24.8371 105.045 25.3094 104.428 25.647L104.908 26.5244L105.388 27.4018C106.331 26.8858 107.079 26.1508 107.621 25.214L106.755 24.7135ZM104.908 26.5244L104.428 25.647C103.805 25.9878 103.106 26.1646 102.31 26.1646V27.1646V28.1646C103.417 28.1646 104.45 27.9146 105.388 27.4018L104.908 26.5244ZM102.31 25.7013V26.7013C103.072 26.7013 103.795 26.5208 104.465 26.1624L103.993 25.2806L103.522 24.3988C103.143 24.6013 102.744 24.7013 102.31 24.7013V25.7013ZM103.993 25.2806L104.465 26.1624C105.17 25.785 105.724 25.2222 106.126 24.5105L105.255 24.0185L104.385 23.5264C104.153 23.9366 103.865 24.2152 103.522 24.3988L103.993 25.2806ZM105.255 24.0185L106.118 24.5247C106.556 23.7777 106.749 22.9106 106.749 21.9698H105.749H104.749C104.749 22.6386 104.613 23.1373 104.393 23.5123L105.255 24.0185ZM105.749 21.9698H106.749C106.749 21.0349 106.565 20.1731 106.144 19.429L105.274 19.9211L104.403 20.4132C104.617 20.791 104.749 21.295 104.749 21.9698H105.749ZM105.274 19.9211L106.144 19.429C105.744 18.7203 105.196 18.1591 104.494 17.7914L104.03 18.6773L103.566 19.5631C103.888 19.732 104.17 20 104.403 20.4132L105.274 19.9211ZM104.03 18.6773L104.51 17.8002C103.847 17.4371 103.127 17.2566 102.365 17.2566V18.2566V19.2566C102.799 19.2566 103.188 19.3565 103.549 19.5544L104.03 18.6773ZM102.365 18.2566V17.2566C101.595 17.2566 100.868 17.4354 100.202 17.8002L100.682 18.6773L101.163 19.5544C101.521 19.3581 101.916 19.2566 102.365 19.2566V18.2566ZM100.682 18.6773L100.21 17.7961C99.5169 18.1678 98.9824 18.7336 98.5965 19.4436L99.4751 19.9211L100.354 20.3986C100.578 19.9867 100.848 19.7233 101.155 19.5584L100.682 18.6773ZM99.4751 19.9211L98.5965 19.4436C98.1939 20.1845 98.0178 21.0408 98.0178 21.9698H99.0178H100.018C100.018 21.2891 100.147 20.7796 100.354 20.3986L99.4751 19.9211ZM99.0178 21.9698H98.0178C98.0178 22.9024 98.1845 23.76 98.5703 24.4993L99.4568 24.0367L100.343 23.5742C100.144 23.1915 100.018 22.6712 100.018 21.9698H99.0178ZM99.4568 24.0367L98.5782 24.5143C98.9625 25.2214 99.4922 25.7881 100.175 26.171L100.664 25.2989L101.153 24.4267C100.836 24.2487 100.561 23.974 100.335 23.5592L99.4568 24.0367ZM100.664 25.2989L100.191 26.18C100.844 26.5305 101.557 26.7013 102.31 26.7013V25.7013V24.7013C101.869 24.7013 101.484 24.6038 101.137 24.4177L100.664 25.2989Z" fill="url(#paint1_linear_392_1578)" mask="url(#path-2-outside-1_392_1578)"></path><defs><linearGradient id="paint0_linear_392_1578" x1="84" y1="0" x2="84" y2="41" gradientUnits="userSpaceOnUse"><stop stop-color="#808FB0"></stop><stop offset="1" stop-color="#141F47"></stop></linearGradient><linearGradient id="paint1_linear_392_1578" x1="84" y1="7" x2="84" y2="34" gradientUnits="userSpaceOnUse"><stop stop-color="#808FB0"></stop><stop offset="1" stop-color="#141F47"></stop></linearGradient></defs></svg>