<svg xmlns="http://www.w3.org/2000/svg" width="168" height="41" viewBox="0 0 168 41" fill="none"><rect x="0.5" y="0.5" width="167" height="40" rx="19.5" fill="#0F1435" stroke="url(#paint0_linear_392_1581)"></rect><mask id="path-2-outside-1_392_1581" maskUnits="userSpaceOnUse" x="39" y="10" width="92" height="23" fill="black"><rect fill="white" x="39" y="10" width="92" height="23"></rect><path d="M42.073 15.6043V19.8662H46.7191V21.2381H42.073V25.6281H47.2679V27H40.4085V14.2324H47.2679V15.6043H42.073ZM53.3351 27.1646C52.5669 27.1646 51.8779 27.0366 51.2682 26.7805C50.6584 26.5122 50.1768 26.1464 49.8231 25.683C49.4695 25.2074 49.2744 24.6648 49.2378 24.055H50.9572C51.006 24.555 51.2377 24.9635 51.6523 25.2806C52.0791 25.5976 52.6339 25.7562 53.3168 25.7562C53.9509 25.7562 54.4509 25.6159 54.8168 25.3355C55.1826 25.055 55.3655 24.7013 55.3655 24.2745C55.3655 23.8355 55.1704 23.5124 54.7802 23.3051C54.39 23.0856 53.7863 22.8722 52.9693 22.6649C52.2254 22.4698 51.6157 22.2746 51.1401 22.0795C50.6767 21.8722 50.2743 21.5735 49.9329 21.1832C49.6036 20.7808 49.439 20.2565 49.439 19.6101C49.439 19.098 49.5914 18.6285 49.8963 18.2017C50.2011 17.7749 50.6341 17.4395 51.195 17.1956C51.7559 16.9396 52.3962 16.8115 53.1156 16.8115C54.2253 16.8115 55.1216 17.092 55.8045 17.6529C56.4874 18.2139 56.8532 18.9821 56.902 19.9577H55.2375C55.2009 19.4333 54.9875 19.0126 54.5973 18.6956C54.2192 18.3785 53.7071 18.22 53.0608 18.22C52.4632 18.22 51.9876 18.348 51.634 18.6041C51.2804 18.8602 51.1035 19.1955 51.1035 19.6101C51.1035 19.9394 51.2072 20.2138 51.4145 20.4333C51.634 20.6406 51.9023 20.8113 52.2193 20.9454C52.5486 21.0674 52.9998 21.2076 53.5729 21.3662C54.2924 21.5613 54.8777 21.7564 55.3289 21.9515C55.7801 22.1344 56.1642 22.4149 56.4813 22.7929C56.8106 23.1709 56.9813 23.6648 56.9935 24.2745C56.9935 24.8233 56.841 25.3172 56.5362 25.7562C56.2313 26.1952 55.7984 26.5427 55.2375 26.7988C54.6887 27.0427 54.0546 27.1646 53.3351 27.1646ZM61.3736 18.348V24.2562C61.3736 24.744 61.4773 25.0916 61.6846 25.2989C61.8919 25.494 62.2516 25.5915 62.7638 25.5915H63.9893V27H62.4894C61.5626 27 60.8676 26.7866 60.4042 26.3598C59.9408 25.933 59.7091 25.2318 59.7091 24.2562V18.348H58.4104V16.9761H59.7091V14.4519H61.3736V16.9761H63.9893V18.348H61.3736ZM67.6707 18.6041C67.9634 18.031 68.378 17.5859 68.9145 17.2688C69.4633 16.9518 70.1279 16.7932 70.9083 16.7932V18.5126H70.4693C68.6036 18.5126 67.6707 19.5248 67.6707 21.5491V27H66.0061V16.9761H67.6707V18.6041ZM72.2079 21.9515C72.2079 20.9272 72.4152 20.0309 72.8298 19.2626C73.2444 18.4822 73.8115 17.8785 74.5309 17.4517C75.2626 17.0249 76.0735 16.8115 76.9637 16.8115C77.8417 16.8115 78.6039 17.0005 79.2502 17.3786C79.8965 17.7566 80.3782 18.2322 80.6952 18.8053V16.9761H82.3781V27H80.6952V25.1342C80.366 25.7196 79.8721 26.2074 79.2136 26.5976C78.5673 26.9756 77.8112 27.1646 76.9454 27.1646C76.0552 27.1646 75.2504 26.9451 74.5309 26.5061C73.8115 26.0671 73.2444 25.4513 72.8298 24.6587C72.4152 23.866 72.2079 22.9636 72.2079 21.9515ZM80.6952 21.9698C80.6952 21.2137 80.5428 20.5552 80.238 19.9943C79.9331 19.4333 79.5185 19.0065 78.9941 18.7139C78.4819 18.409 77.9149 18.2566 77.293 18.2566C76.6711 18.2566 76.104 18.4029 75.5919 18.6956C75.0797 18.9882 74.6712 19.415 74.3663 19.976C74.0614 20.5369 73.909 21.1954 73.909 21.9515C73.909 22.7197 74.0614 23.3904 74.3663 23.9636C74.6712 24.5245 75.0797 24.9574 75.5919 25.2623C76.104 25.555 76.6711 25.7013 77.293 25.7013C77.9149 25.7013 78.4819 25.555 78.9941 25.2623C79.5185 24.9574 79.9331 24.5245 80.238 23.9636C80.5428 23.3904 80.6952 22.7258 80.6952 21.9698ZM87.2214 18.348V24.2562C87.2214 24.744 87.325 25.0916 87.5323 25.2989C87.7396 25.494 88.0994 25.5915 88.6116 25.5915H89.8371V27H88.3372C87.4104 27 86.7153 26.7866 86.2519 26.3598C85.7885 25.933 85.5568 25.2318 85.5568 24.2562V18.348H84.2581V16.9761H85.5568V14.4519H87.2214V16.9761H89.8371V18.348H87.2214ZM101 21.6039C101 21.921 100.981 22.2563 100.945 22.61H92.9331C92.9941 23.5977 93.3294 24.3721 93.9392 24.933C94.5611 25.4818 95.311 25.7562 96.189 25.7562C96.9085 25.7562 97.506 25.5915 97.9816 25.2623C98.4694 24.9208 98.8108 24.4696 99.006 23.9087H100.799C100.53 24.8721 99.9937 25.6586 99.1889 26.2683C98.384 26.8659 97.3841 27.1646 96.189 27.1646C95.2379 27.1646 94.3843 26.9512 93.6282 26.5244C92.8843 26.0976 92.299 25.494 91.8722 24.7135C91.4454 23.9209 91.232 23.0063 91.232 21.9698C91.232 20.9332 91.4393 20.0248 91.8539 19.2443C92.2685 18.4639 92.8478 17.8663 93.5916 17.4517C94.3477 17.0249 95.2135 16.8115 96.189 16.8115C97.1402 16.8115 97.9816 17.0188 98.7133 17.4334C99.445 17.848 100.006 18.4212 100.396 19.1529C100.799 19.8723 101 20.6894 101 21.6039ZM99.2803 21.2564C99.2803 20.6223 99.1401 20.0796 98.8596 19.6284C98.5792 19.165 98.195 18.8175 97.7072 18.5858C97.2317 18.3419 96.7012 18.22 96.1159 18.22C95.2745 18.22 94.555 18.4883 93.9574 19.0248C93.3721 19.5614 93.0368 20.3052 92.9514 21.2564H99.2803ZM97.9085 14.1409L94.0123 16.2262V14.9823L97.9085 12.6959V14.1409ZM107.331 16.8115C108.197 16.8115 108.953 17.0005 109.599 17.3786C110.258 17.7566 110.745 18.2322 111.062 18.8053V16.9761H112.745V27.2195C112.745 28.1341 112.55 28.945 112.16 29.6523C111.77 30.3718 111.209 30.9327 110.477 31.3351C109.758 31.7376 108.916 31.9388 107.953 31.9388C106.636 31.9388 105.538 31.6278 104.66 31.0059C103.782 30.384 103.264 29.5365 103.105 28.4633H104.752C104.935 29.0731 105.313 29.5608 105.886 29.9267C106.459 30.3047 107.148 30.4937 107.953 30.4937C108.867 30.4937 109.611 30.2071 110.184 29.634C110.77 29.0609 111.062 28.256 111.062 27.2195V25.116C110.733 25.7013 110.245 26.1891 109.599 26.5793C108.953 26.9695 108.197 27.1646 107.331 27.1646C106.441 27.1646 105.63 26.9451 104.898 26.5061C104.179 26.0671 103.612 25.4513 103.197 24.6587C102.782 23.866 102.575 22.9636 102.575 21.9515C102.575 20.9272 102.782 20.0309 103.197 19.2626C103.612 18.4822 104.179 17.8785 104.898 17.4517C105.63 17.0249 106.441 16.8115 107.331 16.8115ZM111.062 21.9698C111.062 21.2137 110.91 20.5552 110.605 19.9943C110.3 19.4333 109.886 19.0065 109.361 18.7139C108.849 18.409 108.282 18.2566 107.66 18.2566C107.038 18.2566 106.471 18.4029 105.959 18.6956C105.447 18.9882 105.038 19.415 104.733 19.976C104.429 20.5369 104.276 21.1954 104.276 21.9515C104.276 22.7197 104.429 23.3904 104.733 23.9636C105.038 24.5245 105.447 24.9574 105.959 25.2623C106.471 25.555 107.038 25.7013 107.66 25.7013C108.282 25.7013 108.849 25.555 109.361 25.2623C109.886 24.9574 110.3 24.5245 110.605 23.9636C110.91 23.3904 111.062 22.7258 111.062 21.9698ZM116.418 15.3482C116.101 15.3482 115.832 15.2384 115.613 15.0189C115.393 14.7994 115.284 14.5311 115.284 14.2141C115.284 13.897 115.393 13.6288 115.613 13.4093C115.832 13.1898 116.101 13.08 116.418 13.08C116.723 13.08 116.979 13.1898 117.186 13.4093C117.406 13.6288 117.515 13.897 117.515 14.2141C117.515 14.5311 117.406 14.7994 117.186 15.0189C116.979 15.2384 116.723 15.3482 116.418 15.3482ZM117.223 16.9761V27H115.558V16.9761H117.223ZM119.438 21.9515C119.438 20.9272 119.645 20.0309 120.06 19.2626C120.474 18.4822 121.041 17.8785 121.761 17.4517C122.492 17.0249 123.303 16.8115 124.194 16.8115C125.072 16.8115 125.834 17.0005 126.48 17.3786C127.126 17.7566 127.608 18.2322 127.925 18.8053V16.9761H129.608V27H127.925V25.1342C127.596 25.7196 127.102 26.2074 126.443 26.5976C125.797 26.9756 125.041 27.1646 124.175 27.1646C123.285 27.1646 122.48 26.9451 121.761 26.5061C121.041 26.0671 120.474 25.4513 120.06 24.6587C119.645 23.866 119.438 22.9636 119.438 21.9515ZM127.925 21.9698C127.925 21.2137 127.773 20.5552 127.468 19.9943C127.163 19.4333 126.748 19.0065 126.224 18.7139C125.712 18.409 125.145 18.2566 124.523 18.2566C123.901 18.2566 123.334 18.4029 122.822 18.6956C122.309 18.9882 121.901 19.415 121.596 19.976C121.291 20.5369 121.139 21.1954 121.139 21.9515C121.139 22.7197 121.291 23.3904 121.596 23.9636C121.901 24.5245 122.309 24.9574 122.822 25.2623C123.334 25.555 123.901 25.7013 124.523 25.7013C125.145 25.7013 125.712 25.555 126.224 25.2623C126.748 24.9574 127.163 24.5245 127.468 23.9636C127.773 23.3904 127.925 22.7258 127.925 21.9698Z"></path></mask><path d="M42.073 15.6043V19.8662H46.7191V21.2381H42.073V25.6281H47.2679V27H40.4085V14.2324H47.2679V15.6043H42.073ZM53.3351 27.1646C52.5669 27.1646 51.8779 27.0366 51.2682 26.7805C50.6584 26.5122 50.1768 26.1464 49.8231 25.683C49.4695 25.2074 49.2744 24.6648 49.2378 24.055H50.9572C51.006 24.555 51.2377 24.9635 51.6523 25.2806C52.0791 25.5976 52.6339 25.7562 53.3168 25.7562C53.9509 25.7562 54.4509 25.6159 54.8168 25.3355C55.1826 25.055 55.3655 24.7013 55.3655 24.2745C55.3655 23.8355 55.1704 23.5124 54.7802 23.3051C54.39 23.0856 53.7863 22.8722 52.9693 22.6649C52.2254 22.4698 51.6157 22.2746 51.1401 22.0795C50.6767 21.8722 50.2743 21.5735 49.9329 21.1832C49.6036 20.7808 49.439 20.2565 49.439 19.6101C49.439 19.098 49.5914 18.6285 49.8963 18.2017C50.2011 17.7749 50.6341 17.4395 51.195 17.1956C51.7559 16.9396 52.3962 16.8115 53.1156 16.8115C54.2253 16.8115 55.1216 17.092 55.8045 17.6529C56.4874 18.2139 56.8532 18.9821 56.902 19.9577H55.2375C55.2009 19.4333 54.9875 19.0126 54.5973 18.6956C54.2192 18.3785 53.7071 18.22 53.0608 18.22C52.4632 18.22 51.9876 18.348 51.634 18.6041C51.2804 18.8602 51.1035 19.1955 51.1035 19.6101C51.1035 19.9394 51.2072 20.2138 51.4145 20.4333C51.634 20.6406 51.9023 20.8113 52.2193 20.9454C52.5486 21.0674 52.9998 21.2076 53.5729 21.3662C54.2924 21.5613 54.8777 21.7564 55.3289 21.9515C55.7801 22.1344 56.1642 22.4149 56.4813 22.7929C56.8106 23.1709 56.9813 23.6648 56.9935 24.2745C56.9935 24.8233 56.841 25.3172 56.5362 25.7562C56.2313 26.1952 55.7984 26.5427 55.2375 26.7988C54.6887 27.0427 54.0546 27.1646 53.3351 27.1646ZM61.3736 18.348V24.2562C61.3736 24.744 61.4773 25.0916 61.6846 25.2989C61.8919 25.494 62.2516 25.5915 62.7638 25.5915H63.9893V27H62.4894C61.5626 27 60.8676 26.7866 60.4042 26.3598C59.9408 25.933 59.7091 25.2318 59.7091 24.2562V18.348H58.4104V16.9761H59.7091V14.4519H61.3736V16.9761H63.9893V18.348H61.3736ZM67.6707 18.6041C67.9634 18.031 68.378 17.5859 68.9145 17.2688C69.4633 16.9518 70.1279 16.7932 70.9083 16.7932V18.5126H70.4693C68.6036 18.5126 67.6707 19.5248 67.6707 21.5491V27H66.0061V16.9761H67.6707V18.6041ZM72.2079 21.9515C72.2079 20.9272 72.4152 20.0309 72.8298 19.2626C73.2444 18.4822 73.8115 17.8785 74.5309 17.4517C75.2626 17.0249 76.0735 16.8115 76.9637 16.8115C77.8417 16.8115 78.6039 17.0005 79.2502 17.3786C79.8965 17.7566 80.3782 18.2322 80.6952 18.8053V16.9761H82.3781V27H80.6952V25.1342C80.366 25.7196 79.8721 26.2074 79.2136 26.5976C78.5673 26.9756 77.8112 27.1646 76.9454 27.1646C76.0552 27.1646 75.2504 26.9451 74.5309 26.5061C73.8115 26.0671 73.2444 25.4513 72.8298 24.6587C72.4152 23.866 72.2079 22.9636 72.2079 21.9515ZM80.6952 21.9698C80.6952 21.2137 80.5428 20.5552 80.238 19.9943C79.9331 19.4333 79.5185 19.0065 78.9941 18.7139C78.4819 18.409 77.9149 18.2566 77.293 18.2566C76.6711 18.2566 76.104 18.4029 75.5919 18.6956C75.0797 18.9882 74.6712 19.415 74.3663 19.976C74.0614 20.5369 73.909 21.1954 73.909 21.9515C73.909 22.7197 74.0614 23.3904 74.3663 23.9636C74.6712 24.5245 75.0797 24.9574 75.5919 25.2623C76.104 25.555 76.6711 25.7013 77.293 25.7013C77.9149 25.7013 78.4819 25.555 78.9941 25.2623C79.5185 24.9574 79.9331 24.5245 80.238 23.9636C80.5428 23.3904 80.6952 22.7258 80.6952 21.9698ZM87.2214 18.348V24.2562C87.2214 24.744 87.325 25.0916 87.5323 25.2989C87.7396 25.494 88.0994 25.5915 88.6116 25.5915H89.8371V27H88.3372C87.4104 27 86.7153 26.7866 86.2519 26.3598C85.7885 25.933 85.5568 25.2318 85.5568 24.2562V18.348H84.2581V16.9761H85.5568V14.4519H87.2214V16.9761H89.8371V18.348H87.2214ZM101 21.6039C101 21.921 100.981 22.2563 100.945 22.61H92.9331C92.9941 23.5977 93.3294 24.3721 93.9392 24.933C94.5611 25.4818 95.311 25.7562 96.189 25.7562C96.9085 25.7562 97.506 25.5915 97.9816 25.2623C98.4694 24.9208 98.8108 24.4696 99.006 23.9087H100.799C100.53 24.8721 99.9937 25.6586 99.1889 26.2683C98.384 26.8659 97.3841 27.1646 96.189 27.1646C95.2379 27.1646 94.3843 26.9512 93.6282 26.5244C92.8843 26.0976 92.299 25.494 91.8722 24.7135C91.4454 23.9209 91.232 23.0063 91.232 21.9698C91.232 20.9332 91.4393 20.0248 91.8539 19.2443C92.2685 18.4639 92.8478 17.8663 93.5916 17.4517C94.3477 17.0249 95.2135 16.8115 96.189 16.8115C97.1402 16.8115 97.9816 17.0188 98.7133 17.4334C99.445 17.848 100.006 18.4212 100.396 19.1529C100.799 19.8723 101 20.6894 101 21.6039ZM99.2803 21.2564C99.2803 20.6223 99.1401 20.0796 98.8596 19.6284C98.5792 19.165 98.195 18.8175 97.7072 18.5858C97.2317 18.3419 96.7012 18.22 96.1159 18.22C95.2745 18.22 94.555 18.4883 93.9574 19.0248C93.3721 19.5614 93.0368 20.3052 92.9514 21.2564H99.2803ZM97.9085 14.1409L94.0123 16.2262V14.9823L97.9085 12.6959V14.1409ZM107.331 16.8115C108.197 16.8115 108.953 17.0005 109.599 17.3786C110.258 17.7566 110.745 18.2322 111.062 18.8053V16.9761H112.745V27.2195C112.745 28.1341 112.55 28.945 112.16 29.6523C111.77 30.3718 111.209 30.9327 110.477 31.3351C109.758 31.7376 108.916 31.9388 107.953 31.9388C106.636 31.9388 105.538 31.6278 104.66 31.0059C103.782 30.384 103.264 29.5365 103.105 28.4633H104.752C104.935 29.0731 105.313 29.5608 105.886 29.9267C106.459 30.3047 107.148 30.4937 107.953 30.4937C108.867 30.4937 109.611 30.2071 110.184 29.634C110.77 29.0609 111.062 28.256 111.062 27.2195V25.116C110.733 25.7013 110.245 26.1891 109.599 26.5793C108.953 26.9695 108.197 27.1646 107.331 27.1646C106.441 27.1646 105.63 26.9451 104.898 26.5061C104.179 26.0671 103.612 25.4513 103.197 24.6587C102.782 23.866 102.575 22.9636 102.575 21.9515C102.575 20.9272 102.782 20.0309 103.197 19.2626C103.612 18.4822 104.179 17.8785 104.898 17.4517C105.63 17.0249 106.441 16.8115 107.331 16.8115ZM111.062 21.9698C111.062 21.2137 110.91 20.5552 110.605 19.9943C110.3 19.4333 109.886 19.0065 109.361 18.7139C108.849 18.409 108.282 18.2566 107.66 18.2566C107.038 18.2566 106.471 18.4029 105.959 18.6956C105.447 18.9882 105.038 19.415 104.733 19.976C104.429 20.5369 104.276 21.1954 104.276 21.9515C104.276 22.7197 104.429 23.3904 104.733 23.9636C105.038 24.5245 105.447 24.9574 105.959 25.2623C106.471 25.555 107.038 25.7013 107.66 25.7013C108.282 25.7013 108.849 25.555 109.361 25.2623C109.886 24.9574 110.3 24.5245 110.605 23.9636C110.91 23.3904 111.062 22.7258 111.062 21.9698ZM116.418 15.3482C116.101 15.3482 115.832 15.2384 115.613 15.0189C115.393 14.7994 115.284 14.5311 115.284 14.2141C115.284 13.897 115.393 13.6288 115.613 13.4093C115.832 13.1898 116.101 13.08 116.418 13.08C116.723 13.08 116.979 13.1898 117.186 13.4093C117.406 13.6288 117.515 13.897 117.515 14.2141C117.515 14.5311 117.406 14.7994 117.186 15.0189C116.979 15.2384 116.723 15.3482 116.418 15.3482ZM117.223 16.9761V27H115.558V16.9761H117.223ZM119.438 21.9515C119.438 20.9272 119.645 20.0309 120.06 19.2626C120.474 18.4822 121.041 17.8785 121.761 17.4517C122.492 17.0249 123.303 16.8115 124.194 16.8115C125.072 16.8115 125.834 17.0005 126.48 17.3786C127.126 17.7566 127.608 18.2322 127.925 18.8053V16.9761H129.608V27H127.925V25.1342C127.596 25.7196 127.102 26.2074 126.443 26.5976C125.797 26.9756 125.041 27.1646 124.175 27.1646C123.285 27.1646 122.48 26.9451 121.761 26.5061C121.041 26.0671 120.474 25.4513 120.06 24.6587C119.645 23.866 119.438 22.9636 119.438 21.9515ZM127.925 21.9698C127.925 21.2137 127.773 20.5552 127.468 19.9943C127.163 19.4333 126.748 19.0065 126.224 18.7139C125.712 18.409 125.145 18.2566 124.523 18.2566C123.901 18.2566 123.334 18.4029 122.822 18.6956C122.309 18.9882 121.901 19.415 121.596 19.976C121.291 20.5369 121.139 21.1954 121.139 21.9515C121.139 22.7197 121.291 23.3904 121.596 23.9636C121.901 24.5245 122.309 24.9574 122.822 25.2623C123.334 25.555 123.901 25.7013 124.523 25.7013C125.145 25.7013 125.712 25.555 126.224 25.2623C126.748 24.9574 127.163 24.5245 127.468 23.9636C127.773 23.3904 127.925 22.7258 127.925 21.9698Z" fill="#A8A8A8"></path><path d="M42.073 15.6043V14.6043H41.073V15.6043H42.073ZM42.073 19.8662H41.073V20.8662H42.073V19.8662ZM46.7191 19.8662H47.7191V18.8662H46.7191V19.8662ZM46.7191 21.2381V22.2381H47.7191V21.2381H46.7191ZM42.073 21.2381V20.2381H41.073V21.2381H42.073ZM42.073 25.6281H41.073V26.6281H42.073V25.6281ZM47.2679 25.6281H48.2679V24.6281H47.2679V25.6281ZM47.2679 27V28H48.2679V27H47.2679ZM40.4085 27H39.4085V28H40.4085V27ZM40.4085 14.2324V13.2324H39.4085V14.2324H40.4085ZM47.2679 14.2324H48.2679V13.2324H47.2679V14.2324ZM47.2679 15.6043V16.6043H48.2679V15.6043H47.2679ZM42.073 15.6043H41.073V19.8662H42.073H43.073V15.6043H42.073ZM42.073 19.8662V20.8662H46.7191V19.8662V18.8662H42.073V19.8662ZM46.7191 19.8662H45.7191V21.2381H46.7191H47.7191V19.8662H46.7191ZM46.7191 21.2381V20.2381H42.073V21.2381V22.2381H46.7191V21.2381ZM42.073 21.2381H41.073V25.6281H42.073H43.073V21.2381H42.073ZM42.073 25.6281V26.6281H47.2679V25.6281V24.6281H42.073V25.6281ZM47.2679 25.6281H46.2679V27H47.2679H48.2679V25.6281H47.2679ZM47.2679 27V26H40.4085V27V28H47.2679V27ZM40.4085 27H41.4085V14.2324H40.4085H39.4085V27H40.4085ZM40.4085 14.2324V15.2324H47.2679V14.2324V13.2324H40.4085V14.2324ZM47.2679 14.2324H46.2679V15.6043H47.2679H48.2679V14.2324H47.2679ZM47.2679 15.6043V14.6043H42.073V15.6043V16.6043H47.2679V15.6043ZM51.2682 26.7805L50.8654 27.6958L50.8732 27.6992L50.8809 27.7025L51.2682 26.7805ZM49.8231 25.683L49.0206 26.2797L49.0282 26.2897L49.8231 25.683ZM49.2378 24.055V23.055H48.176L48.2396 24.1149L49.2378 24.055ZM50.9572 24.055L51.9525 23.9579L51.8644 23.055H50.9572V24.055ZM51.6523 25.2806L51.0448 26.075L51.056 26.0833L51.6523 25.2806ZM54.7802 23.3051L54.2899 24.1766L54.3004 24.1825L54.311 24.1882L54.7802 23.3051ZM52.9693 22.6649L52.7156 23.6322L52.7234 23.6341L52.9693 22.6649ZM51.1401 22.0795L50.7318 22.9923L50.7461 22.9987L50.7606 23.0047L51.1401 22.0795ZM49.9329 21.1832L49.1589 21.8165L49.1694 21.8293L49.1803 21.8417L49.9329 21.1832ZM49.8963 18.2017L49.0826 17.6204L49.8963 18.2017ZM51.195 17.1956L51.5937 18.1127L51.602 18.1091L51.6103 18.1053L51.195 17.1956ZM55.8045 17.6529L55.1698 18.4257L55.8045 17.6529ZM56.902 19.9577V20.9577H57.9533L57.9008 19.9078L56.902 19.9577ZM55.2375 19.9577L54.2399 20.0273L54.3048 20.9577H55.2375V19.9577ZM54.5973 18.6956L53.9546 19.4618L53.9606 19.4668L53.9667 19.4717L54.5973 18.6956ZM51.634 18.6041L51.0475 17.7942H51.0475L51.634 18.6041ZM51.4145 20.4333L50.6875 21.1199L50.7071 21.1407L50.7279 21.1603L51.4145 20.4333ZM52.2193 20.9454L51.8297 21.8664L51.8507 21.8753L51.872 21.8832L52.2193 20.9454ZM53.5729 21.3662L53.3063 22.33L53.3112 22.3313L53.5729 21.3662ZM55.3289 21.9515L54.932 22.8693L54.9426 22.8739L54.9532 22.8782L55.3289 21.9515ZM56.4813 22.7929L55.7151 23.4355L55.7211 23.4427L55.7272 23.4497L56.4813 22.7929ZM56.9935 24.2745H57.9935V24.2645L57.9933 24.2545L56.9935 24.2745ZM56.5362 25.7562L55.7148 25.1858L56.5362 25.7562ZM55.2375 26.7988L55.6436 27.7126L55.6528 27.7085L55.2375 26.7988ZM53.3351 27.1646V26.1646C52.6786 26.1646 52.1243 26.0555 51.6554 25.8585L51.2682 26.7805L50.8809 27.7025C51.6315 28.0177 52.4552 28.1646 53.3351 28.1646V27.1646ZM51.2682 26.7805L51.6709 25.8652C51.1935 25.6551 50.8553 25.3872 50.6181 25.0763L49.8231 25.683L49.0282 26.2897C49.4982 26.9056 50.1233 27.3693 50.8654 27.6958L51.2682 26.7805ZM49.8231 25.683L50.6256 25.0863C50.3917 24.7718 50.2613 24.417 50.236 23.9951L49.2378 24.055L48.2396 24.1149C48.2874 24.9125 48.5472 25.643 49.0207 26.2797L49.8231 25.683ZM49.2378 24.055V25.055H50.9572V24.055V23.055H49.2378V24.055ZM50.9572 24.055L49.9619 24.1521C50.0388 24.9402 50.4195 25.5968 51.0448 26.0749L51.6523 25.2806L52.2597 24.4862C52.0558 24.3303 51.9732 24.1698 51.9525 23.9579L50.9572 24.055ZM51.6523 25.2806L51.056 26.0833C51.6987 26.5608 52.4805 26.7562 53.3168 26.7562V25.7562V24.7562C52.7874 24.7562 52.4595 24.6345 52.2486 24.4778L51.6523 25.2806ZM53.3168 25.7562V26.7562C54.0896 26.7562 54.8297 26.5856 55.4252 26.1291L54.8168 25.3355L54.2083 24.5418C54.0722 24.6462 53.8123 24.7562 53.3168 24.7562V25.7562ZM54.8168 25.3355L55.4252 26.1291C56.015 25.6769 56.3655 25.0401 56.3655 24.2745H55.3655H54.3655C54.3655 24.3626 54.3502 24.4331 54.2083 24.5418L54.8168 25.3355ZM55.3655 24.2745H56.3655C56.3655 23.903 56.2814 23.5275 56.0752 23.1861C55.8693 22.8449 55.5766 22.5958 55.2493 22.422L54.7802 23.3051L54.311 24.1882C54.344 24.2057 54.3596 24.2186 54.3647 24.2233C54.3692 24.2273 54.3669 24.2261 54.3631 24.2198C54.3593 24.2135 54.359 24.2104 54.3602 24.215C54.3616 24.2205 54.3655 24.2389 54.3655 24.2745H55.3655ZM54.7802 23.3051L55.2704 22.4335C54.7631 22.1481 54.0566 21.9091 53.2152 21.6956L52.9693 22.6649L52.7234 23.6341C53.516 23.8353 54.0168 24.023 54.2899 24.1766L54.7802 23.3051ZM52.9693 22.6649L53.223 21.6976C52.5032 21.5088 51.9396 21.3266 51.5197 21.1544L51.1401 22.0795L50.7606 23.0047C51.2918 23.2227 51.9477 23.4307 52.7156 23.6321L52.9693 22.6649ZM51.1401 22.0795L51.5485 21.1667C51.2197 21.0196 50.9339 20.8087 50.6854 20.5247L49.9329 21.1832L49.1803 21.8417C49.6147 22.3382 50.1337 22.7248 50.7318 22.9923L51.1401 22.0795ZM49.9329 21.1832L50.7068 20.55C50.5565 20.3663 50.439 20.0833 50.439 19.6101H49.439H48.439C48.439 20.4296 48.6507 21.1953 49.1589 21.8165L49.9329 21.1832ZM49.439 19.6101H50.439C50.439 19.3117 50.5232 19.0445 50.71 18.7829L49.8963 18.2017L49.0826 17.6204C48.6597 18.2125 48.439 18.8842 48.439 19.6101H49.439ZM49.8963 18.2017L50.71 18.7829C50.8931 18.5266 51.171 18.2965 51.5937 18.1127L51.195 17.1956L50.7963 16.2786C50.0971 16.5826 49.5092 17.0232 49.0826 17.6204L49.8963 18.2017ZM51.195 17.1956L51.6103 18.1053C52.0209 17.9179 52.5157 17.8115 53.1156 17.8115V16.8115V15.8115C52.2766 15.8115 51.491 15.9612 50.7797 16.286L51.195 17.1956ZM53.1156 16.8115V17.8115C54.0545 17.8115 54.7076 18.0461 55.1698 18.4257L55.8045 17.6529L56.4392 16.8802C55.5356 16.1379 54.3961 15.8115 53.1156 15.8115V16.8115ZM55.8045 17.6529L55.1698 18.4257C55.6106 18.7878 55.8669 19.2805 55.9033 20.0076L56.902 19.9577L57.9008 19.9078C57.8396 18.6838 57.3642 17.64 56.4392 16.8802L55.8045 17.6529ZM56.902 19.9577V18.9577H55.2375V19.9577V20.9577H56.902V19.9577ZM55.2375 19.9577L56.235 19.8881C56.1802 19.1017 55.8437 18.4198 55.2278 17.9194L54.5973 18.6956L53.9667 19.4717C54.1313 19.6054 54.2216 19.7649 54.2399 20.0273L55.2375 19.9577ZM54.5973 18.6956L55.2399 17.9294C54.6323 17.4198 53.8683 17.22 53.0608 17.22V18.22V19.22C53.5459 19.22 53.8061 19.3372 53.9546 19.4618L54.5973 18.6956ZM53.0608 18.22V17.22C52.3286 17.22 51.6245 17.3764 51.0475 17.7942L51.634 18.6041L52.2205 19.414C52.3508 19.3197 52.5978 19.22 53.0608 19.22V18.22ZM51.634 18.6041L51.0475 17.7942C50.4503 18.2266 50.1035 18.8554 50.1035 19.6101H51.1035H52.1035C52.1035 19.5498 52.1151 19.5248 52.1207 19.5141C52.1273 19.5015 52.1492 19.4657 52.2205 19.414L51.634 18.6041ZM51.1035 19.6101H50.1035C50.1035 20.1695 50.2883 20.6972 50.6875 21.1199L51.4145 20.4333L52.1415 19.7467C52.1261 19.7303 52.1035 19.7093 52.1035 19.6101H51.1035ZM51.4145 20.4333L50.7279 21.1603C51.0453 21.4601 51.4181 21.6923 51.8297 21.8664L52.2193 20.9454L52.609 20.0245C52.3865 19.9303 52.2227 19.8211 52.1011 19.7063L51.4145 20.4333ZM52.2193 20.9454L51.872 21.8832C52.2397 22.0194 52.7218 22.1683 53.3063 22.33L53.5729 21.3662L53.8395 20.4023C53.2778 20.247 52.8575 20.1154 52.5666 20.0077L52.2193 20.9454ZM53.5729 21.3662L53.3112 22.3313C54.0055 22.5196 54.5409 22.7002 54.932 22.8693L55.3289 21.9515L55.7258 21.0336C55.2145 20.8125 54.5793 20.603 53.8347 20.401L53.5729 21.3662ZM55.3289 21.9515L54.9532 22.8782C55.2509 22.9989 55.5016 23.1809 55.7151 23.4355L56.4813 22.7929L57.2475 22.1503C56.8269 21.6488 56.3093 21.2699 55.7046 21.0247L55.3289 21.9515ZM56.4813 22.7929L55.7272 23.4497C55.871 23.6148 55.9851 23.8666 55.9937 24.2945L56.9935 24.2745L57.9933 24.2545C57.9774 23.463 57.7501 22.7271 57.2354 22.1361L56.4813 22.7929ZM56.9935 24.2745H55.9935C55.9935 24.6252 55.9001 24.9189 55.7148 25.1858L56.5362 25.7562L57.3575 26.3266C57.782 25.7154 57.9935 25.0214 57.9935 24.2745H56.9935ZM56.5362 25.7562L55.7148 25.1858C55.5273 25.4558 55.2453 25.696 54.8222 25.8891L55.2375 26.7988L55.6528 27.7085C56.3516 27.3895 56.9354 26.9345 57.3575 26.3266L56.5362 25.7562ZM55.2375 26.7988L54.8313 25.885C54.4332 26.0619 53.9419 26.1646 53.3351 26.1646V27.1646V28.1646C54.1673 28.1646 54.9443 28.0234 55.6436 27.7126L55.2375 26.7988ZM61.3736 18.348V17.348H60.3736V18.348H61.3736ZM61.6846 25.2989L60.9775 26.006L60.9882 26.0167L60.9992 26.0271L61.6846 25.2989ZM63.9893 25.5915H64.9893V24.5915H63.9893V25.5915ZM63.9893 27V28H64.9893V27H63.9893ZM60.4042 26.3598L59.7267 27.0953L60.4042 26.3598ZM59.7091 18.348H60.7091V17.348H59.7091V18.348ZM58.4104 18.348H57.4104V19.348H58.4104V18.348ZM58.4104 16.9761V15.9761H57.4104V16.9761H58.4104ZM59.7091 16.9761V17.9761H60.7091V16.9761H59.7091ZM59.7091 14.4519V13.4519H58.7091V14.4519H59.7091ZM61.3736 14.4519H62.3736V13.4519H61.3736V14.4519ZM61.3736 16.9761H60.3736V17.9761H61.3736V16.9761ZM63.9893 16.9761H64.9893V15.9761H63.9893V16.9761ZM63.9893 18.348V19.348H64.9893V18.348H63.9893ZM61.3736 18.348H60.3736V24.2562H61.3736H62.3736V18.348H61.3736ZM61.3736 24.2562H60.3736C60.3736 24.8427 60.4909 25.5194 60.9775 26.006L61.6846 25.2989L62.3917 24.5918C62.4301 24.6302 62.4251 24.6488 62.4096 24.5969C62.3931 24.5416 62.3736 24.4344 62.3736 24.2562H61.3736ZM61.6846 25.2989L60.9992 26.0271C61.4928 26.4916 62.1812 26.5915 62.7638 26.5915V25.5915V24.5915C62.5657 24.5915 62.4411 24.5721 62.3716 24.5532C62.3029 24.5346 62.3227 24.5262 62.3699 24.5707L61.6846 25.2989ZM62.7638 25.5915V26.5915H63.9893V25.5915V24.5915H62.7638V25.5915ZM63.9893 25.5915H62.9893V27H63.9893H64.9893V25.5915H63.9893ZM63.9893 27V26H62.4894V27V28H63.9893V27ZM62.4894 27V26C61.6973 26 61.2897 25.8159 61.0816 25.6242L60.4042 26.3598L59.7267 27.0953C60.4454 27.7573 61.428 28 62.4894 28V27ZM60.4042 26.3598L61.0816 25.6242C60.9136 25.4695 60.7091 25.1038 60.7091 24.2562H59.7091H58.7091C58.7091 25.3598 58.9679 26.3965 59.7267 27.0953L60.4042 26.3598ZM59.7091 24.2562H60.7091V18.348H59.7091H58.7091V24.2562H59.7091ZM59.7091 18.348V17.348H58.4104V18.348V19.348H59.7091V18.348ZM58.4104 18.348H59.4104V16.9761H58.4104H57.4104V18.348H58.4104ZM58.4104 16.9761V17.9761H59.7091V16.9761V15.9761H58.4104V16.9761ZM59.7091 16.9761H60.7091V14.4519H59.7091H58.7091V16.9761H59.7091ZM59.7091 14.4519V15.4519H61.3736V14.4519V13.4519H59.7091V14.4519ZM61.3736 14.4519H60.3736V16.9761H61.3736H62.3736V14.4519H61.3736ZM61.3736 16.9761V17.9761H63.9893V16.9761V15.9761H61.3736V16.9761ZM63.9893 16.9761H62.9893V18.348H63.9893H64.9893V16.9761H63.9893ZM63.9893 18.348V17.348H61.3736V18.348V19.348H63.9893V18.348ZM67.6707 18.6041H66.6707L68.5613 19.0589L67.6707 18.6041ZM68.9145 17.2688L68.4142 16.4029L68.4058 16.4079L68.9145 17.2688ZM70.9083 16.7932H71.9083V15.7932H70.9083V16.7932ZM70.9083 18.5126V19.5126H71.9083V18.5126H70.9083ZM67.6707 27V28H68.6707V27H67.6707ZM66.0061 27H65.0061V28H66.0061V27ZM66.0061 16.9761V15.9761H65.0061V16.9761H66.0061ZM67.6707 16.9761H68.6707V15.9761H67.6707V16.9761ZM67.6707 18.6041L68.5613 19.0589C68.7707 18.6488 69.0554 18.3471 69.4233 18.1297L68.9145 17.2688L68.4058 16.4079C67.7005 16.8246 67.156 17.4131 66.7801 18.1493L67.6707 18.6041ZM68.9145 17.2688L69.4148 18.1347C69.78 17.9237 70.2632 17.7932 70.9083 17.7932V16.7932V15.7932C69.9926 15.7932 69.1466 15.9798 68.4142 16.4029L68.9145 17.2688ZM70.9083 16.7932H69.9083V18.5126H70.9083H71.9083V16.7932H70.9083ZM70.9083 18.5126V17.5126H70.4693V18.5126V19.5126H70.9083V18.5126ZM70.4693 18.5126V17.5126C69.3604 17.5126 68.351 17.8172 67.635 18.594C66.9333 19.3554 66.6707 20.4021 66.6707 21.5491H67.6707H68.6707C68.6707 20.6718 68.8745 20.2002 69.1057 19.9495C69.3226 19.7141 69.7125 19.5126 70.4693 19.5126V18.5126ZM67.6707 21.5491H66.6707V27H67.6707H68.6707V21.5491H67.6707ZM67.6707 27V26H66.0061V27V28H67.6707V27ZM66.0061 27H67.0061V16.9761H66.0061H65.0061V27H66.0061ZM66.0061 16.9761V17.9761H67.6707V16.9761V15.9761H66.0061V16.9761ZM67.6707 16.9761H66.6707V18.6041H67.6707H68.6707V16.9761H67.6707ZM72.8298 19.2626L73.7098 19.7375L73.7129 19.7318L72.8298 19.2626ZM74.5309 17.4517L74.0271 16.5879L74.0207 16.5917L74.5309 17.4517ZM79.2502 17.3786L78.7453 18.2417L79.2502 17.3786ZM80.6952 18.8053L79.8202 19.2894L81.6952 18.8053H80.6952ZM80.6952 16.9761V15.9761H79.6952V16.9761H80.6952ZM82.3781 16.9761H83.3781V15.9761H82.3781V16.9761ZM82.3781 27V28H83.3781V27H82.3781ZM80.6952 27H79.6952V28H80.6952V27ZM80.6952 25.1342H81.6952V21.3167L79.8237 24.644L80.6952 25.1342ZM79.2136 26.5976L79.7185 27.4608L79.7234 27.4579L79.2136 26.5976ZM74.5309 26.5061L74.0101 27.3598L74.5309 26.5061ZM72.8298 24.6587L73.7159 24.1952L72.8298 24.6587ZM78.9941 18.7139L78.4826 19.5731L78.4946 19.5803L78.5067 19.5871L78.9941 18.7139ZM75.5919 18.6956L75.0957 17.8273H75.0957L75.5919 18.6956ZM74.3663 19.976L75.2449 20.4535L74.3663 19.976ZM74.3663 23.9636L73.4834 24.4332L73.4877 24.4411L74.3663 23.9636ZM75.5919 25.2623L75.0804 26.1216L75.088 26.1261L75.0957 26.1305L75.5919 25.2623ZM78.9941 25.2623L79.4903 26.1306L79.4967 26.1268L78.9941 25.2623ZM80.2379 23.9636L81.1166 24.4411L81.1208 24.4332L80.2379 23.9636ZM72.2079 21.9515H73.2079C73.2079 21.0641 73.3866 20.3365 73.7098 19.7375L72.8298 19.2626L71.9498 18.7877C71.4438 19.7253 71.2079 20.7902 71.2079 21.9515H72.2079ZM72.8298 19.2626L73.7129 19.7318C74.0465 19.1038 74.4885 18.6396 75.0411 18.3118L74.5309 17.4517L74.0207 16.5917C73.1344 17.1175 72.4423 17.8605 71.9467 18.7935L72.8298 19.2626ZM74.5309 17.4517L75.0348 18.3155C75.6056 17.9825 76.2412 17.8115 76.9637 17.8115V16.8115V15.8115C75.9059 15.8115 74.9196 16.0673 74.0271 16.5879L74.5309 17.4517ZM76.9637 16.8115V17.8115C77.6952 17.8115 78.2768 17.9677 78.7453 18.2417L79.2502 17.3786L79.7551 16.5154C78.931 16.0333 77.9883 15.8115 76.9637 15.8115V16.8115ZM79.2502 17.3786L78.7453 18.2417C79.259 18.5422 79.6021 18.8951 79.8202 19.2894L80.6952 18.8053L81.5703 18.3213C81.1543 17.5693 80.534 16.971 79.7551 16.5154L79.2502 17.3786ZM80.6952 18.8053H81.6952V16.9761H80.6952H79.6952V18.8053H80.6952ZM80.6952 16.9761V17.9761H82.3781V16.9761V15.9761H80.6952V16.9761ZM82.3781 16.9761H81.3781V27H82.3781H83.3781V16.9761H82.3781ZM82.3781 27V26H80.6952V27V28H82.3781V27ZM80.6952 27H81.6952V25.1342H80.6952H79.6952V27H80.6952ZM80.6952 25.1342L79.8237 24.644C79.5919 25.056 79.2328 25.4238 78.7038 25.7373L79.2136 26.5976L79.7234 27.4579C80.5114 26.9909 81.1401 26.3832 81.5668 25.6245L80.6952 25.1342ZM79.2136 26.5976L78.7087 25.7344C78.2382 26.0096 77.6619 26.1646 76.9454 26.1646V27.1646V28.1646C77.9606 28.1646 78.8964 27.9416 79.7185 27.4608L79.2136 26.5976ZM76.9454 27.1646V26.1646C76.2282 26.1646 75.6054 25.9903 75.0518 25.6525L74.5309 26.5061L74.0101 27.3598C74.8954 27.8999 75.8823 28.1646 76.9454 28.1646V27.1646ZM74.5309 26.5061L75.0518 25.6525C74.4968 25.3138 74.0518 24.8373 73.7159 24.1952L72.8298 24.6587L71.9437 25.1222C72.437 26.0653 73.1261 26.8204 74.0101 27.3598L74.5309 26.5061ZM72.8298 24.6587L73.7159 24.1952C73.3855 23.5634 73.2079 22.8237 73.2079 21.9515H72.2079H71.2079C71.2079 23.1036 71.4449 24.1686 71.9437 25.1222L72.8298 24.6587ZM80.6952 21.9698H81.6952C81.6952 21.0777 81.5146 20.2491 81.1166 19.5168L80.2379 19.9943L79.3593 20.4718C79.571 20.8614 79.6952 21.3498 79.6952 21.9698H80.6952ZM80.2379 19.9943L81.1166 19.5168C80.7273 18.8005 80.1817 18.2315 79.4815 17.8407L78.9941 18.7139L78.5067 19.5871C78.8553 19.7816 79.1389 20.0661 79.3593 20.4718L80.2379 19.9943ZM78.9941 18.7139L79.5056 17.8546C78.8318 17.4535 78.0868 17.2566 77.293 17.2566V18.2566V19.2566C77.743 19.2566 78.1321 19.3645 78.4826 19.5731L78.9941 18.7139ZM77.293 18.2566V17.2566C76.5069 17.2566 75.7673 17.4436 75.0957 17.8273L75.5919 18.6956L76.088 19.5638C76.4408 19.3622 76.8353 19.2566 77.293 19.2566V18.2566ZM75.5919 18.6956L75.0957 17.8273C74.409 18.2197 73.8737 18.7882 73.4877 19.4985L74.3663 19.976L75.2449 20.4535C75.4687 20.0418 75.7504 19.7567 76.088 19.5638L75.5919 18.6956ZM74.3663 19.976L73.4877 19.4985C73.0897 20.2308 72.909 21.0594 72.909 21.9515H73.909H74.909C74.909 21.3315 75.0332 20.8431 75.2449 20.4535L74.3663 19.976ZM73.909 21.9515H72.909C72.909 22.8535 73.0887 23.6911 73.4834 24.4332L74.3663 23.9636L75.2492 23.494C75.0342 23.0898 74.909 22.586 74.909 21.9515H73.909ZM74.3663 23.9636L73.4877 24.4411C73.8721 25.1483 74.4027 25.7182 75.0804 26.1216L75.5919 25.2623L76.1033 24.403C75.7567 24.1966 75.4703 23.9007 75.2449 23.4861L74.3663 23.9636ZM75.5919 25.2623L75.0957 26.1305C75.7673 26.5143 76.5069 26.7013 77.293 26.7013V25.7013V24.7013C76.8353 24.7013 76.4408 24.5956 76.088 24.394L75.5919 25.2623ZM77.293 25.7013V26.7013C78.0791 26.7013 78.8187 26.5143 79.4903 26.1305L78.9941 25.2623L78.498 24.394C78.1452 24.5956 77.7507 24.7013 77.293 24.7013V25.7013ZM78.9941 25.2623L79.4967 26.1268C80.188 25.7249 80.729 25.1542 81.1166 24.4411L80.2379 23.9636L79.3593 23.4861C79.1372 23.8948 78.8489 24.19 78.4915 24.3978L78.9941 25.2623ZM80.2379 23.9636L81.1208 24.4332C81.5144 23.6933 81.6952 22.8625 81.6952 21.9698H80.6952H79.6952C79.6952 22.5891 79.5713 23.0875 79.3551 23.494L80.2379 23.9636ZM87.2214 18.348V17.348H86.2214V18.348H87.2214ZM87.5323 25.2989L86.8252 26.006L86.8359 26.0167L86.847 26.0271L87.5323 25.2989ZM89.8371 25.5915H90.8371V24.5915H89.8371V25.5915ZM89.8371 27V28H90.8371V27H89.8371ZM86.2519 26.3598L85.5744 27.0953L86.2519 26.3598ZM85.5568 18.348H86.5568V17.348H85.5568V18.348ZM84.2581 18.348H83.2581V19.348H84.2581V18.348ZM84.2581 16.9761V15.9761H83.2581V16.9761H84.2581ZM85.5568 16.9761V17.9761H86.5568V16.9761H85.5568ZM85.5568 14.4519V13.4519H84.5568V14.4519H85.5568ZM87.2214 14.4519H88.2214V13.4519H87.2214V14.4519ZM87.2214 16.9761H86.2214V17.9761H87.2214V16.9761ZM89.8371 16.9761H90.8371V15.9761H89.8371V16.9761ZM89.8371 18.348V19.348H90.8371V18.348H89.8371ZM87.2214 18.348H86.2214V24.2562H87.2214H88.2214V18.348H87.2214ZM87.2214 24.2562H86.2214C86.2214 24.8427 86.3386 25.5194 86.8252 26.006L87.5323 25.2989L88.2394 24.5918C88.2779 24.6302 88.2729 24.6488 88.2574 24.5969C88.2409 24.5416 88.2214 24.4344 88.2214 24.2562H87.2214ZM87.5323 25.2989L86.847 26.0271C87.3406 26.4916 88.029 26.5915 88.6115 26.5915V25.5915V24.5915C88.4134 24.5915 88.2888 24.5721 88.2194 24.5532C88.1506 24.5346 88.1705 24.5262 88.2177 24.5707L87.5323 25.2989ZM88.6115 25.5915V26.5915H89.8371V25.5915V24.5915H88.6115V25.5915ZM89.8371 25.5915H88.8371V27H89.8371H90.8371V25.5915H89.8371ZM89.8371 27V26H88.3372V27V28H89.8371V27ZM88.3372 27V26C87.5451 26 87.1375 25.8159 86.9294 25.6242L86.2519 26.3598L85.5744 27.0953C86.2932 27.7573 87.2757 28 88.3372 28V27ZM86.2519 26.3598L86.9294 25.6242C86.7614 25.4695 86.5568 25.1038 86.5568 24.2562H85.5568H84.5568C84.5568 25.3598 84.8157 26.3965 85.5744 27.0953L86.2519 26.3598ZM85.5568 24.2562H86.5568V18.348H85.5568H84.5568V24.2562H85.5568ZM85.5568 18.348V17.348H84.2581V18.348V19.348H85.5568V18.348ZM84.2581 18.348H85.2581V16.9761H84.2581H83.2581V18.348H84.2581ZM84.2581 16.9761V17.9761H85.5568V16.9761V15.9761H84.2581V16.9761ZM85.5568 16.9761H86.5568V14.4519H85.5568H84.5568V16.9761H85.5568ZM85.5568 14.4519V15.4519H87.2214V14.4519V13.4519H85.5568V14.4519ZM87.2214 14.4519H86.2214V16.9761H87.2214H88.2214V14.4519H87.2214ZM87.2214 16.9761V17.9761H89.8371V16.9761V15.9761H87.2214V16.9761ZM89.8371 16.9761H88.8371V18.348H89.8371H90.8371V16.9761H89.8371ZM89.8371 18.348V17.348H87.2214V18.348V19.348H89.8371V18.348ZM100.945 22.61V23.61H101.847L101.94 22.7129L100.945 22.61ZM92.9331 22.61V21.61H91.8695L91.935 22.6716L92.9331 22.61ZM93.9392 24.933L93.2621 25.669L93.2697 25.676L93.2775 25.6829L93.9392 24.933ZM97.9816 25.2623L98.5508 26.0845L98.5551 26.0815L97.9816 25.2623ZM99.006 23.9087V22.9087H98.295L98.0615 23.5802L99.006 23.9087ZM100.799 23.9087L101.762 24.177L102.115 22.9087H100.799V23.9087ZM99.1889 26.2683L99.785 27.0713L99.7927 27.0654L99.1889 26.2683ZM93.6282 26.5244L93.1305 27.3918L93.1366 27.3952L93.6282 26.5244ZM91.8722 24.7135L90.9917 25.1876L90.9948 25.1933L91.8722 24.7135ZM91.8539 19.2443L92.737 19.7135L91.8539 19.2443ZM93.5916 17.4517L94.0785 18.3252L94.0832 18.3226L93.5916 17.4517ZM98.7133 17.4334L98.2203 18.3035V18.3035L98.7133 17.4334ZM100.396 19.1529L99.5138 19.6234L99.5185 19.6323L99.5234 19.641L100.396 19.1529ZM99.2803 21.2564V22.2564H100.28V21.2564H99.2803ZM98.8596 19.6284L98.0041 20.1463L98.0103 20.1564L98.8596 19.6284ZM97.7072 18.5858L97.2509 19.4756L97.2645 19.4826L97.2782 19.4891L97.7072 18.5858ZM93.9574 19.0248L93.2893 18.2807L93.2817 18.2877L93.9574 19.0248ZM92.9514 21.2564L91.9554 21.167L91.8576 22.2564H92.9514V21.2564ZM97.9085 14.1409L98.3803 15.0226L98.9085 14.7399V14.1409H97.9085ZM94.0123 16.2262H93.0123V17.8956L94.4842 17.1078L94.0123 16.2262ZM94.0123 14.9823L93.5062 14.1199L93.0123 14.4097V14.9823H94.0123ZM97.9085 12.6959H98.9085V10.9495L97.4023 11.8334L97.9085 12.6959ZM101 21.6039H99.9998C99.9998 21.8828 99.9837 22.1836 99.9502 22.5071L100.945 22.61L101.94 22.7129C101.979 22.3291 102 21.9592 102 21.6039H101ZM100.945 22.61V21.61H92.9331V22.61V23.61H100.945V22.61ZM92.9331 22.61L91.935 22.6716C92.0086 23.8637 92.4263 24.9 93.2621 25.669L93.9392 24.933L94.6162 24.1971C94.2326 23.8442 93.9796 23.3317 93.9312 22.5484L92.9331 22.61ZM93.9392 24.933L93.2775 25.6829C94.0935 26.4028 95.0829 26.7562 96.189 26.7562V25.7562V24.7562C95.5391 24.7562 95.0287 24.5607 94.6008 24.1832L93.9392 24.933ZM96.189 25.7562V26.7562C97.062 26.7562 97.8712 26.555 98.5508 26.0845L97.9816 25.2623L97.4124 24.4401C97.1409 24.6281 96.7551 24.7562 96.189 24.7562V25.7562ZM97.9816 25.2623L98.5551 26.0815C99.2146 25.6199 99.6861 24.9972 99.9505 24.2372L99.006 23.9087L98.0615 23.5802C97.9356 23.9421 97.7242 24.2218 97.4082 24.4431L97.9816 25.2623ZM99.006 23.9087V24.9087H100.799V23.9087V22.9087H99.006V23.9087ZM100.799 23.9087L99.8352 23.6404C99.6263 24.3907 99.2172 24.9923 98.585 25.4712L99.1889 26.2683L99.7927 27.0654C100.77 26.3249 101.434 25.3534 101.762 24.177L100.799 23.9087ZM99.1889 26.2683L98.5928 25.4654C97.9916 25.9118 97.2119 26.1646 96.189 26.1646V27.1646V28.1646C97.5563 28.1646 98.7765 27.82 99.785 27.0712L99.1889 26.2683ZM96.189 27.1646V26.1646C95.3932 26.1646 94.7118 25.9878 94.1198 25.6536L93.6282 26.5244L93.1366 27.3952C94.0567 27.9147 95.0825 28.1646 96.189 28.1646V27.1646ZM93.6282 26.5244L94.1259 25.657C93.548 25.3255 93.0914 24.8588 92.7496 24.2337L91.8722 24.7135L90.9948 25.1933C91.5066 26.1292 92.2207 26.8697 93.1305 27.3918L93.6282 26.5244ZM91.8722 24.7135L92.7527 24.2394C92.4155 23.6132 92.232 22.8661 92.232 21.9698H91.232H90.232C90.232 23.1465 90.4753 24.2286 90.9917 25.1876L91.8722 24.7135ZM91.232 21.9698H92.232C92.232 21.0685 92.4114 20.3264 92.737 19.7135L91.8539 19.2443L90.9708 18.7752C90.4672 19.7232 90.232 20.798 90.232 21.9698H91.232ZM91.8539 19.2443L92.737 19.7135C93.0648 19.0964 93.5095 18.6424 94.0785 18.3252L93.5916 17.4517L93.1048 16.5782C92.186 17.0903 91.4722 17.8314 90.9708 18.7752L91.8539 19.2443ZM93.5916 17.4517L94.0832 18.3226C94.6714 17.9905 95.364 17.8115 96.189 17.8115V16.8115V15.8115C95.0629 15.8115 94.0239 16.0594 93.1 16.5809L93.5916 17.4517ZM96.189 16.8115V17.8115C96.9904 17.8115 97.6578 17.9847 98.2203 18.3035L98.7133 17.4334L99.2063 16.5634C98.3054 16.0529 97.29 15.8115 96.189 15.8115V16.8115ZM98.7133 17.4334L98.2203 18.3035C98.7894 18.626 99.2142 19.0616 99.5138 19.6234L100.396 19.1529L101.278 18.6823C100.798 17.7807 100.101 17.0701 99.2063 16.5634L98.7133 17.4334ZM100.396 19.1529L99.5234 19.641C99.8335 20.1955 99.9998 20.8412 99.9998 21.6039H101H102C102 20.5376 101.764 19.5492 101.269 18.6647L100.396 19.1529ZM99.2803 21.2564H100.28C100.28 20.4722 100.106 19.7385 99.7089 19.1005L98.8596 19.6284L98.0103 20.1564C98.1747 20.4207 98.2803 20.7724 98.2803 21.2564H99.2803ZM98.8596 19.6284L99.7151 19.1106C99.3336 18.4803 98.8015 17.9985 98.1363 17.6825L97.7072 18.5858L97.2782 19.4891C97.5886 19.6365 97.8247 19.8498 98.0041 20.1462L98.8596 19.6284ZM97.7072 18.5858L98.1636 17.696C97.5337 17.373 96.8445 17.22 96.1159 17.22V18.22V19.22C96.5579 19.22 96.9296 19.3109 97.2509 19.4756L97.7072 18.5858ZM96.1159 18.22V17.22C95.0407 17.22 94.0798 17.571 93.2893 18.2808L93.9574 19.0248L94.6256 19.7689C95.0302 19.4055 95.5082 19.22 96.1159 19.22V18.22ZM93.9574 19.0248L93.2817 18.2877C92.4768 19.0255 92.0583 20.0206 91.9554 21.167L92.9514 21.2564L93.9474 21.3458C94.0152 20.5898 94.2674 20.0972 94.6332 19.762L93.9574 19.0248ZM92.9514 21.2564V22.2564H99.2803V21.2564V20.2564H92.9514V21.2564ZM97.9085 14.1409L97.4366 13.2593L93.5404 15.3445L94.0123 16.2262L94.4842 17.1078L98.3803 15.0226L97.9085 14.1409ZM94.0123 16.2262H95.0123V14.9823H94.0123H93.0123V16.2262H94.0123ZM94.0123 14.9823L94.5185 15.8448L98.4146 13.5583L97.9085 12.6959L97.4023 11.8334L93.5062 14.1199L94.0123 14.9823ZM97.9085 12.6959H96.9085V14.1409H97.9085H98.9085V12.6959H97.9085ZM109.599 17.3786L109.094 18.2418L109.101 18.2458L109.599 17.3786ZM111.062 18.8053L110.187 19.2894L112.062 18.8053H111.062ZM111.062 16.9761V15.9761H110.062V16.9761H111.062ZM112.745 16.9761H113.745V15.9761H112.745V16.9761ZM112.16 29.6523L111.284 29.1692L111.281 29.1755L112.16 29.6523ZM110.477 31.3351L109.995 30.4589L109.989 30.4624L110.477 31.3351ZM104.66 31.0059L104.082 31.8219L104.66 31.0059ZM103.105 28.4633V27.4633H101.947L102.116 28.6095L103.105 28.4633ZM104.752 28.4633L105.71 28.176L105.496 27.4633H104.752V28.4633ZM105.886 29.9267L106.436 29.0919L106.43 29.0878L106.424 29.0838L105.886 29.9267ZM110.184 29.634L109.485 28.9195L109.477 28.9269L110.184 29.634ZM111.062 25.116H112.062V21.2984L110.191 24.6257L111.062 25.116ZM109.599 26.5793L109.082 25.7232L109.599 26.5793ZM104.898 26.5061L104.377 27.3598L104.384 27.3636L104.898 26.5061ZM103.197 24.6587L104.083 24.1952L103.197 24.6587ZM103.197 19.2626L104.077 19.7375L104.08 19.7318L103.197 19.2626ZM104.898 17.4517L104.394 16.5879L104.388 16.5917L104.898 17.4517ZM109.361 18.7139L108.85 19.5731L108.862 19.5803L108.874 19.5871L109.361 18.7139ZM105.959 18.6956L105.463 17.8273L105.959 18.6956ZM104.733 19.976L105.612 20.4535L104.733 19.976ZM104.733 23.9636L103.851 24.4332L103.855 24.4411L104.733 23.9636ZM105.959 25.2623L105.447 26.1216L105.455 26.1261L105.463 26.1305L105.959 25.2623ZM109.361 25.2623L109.857 26.1306L109.864 26.1268L109.361 25.2623ZM110.605 23.9636L111.484 24.4411L111.488 24.4332L110.605 23.9636ZM107.331 16.8115V17.8115C108.047 17.8115 108.624 17.9665 109.094 18.2417L109.599 17.3786L110.104 16.5154C109.282 16.0345 108.346 15.8115 107.331 15.8115V16.8115ZM109.599 17.3786L109.101 18.2458C109.627 18.5476 109.972 18.9 110.187 19.2894L111.062 18.8053L111.937 18.3213C111.519 17.5643 110.888 16.9655 110.097 16.5113L109.599 17.3786ZM111.062 18.8053H112.062V16.9761H111.062H110.062V18.8053H111.062ZM111.062 16.9761V17.9761H112.745V16.9761V15.9761H111.062V16.9761ZM112.745 16.9761H111.745V27.2195H112.745H113.745V16.9761H112.745ZM112.745 27.2195H111.745C111.745 27.9878 111.583 28.6285 111.284 29.1692L112.16 29.6523L113.035 30.1354C113.518 29.2615 113.745 28.2804 113.745 27.2195H112.745ZM112.16 29.6523L111.281 29.1755C110.984 29.723 110.562 30.1469 109.995 30.4589L110.477 31.3351L110.959 32.2114C111.855 31.7186 112.555 31.0206 113.039 30.1291L112.16 29.6523ZM110.477 31.3351L109.989 30.4624C109.442 30.7683 108.774 30.9388 107.953 30.9388V31.9388V32.9388C109.058 32.9388 110.073 32.7068 110.965 32.2079L110.477 31.3351ZM107.953 31.9388V30.9388C106.796 30.9388 105.913 30.6675 105.238 30.1899L104.66 31.0059L104.082 31.8219C105.164 32.5881 106.476 32.9388 107.953 32.9388V31.9388ZM104.66 31.0059L105.238 30.1899C104.585 29.7272 104.214 29.1227 104.095 28.3172L103.105 28.4633L102.116 28.6095C102.314 29.9502 102.979 31.0407 104.082 31.8219L104.66 31.0059ZM103.105 28.4633V29.4633H104.752V28.4633V27.4633H103.105V28.4633ZM104.752 28.4633L103.794 28.7507C104.051 29.6063 104.588 30.2844 105.348 30.7696L105.886 29.9267L106.424 29.0838C106.038 28.8373 105.819 28.5398 105.71 28.176L104.752 28.4633ZM105.886 29.9267L105.335 30.7614C106.098 31.2648 106.987 31.4937 107.953 31.4937V30.4937V29.4937C107.309 29.4937 106.82 29.3446 106.436 29.0919L105.886 29.9267ZM107.953 30.4937V31.4937C109.095 31.4937 110.106 31.1265 110.891 30.3411L110.184 29.634L109.477 28.9269C109.116 29.2878 108.639 29.4937 107.953 29.4937V30.4937ZM110.184 29.634L110.884 30.3485C111.709 29.5404 112.062 28.4496 112.062 27.2195H111.062H110.062C110.062 28.0624 109.83 28.5813 109.485 28.9195L110.184 29.634ZM111.062 27.2195H112.062V25.116H111.062H110.062V27.2195H111.062ZM111.062 25.116L110.191 24.6257C109.956 25.0425 109.599 25.411 109.082 25.7232L109.599 26.5793L110.116 27.4354C110.891 26.9672 111.51 26.36 111.934 25.6062L111.062 25.116ZM109.599 26.5793L109.082 25.7232C108.614 26.0061 108.042 26.1646 107.331 26.1646V27.1646V28.1646C108.352 28.1646 109.292 27.9329 110.116 27.4354L109.599 26.5793ZM107.331 27.1646V26.1646C106.614 26.1646 105.982 25.9902 105.413 25.6486L104.898 26.5061L104.384 27.3636C105.278 27.9 106.268 28.1646 107.331 28.1646V27.1646ZM104.898 26.5061L105.419 25.6525C104.864 25.3138 104.419 24.8373 104.083 24.1952L103.197 24.6587L102.311 25.1222C102.804 26.0653 103.493 26.8204 104.377 27.3598L104.898 26.5061ZM103.197 24.6587L104.083 24.1952C103.753 23.5634 103.575 22.8237 103.575 21.9515H102.575H101.575C101.575 23.1036 101.812 24.1686 102.311 25.1222L103.197 24.6587ZM102.575 21.9515H103.575C103.575 21.0641 103.754 20.3365 104.077 19.7375L103.197 19.2626L102.317 18.7877C101.811 19.7253 101.575 20.7902 101.575 21.9515H102.575ZM103.197 19.2626L104.08 19.7318C104.414 19.1038 104.856 18.6396 105.408 18.3118L104.898 17.4517L104.388 16.5917C103.502 17.1175 102.809 17.8605 102.314 18.7935L103.197 19.2626ZM104.898 17.4517L105.402 18.3155C105.973 17.9825 106.608 17.8115 107.331 17.8115V16.8115V15.8115C106.273 15.8115 105.287 16.0673 104.394 16.5879L104.898 17.4517ZM111.062 21.9698H112.062C112.062 21.0777 111.882 20.2491 111.484 19.5168L110.605 19.9943L109.726 20.4718C109.938 20.8614 110.062 21.3498 110.062 21.9698H111.062ZM110.605 19.9943L111.484 19.5168C111.094 18.8005 110.549 18.2315 109.849 17.8407L109.361 18.7139L108.874 19.5871C109.222 19.7816 109.506 20.0661 109.726 20.4718L110.605 19.9943ZM109.361 18.7139L109.873 17.8546C109.199 17.4535 108.454 17.2566 107.66 17.2566V18.2566V19.2566C108.11 19.2566 108.499 19.3645 108.85 19.5731L109.361 18.7139ZM107.66 18.2566V17.2566C106.874 17.2566 106.134 17.4436 105.463 17.8273L105.959 18.6956L106.455 19.5638C106.808 19.3622 107.202 19.2566 107.66 19.2566V18.2566ZM105.959 18.6956L105.463 17.8273C104.776 18.2197 104.241 18.7882 103.855 19.4985L104.733 19.976L105.612 20.4535C105.836 20.0418 106.117 19.7567 106.455 19.5638L105.959 18.6956ZM104.733 19.976L103.855 19.4985C103.457 20.2308 103.276 21.0594 103.276 21.9515H104.276H105.276C105.276 21.3315 105.4 20.8431 105.612 20.4535L104.733 19.976ZM104.276 21.9515H103.276C103.276 22.8535 103.456 23.6911 103.851 24.4332L104.733 23.9636L105.616 23.494C105.401 23.0898 105.276 22.586 105.276 21.9515H104.276ZM104.733 23.9636L103.855 24.4411C104.239 25.1483 104.77 25.7182 105.447 26.1216L105.959 25.2623L106.47 24.403C106.124 24.1966 105.837 23.9007 105.612 23.4861L104.733 23.9636ZM105.959 25.2623L105.463 26.1305C106.134 26.5143 106.874 26.7013 107.66 26.7013V25.7013V24.7013C107.202 24.7013 106.808 24.5956 106.455 24.394L105.959 25.2623ZM107.66 25.7013V26.7013C108.446 26.7013 109.186 26.5143 109.857 26.1305L109.361 25.2623L108.865 24.394C108.512 24.5956 108.118 24.7013 107.66 24.7013V25.7013ZM109.361 25.2623L109.864 26.1268C110.555 25.7249 111.096 25.1542 111.484 24.4411L110.605 23.9636L109.726 23.4861C109.504 23.8948 109.216 24.19 108.859 24.3978L109.361 25.2623ZM110.605 23.9636L111.488 24.4332C111.881 23.6933 112.062 22.8625 112.062 21.9698H111.062H110.062C110.062 22.5891 109.938 23.0875 109.722 23.494L110.605 23.9636ZM115.613 15.0189L116.32 14.3118L115.613 15.0189ZM115.613 13.4093L116.32 14.1164V14.1164L115.613 13.4093ZM117.186 13.4093L116.459 14.0959L116.469 14.1063L116.479 14.1164L117.186 13.4093ZM117.186 15.0189L116.479 14.3118L116.469 14.3219L116.459 14.3323L117.186 15.0189ZM117.223 16.9761H118.223V15.9761H117.223V16.9761ZM117.223 27V28H118.223V27H117.223ZM115.558 27H114.558V28H115.558V27ZM115.558 16.9761V15.9761H114.558V16.9761H115.558ZM116.418 15.3482V14.3482C116.377 14.3482 116.361 14.3416 116.357 14.3403C116.355 14.3392 116.343 14.3344 116.32 14.3118L115.613 15.0189L114.906 15.726C115.317 16.1375 115.842 16.3482 116.418 16.3482V15.3482ZM115.613 15.0189L116.32 14.3118C116.298 14.2892 116.293 14.2772 116.292 14.2745C116.29 14.2713 116.284 14.255 116.284 14.2141H115.284H114.284C114.284 14.79 114.494 15.3146 114.906 15.726L115.613 15.0189ZM115.284 14.2141H116.284C116.284 14.1732 116.29 14.1569 116.292 14.1537C116.293 14.151 116.298 14.139 116.32 14.1164L115.613 13.4093L114.906 12.7022C114.494 13.1136 114.284 13.6382 114.284 14.2141H115.284ZM115.613 13.4093L116.32 14.1164C116.343 14.0938 116.355 14.089 116.357 14.0879C116.361 14.0866 116.377 14.08 116.418 14.08V13.08V12.08C115.842 12.08 115.317 12.2907 114.906 12.7022L115.613 13.4093ZM116.418 13.08V14.08C116.434 14.08 116.442 14.0814 116.445 14.082C116.448 14.0825 116.447 14.0826 116.445 14.0815C116.442 14.0804 116.441 14.0795 116.442 14.0804C116.444 14.0814 116.449 14.0857 116.459 14.0959L117.186 13.4093L117.913 12.7226C117.515 12.3009 116.995 12.08 116.418 12.08V13.08ZM117.186 13.4093L116.479 14.1164C116.502 14.139 116.506 14.151 116.507 14.1537C116.509 14.1569 116.515 14.1732 116.515 14.2141H117.515H118.515C118.515 13.6382 118.305 13.1136 117.893 12.7022L117.186 13.4093ZM117.515 14.2141H116.515C116.515 14.255 116.509 14.2713 116.507 14.2745C116.506 14.2772 116.502 14.2892 116.479 14.3118L117.186 15.0189L117.893 15.726C118.305 15.3146 118.515 14.79 118.515 14.2141H117.515ZM117.186 15.0189L116.459 14.3323C116.449 14.3425 116.444 14.3468 116.442 14.3478C116.441 14.3486 116.442 14.3478 116.445 14.3467C116.447 14.3456 116.448 14.3457 116.445 14.3462C116.442 14.3468 116.434 14.3482 116.418 14.3482V15.3482V16.3482C116.995 16.3482 117.515 16.1273 117.913 15.7056L117.186 15.0189ZM117.223 16.9761H116.223V27H117.223H118.223V16.9761H117.223ZM117.223 27V26H115.558V27V28H117.223V27ZM115.558 27H116.558V16.9761H115.558H114.558V27H115.558ZM115.558 16.9761V17.9761H117.223V16.9761V15.9761H115.558V16.9761ZM120.06 19.2626L120.94 19.7375L120.943 19.7318L120.06 19.2626ZM121.761 17.4517L121.257 16.5879L121.251 16.5917L121.761 17.4517ZM126.48 17.3786L125.975 18.2417L126.48 17.3786ZM127.925 18.8053L127.05 19.2894L128.925 18.8053H127.925ZM127.925 16.9761V15.9761H126.925V16.9761H127.925ZM129.608 16.9761H130.608V15.9761H129.608V16.9761ZM129.608 27V28H130.608V27H129.608ZM127.925 27H126.925V28H127.925V27ZM127.925 25.1342H128.925V21.3167L127.053 24.644L127.925 25.1342ZM126.443 26.5976L126.948 27.4608L126.953 27.4579L126.443 26.5976ZM121.761 26.5061L121.24 27.3598L121.761 26.5061ZM120.06 24.6587L120.946 24.1952L120.06 24.6587ZM126.224 18.7139L125.712 19.5731L125.724 19.5803L125.737 19.5871L126.224 18.7139ZM122.822 18.6956L122.325 17.8273L122.822 18.6956ZM121.596 19.976L122.475 20.4535L121.596 19.976ZM121.596 23.9636L120.713 24.4332L120.717 24.4411L121.596 23.9636ZM122.822 25.2623L122.31 26.1216L122.318 26.1261L122.325 26.1305L122.822 25.2623ZM126.224 25.2623L126.72 26.1306L126.727 26.1268L126.224 25.2623ZM127.468 23.9636L128.346 24.4411L128.351 24.4332L127.468 23.9636ZM119.438 21.9515H120.438C120.438 21.0641 120.616 20.3365 120.94 19.7375L120.06 19.2626L119.18 18.7877C118.674 19.7253 118.438 20.7902 118.438 21.9515H119.438ZM120.06 19.2626L120.943 19.7318C121.276 19.1038 121.718 18.6396 122.271 18.3118L121.761 17.4517L121.251 16.5917C120.364 17.1175 119.672 17.8605 119.176 18.7935L120.06 19.2626ZM121.761 17.4517L122.265 18.3155C122.835 17.9825 123.471 17.8115 124.194 17.8115V16.8115V15.8115C123.136 15.8115 122.149 16.0673 121.257 16.5879L121.761 17.4517ZM124.194 16.8115V17.8115C124.925 17.8115 125.507 17.9677 125.975 18.2417L126.48 17.3786L126.985 16.5154C126.161 16.0333 125.218 15.8115 124.194 15.8115V16.8115ZM126.48 17.3786L125.975 18.2417C126.489 18.5422 126.832 18.8951 127.05 19.2894L127.925 18.8053L128.8 18.3213C128.384 17.5693 127.764 16.971 126.985 16.5154L126.48 17.3786ZM127.925 18.8053H128.925V16.9761H127.925H126.925V18.8053H127.925ZM127.925 16.9761V17.9761H129.608V16.9761V15.9761H127.925V16.9761ZM129.608 16.9761H128.608V27H129.608H130.608V16.9761H129.608ZM129.608 27V26H127.925V27V28H129.608V27ZM127.925 27H128.925V25.1342H127.925H126.925V27H127.925ZM127.925 25.1342L127.053 24.644C126.822 25.056 126.463 25.4238 125.934 25.7373L126.443 26.5976L126.953 27.4579C127.741 26.9909 128.37 26.3832 128.797 25.6245L127.925 25.1342ZM126.443 26.5976L125.938 25.7344C125.468 26.0096 124.892 26.1646 124.175 26.1646V27.1646V28.1646C125.19 28.1646 126.126 27.9416 126.948 27.4608L126.443 26.5976ZM124.175 27.1646V26.1646C123.458 26.1646 122.835 25.9903 122.282 25.6525L121.761 26.5061L121.24 27.3598C122.125 27.8999 123.112 28.1646 124.175 28.1646V27.1646ZM121.761 26.5061L122.282 25.6525C121.727 25.3138 121.282 24.8373 120.946 24.1952L120.06 24.6587L119.173 25.1222C119.667 26.0653 120.356 26.8204 121.24 27.3598L121.761 26.5061ZM120.06 24.6587L120.946 24.1952C120.615 23.5634 120.438 22.8237 120.438 21.9515H119.438H118.438C118.438 23.1036 118.675 24.1686 119.173 25.1222L120.06 24.6587ZM127.925 21.9698H128.925C128.925 21.0777 128.744 20.2491 128.346 19.5168L127.468 19.9943L126.589 20.4718C126.801 20.8614 126.925 21.3498 126.925 21.9698H127.925ZM127.468 19.9943L128.346 19.5168C127.957 18.8005 127.411 18.2315 126.711 17.8407L126.224 18.7139L125.737 19.5871C126.085 19.7816 126.369 20.0661 126.589 20.4718L127.468 19.9943ZM126.224 18.7139L126.735 17.8546C126.062 17.4535 125.317 17.2566 124.523 17.2566V18.2566V19.2566C124.973 19.2566 125.362 19.3645 125.712 19.5731L126.224 18.7139ZM124.523 18.2566V17.2566C123.737 17.2566 122.997 17.4436 122.325 17.8273L122.822 18.6956L123.318 19.5638C123.671 19.3622 124.065 19.2566 124.523 19.2566V18.2566ZM122.822 18.6956L122.325 17.8273C121.639 18.2197 121.103 18.7882 120.717 19.4985L121.596 19.976L122.475 20.4535C122.698 20.0418 122.98 19.7567 123.318 19.5638L122.822 18.6956ZM121.596 19.976L120.717 19.4985C120.319 20.2308 120.139 21.0594 120.139 21.9515H121.139H122.139C122.139 21.3315 122.263 20.8431 122.475 20.4535L121.596 19.976ZM121.139 21.9515H120.139C120.139 22.8535 120.318 23.6911 120.713 24.4332L121.596 23.9636L122.479 23.494C122.264 23.0898 122.139 22.586 122.139 21.9515H121.139ZM121.596 23.9636L120.717 24.4411C121.102 25.1483 121.632 25.7182 122.31 26.1216L122.822 25.2623L123.333 24.403C122.986 24.1966 122.7 23.9007 122.475 23.4861L121.596 23.9636ZM122.822 25.2623L122.325 26.1305C122.997 26.5143 123.737 26.7013 124.523 26.7013V25.7013V24.7013C124.065 24.7013 123.671 24.5956 123.318 24.394L122.822 25.2623ZM124.523 25.7013V26.7013C125.309 26.7013 126.048 26.5143 126.72 26.1305L126.224 25.2623L125.728 24.394C125.375 24.5956 124.98 24.7013 124.523 24.7013V25.7013ZM126.224 25.2623L126.727 26.1268C127.418 25.7249 127.959 25.1542 128.346 24.4411L127.468 23.9636L126.589 23.4861C126.367 23.8948 126.079 24.19 125.721 24.3978L126.224 25.2623ZM127.468 23.9636L128.351 24.4332C128.744 23.6933 128.925 22.8625 128.925 21.9698H127.925H126.925C126.925 22.5891 126.801 23.0875 126.585 23.494L127.468 23.9636Z" fill="url(#paint1_linear_392_1581)" mask="url(#path-2-outside-1_392_1581)"></path><defs><linearGradient id="paint0_linear_392_1581" x1="84" y1="0" x2="84" y2="41" gradientUnits="userSpaceOnUse"><stop stop-color="#808FB0"></stop><stop offset="1" stop-color="#141F47"></stop></linearGradient><linearGradient id="paint1_linear_392_1581" x1="85.5" y1="7" x2="85.5" y2="34" gradientUnits="userSpaceOnUse"><stop stop-color="#808FB0"></stop><stop offset="1" stop-color="#141F47"></stop></linearGradient></defs></svg>