<svg xmlns="http://www.w3.org/2000/svg" width="393" height="439" viewBox="0 0 393 439" fill="none"><path d="M1 0L1 197C1 202.523 5.47715 207 11 207L139 207C144.523 207 149 211.477 149 217V349.5C149 355.023 153.477 359.5 159 359.5H186.076C188.894 359.5 191.58 360.689 193.476 362.773L195.5 365" stroke="url(#paint0_linear_428_2004)"></path><path d="M57.5 0V148C57.5 153.523 61.9772 158 67.5 158H100C105.523 158 110 162.477 110 168L110 305.5C110 311.023 114.477 315.5 120 315.5H195.5" stroke="url(#paint1_linear_428_2004)"></path><path d="M195.5 0V161.5" stroke="url(#paint2_linear_428_2004)"></path><path d="M247 0V143.5C247 149.023 242.523 153.5 237 153.5H206.846C204.074 153.5 201.426 154.65 199.535 156.677L195.5 161L195.5 317.5" stroke="url(#paint3_linear_428_2004)"></path><path d="M145 0V143C145 148.523 149.477 153 155 153H184.5C187.648 153 190.611 154.482 192.5 157L195.5 161" stroke="url(#paint4_linear_428_2004)"></path><path d="M392.5 0V199C392.5 204.523 388.023 209 382.5 209H251C245.477 209 241 213.477 241 219V349.5C241 355.023 236.523 359.5 231 359.5H204.866C202.378 359.5 199.98 360.427 198.139 362.101L195.5 364.5V438.5" stroke="url(#paint5_linear_428_2004)"></path><path d="M333.5 0V147C333.5 152.523 329.023 157 323.5 157H292.5C286.977 157 282.5 161.477 282.5 167V305.5C282.5 311.023 278.023 315.5 272.5 315.5H195.5V371" stroke="url(#paint6_linear_428_2004)"></path><defs><linearGradient id="paint0_linear_428_2004" x1="98.25" y1="0" x2="98.25" y2="365" gradientUnits="userSpaceOnUse"><stop stop-color="#080911"></stop><stop offset="1" stop-color="#5E80CA"></stop></linearGradient><linearGradient id="paint1_linear_428_2004" x1="126.5" y1="0" x2="126.5" y2="315.5" gradientUnits="userSpaceOnUse"><stop stop-color="#080911"></stop><stop offset="1" stop-color="#5E80CA"></stop></linearGradient><linearGradient id="paint2_linear_428_2004" x1="195" y1="0" x2="195" y2="161.5" gradientUnits="userSpaceOnUse"><stop stop-color="#080911"></stop><stop offset="1" stop-color="#5E80CA"></stop></linearGradient><linearGradient id="paint3_linear_428_2004" x1="221.25" y1="-2.41704e-09" x2="221.5" y2="154" gradientUnits="userSpaceOnUse"><stop stop-color="#080911"></stop><stop offset="1" stop-color="#5E80CA"></stop></linearGradient><linearGradient id="paint4_linear_428_2004" x1="170.25" y1="0" x2="170.25" y2="161" gradientUnits="userSpaceOnUse"><stop stop-color="#080911"></stop><stop offset="1" stop-color="#5E80CA"></stop></linearGradient><linearGradient id="paint5_linear_428_2004" x1="294" y1="0" x2="294" y2="438.5" gradientUnits="userSpaceOnUse"><stop stop-color="#080911"></stop><stop offset="0.884615" stop-color="#5E80CA"></stop><stop offset="1" stop-color="#080911"></stop></linearGradient><linearGradient id="paint6_linear_428_2004" x1="264.5" y1="0" x2="264.5" y2="371" gradientUnits="userSpaceOnUse"><stop stop-color="#080911"></stop><stop offset="1" stop-color="#5E80CA"></stop></linearGradient></defs></svg>