<svg xmlns="http://www.w3.org/2000/svg" width="976" height="99" viewBox="0 0 976 99" fill="none"><path d="M127.883 45.6781C125.527 45.6781 123.505 45.2736 121.815 44.4647C120.126 43.6319 118.746 42.5493 117.675 41.2169C116.605 39.8607 115.808 38.4093 115.284 36.8628C114.784 35.2924 114.535 33.7697 114.535 32.2945V31.5093C114.535 29.8914 114.796 28.2972 115.32 26.7269C115.843 25.1328 116.64 23.6933 117.711 22.4084C118.806 21.1236 120.174 20.1005 121.815 19.3391C123.481 18.554 125.444 18.1614 127.704 18.1614C130.06 18.1614 132.142 18.6016 133.95 19.4819C135.758 20.3622 137.198 21.5876 138.268 23.1579C139.363 24.7045 140.005 26.5247 140.196 28.6184H134.307C134.14 27.5716 133.759 26.6793 133.165 25.9417C132.57 25.2041 131.797 24.6331 130.845 24.2286C129.917 23.8241 128.87 23.6219 127.704 23.6219C126.538 23.6219 125.503 23.8241 124.599 24.2286C123.695 24.6331 122.934 25.2041 122.315 25.9417C121.72 26.6793 121.256 27.5597 120.923 28.5828C120.614 29.5821 120.459 30.7003 120.459 31.9376C120.459 33.151 120.614 34.2693 120.923 35.2924C121.256 36.2917 121.732 37.1721 122.351 37.9334C122.993 38.671 123.778 39.2421 124.706 39.6466C125.634 40.0272 126.693 40.2176 127.883 40.2176C129.691 40.2176 131.214 39.7774 132.451 38.8971C133.712 38.0167 134.473 36.8033 134.735 35.2567H140.588C140.374 37.1602 139.732 38.909 138.661 40.5031C137.614 42.0734 136.174 43.3345 134.342 44.2862C132.534 45.2141 130.381 45.6781 127.883 45.6781ZM153.679 45.6781C151.966 45.6781 150.443 45.4164 149.111 44.8929C147.779 44.3457 146.648 43.6081 145.72 42.6802C144.816 41.7522 144.126 40.6934 143.65 39.5038C143.175 38.2903 142.937 37.0174 142.937 35.685V34.8641C142.937 33.5079 143.175 32.2231 143.65 31.0097C144.15 29.7724 144.864 28.6898 145.792 27.7619C146.744 26.834 147.886 26.1083 149.218 25.5848C150.55 25.0376 152.038 24.764 153.679 24.764C155.369 24.764 156.868 25.0376 158.176 25.5848C159.509 26.1083 160.639 26.834 161.567 27.7619C162.495 28.6898 163.208 29.7724 163.708 31.0097C164.208 32.2231 164.458 33.5079 164.458 34.8641V35.685C164.458 37.0174 164.22 38.2903 163.744 39.5038C163.268 40.6934 162.566 41.7522 161.638 42.6802C160.734 43.6081 159.616 44.3457 158.283 44.8929C156.951 45.4164 155.416 45.6781 153.679 45.6781ZM153.679 40.86C154.798 40.86 155.725 40.6221 156.463 40.1462C157.201 39.6703 157.76 39.0041 158.14 38.1476C158.545 37.291 158.747 36.3393 158.747 35.2924C158.747 34.1741 158.545 33.1986 158.14 32.3659C157.736 31.5093 157.153 30.8312 156.392 30.3316C155.654 29.8319 154.75 29.5821 153.679 29.5821C152.632 29.5821 151.728 29.8319 150.967 30.3316C150.205 30.8312 149.623 31.5093 149.218 32.3659C148.837 33.1986 148.647 34.1741 148.647 35.2924C148.647 36.3393 148.837 37.291 149.218 38.1476C149.599 39.0041 150.17 39.6703 150.931 40.1462C151.693 40.6221 152.609 40.86 153.679 40.86ZM168.443 45V25.4421H172.975V33.8648H172.654C172.654 31.8662 172.904 30.2007 173.404 28.8683C173.903 27.5359 174.653 26.5366 175.652 25.8703C176.651 25.1803 177.877 24.8353 179.328 24.8353H179.578C181.053 24.8353 182.278 25.1803 183.254 25.8703C184.253 26.5366 185.003 27.5359 185.502 28.8683C186.026 30.2007 186.288 31.8662 186.288 33.8648H184.896C184.896 31.8662 185.146 30.2007 185.645 28.8683C186.169 27.5359 186.93 26.5366 187.929 25.8703C188.929 25.1803 190.154 24.8353 191.605 24.8353H191.855C193.33 24.8353 194.568 25.1803 195.567 25.8703C196.59 26.5366 197.363 27.5359 197.887 28.8683C198.41 30.2007 198.672 31.8662 198.672 33.8648V45H192.962V33.5436C192.962 32.4729 192.676 31.6045 192.105 30.9383C191.558 30.2721 190.773 29.939 189.749 29.939C188.726 29.939 187.917 30.284 187.323 30.974C186.728 31.6402 186.43 32.5324 186.43 33.6507V45H180.684V33.5436C180.684 32.4729 180.399 31.6045 179.828 30.9383C179.281 30.2721 178.507 29.939 177.508 29.939C176.461 29.939 175.64 30.284 175.045 30.974C174.451 31.6402 174.153 32.5324 174.153 33.6507V45H168.443ZM203.54 52.1379V25.4421H208.073V33.9005L207.466 33.8648C207.561 31.9138 207.965 30.2721 208.679 28.9397C209.393 27.5834 210.357 26.5722 211.57 25.906C212.784 25.216 214.152 24.871 215.674 24.871C217.031 24.871 218.256 25.1209 219.35 25.6205C220.469 26.1202 221.42 26.8221 222.206 27.7262C223.015 28.6066 223.621 29.6534 224.026 30.8669C224.454 32.0566 224.668 33.3652 224.668 34.7928V35.6136C224.668 37.0174 224.466 38.3379 224.061 39.5752C223.657 40.7886 223.062 41.8474 222.277 42.7516C221.516 43.6557 220.576 44.3695 219.458 44.8929C218.363 45.3926 217.102 45.6424 215.674 45.6424C214.199 45.6424 212.867 45.345 211.677 44.7502C210.511 44.1316 209.571 43.2036 208.858 41.9664C208.144 40.7053 207.751 39.1112 207.68 37.184L209.25 39.3253V52.1379H203.54ZM214.068 40.86C215.044 40.86 215.889 40.6221 216.602 40.1462C217.34 39.6703 217.911 39.0041 218.315 38.1476C218.72 37.291 218.922 36.3036 218.922 35.1853C218.922 34.0671 218.72 33.0916 218.315 32.2588C217.911 31.426 217.352 30.7836 216.638 30.3316C215.924 29.8557 215.068 29.6178 214.068 29.6178C213.212 29.6178 212.403 29.82 211.641 30.2245C210.88 30.629 210.261 31.2119 209.786 31.9733C209.334 32.7109 209.108 33.615 209.108 34.6857V36.0062C209.108 37.0293 209.345 37.9097 209.821 38.6472C210.321 39.361 210.951 39.9083 211.713 40.289C212.474 40.6697 213.259 40.86 214.068 40.86ZM228.634 45V25.4421H233.167V33.8291H233.06C233.06 31.0691 233.643 28.9397 234.809 27.4407C235.998 25.9417 237.711 25.1922 239.948 25.1922H240.697V30.1174H239.27C237.699 30.1174 236.486 30.5457 235.629 31.4022C234.773 32.235 234.345 33.4484 234.345 35.0426V45H228.634ZM255.33 45V39.2183H254.366V32.9369C254.366 31.9376 254.128 31.1881 253.652 30.6884C253.177 30.1888 252.415 29.939 251.368 29.939C250.845 29.939 250.155 29.9509 249.298 29.9747C248.442 29.9984 247.561 30.0341 246.657 30.0817C245.753 30.1293 244.932 30.1769 244.195 30.2245V25.4064C244.742 25.3588 245.384 25.3112 246.122 25.2636C246.859 25.216 247.621 25.1803 248.406 25.1565C249.191 25.1328 249.929 25.1209 250.619 25.1209C252.617 25.1209 254.295 25.4064 255.651 25.9774C257.031 26.5484 258.078 27.4169 258.792 28.5828C259.505 29.7248 259.862 31.2 259.862 33.0083V45H255.33ZM249.084 45.4997C247.68 45.4997 246.443 45.2498 245.372 44.7502C244.325 44.2505 243.505 43.5367 242.91 42.6088C242.315 41.6571 242.018 40.5269 242.018 39.2183C242.018 37.7907 242.386 36.6248 243.124 35.7207C243.862 34.7928 244.897 34.1147 246.229 33.6864C247.561 33.2343 249.096 33.0083 250.833 33.0083H255.009V36.1847H250.797C249.798 36.1847 249.025 36.4345 248.477 36.9341C247.954 37.41 247.692 38.0643 247.692 38.8971C247.692 39.6822 247.954 40.3247 248.477 40.8243C249.025 41.3002 249.798 41.5381 250.797 41.5381C251.44 41.5381 252.011 41.431 252.51 41.2169C253.034 40.979 253.462 40.5864 253.795 40.0391C254.128 39.4919 254.319 38.7305 254.366 37.755L255.722 39.1826C255.603 40.5388 255.27 41.6809 254.723 42.6088C254.2 43.5367 253.462 44.2505 252.51 44.7502C251.582 45.2498 250.44 45.4997 249.084 45.4997ZM124.992 83.6781C122.636 83.6781 120.649 83.3093 119.032 82.5717C117.414 81.8103 116.188 80.7872 115.356 79.5024C114.523 78.1938 114.106 76.6948 114.106 75.0055H119.781C119.781 75.6717 119.959 76.2903 120.316 76.8614C120.697 77.4324 121.268 77.8964 122.029 78.2533C122.791 78.5864 123.778 78.7529 124.992 78.7529C126.086 78.7529 127.002 78.6102 127.74 78.3247C128.477 78.0391 129.037 77.6466 129.417 77.1469C129.798 76.6234 129.988 76.0286 129.988 75.3624C129.988 74.5297 129.631 73.8753 128.918 73.3995C128.204 72.8998 127.05 72.5786 125.456 72.4359L123.493 72.2574C120.899 72.0433 118.829 71.2343 117.283 69.8305C115.736 68.4267 114.963 66.5709 114.963 64.2629C114.963 62.5974 115.356 61.1579 116.141 59.9445C116.95 58.731 118.068 57.8031 119.496 57.1607C120.923 56.4945 122.612 56.1614 124.563 56.1614C126.61 56.1614 128.358 56.5183 129.81 57.2321C131.285 57.9221 132.415 58.9095 133.2 60.1943C133.986 61.4553 134.378 62.9424 134.378 64.6555H128.668C128.668 64.0131 128.513 63.4302 128.204 62.9067C127.894 62.3595 127.431 61.9193 126.812 61.5862C126.217 61.2531 125.468 61.0866 124.563 61.0866C123.707 61.0866 122.981 61.2293 122.386 61.5148C121.815 61.8003 121.387 62.1929 121.102 62.6926C120.816 63.1684 120.673 63.6919 120.673 64.2629C120.673 65.0005 120.935 65.6429 121.458 66.1902C121.982 66.7374 122.838 67.0586 124.028 67.1538L126.027 67.3322C127.93 67.4988 129.608 67.9152 131.059 68.5814C132.51 69.2238 133.641 70.116 134.449 71.2581C135.282 72.3764 135.699 73.7445 135.699 75.3624C135.699 77.0279 135.258 78.4912 134.378 79.7522C133.522 80.9895 132.296 81.9531 130.702 82.6431C129.108 83.3331 127.204 83.6781 124.992 83.6781ZM148.368 83.6781C146.703 83.6781 145.227 83.3926 143.943 82.8216C142.682 82.2505 141.623 81.4891 140.766 80.5374C139.934 79.5619 139.291 78.4793 138.839 77.2897C138.411 76.0762 138.197 74.839 138.197 73.5779V72.8641C138.197 71.5555 138.411 70.3064 138.839 69.1167C139.291 67.9033 139.934 66.8207 140.766 65.869C141.599 64.9172 142.634 64.1678 143.871 63.6205C145.132 63.0495 146.56 62.764 148.154 62.764C150.248 62.764 152.009 63.2398 153.436 64.1916C154.887 65.1195 155.994 66.3448 156.755 67.8676C157.517 69.3666 157.897 71.0083 157.897 72.7928V74.72H140.588V71.4722H154.435L152.58 72.9712C152.58 71.8053 152.413 70.806 152.08 69.9733C151.747 69.1405 151.247 68.51 150.581 68.0817C149.939 67.6297 149.13 67.4036 148.154 67.4036C147.155 67.4036 146.31 67.6297 145.62 68.0817C144.93 68.5338 144.407 69.2 144.05 70.0803C143.693 70.9369 143.514 71.9957 143.514 73.2567C143.514 74.4226 143.681 75.4457 144.014 76.326C144.347 77.1826 144.871 77.8488 145.584 78.3247C146.298 78.8005 147.226 79.0384 148.368 79.0384C149.415 79.0384 150.272 78.8362 150.938 78.4317C151.604 78.0272 152.056 77.5276 152.294 76.9328H157.54C157.255 78.2414 156.696 79.4072 155.863 80.4303C155.03 81.4534 153.983 82.2505 152.722 82.8216C151.461 83.3926 150.01 83.6781 148.368 83.6781ZM169.39 90.7803C168.438 90.7803 167.463 90.7447 166.464 90.6733C165.464 90.6019 164.548 90.5067 163.716 90.3878V85.5697C164.548 85.6886 165.464 85.7838 166.464 85.8552C167.487 85.9503 168.415 85.9979 169.247 85.9979C170.794 85.9979 172.043 85.8195 172.995 85.4626C173.97 85.1057 174.684 84.5584 175.136 83.8209C175.588 83.1071 175.814 82.1791 175.814 81.0371V77.1469L176.849 74.8628C176.802 76.5997 176.457 78.0867 175.814 79.324C175.196 80.5612 174.327 81.5129 173.209 82.1791C172.091 82.8216 170.758 83.1428 169.212 83.1428C167.879 83.1428 166.666 82.9048 165.571 82.429C164.501 81.9293 163.585 81.2393 162.823 80.359C162.062 79.4786 161.479 78.4555 161.075 77.2897C160.67 76.1 160.468 74.8152 160.468 73.4352V72.6143C160.468 71.2343 160.682 69.9495 161.11 68.7598C161.538 67.5702 162.157 66.5352 162.966 65.6548C163.775 64.7745 164.739 64.0964 165.857 63.6205C166.975 63.1209 168.212 62.871 169.569 62.871C171.139 62.871 172.495 63.216 173.637 63.906C174.803 64.596 175.719 65.6072 176.385 66.9397C177.052 68.2721 177.408 69.8781 177.456 71.7578L176.671 71.9719V63.4421H181.203V80.6802C181.203 83.0833 180.775 85.0224 179.919 86.4976C179.062 87.9728 177.753 89.0553 175.993 89.7453C174.256 90.4353 172.055 90.7803 169.39 90.7803ZM170.996 78.3247C171.877 78.3247 172.674 78.1343 173.387 77.7536C174.101 77.3491 174.66 76.7781 175.065 76.0405C175.493 75.3029 175.707 74.4107 175.707 73.3638V72.3288C175.707 71.3057 175.481 70.4491 175.029 69.7591C174.601 69.0453 174.03 68.51 173.316 68.1531C172.602 67.7724 171.841 67.5821 171.032 67.5821C170.08 67.5821 169.236 67.8081 168.498 68.2602C167.76 68.7122 167.189 69.3428 166.785 70.1517C166.38 70.9607 166.178 71.9124 166.178 73.0069C166.178 74.1252 166.38 75.0888 166.785 75.8978C167.213 76.6829 167.784 77.2897 168.498 77.7179C169.236 78.1224 170.068 78.3247 170.996 78.3247ZM192.751 83.6067C190.49 83.6067 188.754 82.881 187.54 81.4297C186.327 79.9545 185.72 77.7417 185.72 74.7914V63.4421H191.43V75.0769C191.43 76.1238 191.728 76.9566 192.322 77.5752C192.917 78.1938 193.714 78.5031 194.714 78.5031C195.737 78.5031 196.57 78.1819 197.212 77.5395C197.854 76.8971 198.176 76.0286 198.176 74.9341V63.4421H203.886V83H199.353V74.7557H199.746C199.746 76.7305 199.484 78.3841 198.961 79.7166C198.461 81.0252 197.712 82.0007 196.712 82.6431C195.713 83.2855 194.476 83.6067 193.001 83.6067H192.751ZM209.151 83V63.4421H213.684V71.8291H213.577C213.577 69.0691 214.16 66.9397 215.326 65.4407C216.515 63.9417 218.228 63.1922 220.465 63.1922H221.214V68.1174H219.787C218.216 68.1174 217.003 68.5457 216.146 69.4022C215.29 70.235 214.862 71.4484 214.862 73.0426V83H209.151ZM235.847 83V77.2183H234.883V70.9369C234.883 69.9376 234.645 69.1881 234.169 68.6884C233.694 68.1888 232.932 67.939 231.885 67.939C231.362 67.939 230.672 67.9509 229.815 67.9747C228.959 67.9984 228.078 68.0341 227.174 68.0817C226.27 68.1293 225.449 68.1769 224.712 68.2245V63.4064C225.259 63.3588 225.901 63.3112 226.639 63.2636C227.377 63.216 228.138 63.1803 228.923 63.1565C229.708 63.1328 230.446 63.1209 231.136 63.1209C233.134 63.1209 234.812 63.4064 236.168 63.9774C237.548 64.5484 238.595 65.4169 239.309 66.5828C240.023 67.7248 240.379 69.2 240.379 71.0083V83H235.847ZM229.601 83.4997C228.197 83.4997 226.96 83.2498 225.889 82.7502C224.843 82.2505 224.022 81.5367 223.427 80.6088C222.832 79.6571 222.535 78.5269 222.535 77.2183C222.535 75.7907 222.903 74.6248 223.641 73.7207C224.379 72.7928 225.414 72.1147 226.746 71.6864C228.078 71.2343 229.613 71.0083 231.35 71.0083H235.526V74.1847H231.314C230.315 74.1847 229.542 74.4345 228.994 74.9341C228.471 75.41 228.209 76.0643 228.209 76.8971C228.209 77.6822 228.471 78.3247 228.994 78.8243C229.542 79.3002 230.315 79.5381 231.314 79.5381C231.957 79.5381 232.528 79.431 233.027 79.2169C233.551 78.979 233.979 78.5864 234.312 78.0391C234.645 77.4919 234.836 76.7305 234.883 75.755L236.239 77.1826C236.12 78.5388 235.787 79.6809 235.24 80.6088C234.717 81.5367 233.979 82.2505 233.027 82.7502C232.099 83.2498 230.957 83.4997 229.601 83.4997Z" fill="white"></path><path d="M435.992 45.6781C433.636 45.6781 431.649 45.3093 430.032 44.5717C428.414 43.8103 427.188 42.7872 426.356 41.5024C425.523 40.1938 425.106 38.6948 425.106 37.0055H430.781C430.781 37.6717 430.959 38.2903 431.316 38.8614C431.697 39.4324 432.268 39.8964 433.029 40.2533C433.791 40.5864 434.778 40.7529 435.992 40.7529C437.086 40.7529 438.002 40.6102 438.74 40.3247C439.477 40.0391 440.037 39.6466 440.417 39.1469C440.798 38.6234 440.988 38.0286 440.988 37.3624C440.988 36.5297 440.631 35.8753 439.918 35.3995C439.204 34.8998 438.05 34.5786 436.456 34.4359L434.493 34.2574C431.899 34.0433 429.829 33.2343 428.283 31.8305C426.736 30.4267 425.963 28.5709 425.963 26.2629C425.963 24.5974 426.356 23.1579 427.141 21.9445C427.95 20.731 429.068 19.8031 430.496 19.1607C431.923 18.4945 433.612 18.1614 435.563 18.1614C437.61 18.1614 439.358 18.5183 440.81 19.2321C442.285 19.9221 443.415 20.9095 444.2 22.1943C444.986 23.4553 445.378 24.9424 445.378 26.6555H439.668C439.668 26.0131 439.513 25.4302 439.204 24.9067C438.894 24.3595 438.431 23.9193 437.812 23.5862C437.217 23.2531 436.468 23.0866 435.563 23.0866C434.707 23.0866 433.981 23.2293 433.386 23.5148C432.815 23.8003 432.387 24.1929 432.102 24.6926C431.816 25.1684 431.673 25.6919 431.673 26.2629C431.673 27.0005 431.935 27.6429 432.458 28.1902C432.982 28.7374 433.838 29.0586 435.028 29.1538L437.027 29.3322C438.93 29.4988 440.608 29.9152 442.059 30.5814C443.51 31.2238 444.641 32.116 445.449 33.2581C446.282 34.3764 446.699 35.7445 446.699 37.3624C446.699 39.0279 446.258 40.4912 445.378 41.7522C444.522 42.9895 443.296 43.9531 441.702 44.6431C440.108 45.3331 438.204 45.6781 435.992 45.6781ZM462.223 45V39.2183H461.26V32.9369C461.26 31.9376 461.022 31.1881 460.546 30.6884C460.07 30.1888 459.309 29.939 458.262 29.939C457.738 29.939 457.048 29.9509 456.192 29.9747C455.335 29.9984 454.455 30.0341 453.551 30.0817C452.647 30.1293 451.826 30.1769 451.088 30.2245V25.4064C451.635 25.3588 452.278 25.3112 453.015 25.2636C453.753 25.216 454.514 25.1803 455.3 25.1565C456.085 25.1328 456.822 25.1209 457.512 25.1209C459.511 25.1209 461.188 25.4064 462.545 25.9774C463.925 26.5484 464.971 27.4169 465.685 28.5828C466.399 29.7248 466.756 31.2 466.756 33.0083V45H462.223ZM455.978 45.4997C454.574 45.4997 453.337 45.2498 452.266 44.7502C451.219 44.2505 450.398 43.5367 449.803 42.6088C449.209 41.6571 448.911 40.5269 448.911 39.2183C448.911 37.7907 449.28 36.6248 450.017 35.7207C450.755 34.7928 451.79 34.1147 453.122 33.6864C454.455 33.2343 455.99 33.0083 457.726 33.0083H461.902V36.1847H457.691C456.691 36.1847 455.918 36.4345 455.371 36.9341C454.847 37.41 454.586 38.0643 454.586 38.8971C454.586 39.6822 454.847 40.3247 455.371 40.8243C455.918 41.3002 456.691 41.5381 457.691 41.5381C458.333 41.5381 458.904 41.431 459.404 41.2169C459.927 40.979 460.356 40.5864 460.689 40.0391C461.022 39.4919 461.212 38.7305 461.26 37.755L462.616 39.1826C462.497 40.5388 462.164 41.6809 461.617 42.6088C461.093 43.5367 460.356 44.2505 459.404 44.7502C458.476 45.2498 457.334 45.4997 455.978 45.4997ZM480.488 45.2498C478.513 45.2498 476.919 45.0119 475.705 44.536C474.492 44.0364 473.599 43.2155 473.028 42.0734C472.481 40.9076 472.208 39.3372 472.208 37.3624V20.16H477.525V37.5766C477.525 38.5045 477.763 39.2183 478.239 39.7179C478.739 40.1938 479.441 40.4317 480.345 40.4317H483.236V45.2498H480.488ZM469.245 29.6178V25.4421H483.236V29.6178H469.245ZM488.004 45V25.4421H493.714V45H488.004ZM485.398 29.6534V25.4421H493.714V29.6534H485.398ZM490.216 23.5148C489.146 23.5148 488.349 23.2412 487.825 22.694C487.325 22.1229 487.076 21.4091 487.076 20.5526C487.076 19.6722 487.325 18.9584 487.825 18.4112C488.349 17.8402 489.146 17.5547 490.216 17.5547C491.287 17.5547 492.072 17.8402 492.572 18.4112C493.095 18.9584 493.357 19.6722 493.357 20.5526C493.357 21.4091 493.095 22.1229 492.572 22.694C492.072 23.2412 491.287 23.5148 490.216 23.5148ZM506.419 45.6067C503.635 45.6067 501.458 45.0357 499.888 43.8936C498.317 42.7516 497.485 41.1455 497.389 39.0755H502.457C502.552 39.6941 502.921 40.2533 503.564 40.7529C504.23 41.2288 505.217 41.4667 506.526 41.4667C507.525 41.4667 508.346 41.3002 508.989 40.9671C509.655 40.6102 509.988 40.1105 509.988 39.4681C509.988 38.8971 509.738 38.445 509.238 38.1119C508.739 37.755 507.846 37.5052 506.562 37.3624L505.027 37.2197C502.671 36.9817 500.899 36.3274 499.709 35.2567C498.543 34.186 497.96 32.8179 497.96 31.1524C497.96 29.7724 498.305 28.6184 498.995 27.6905C499.685 26.7626 500.637 26.0607 501.851 25.5848C503.088 25.109 504.492 24.871 506.062 24.871C508.584 24.871 510.618 25.4302 512.165 26.5484C513.711 27.6429 514.52 29.2371 514.592 31.3309H509.524C509.429 30.6884 509.096 30.1531 508.525 29.7248C507.954 29.2728 507.109 29.0467 505.991 29.0467C505.11 29.0467 504.408 29.2133 503.885 29.5464C503.361 29.8795 503.1 30.3316 503.1 30.9026C503.1 31.4498 503.326 31.8662 503.778 32.1517C504.23 32.4372 504.967 32.6395 505.991 32.7584L507.525 32.9012C509.928 33.1629 511.796 33.8291 513.129 34.8998C514.461 35.9705 515.127 37.41 515.127 39.2183C515.127 40.5269 514.77 41.669 514.056 42.6445C513.343 43.5962 512.331 44.3338 511.023 44.8572C509.714 45.3569 508.18 45.6067 506.419 45.6067ZM519.255 45V25.2636C519.255 23.0033 519.898 21.3259 521.182 20.2314C522.467 19.1369 524.359 18.5897 526.857 18.5897H529.355V22.8724H526.607C525.965 22.8724 525.465 23.0509 525.108 23.4078C524.751 23.7647 524.573 24.2643 524.573 24.9067V45H519.255ZM516.935 30.0103V25.8347H529.641V30.0103H516.935ZM544.198 45V39.2183H543.234V32.9369C543.234 31.9376 542.996 31.1881 542.521 30.6884C542.045 30.1888 541.283 29.939 540.236 29.939C539.713 29.939 539.023 29.9509 538.166 29.9747C537.31 29.9984 536.43 30.0341 535.525 30.0817C534.621 30.1293 533.8 30.1769 533.063 30.2245V25.4064C533.61 25.3588 534.253 25.3112 534.99 25.2636C535.728 25.216 536.489 25.1803 537.274 25.1565C538.059 25.1328 538.797 25.1209 539.487 25.1209C541.486 25.1209 543.163 25.4064 544.519 25.9774C545.899 26.5484 546.946 27.4169 547.66 28.5828C548.374 29.7248 548.731 31.2 548.731 33.0083V45H544.198ZM537.952 45.4997C536.549 45.4997 535.311 45.2498 534.241 44.7502C533.194 44.2505 532.373 43.5367 531.778 42.6088C531.183 41.6571 530.886 40.5269 530.886 39.2183C530.886 37.7907 531.255 36.6248 531.992 35.7207C532.73 34.7928 533.765 34.1147 535.097 33.6864C536.43 33.2343 537.964 33.0083 539.701 33.0083H543.877V36.1847H539.665C538.666 36.1847 537.893 36.4345 537.346 36.9341C536.822 37.41 536.56 38.0643 536.56 38.8971C536.56 39.6822 536.822 40.3247 537.346 40.8243C537.893 41.3002 538.666 41.5381 539.665 41.5381C540.308 41.5381 540.879 41.431 541.379 41.2169C541.902 40.979 542.33 40.5864 542.663 40.0391C542.996 39.4919 543.187 38.7305 543.234 37.755L544.591 39.1826C544.472 40.5388 544.139 41.6809 543.591 42.6088C543.068 43.5367 542.33 44.2505 541.379 44.7502C540.451 45.2498 539.309 45.4997 537.952 45.4997ZM562.355 45.6781C560.666 45.6781 559.191 45.4045 557.93 44.8572C556.692 44.2862 555.657 43.5248 554.825 42.5731C553.992 41.6214 553.373 40.5507 552.969 39.361C552.564 38.1476 552.362 36.8984 552.362 35.6136V34.9355C552.362 33.6031 552.576 32.3302 553.004 31.1167C553.433 29.8795 554.063 28.785 554.896 27.8333C555.729 26.8816 556.764 26.1321 558.001 25.5848C559.262 25.0376 560.702 24.764 562.319 24.764C564.08 24.764 565.639 25.109 566.995 25.799C568.351 26.4652 569.434 27.405 570.243 28.6184C571.052 29.8319 571.504 31.2238 571.599 32.7941H565.995C565.9 31.9138 565.543 31.1762 564.925 30.5814C564.33 29.9628 563.462 29.6534 562.319 29.6534C561.368 29.6534 560.571 29.8914 559.928 30.3672C559.31 30.8431 558.846 31.4974 558.536 32.3302C558.227 33.1629 558.072 34.1503 558.072 35.2924C558.072 36.3393 558.215 37.291 558.501 38.1476C558.786 38.9803 559.238 39.6347 559.857 40.1105C560.499 40.5626 561.332 40.7886 562.355 40.7886C563.117 40.7886 563.759 40.6578 564.282 40.396C564.83 40.1105 565.258 39.7298 565.567 39.254C565.9 38.7543 566.103 38.1833 566.174 37.5409H571.742C571.67 39.1588 571.218 40.5864 570.385 41.8236C569.553 43.0371 568.446 43.9888 567.066 44.6788C565.686 45.345 564.116 45.6781 562.355 45.6781ZM562.177 54.6362C561.629 54.6362 561.094 54.5886 560.571 54.4934C560.047 54.3983 559.631 54.3031 559.322 54.2079V50.7103C559.655 50.8293 560.047 50.9245 560.499 50.9959C560.975 51.091 561.463 51.1386 561.963 51.1386C562.629 51.1386 563.128 51.0434 563.462 50.8531C563.795 50.6866 563.961 50.4486 563.961 50.1393C563.961 49.8776 563.842 49.6753 563.604 49.5326C563.39 49.3898 563.009 49.3184 562.462 49.3184H560.571V44.536H564.033V48.0693L562.034 46.5347H562.498C564.14 46.5347 565.413 46.844 566.317 47.4626C567.245 48.105 567.709 49.0329 567.709 50.2464C567.709 51.4836 567.233 52.5186 566.281 53.3514C565.353 54.2079 563.985 54.6362 562.177 54.6362ZM587.207 45V39.2183H586.243V32.9369C586.243 31.9376 586.005 31.1881 585.529 30.6884C585.054 30.1888 584.292 29.939 583.245 29.939C582.722 29.939 582.032 29.9509 581.175 29.9747C580.319 29.9984 579.438 30.0341 578.534 30.0817C577.63 30.1293 576.809 30.1769 576.072 30.2245V25.4064C576.619 25.3588 577.261 25.3112 577.999 25.2636C578.736 25.216 579.498 25.1803 580.283 25.1565C581.068 25.1328 581.806 25.1209 582.496 25.1209C584.494 25.1209 586.172 25.4064 587.528 25.9774C588.908 26.5484 589.955 27.4169 590.669 28.5828C591.383 29.7248 591.739 31.2 591.739 33.0083V45H587.207ZM580.961 45.4997C579.557 45.4997 578.32 45.2498 577.249 44.7502C576.203 44.2505 575.382 43.5367 574.787 42.6088C574.192 41.6571 573.895 40.5269 573.895 39.2183C573.895 37.7907 574.263 36.6248 575.001 35.7207C575.739 34.7928 576.774 34.1147 578.106 33.6864C579.438 33.2343 580.973 33.0083 582.71 33.0083H586.886V36.1847H582.674C581.675 36.1847 580.902 36.4345 580.354 36.9341C579.831 37.41 579.569 38.0643 579.569 38.8971C579.569 39.6822 579.831 40.3247 580.354 40.8243C580.902 41.3002 581.675 41.5381 582.674 41.5381C583.317 41.5381 583.888 41.431 584.387 41.2169C584.911 40.979 585.339 40.5864 585.672 40.0391C586.005 39.4919 586.196 38.7305 586.243 37.755L587.599 39.1826C587.48 40.5388 587.147 41.6809 586.6 42.6088C586.077 43.5367 585.339 44.2505 584.387 44.7502C583.459 45.2498 582.317 45.4997 580.961 45.4997ZM585.958 22.7297C585.244 22.7297 584.649 22.6345 584.173 22.4441C583.697 22.2538 583.257 22.0397 582.853 21.8017C582.472 21.5638 582.079 21.3616 581.675 21.195C581.294 21.0047 580.83 20.9095 580.283 20.9095C579.664 20.9095 579.105 21.0403 578.606 21.3021C578.13 21.54 577.725 21.8374 577.392 22.1943L576.536 18.3041C576.94 17.8521 577.44 17.4714 578.035 17.1621C578.653 16.8528 579.415 16.6981 580.319 16.6981C581.033 16.6981 581.627 16.7933 582.103 16.9836C582.579 17.1502 583.007 17.3524 583.388 17.5903C583.769 17.8283 584.161 18.0424 584.566 18.2328C584.97 18.4231 585.434 18.5183 585.958 18.5183C586.6 18.5183 587.159 18.3993 587.635 18.1614C588.135 17.8997 588.563 17.5903 588.92 17.2334L589.741 21.1236C589.336 21.5519 588.825 21.9326 588.206 22.2657C587.588 22.575 586.838 22.7297 585.958 22.7297ZM606.113 45.6781C604.4 45.6781 602.878 45.4164 601.545 44.8929C600.213 44.3457 599.083 43.6081 598.155 42.6802C597.251 41.7522 596.561 40.6934 596.085 39.5038C595.609 38.2903 595.371 37.0174 595.371 35.685V34.8641C595.371 33.5079 595.609 32.2231 596.085 31.0097C596.584 29.7724 597.298 28.6898 598.226 27.7619C599.178 26.834 600.32 26.1083 601.652 25.5848C602.985 25.0376 604.472 24.764 606.113 24.764C607.803 24.764 609.302 25.0376 610.61 25.5848C611.943 26.1083 613.073 26.834 614.001 27.7619C614.929 28.6898 615.643 29.7724 616.142 31.0097C616.642 32.2231 616.892 33.5079 616.892 34.8641V35.685C616.892 37.0174 616.654 38.2903 616.178 39.5038C615.702 40.6934 615 41.7522 614.072 42.6802C613.168 43.6081 612.05 44.3457 610.717 44.8929C609.385 45.4164 607.85 45.6781 606.113 45.6781ZM606.113 40.86C607.232 40.86 608.16 40.6221 608.897 40.1462C609.635 39.6703 610.194 39.0041 610.575 38.1476C610.979 37.291 611.181 36.3393 611.181 35.2924C611.181 34.1741 610.979 33.1986 610.575 32.3659C610.17 31.5093 609.587 30.8312 608.826 30.3316C608.088 29.8319 607.184 29.5821 606.113 29.5821C605.067 29.5821 604.162 29.8319 603.401 30.3316C602.64 30.8312 602.057 31.5093 601.652 32.3659C601.272 33.1986 601.081 34.1741 601.081 35.2924C601.081 36.3393 601.272 37.291 601.652 38.1476C602.033 39.0041 602.604 39.6703 603.365 40.1462C604.127 40.6221 605.043 40.86 606.113 40.86ZM439.275 83.6781C436.943 83.6781 434.909 83.2974 433.172 82.536C431.435 81.7509 429.996 80.704 428.854 79.3953C427.736 78.0867 426.903 76.6353 426.356 75.0412C425.808 73.4471 425.535 71.8529 425.535 70.2588V69.4736C425.535 67.8319 425.808 66.2259 426.356 64.6555C426.903 63.0852 427.724 61.6576 428.818 60.3728C429.936 59.0879 431.316 58.0648 432.958 57.3034C434.624 56.5421 436.539 56.1614 438.704 56.1614C441.06 56.1614 443.142 56.6016 444.95 57.4819C446.758 58.3384 448.209 59.54 449.304 61.0866C450.398 62.6093 451.029 64.3819 451.196 66.4043H445.342C445.2 65.4526 444.819 64.6198 444.2 63.906C443.606 63.1922 442.832 62.6331 441.881 62.2286C440.953 61.8241 439.894 61.6219 438.704 61.6219C437.562 61.6219 436.539 61.8241 435.635 62.2286C434.754 62.6331 433.993 63.2041 433.351 63.9417C432.732 64.6793 432.256 65.5597 431.923 66.5828C431.614 67.5821 431.459 68.6884 431.459 69.9019C431.459 71.1629 431.626 72.3169 431.959 73.3638C432.316 74.3869 432.827 75.2791 433.493 76.0405C434.16 76.7781 434.981 77.3491 435.956 77.7536C436.955 78.1581 438.062 78.3603 439.275 78.3603C440.893 78.3603 442.297 78.0272 443.487 77.361C444.676 76.6948 445.533 75.8145 446.056 74.72L445.342 78.7172V72.5072H450.732V78.0748C449.613 79.8831 448.067 81.275 446.092 82.2505C444.141 83.2022 441.869 83.6781 439.275 83.6781ZM438.526 73.6493V69.4379H452.873V73.6493H438.526ZM468.148 83V77.2183H467.185V70.9369C467.185 69.9376 466.947 69.1881 466.471 68.6884C465.995 68.1888 465.234 67.939 464.187 67.939C463.663 67.939 462.973 67.9509 462.117 67.9747C461.26 67.9984 460.38 68.0341 459.476 68.0817C458.572 68.1293 457.751 68.1769 457.013 68.2245V63.4064C457.56 63.3588 458.203 63.3112 458.94 63.2636C459.678 63.216 460.439 63.1803 461.225 63.1565C462.01 63.1328 462.747 63.1209 463.437 63.1209C465.436 63.1209 467.113 63.4064 468.47 63.9774C469.85 64.5484 470.896 65.4169 471.61 66.5828C472.324 67.7248 472.681 69.2 472.681 71.0083V83H468.148ZM461.903 83.4997C460.499 83.4997 459.262 83.2498 458.191 82.7502C457.144 82.2505 456.323 81.5367 455.728 80.6088C455.134 79.6571 454.836 78.5269 454.836 77.2183C454.836 75.7907 455.205 74.6248 455.943 73.7207C456.68 72.7928 457.715 72.1147 459.048 71.6864C460.38 71.2343 461.915 71.0083 463.651 71.0083H467.827V74.1847H463.616C462.616 74.1847 461.843 74.4345 461.296 74.9341C460.773 75.41 460.511 76.0643 460.511 76.8971C460.511 77.6822 460.773 78.3247 461.296 78.8243C461.843 79.3002 462.616 79.5381 463.616 79.5381C464.258 79.5381 464.829 79.431 465.329 79.2169C465.852 78.979 466.281 78.5864 466.614 78.0391C466.947 77.4919 467.137 76.7305 467.185 75.755L468.541 77.1826C468.422 78.5388 468.089 79.6809 467.542 80.6088C467.018 81.5367 466.281 82.2505 465.329 82.7502C464.401 83.2498 463.259 83.4997 461.903 83.4997ZM477.526 83V63.4421H482.058V71.8291H481.951C481.951 69.0691 482.534 66.9397 483.7 65.4407C484.89 63.9417 486.603 63.1922 488.839 63.1922H489.589V68.1174H488.161C486.591 68.1174 485.378 68.5457 484.521 69.4022C483.664 70.235 483.236 71.4484 483.236 73.0426V83H477.526ZM504.221 83V77.2183H503.258V70.9369C503.258 69.9376 503.02 69.1881 502.544 68.6884C502.068 68.1888 501.307 67.939 500.26 67.939C499.736 67.939 499.046 67.9509 498.19 67.9747C497.333 67.9984 496.453 68.0341 495.549 68.0817C494.645 68.1293 493.824 68.1769 493.086 68.2245V63.4064C493.633 63.3588 494.276 63.3112 495.013 63.2636C495.751 63.216 496.512 63.1803 497.298 63.1565C498.083 63.1328 498.82 63.1209 499.51 63.1209C501.509 63.1209 503.186 63.4064 504.543 63.9774C505.923 64.5484 506.97 65.4169 507.683 66.5828C508.397 67.7248 508.754 69.2 508.754 71.0083V83H504.221ZM497.976 83.4997C496.572 83.4997 495.335 83.2498 494.264 82.7502C493.217 82.2505 492.396 81.5367 491.801 80.6088C491.207 79.6571 490.909 78.5269 490.909 77.2183C490.909 75.7907 491.278 74.6248 492.016 73.7207C492.753 72.7928 493.788 72.1147 495.121 71.6864C496.453 71.2343 497.988 71.0083 499.725 71.0083H503.9V74.1847H499.689C498.69 74.1847 497.916 74.4345 497.369 74.9341C496.846 75.41 496.584 76.0643 496.584 76.8971C496.584 77.6822 496.846 78.3247 497.369 78.8243C497.916 79.3002 498.69 79.5381 499.689 79.5381C500.331 79.5381 500.902 79.431 501.402 79.2169C501.925 78.979 502.354 78.5864 502.687 78.0391C503.02 77.4919 503.21 76.7305 503.258 75.755L504.614 77.1826C504.495 78.5388 504.162 79.6809 503.615 80.6088C503.091 81.5367 502.354 82.2505 501.402 82.7502C500.474 83.2498 499.332 83.4997 497.976 83.4997ZM513.599 83V63.4421H518.131V71.8291H517.81C517.81 69.8305 518.06 68.165 518.56 66.8326C519.083 65.5002 519.868 64.5009 520.915 63.8347C521.962 63.1684 523.235 62.8353 524.734 62.8353H524.984C527.268 62.8353 529.005 63.5848 530.195 65.0838C531.408 66.559 532.015 68.8074 532.015 71.8291V83H526.304V71.5079C526.304 70.461 525.995 69.6045 525.376 68.9383C524.758 68.2721 523.925 67.939 522.878 67.939C521.807 67.939 520.939 68.284 520.273 68.974C519.63 69.6402 519.309 70.5205 519.309 71.615V83H513.599ZM545.768 83.2498C543.793 83.2498 542.199 83.0119 540.985 82.536C539.772 82.0364 538.879 81.2155 538.308 80.0734C537.761 78.9076 537.488 77.3372 537.488 75.3624V58.16H542.805V75.5766C542.805 76.5045 543.043 77.2183 543.519 77.7179C544.019 78.1938 544.721 78.4317 545.625 78.4317H548.516V83.2498H545.768ZM534.525 67.6178V63.4421H548.516V67.6178H534.525ZM553.284 83V63.4421H558.994V83H553.284ZM550.678 67.6534V63.4421H558.994V67.6534H550.678ZM555.496 61.5148C554.426 61.5148 553.629 61.2412 553.105 60.694C552.605 60.1229 552.356 59.4091 552.356 58.5526C552.356 57.6722 552.605 56.9584 553.105 56.4112C553.629 55.8402 554.426 55.5547 555.496 55.5547C556.567 55.5547 557.352 55.8402 557.852 56.4112C558.375 56.9584 558.637 57.6722 558.637 58.5526C558.637 59.4091 558.375 60.1229 557.852 60.694C557.352 61.2412 556.567 61.5148 555.496 61.5148ZM572.341 83.6424C570.961 83.6424 569.7 83.3926 568.558 82.8929C567.44 82.3933 566.464 81.7033 565.632 80.8229C564.799 79.9188 564.156 78.86 563.704 77.6466C563.276 76.4331 563.062 75.1245 563.062 73.7207V72.8998C563.062 71.496 563.264 70.1874 563.669 68.974C564.097 67.7605 564.704 66.7017 565.489 65.7976C566.298 64.8697 567.261 64.1559 568.38 63.6562C569.498 63.1328 570.747 62.871 572.127 62.871C573.697 62.871 575.054 63.216 576.196 63.906C577.338 64.5722 578.23 65.5716 578.872 66.904C579.515 68.2126 579.872 69.8305 579.943 71.7578L578.444 70.3659V56.9466H584.19V83H579.658V74.8984H580.443C580.371 76.7543 579.979 78.3366 579.265 79.6452C578.575 80.9538 577.635 81.9531 576.446 82.6431C575.256 83.3093 573.888 83.6424 572.341 83.6424ZM573.769 78.86C574.649 78.86 575.446 78.6697 576.16 78.289C576.898 77.8845 577.481 77.3016 577.909 76.5402C578.361 75.7788 578.587 74.8628 578.587 73.7921V72.4716C578.587 71.4247 578.361 70.5443 577.909 69.8305C577.457 69.1167 576.862 68.5695 576.124 68.1888C575.387 67.8081 574.59 67.6178 573.733 67.6178C572.781 67.6178 571.925 67.8676 571.164 68.3672C570.426 68.8431 569.843 69.5093 569.415 70.3659C568.986 71.1986 568.772 72.1741 568.772 73.2924C568.772 74.4345 568.986 75.4219 569.415 76.2547C569.843 77.0874 570.438 77.7298 571.199 78.1819C571.961 78.634 572.817 78.86 573.769 78.86ZM601.183 83V77.2183H600.219V70.9369C600.219 69.9376 599.981 69.1881 599.506 68.6884C599.03 68.1888 598.268 67.939 597.221 67.939C596.698 67.939 596.008 67.9509 595.151 67.9747C594.295 67.9984 593.415 68.0341 592.51 68.0817C591.606 68.1293 590.785 68.1769 590.048 68.2245V63.4064C590.595 63.3588 591.237 63.3112 591.975 63.2636C592.713 63.216 593.474 63.1803 594.259 63.1565C595.044 63.1328 595.782 63.1209 596.472 63.1209C598.471 63.1209 600.148 63.4064 601.504 63.9774C602.884 64.5484 603.931 65.4169 604.645 66.5828C605.359 67.7248 605.716 69.2 605.716 71.0083V83H601.183ZM594.937 83.4997C593.533 83.4997 592.296 83.2498 591.226 82.7502C590.179 82.2505 589.358 81.5367 588.763 80.6088C588.168 79.6571 587.871 78.5269 587.871 77.2183C587.871 75.7907 588.24 74.6248 588.977 73.7207C589.715 72.7928 590.75 72.1147 592.082 71.6864C593.415 71.2343 594.949 71.0083 596.686 71.0083H600.862V74.1847H596.65C595.651 74.1847 594.878 74.4345 594.331 74.9341C593.807 75.41 593.545 76.0643 593.545 76.8971C593.545 77.6822 593.807 78.3247 594.331 78.8243C594.878 79.3002 595.651 79.5381 596.65 79.5381C597.293 79.5381 597.864 79.431 598.363 79.2169C598.887 78.979 599.315 78.5864 599.648 78.0391C599.981 77.4919 600.172 76.7305 600.219 75.755L601.576 77.1826C601.457 78.5388 601.123 79.6809 600.576 80.6088C600.053 81.5367 599.315 82.2505 598.363 82.7502C597.436 83.2498 596.293 83.4997 594.937 83.4997Z" fill="white"></path><path d="M763.066 37.5409V32.4729H767.741C768.645 32.4729 769.419 32.2945 770.061 31.9376C770.727 31.5807 771.239 31.081 771.596 30.4386C771.953 29.7724 772.131 29.011 772.131 28.1545C772.131 27.2503 771.953 26.4771 771.596 25.8347C771.239 25.1684 770.727 24.6688 770.061 24.3357C769.419 23.9788 768.645 23.8003 767.741 23.8003H763.066V18.7324H767.456C769.668 18.7324 771.56 19.1012 773.13 19.8388C774.724 20.5764 775.938 21.6233 776.771 22.9795C777.627 24.3357 778.056 25.9655 778.056 27.869V28.44C778.056 30.2959 777.627 31.9138 776.771 33.2938C775.938 34.65 774.724 35.6969 773.13 36.4345C771.56 37.1721 769.668 37.5409 767.456 37.5409H763.066ZM757.927 45V18.7324H763.78V45H757.927ZM781.584 45V25.4421H786.117V33.8291H786.01C786.01 31.0691 786.593 28.9397 787.759 27.4407C788.948 25.9417 790.661 25.1922 792.898 25.1922H793.647V30.1174H792.22C790.65 30.1174 789.436 30.5457 788.58 31.4022C787.723 32.235 787.295 33.4484 787.295 35.0426V45H781.584ZM797.534 45V25.4421H803.244V45H797.534ZM794.929 29.6534V25.4421H803.244V29.6534H794.929ZM799.747 23.5148C798.676 23.5148 797.879 23.2412 797.356 22.694C796.856 22.1229 796.606 21.4091 796.606 20.5526C796.606 19.6722 796.856 18.9584 797.356 18.4112C797.879 17.8402 798.676 17.5547 799.747 17.5547C800.817 17.5547 801.603 17.8402 802.102 18.4112C802.626 18.9584 802.887 19.6722 802.887 20.5526C802.887 21.4091 802.626 22.1229 802.102 22.694C801.603 23.2412 800.817 23.5148 799.747 23.5148ZM812.309 45L806.456 25.4421H812.345L817.841 45H812.309ZM814.093 45V40.2533H819.839V45H814.093ZM816.199 45L820.946 25.4421H826.442L821.374 45H816.199ZM841.321 45V39.2183H840.357V32.9369C840.357 31.9376 840.119 31.1881 839.643 30.6884C839.167 30.1888 838.406 29.939 837.359 29.939C836.836 29.939 836.146 29.9509 835.289 29.9747C834.433 29.9984 833.552 30.0341 832.648 30.0817C831.744 30.1293 830.923 30.1769 830.186 30.2245V25.4064C830.733 25.3588 831.375 25.3112 832.113 25.2636C832.85 25.216 833.612 25.1803 834.397 25.1565C835.182 25.1328 835.92 25.1209 836.61 25.1209C838.608 25.1209 840.286 25.4064 841.642 25.9774C843.022 26.5484 844.069 27.4169 844.783 28.5828C845.496 29.7248 845.853 31.2 845.853 33.0083V45H841.321ZM835.075 45.4997C833.671 45.4997 832.434 45.2498 831.363 44.7502C830.316 44.2505 829.496 43.5367 828.901 42.6088C828.306 41.6571 828.008 40.5269 828.008 39.2183C828.008 37.7907 828.377 36.6248 829.115 35.7207C829.852 34.7928 830.887 34.1147 832.22 33.6864C833.552 33.2343 835.087 33.0083 836.824 33.0083H841V36.1847H836.788C835.789 36.1847 835.016 36.4345 834.468 36.9341C833.945 37.41 833.683 38.0643 833.683 38.8971C833.683 39.6822 833.945 40.3247 834.468 40.8243C835.016 41.3002 835.789 41.5381 836.788 41.5381C837.431 41.5381 838.002 41.431 838.501 41.2169C839.025 40.979 839.453 40.5864 839.786 40.0391C840.119 39.4919 840.31 38.7305 840.357 37.755L841.713 39.1826C841.594 40.5388 841.261 41.6809 840.714 42.6088C840.191 43.5367 839.453 44.2505 838.501 44.7502C837.573 45.2498 836.431 45.4997 835.075 45.4997ZM859.478 45.6781C857.789 45.6781 856.313 45.4045 855.052 44.8572C853.815 44.2862 852.78 43.5248 851.947 42.5731C851.115 41.6214 850.496 40.5507 850.091 39.361C849.687 38.1476 849.485 36.8984 849.485 35.6136V34.9355C849.485 33.6031 849.699 32.3302 850.127 31.1167C850.555 29.8795 851.186 28.785 852.019 27.8333C852.851 26.8816 853.886 26.1321 855.124 25.5848C856.385 25.0376 857.824 24.764 859.442 24.764C861.203 24.764 862.761 25.109 864.117 25.799C865.474 26.4652 866.556 27.405 867.365 28.6184C868.174 29.8319 868.626 31.2238 868.721 32.7941H863.118C863.023 31.9138 862.666 31.1762 862.047 30.5814C861.453 29.9628 860.584 29.6534 859.442 29.6534C858.49 29.6534 857.693 29.8914 857.051 30.3672C856.432 30.8431 855.968 31.4974 855.659 32.3302C855.35 33.1629 855.195 34.1503 855.195 35.2924C855.195 36.3393 855.338 37.291 855.623 38.1476C855.909 38.9803 856.361 39.6347 856.98 40.1105C857.622 40.5626 858.455 40.7886 859.478 40.7886C860.239 40.7886 860.882 40.6578 861.405 40.396C861.952 40.1105 862.381 39.7298 862.69 39.254C863.023 38.7543 863.225 38.1833 863.297 37.5409H868.864C868.793 39.1588 868.341 40.5864 867.508 41.8236C866.675 43.0371 865.569 43.9888 864.189 44.6788C862.809 45.345 861.239 45.6781 859.478 45.6781ZM873.444 45V25.4421H879.155V45H873.444ZM870.839 29.6534V25.4421H879.155V29.6534H870.839ZM875.657 23.5148C874.586 23.5148 873.789 23.2412 873.266 22.694C872.766 22.1229 872.516 21.4091 872.516 20.5526C872.516 19.6722 872.766 18.9584 873.266 18.4112C873.789 17.8402 874.586 17.5547 875.657 17.5547C876.728 17.5547 877.513 17.8402 878.012 18.4112C878.536 18.9584 878.798 19.6722 878.798 20.5526C878.798 21.4091 878.536 22.1229 878.012 22.694C877.513 23.2412 876.728 23.5148 875.657 23.5148ZM892.502 45.6424C891.122 45.6424 889.861 45.3926 888.719 44.8929C887.601 44.3933 886.625 43.7033 885.792 42.8229C884.96 41.9188 884.317 40.86 883.865 39.6466C883.437 38.4331 883.223 37.1245 883.223 35.7207V34.8998C883.223 33.496 883.425 32.1874 883.829 30.974C884.258 29.7605 884.864 28.7017 885.65 27.7976C886.458 26.8697 887.422 26.1559 888.54 25.6562C889.659 25.1328 890.908 24.871 892.288 24.871C893.858 24.871 895.214 25.216 896.356 25.906C897.498 26.5722 898.391 27.5716 899.033 28.904C899.676 30.2126 900.032 31.8305 900.104 33.7578L898.605 32.3659V18.9466H904.351V45H899.818V36.8984H900.603C900.532 38.7543 900.14 40.3366 899.426 41.6452C898.736 42.9538 897.796 43.9531 896.606 44.6431C895.417 45.3093 894.048 45.6424 892.502 45.6424ZM893.93 40.86C894.81 40.86 895.607 40.6697 896.321 40.289C897.058 39.8845 897.641 39.3016 898.07 38.5402C898.522 37.7788 898.748 36.8628 898.748 35.7921V34.4716C898.748 33.4247 898.522 32.5443 898.07 31.8305C897.617 31.1167 897.023 30.5695 896.285 30.1888C895.547 29.8081 894.75 29.6178 893.894 29.6178C892.942 29.6178 892.086 29.8676 891.324 30.3672C890.587 30.8431 890.004 31.5093 889.575 32.3659C889.147 33.1986 888.933 34.1741 888.933 35.2924C888.933 36.4345 889.147 37.4219 889.575 38.2547C890.004 39.0874 890.598 39.7298 891.36 40.1819C892.121 40.634 892.978 40.86 893.93 40.86ZM921.344 45V39.2183H920.38V32.9369C920.38 31.9376 920.142 31.1881 919.666 30.6884C919.19 30.1888 918.429 29.939 917.382 29.939C916.859 29.939 916.169 29.9509 915.312 29.9747C914.456 29.9984 913.575 30.0341 912.671 30.0817C911.767 30.1293 910.946 30.1769 910.208 30.2245V25.4064C910.756 25.3588 911.398 25.3112 912.136 25.2636C912.873 25.216 913.635 25.1803 914.42 25.1565C915.205 25.1328 915.943 25.1209 916.633 25.1209C918.631 25.1209 920.309 25.4064 921.665 25.9774C923.045 26.5484 924.092 27.4169 924.806 28.5828C925.519 29.7248 925.876 31.2 925.876 33.0083V45H921.344ZM915.098 45.4997C913.694 45.4997 912.457 45.2498 911.386 44.7502C910.339 44.2505 909.518 43.5367 908.924 42.6088C908.329 41.6571 908.031 40.5269 908.031 39.2183C908.031 37.7907 908.4 36.6248 909.138 35.7207C909.875 34.7928 910.91 34.1147 912.243 33.6864C913.575 33.2343 915.11 33.0083 916.847 33.0083H921.022V36.1847H916.811C915.812 36.1847 915.038 36.4345 914.491 36.9341C913.968 37.41 913.706 38.0643 913.706 38.8971C913.706 39.6822 913.968 40.3247 914.491 40.8243C915.038 41.3002 915.812 41.5381 916.811 41.5381C917.453 41.5381 918.024 41.431 918.524 41.2169C919.048 40.979 919.476 40.5864 919.809 40.0391C920.142 39.4919 920.332 38.7305 920.38 37.755L921.736 39.1826C921.617 40.5388 921.284 41.6809 920.737 42.6088C920.213 43.5367 919.476 44.2505 918.524 44.7502C917.596 45.2498 916.454 45.4997 915.098 45.4997ZM938.787 45.6424C937.407 45.6424 936.146 45.3926 935.004 44.8929C933.886 44.3933 932.91 43.7033 932.077 42.8229C931.245 41.9188 930.602 40.86 930.15 39.6466C929.722 38.4331 929.508 37.1245 929.508 35.7207V34.8998C929.508 33.496 929.71 32.1874 930.114 30.974C930.543 29.7605 931.149 28.7017 931.935 27.7976C932.743 26.8697 933.707 26.1559 934.825 25.6562C935.944 25.1328 937.193 24.871 938.573 24.871C940.143 24.871 941.499 25.216 942.641 25.906C943.783 26.5722 944.676 27.5716 945.318 28.904C945.961 30.2126 946.317 31.8305 946.389 33.7578L944.89 32.3659V18.9466H950.636V45H946.103V36.8984H946.888C946.817 38.7543 946.425 40.3366 945.711 41.6452C945.021 42.9538 944.081 43.9531 942.891 44.6431C941.702 45.3093 940.333 45.6424 938.787 45.6424ZM940.215 40.86C941.095 40.86 941.892 40.6697 942.606 40.289C943.343 39.8845 943.926 39.3016 944.355 38.5402C944.807 37.7788 945.033 36.8628 945.033 35.7921V34.4716C945.033 33.4247 944.807 32.5443 944.355 31.8305C943.902 31.1167 943.308 30.5695 942.57 30.1888C941.832 29.8081 941.035 29.6178 940.179 29.6178C939.227 29.6178 938.371 29.8676 937.609 30.3672C936.872 30.8431 936.289 31.5093 935.86 32.3659C935.432 33.1986 935.218 34.1741 935.218 35.2924C935.218 36.4345 935.432 37.4219 935.86 38.2547C936.289 39.0874 936.883 39.7298 937.645 40.1819C938.406 40.634 939.263 40.86 940.215 40.86ZM964.773 45.6781C963.108 45.6781 961.633 45.3926 960.348 44.8216C959.087 44.2505 958.028 43.4891 957.172 42.5374C956.339 41.5619 955.696 40.4793 955.244 39.2897C954.816 38.0762 954.602 36.839 954.602 35.5779V34.8641C954.602 33.5555 954.816 32.3064 955.244 31.1167C955.696 29.9033 956.339 28.8207 957.172 27.869C958.004 26.9172 959.039 26.1678 960.277 25.6205C961.538 25.0495 962.965 24.764 964.559 24.764C966.653 24.764 968.414 25.2398 969.841 26.1916C971.293 27.1195 972.399 28.3448 973.161 29.8676C973.922 31.3666 974.303 33.0083 974.303 34.7928V36.72H956.993V33.4722H970.841L968.985 34.9712C968.985 33.8053 968.818 32.806 968.485 31.9733C968.152 31.1405 967.652 30.51 966.986 30.0817C966.344 29.6297 965.535 29.4036 964.559 29.4036C963.56 29.4036 962.715 29.6297 962.025 30.0817C961.335 30.5338 960.812 31.2 960.455 32.0803C960.098 32.9369 959.92 33.9957 959.92 35.2567C959.92 36.4226 960.086 37.4457 960.419 38.326C960.752 39.1826 961.276 39.8488 961.99 40.3247C962.703 40.8005 963.631 41.0384 964.773 41.0384C965.82 41.0384 966.677 40.8362 967.343 40.4317C968.009 40.0272 968.461 39.5276 968.699 38.9328H973.946C973.66 40.2414 973.101 41.4072 972.268 42.4303C971.436 43.4534 970.389 44.2505 969.128 44.8216C967.867 45.3926 966.415 45.6781 964.773 45.6781ZM763.066 75.5409V70.4729H767.741C768.645 70.4729 769.419 70.2945 770.061 69.9376C770.727 69.5807 771.239 69.081 771.596 68.4386C771.953 67.7724 772.131 67.011 772.131 66.1545C772.131 65.2503 771.953 64.4771 771.596 63.8347C771.239 63.1684 770.727 62.6688 770.061 62.3357C769.419 61.9788 768.645 61.8003 767.741 61.8003H763.066V56.7324H767.456C769.668 56.7324 771.56 57.1012 773.13 57.8388C774.724 58.5764 775.938 59.6233 776.771 60.9795C777.627 62.3357 778.056 63.9655 778.056 65.869V66.44C778.056 68.2959 777.627 69.9138 776.771 71.2938C775.938 72.65 774.724 73.6969 773.13 74.4345C771.56 75.1721 769.668 75.5409 767.456 75.5409H763.066ZM757.927 83V56.7324H763.78V83H757.927ZM781.584 83V63.4421H786.117V71.8291H786.01C786.01 69.0691 786.593 66.9397 787.759 65.4407C788.948 63.9417 790.661 63.1922 792.898 63.1922H793.647V68.1174H792.22C790.65 68.1174 789.436 68.5457 788.58 69.4022C787.723 70.235 787.295 71.4484 787.295 73.0426V83H781.584ZM806.031 83.6781C804.318 83.6781 802.795 83.4164 801.462 82.8929C800.13 82.3457 799 81.6081 798.072 80.6802C797.168 79.7522 796.478 78.6934 796.002 77.5038C795.526 76.2903 795.288 75.0174 795.288 73.685V72.8641C795.288 71.5079 795.526 70.2231 796.002 69.0097C796.501 67.7724 797.215 66.6898 798.143 65.7619C799.095 64.834 800.237 64.1083 801.569 63.5848C802.902 63.0376 804.389 62.764 806.031 62.764C807.72 62.764 809.219 63.0376 810.528 63.5848C811.86 64.1083 812.99 64.834 813.918 65.7619C814.846 66.6898 815.56 67.7724 816.059 69.0097C816.559 70.2231 816.809 71.5079 816.809 72.8641V73.685C816.809 75.0174 816.571 76.2903 816.095 77.5038C815.619 78.6934 814.917 79.7522 813.989 80.6802C813.085 81.6081 811.967 82.3457 810.635 82.8929C809.302 83.4164 807.768 83.6781 806.031 83.6781ZM806.031 78.86C807.149 78.86 808.077 78.6221 808.814 78.1462C809.552 77.6703 810.111 77.0041 810.492 76.1476C810.896 75.291 811.099 74.3393 811.099 73.2924C811.099 72.1741 810.896 71.1986 810.492 70.3659C810.087 69.5093 809.504 68.8312 808.743 68.3316C808.005 67.8319 807.101 67.5821 806.031 67.5821C804.984 67.5821 804.08 67.8319 803.318 68.3316C802.557 68.8312 801.974 69.5093 801.569 70.3659C801.189 71.1986 800.998 72.1741 800.998 73.2924C800.998 74.3393 801.189 75.291 801.569 76.1476C801.95 77.0041 802.521 77.6703 803.283 78.1462C804.044 78.6221 804.96 78.86 806.031 78.86ZM829.681 83.2498C827.706 83.2498 826.112 83.0119 824.898 82.536C823.685 82.0364 822.793 81.2155 822.222 80.0734C821.675 78.9076 821.401 77.3372 821.401 75.3624V58.16H826.719V75.5766C826.719 76.5045 826.957 77.2183 827.432 77.7179C827.932 78.1938 828.634 78.4317 829.538 78.4317H832.429V83.2498H829.681ZM818.439 67.6178V63.4421H832.429V67.6178H818.439ZM845.157 83.6781C843.492 83.6781 842.017 83.3926 840.732 82.8216C839.471 82.2505 838.412 81.4891 837.555 80.5374C836.723 79.5619 836.08 78.4793 835.628 77.2897C835.2 76.0762 834.986 74.839 834.986 73.5779V72.8641C834.986 71.5555 835.2 70.3064 835.628 69.1167C836.08 67.9033 836.723 66.8207 837.555 65.869C838.388 64.9172 839.423 64.1678 840.66 63.6205C841.922 63.0495 843.349 62.764 844.943 62.764C847.037 62.764 848.798 63.2398 850.225 64.1916C851.677 65.1195 852.783 66.3448 853.544 67.8676C854.306 69.3666 854.687 71.0083 854.687 72.7928V74.72H837.377V71.4722H851.225L849.369 72.9712C849.369 71.8053 849.202 70.806 848.869 69.9733C848.536 69.1405 848.036 68.51 847.37 68.0817C846.728 67.6297 845.919 67.4036 844.943 67.4036C843.944 67.4036 843.099 67.6297 842.409 68.0817C841.719 68.5338 841.196 69.2 840.839 70.0803C840.482 70.9369 840.304 71.9957 840.304 73.2567C840.304 74.4226 840.47 75.4457 840.803 76.326C841.136 77.1826 841.66 77.8488 842.374 78.3247C843.087 78.8005 844.015 79.0384 845.157 79.0384C846.204 79.0384 847.061 78.8362 847.727 78.4317C848.393 78.0272 848.845 77.5276 849.083 76.9328H854.33C854.044 78.2414 853.485 79.4072 852.652 80.4303C851.819 81.4534 850.773 82.2505 849.512 82.8216C848.25 83.3926 846.799 83.6781 845.157 83.6781ZM866.179 90.7803C865.228 90.7803 864.252 90.7447 863.253 90.6733C862.254 90.6019 861.338 90.5067 860.505 90.3878V85.5697C861.338 85.6886 862.254 85.7838 863.253 85.8552C864.276 85.9503 865.204 85.9979 866.037 85.9979C867.583 85.9979 868.832 85.8195 869.784 85.4626C870.76 85.1057 871.473 84.5584 871.925 83.8209C872.378 83.1071 872.604 82.1791 872.604 81.0371V77.1469L873.639 74.8628C873.591 76.5997 873.246 78.0867 872.604 79.324C871.985 80.5612 871.116 81.5129 869.998 82.1791C868.88 82.8216 867.548 83.1428 866.001 83.1428C864.669 83.1428 863.455 82.9048 862.361 82.429C861.29 81.9293 860.374 81.2393 859.613 80.359C858.851 79.4786 858.268 78.4555 857.864 77.2897C857.459 76.1 857.257 74.8152 857.257 73.4352V72.6143C857.257 71.2343 857.471 69.9495 857.899 68.7598C858.328 67.5702 858.946 66.5352 859.755 65.6548C860.564 64.7745 861.528 64.0964 862.646 63.6205C863.764 63.1209 865.002 62.871 866.358 62.871C867.928 62.871 869.284 63.216 870.426 63.906C871.592 64.596 872.508 65.6072 873.175 66.9397C873.841 68.2721 874.198 69.8781 874.245 71.7578L873.46 71.9719V63.4421H877.993V80.6802C877.993 83.0833 877.564 85.0224 876.708 86.4976C875.851 87.9728 874.543 89.0553 872.782 89.7453C871.045 90.4353 868.844 90.7803 866.179 90.7803ZM867.785 78.3247C868.666 78.3247 869.463 78.1343 870.177 77.7536C870.89 77.3491 871.45 76.7781 871.854 76.0405C872.282 75.3029 872.496 74.4107 872.496 73.3638V72.3288C872.496 71.3057 872.27 70.4491 871.818 69.7591C871.39 69.0453 870.819 68.51 870.105 68.1531C869.391 67.7724 868.63 67.5821 867.821 67.5821C866.869 67.5821 866.025 67.8081 865.287 68.2602C864.55 68.7122 863.979 69.3428 863.574 70.1517C863.17 70.9607 862.967 71.9124 862.967 73.0069C862.967 74.1252 863.17 75.0888 863.574 75.8978C864.002 76.6829 864.573 77.2897 865.287 77.7179C866.025 78.1224 866.858 78.3247 867.785 78.3247ZM883.865 83V63.4421H889.576V83H883.865ZM881.26 67.6534V63.4421H889.576V67.6534H881.26ZM886.078 61.5148C885.007 61.5148 884.21 61.2412 883.687 60.694C883.187 60.1229 882.937 59.4091 882.937 58.5526C882.937 57.6722 883.187 56.9584 883.687 56.4112C884.21 55.8402 885.007 55.5547 886.078 55.5547C887.149 55.5547 887.934 55.8402 888.434 56.4112C888.957 56.9584 889.219 57.6722 889.219 58.5526C889.219 59.4091 888.957 60.1229 888.434 60.694C887.934 61.2412 887.149 61.5148 886.078 61.5148ZM902.923 83.6424C901.543 83.6424 900.282 83.3926 899.14 82.8929C898.022 82.3933 897.046 81.7033 896.213 80.8229C895.381 79.9188 894.738 78.86 894.286 77.6466C893.858 76.4331 893.644 75.1245 893.644 73.7207V72.8998C893.644 71.496 893.846 70.1874 894.25 68.974C894.679 67.7605 895.285 66.7017 896.071 65.7976C896.88 64.8697 897.843 64.1559 898.961 63.6562C900.08 63.1328 901.329 62.871 902.709 62.871C904.279 62.871 905.635 63.216 906.778 63.906C907.92 64.5722 908.812 65.5716 909.454 66.904C910.097 68.2126 910.454 69.8305 910.525 71.7578L909.026 70.3659V56.9466H914.772V83H910.239V74.8984H911.025C910.953 76.7543 910.561 78.3366 909.847 79.6452C909.157 80.9538 908.217 81.9531 907.027 82.6431C905.838 83.3093 904.47 83.6424 902.923 83.6424ZM904.351 78.86C905.231 78.86 906.028 78.6697 906.742 78.289C907.479 77.8845 908.062 77.3016 908.491 76.5402C908.943 75.7788 909.169 74.8628 909.169 73.7921V72.4716C909.169 71.4247 908.943 70.5443 908.491 69.8305C908.039 69.1167 907.444 68.5695 906.706 68.1888C905.969 67.8081 905.171 67.6178 904.315 67.6178C903.363 67.6178 902.507 67.8676 901.745 68.3672C901.008 68.8431 900.425 69.5093 899.996 70.3659C899.568 71.1986 899.354 72.1741 899.354 73.2924C899.354 74.4345 899.568 75.4219 899.996 76.2547C900.425 77.0874 901.02 77.7298 901.781 78.1819C902.542 78.634 903.399 78.86 904.351 78.86ZM931.765 83V77.2183H930.801V70.9369C930.801 69.9376 930.563 69.1881 930.087 68.6884C929.611 68.1888 928.85 67.939 927.803 67.939C927.28 67.939 926.59 67.9509 925.733 67.9747C924.877 67.9984 923.996 68.0341 923.092 68.0817C922.188 68.1293 921.367 68.1769 920.63 68.2245V63.4064C921.177 63.3588 921.819 63.3112 922.557 63.2636C923.294 63.216 924.056 63.1803 924.841 63.1565C925.626 63.1328 926.364 63.1209 927.054 63.1209C929.052 63.1209 930.73 63.4064 932.086 63.9774C933.466 64.5484 934.513 65.4169 935.227 66.5828C935.94 67.7248 936.297 69.2 936.297 71.0083V83H931.765ZM925.519 83.4997C924.115 83.4997 922.878 83.2498 921.807 82.7502C920.76 82.2505 919.94 81.5367 919.345 80.6088C918.75 79.6571 918.452 78.5269 918.452 77.2183C918.452 75.7907 918.821 74.6248 919.559 73.7207C920.296 72.7928 921.331 72.1147 922.664 71.6864C923.996 71.2343 925.531 71.0083 927.268 71.0083H931.444V74.1847H927.232C926.233 74.1847 925.46 74.4345 924.912 74.9341C924.389 75.41 924.127 76.0643 924.127 76.8971C924.127 77.6822 924.389 78.3247 924.912 78.8243C925.46 79.3002 926.233 79.5381 927.232 79.5381C927.875 79.5381 928.446 79.431 928.945 79.2169C929.469 78.979 929.897 78.5864 930.23 78.0391C930.563 77.4919 930.754 76.7305 930.801 75.755L932.157 77.1826C932.038 78.5388 931.705 79.6809 931.158 80.6088C930.635 81.5367 929.897 82.2505 928.945 82.7502C928.017 83.2498 926.875 83.4997 925.519 83.4997Z" fill="white"></path><g clip-path="url(#clip0_191_86)"><path d="M390.185 77.3858L375.132 62.3309L374.822 58.5153L378.97 55.9871C380.144 55.272 380.62 53.8076 380.091 52.5392L378.221 48.0553L381.385 44.3689C382.28 43.3263 382.28 41.7866 381.386 40.7436L378.221 37.0559L380.091 32.5718C380.62 31.3036 380.144 29.8391 378.97 29.124L374.822 26.5957L375.215 21.754C375.326 20.3843 374.421 19.1384 373.084 18.8207L368.358 17.6984L367.235 12.9708C366.918 11.6336 365.669 10.729 364.302 10.8398L359.459 11.2332L356.93 7.08433C356.215 5.91056 354.75 5.43538 353.482 5.964L348.999 7.83468L345.313 4.67093C344.27 3.77603 342.73 3.77603 341.688 4.67093L338.001 7.83468L333.518 5.96419C332.249 5.43519 330.785 5.91094 330.07 7.08452L327.541 11.2333L322.698 10.84C321.328 10.7303 320.082 11.6338 319.765 12.971L318.642 17.6985L313.916 18.8209C312.579 19.1386 311.674 20.3845 311.785 21.7542L312.178 26.5959L308.03 29.1241C306.856 29.8392 306.38 31.3036 306.909 32.572L308.779 37.0561L305.614 40.7438C304.72 41.7866 304.72 43.3263 305.615 44.369L308.779 48.0555L306.909 52.5394C306.38 53.8076 306.856 55.2722 308.03 55.9873L312.178 58.5155L311.868 62.3311L296.815 77.3858C296.133 78.0679 295.853 79.0544 296.075 79.9933C296.296 80.9322 296.988 81.6892 297.903 81.9942L309.231 85.7696L313.006 97.0968C313.311 98.0119 314.068 98.7039 315.007 98.9254C315.946 99.1469 316.932 98.8668 317.614 98.1847L338.283 77.5181L341.687 80.4414C342.725 81.3322 344.265 81.3415 345.313 80.4414L348.718 77.5181L369.386 98.1845C370.068 98.8666 371.055 99.1469 371.994 98.9252C372.933 98.7037 373.69 98.0116 373.995 97.0966L377.77 85.7694L389.097 81.9941C390.012 81.689 390.704 80.932 390.926 79.9931C391.147 79.0544 390.867 78.0677 390.185 77.3858ZM316.864 91.0643L314.071 82.6876C313.794 81.8566 313.142 81.2044 312.311 80.9273L303.936 78.136L315.424 66.6482L318.642 67.4129L319.765 72.1404C320.083 73.4776 321.332 74.3822 322.698 74.2714L327.541 73.8781L330.006 77.9224L316.864 91.0643ZM355.598 69.5168L353.421 73.09L349.559 71.4789C348.589 71.0741 347.473 71.2507 346.674 71.9359L343.5 74.6614L340.326 71.9359C339.21 70.9776 337.954 71.2648 337.441 71.4789L333.58 73.09L331.402 69.5168C330.855 68.6191 329.85 68.1064 328.8 68.191L324.629 68.5298L323.662 64.4582C323.419 63.4351 322.62 62.6365 321.597 62.3934L317.527 61.4266L317.866 57.2566C317.951 56.2084 317.438 55.2018 316.54 54.6547L312.966 52.4769L314.576 48.6151C314.981 47.6447 314.804 46.5292 314.119 45.7313L311.394 42.5563L314.12 39.3801C314.804 38.5822 314.981 37.4669 314.576 36.4965L312.966 32.6347L316.54 30.4569C317.438 29.9096 317.951 28.903 317.866 27.855L317.527 23.685L321.597 22.7183C322.62 22.4754 323.419 21.6767 323.662 20.6536L324.629 16.5819L328.8 16.9205C329.848 17.0065 330.855 16.4929 331.402 15.5948L333.579 12.0216L337.441 13.6327C338.411 14.0373 339.527 13.8609 340.325 13.176L343.5 10.4509L346.675 13.176C347.473 13.8611 348.589 14.0373 349.559 13.6327L353.421 12.0216L355.598 15.5948C356.146 16.4927 357.151 17.0068 358.2 16.9205L362.371 16.5819L363.338 20.6536C363.581 21.6767 364.38 22.4754 365.403 22.7183L369.473 23.685L369.135 27.855C369.049 28.9032 369.562 29.9098 370.46 30.4569L374.034 32.6347L372.424 36.4965C372.019 37.4667 372.196 38.5822 372.881 39.3801L375.606 42.5563L372.881 45.7313C372.196 46.5292 372.019 47.6447 372.424 48.6151L374.034 52.4769L370.46 54.6547C369.562 55.202 369.049 56.2086 369.134 57.2566L369.473 61.4266L365.403 62.3934C364.38 62.6365 363.581 63.4351 363.338 64.4582L362.371 68.5298L358.2 68.191C357.152 68.1059 356.146 68.6187 355.598 69.5168ZM374.689 80.9273C373.858 81.2044 373.206 81.8566 372.929 82.6876L370.137 91.0643L356.995 77.9222L359.459 73.8779L364.302 74.2712C365.668 74.382 366.918 73.4775 367.235 72.1402L368.358 67.4127L371.577 66.648L383.065 78.1358L374.689 80.9273Z" fill="white"></path><path d="M366.336 34.6263L357.904 26.1944C356.817 25.1074 355.055 25.1074 353.968 26.1944L340.519 39.6432L334.523 33.6472C333.436 32.5603 331.674 32.5603 330.587 33.6472L322.155 42.0794C321.068 43.1663 321.068 44.9285 322.155 46.0154L338.551 62.4116C339.638 63.4987 341.401 63.4984 342.487 62.4116L366.336 38.5625C367.423 37.4754 367.423 35.7133 366.336 34.6263ZM340.519 56.5073L328.059 44.0473L332.555 39.5513L338.551 45.5473C339.638 46.6342 341.4 46.6342 342.487 45.5473L355.936 32.0985L360.432 36.5944L340.519 56.5073Z" fill="white"></path></g><path d="M78.8434 15.2235C69.7491 13.5938 61.3742 8.62725 57.1915 5.81194C54.4586 3.97237 51.2803 3 47.9998 3C44.7193 3 41.541 3.97237 38.8084 5.81194C34.6256 8.62725 26.2508 13.5939 17.1566 15.2237C11.7705 16.1888 7.86115 20.8491 7.86115 26.3044V48.9373C7.86115 56.4142 9.9529 63.7029 14.0785 70.6009C17.3059 75.9973 21.778 81.1549 27.37 85.9303C36.7725 93.96 46.083 98.1473 46.4747 98.3214L47.9998 99L49.5253 98.3214C49.917 98.1473 59.2275 93.96 68.6301 85.9303C74.2219 81.1549 78.694 75.9973 81.9216 70.6009C86.0472 63.7027 88.1389 56.4142 88.1389 48.9373V26.3042C88.1389 20.8489 84.2295 16.1886 78.8434 15.2235ZM80.6359 48.9371C80.6359 60.084 75.0047 70.5699 63.8983 80.1041C57.4423 85.6462 50.8877 89.2586 48 90.7247C41.3623 87.3521 15.3636 72.6242 15.3636 48.9373V26.3042C15.3636 24.4864 16.6742 22.932 18.48 22.6084C28.9271 20.7362 38.3256 15.1806 42.9977 12.0358C44.4878 11.0329 46.2176 10.5026 47.9998 10.5026C49.782 10.5026 51.5117 11.0329 53.0018 12.036C57.6741 15.1808 67.0723 20.7364 77.5195 22.6088C79.3251 22.9324 80.6359 24.4866 80.6359 26.3046V48.9371Z" fill="white"></path><path d="M42.1902 58.2058L29.3689 46.2025L24.2411 51.6793L42.6737 68.9361L71.9942 36.0572L66.3947 31.0637L42.1902 58.2058Z" fill="white"></path><path d="M713.887 33.979H711.919V25.1922C711.919 11.7276 700.965 0.773438 687.5 0.773438C674.035 0.773438 663.081 11.7276 663.081 25.1922V33.979H661.113C655.094 33.979 650.197 38.8759 650.197 44.895V87.3108C650.197 93.3297 655.094 98.2266 661.113 98.2266H713.887C719.906 98.2266 724.803 93.3297 724.803 87.3108V44.895C724.803 38.8759 719.906 33.979 713.887 33.979ZM667.722 25.1922C667.722 14.2866 676.594 5.41406 687.5 5.41406C698.405 5.41406 707.278 14.2866 707.278 25.1922V33.979H701.569V25.1922C701.569 17.4346 695.257 11.1236 687.5 11.1236C679.742 11.1236 673.431 17.4348 673.431 25.1922V33.979H667.722V25.1922ZM696.928 33.979H678.072V25.1922C678.072 19.9936 682.301 15.7642 687.5 15.7642C692.699 15.7642 696.928 19.9937 696.928 25.1922V33.979ZM720.162 87.3108C720.162 90.771 717.347 93.5859 713.887 93.5859H661.113C657.652 93.5859 654.838 90.7708 654.838 87.3108V44.895C654.838 41.4348 657.653 38.6197 661.113 38.6197H713.887C717.348 38.6197 720.162 41.4348 720.162 44.895V87.3108ZM694.209 66.4777C696.151 64.647 697.273 62.0906 697.273 59.3708C697.273 53.9821 692.889 49.598 687.5 49.598C682.111 49.598 677.727 53.9821 677.727 59.3708C677.727 62.0904 678.849 64.6468 680.791 66.4777L677.659 79.7547C677.497 80.4448 677.658 81.1715 678.098 81.7276C678.539 82.2835 679.209 82.6078 679.918 82.6078H695.083C695.792 82.6078 696.462 82.2835 696.902 81.7276C697.342 81.1715 697.504 80.4448 697.341 79.7547L694.209 66.4777ZM689.356 66.1175L692.151 77.9669H682.849L685.644 66.1175C685.867 65.1722 685.478 64.1882 684.668 63.6514C683.228 62.6956 682.368 61.0952 682.368 59.3706C682.368 56.5406 684.67 54.2385 687.5 54.2385C690.33 54.2385 692.632 56.5406 692.632 59.3706C692.632 61.0954 691.772 62.6954 690.332 63.6514C689.523 64.1884 689.133 65.1724 689.356 66.1175Z" fill="white"></path><defs><clipPath id="clip0_191_86"><rect width="95" height="95" fill="white" transform="translate(296 4)"></rect></clipPath></defs></svg>