<svg xmlns="http://www.w3.org/2000/svg" width="1920" height="274" viewBox="0 0 1920 274" fill="none"><path d="M0 1H876L887.5 3L896.5 7L920 27L934 34.5L949 37L963.5 35.5L978.5 30L989 23L1000 11.5L1012.5 4L1025.5 1H1920V274H0V1Z" fill="url(#paint0_radial_488_53)"></path><circle cx="952" cy="19" r="4" fill="#FFF9E7"></circle><path d="M3 1H873.645C887.204 1 900.147 6.96635 909.003 17.2334V17.2334C931.268 43.0457 971.463 43.1505 993.615 17.2406V17.2406C1002.43 6.9341 1015.31 1 1028.87 1H1917" stroke="url(#paint1_linear_488_53)"></path><defs><radialGradient id="paint0_radial_488_53" cx="0" cy="0" r="1" gradientUnits="userSpaceOnUse" gradientTransform="translate(960 -547) rotate(90) scale(806 806)"><stop stop-color="#867E65"></stop><stop offset="1" stop-color="#221F16"></stop></radialGradient><linearGradient id="paint1_linear_488_53" x1="3" y1="16.75" x2="1917" y2="16.75" gradientUnits="userSpaceOnUse"><stop stop-color="#0C1C40"></stop><stop offset="0.456731" stop-color="#898989"></stop><stop offset="1" stop-color="#0C1C40"></stop></linearGradient></defs></svg>