<svg xmlns="http://www.w3.org/2000/svg" width="869" height="125" viewBox="0 0 869 125" fill="none"><g opacity="0.2" clip-path="url(#clip0_392_1329)"><path d="M868.523 -9.62478L839.639 -8.728L810.702 -8.73176L806.308 -1.42625L777.713 -1.43L749.117 -1.42625L745.433 4.38589L741.842 10.093L738.318 15.6425L734.904 21.0719L731.531 26.385L728.263 31.5743L725.036 36.6585L721.91 41.6151L718.814 46.4892L715.817 51.2432L712.849 55.8884L709.982 60.4549L707.13 64.92L704.384 69.2913L701.66 73.5838L699.007 77.7712L696.41 81.9024L693.855 85.9247L691.371 89.8908L688.906 93.7743L686.512 97.5678L684.159 101.32L681.833 104.978L679.574 108.569L677.33 112.115L675.154 115.582L672.989 118.978L670.88 122.332L649.44 122.31L628 122.306L606.557 122.313L585.113 122.295L563.673 122.302L542.233 122.287L520.793 122.295L499.353 122.283L477.913 122.295L456.469 122.28L435.029 122.295L413.593 122.283L392.149 122.287L370.705 122.295L349.269 122.291L327.825 122.287L306.385 122.306L284.945 122.298L263.501 122.302L242.061 122.317L220.618 122.31L218.667 118.985L216.704 115.571L214.682 112.096L212.648 108.565L210.547 104.967L208.442 101.309L206.262 97.5678L204.071 93.7518L201.804 89.8758L199.523 85.9285L197.163 81.8799L194.776 77.775L192.319 73.5763L189.835 69.2875L187.276 64.92L184.69 60.4549L182.015 55.8884L179.321 51.2282L176.533 46.4705L173.719 41.6114L170.811 36.6547L167.873 31.5705L164.838 26.3887L161.768 21.0681L158.587 15.6312L155.375 10.078L152.05 4.38965L148.677 -1.44126H120.085L91.4899 -1.42625L62.8982 -1.43375L58.4368 -8.73926L29.5037 -8.74677L0.596863 -9.18577" stroke="white" stroke-width="0.750438" stroke-linecap="round" stroke-linejoin="round"></path><path d="M848.674 14.363L821.155 15.65L793.528 15.6575L765.923 15.6462L738.318 15.6425L710.714 15.635L683.105 15.6312H655.496L627.891 15.6124L600.279 15.6275L572.667 15.6087L545.058 15.6162L517.45 15.6199L489.845 15.6049L462.244 15.6087L434.65 15.5974L407.053 15.6087L379.455 15.6012L351.854 15.6237L324.242 15.6124L296.633 15.6237L269.021 15.6162L241.412 15.6312L213.8 15.6199L186.195 15.6387L158.587 15.6312L130.982 15.6462L103.377 15.65L75.772 15.6462L48.1671 15.6612L43.6645 10.0892L39.0268 4.3934L34.3028 -1.445L29.5037 -8.74677" stroke="white" stroke-width="0.750438" stroke-linecap="round" stroke-linejoin="round"></path><path d="M707.61 21.0719L680.317 21.0569L653.02 21.0606L625.723 21.0569L598.418 21.0494L571.11 21.0569L543.797 21.0494L516.493 21.0306L489.207 21.0043L461.94 20.9518L434.688 20.9443L407.432 20.9556L380.168 21.0006L352.882 21.0344L325.581 21.0531L298.265 21.0569L270.957 21.0531L243.652 21.0569L216.355 21.0606L189.058 21.0644L161.768 21.0681L134.471 21.0756L107.182 21.0794L79.8881 21.0906L52.5985 21.0831L25.3613 19.8074" stroke="white" stroke-width="0.750438" stroke-linecap="round" stroke-linejoin="round"></path><path d="M839.402 25.1205L812.499 26.4L785.506 26.3887L758.513 26.3925L731.531 26.385L704.545 26.3737L677.552 26.3775L650.562 26.3625L623.558 26.3737L596.542 26.3662L569.508 26.3625L542.466 26.3287L515.439 26.2124L488.468 26.0135L461.561 25.8371L434.688 25.7584L407.814 25.8259L380.908 26.0248L353.944 26.2011L326.925 26.3324L299.879 26.3587L272.841 26.3775L245.821 26.37L218.817 26.3737L191.823 26.37L164.838 26.3887L137.848 26.3812L110.866 26.3887L83.8805 26.4037L56.8985 26.3925L29.9841 25.1317" stroke="white" stroke-width="0.750438" stroke-linecap="round" stroke-linejoin="round"></path><path d="M834.941 30.3398L808.308 31.578L781.619 31.5967L754.952 31.5742H728.263L701.577 31.5705L674.88 31.5667L648.18 31.563H621.453H594.692L567.89 31.4954L541.066 31.2553L514.286 30.7487L487.623 30.0358L461.122 29.3492L436.372 29.094L434.714 29.0753L433.033 29.094L408.317 29.3529" stroke="white" stroke-width="0.750438" stroke-linecap="round" stroke-linejoin="round"></path><path d="M562.54 43.7201L536.293 39.3863L534.394 39.0336L533.434 38.8197" stroke="white" stroke-width="0.750438" stroke-linecap="round" stroke-linejoin="round"></path><path d="M365.827 33.0901L356.563 33.8331L356.132 33.8593L330.009 35.4428" stroke="white" stroke-width="0.750438" stroke-linecap="round" stroke-linejoin="round"></path><path d="M830.536 35.4202L804.233 36.6659L777.836 36.6584H751.429H725.036L698.635 36.6472L672.227 36.6434L645.797 36.6509L619.322 36.6434L592.782 36.5721L566.157 36.287L539.501 35.4427L513.566 33.8631L512.928 33.8255L511.574 34.4747L508.677 33.9606L503.747 33.0901L486.595 31.7206L486.123 31.6868L484.839 31.5967L460.551 29.8782L460.109 29.8632L434.916 29.1466L434.71 29.1428L409.724 29.867L408.873 29.8932L408.317 29.3529L381.823 30.0283L355.179 30.7487L328.399 31.259L301.579 31.4954L274.769 31.5667L247.997 31.5592L221.267 31.5742L194.563 31.5667L167.873 31.5705L141.188 31.5742L114.502 31.5892L87.8127 31.5817L61.1272 31.5967L34.5016 30.3323" stroke="white" stroke-width="0.750438" stroke-linecap="round" stroke-linejoin="round"></path><path d="M817.966 50.0388L792.481 51.2545L766.921 51.2432L741.384 51.2395L715.817 51.2432L690.234 51.2395L664.61 51.232L638.885 51.1794L613.033 50.8943L586.963 49.6635L560.78 46.2003L534.984 39.4201L534.395 39.0336L532.068 38.2869L528.23 37.2851L524.526 36.3208L515.322 35.0075L511.574 34.4747" stroke="white" stroke-width="0.750438" stroke-linecap="round" stroke-linejoin="round"></path><path d="M813.948 54.7253L788.725 55.8959L763.447 55.9109L738.15 55.8959L712.849 55.8884L687.525 55.8959L662.145 55.8809L636.672 55.7946L610.98 55.2693L585.068 53.3332L559.197 48.3353L544.263 43.0334L535.55 39.9416L534.147 39.4426L533.989 39.3863L532.912 38.8497" stroke="white" stroke-width="0.750438" stroke-linecap="round" stroke-linejoin="round"></path><path d="M486.122 31.6868L486.475 31.9194L506.895 45.4161L529.517 58.0009L553.058 68.0192L577.477 74.1541L602.099 76.7806L626.541 77.5611L650.806 77.7449L674.944 77.7674L699.007 77.7712L723.043 77.7787L747.072 77.7974L771.094 77.7787L795.051 76.6605" stroke="white" stroke-width="0.750438" stroke-linecap="round" stroke-linejoin="round"></path><path d="M78.286 80.7842L102 81.9023L125.796 81.9061L149.574 81.9023H173.363L197.163 81.8798L221.016 81.8686L244.988 81.7372L269.115 81.1782L293.448 79.2233L317.743 74.3604L341.416 65.9368L364.165 54.8678L386.329 42.403L409.938 33.5028L434.928 30.5574L459.91 33.5066L483.605 42.4443L505.777 54.9616L528.477 65.9368L552.067 74.3154L576.291 79.1745L600.591 81.1519L624.725 81.7372L648.69 81.8573L672.573 81.8836L696.41 81.9023L720.218 81.8986H744.007L767.792 81.9098L791.513 80.7804" stroke="white" stroke-width="0.750438" stroke-linecap="round" stroke-linejoin="round"></path><path d="M81.7943 84.8291L105.294 85.9472L128.824 85.9359L152.377 85.9284L175.944 85.9209L199.523 85.9284L223.139 85.8984L246.827 85.8346L270.646 85.4632L294.637 84.1724L318.67 80.7579L342.324 74.413L365.295 65.7304L387.988 56.6126L410.812 47.8025L434.95 44.8532L459.126 47.84L481.913 56.7064L504.587 65.7829L527.543 74.4355L551.152 80.7579L575.136 84.1499L599.109 85.4669L622.924 85.8196L646.649 85.9059L670.28 85.9209L693.855 85.9247L717.419 85.9397L740.971 85.9359L764.52 85.9435L788.009 84.8253" stroke="white" stroke-width="0.750438" stroke-linecap="round" stroke-linejoin="round"></path><path d="M85.2387 88.7989L108.499 89.8908L131.826 89.9058L155.138 89.8983L178.462 89.887L201.804 89.8758L225.188 89.872L248.628 89.812L272.173 89.6319L295.819 88.8927L319.533 86.8515L343.097 82.7691L366.248 76.8069L389.053 70.2556L411.901 65.0513L434.965 62.5411L457.996 65.1338L480.843 70.3381L503.66 76.8632L526.8 82.7954L550.338 86.8665L574.033 88.9039L597.649 89.6244L621.19 89.8157L644.619 89.872H668.002L691.371 89.8908L714.702 89.887L738.03 89.9058L761.349 89.8908L784.613 88.8026" stroke="white" stroke-width="0.750438" stroke-linecap="round" stroke-linejoin="round"></path><path d="M91.9252 96.5096L114.742 97.579L137.616 97.594L160.489 97.5752L183.37 97.579L206.262 97.5677L229.176 97.5565L252.114 97.5452L275.107 97.5002L298.115 97.3801L321.161 97.0049L344.185 96.1194L367.103 94.6298L389.845 92.7837L412.426 91.2228L434.932 90.5812L457.452 91.2415L480.048 92.8212L502.812 94.6448L525.731 96.1419L548.747 97.0162L571.789 97.3839L594.79 97.5114L617.764 97.5377L640.698 97.5602L663.609 97.5752L686.512 97.5677L709.397 97.5865L732.274 97.5827L755.155 97.594L777.972 96.5021" stroke="white" stroke-width="0.750438" stroke-linecap="round" stroke-linejoin="round"></path><path d="M110.547 117.968L132.126 119.004L134.85 122.302L156.294 122.34L158.789 124.606" stroke="white" stroke-width="0.750438" stroke-linecap="round" stroke-linejoin="round"></path><path d="M113.44 121.338L134.85 122.302L137.544 124.625" stroke="white" stroke-width="0.750438" stroke-linecap="round" stroke-linejoin="round"></path><path d="M647.534 124.591H668.787L690.032 124.602L692.324 122.321L694.624 118.989L716.259 119.004L718.815 115.582L740.645 115.597L743.429 112.115L765.413 111.087L768.471 107.541" stroke="white" stroke-width="0.750438" stroke-linecap="round" stroke-linejoin="round"></path><path d="M690.031 124.602L711.28 124.61L732.525 124.614L753.762 124.287L756.607 121.323L759.481 117.98L762.43 114.554" stroke="white" stroke-width="0.750438" stroke-linecap="round" stroke-linejoin="round"></path><path d="M354.455 34.9662L338.324 45.5924L314.513 57.5319L289.467 64.9612L264.151 68.1168L239.139 69.0473L214.419 69.2575L189.835 69.2875L165.299 69.3025L140.775 69.2987L116.284 69.31L91.7789 69.3025L67.3184 68.1543" stroke="white" stroke-width="0.750438" stroke-linecap="round" stroke-linejoin="round"></path><path d="M515.784 35.3114L531.648 45.6637L555.313 57.4118L580.164 64.7999L605.367 68.0493L630.376 69.0398L655.17 69.2575L679.814 69.2837L704.384 69.2912L728.901 69.2987L753.432 69.31L777.942 69.295L802.372 68.1543" stroke="white" stroke-width="0.750438" stroke-linecap="round" stroke-linejoin="round"></path><path d="M385.065 31.563L386.329 42.4031L387.988 56.6126L389.053 70.2556L389.65 82.8779L389.845 92.7837L390.01 99.6915L390.243 104.543L390.592 108.464L390.952 112.062L391.361 115.537L391.748 118.955L392.149 122.287L392.539 124.565" stroke="white" stroke-width="0.750438" stroke-linecap="round" stroke-linejoin="round"></path><path d="M346.702 36.0731L337.498 41.9153L313.331 53.6409L287.969 60.8376L262.35 63.8468L237.086 64.7136L212.108 64.8824L187.276 64.9199L162.493 64.9162L137.743 64.9199L112.967 64.9387L88.2104 64.9237L63.5173 63.7718" stroke="white" stroke-width="0.750438" stroke-linecap="round" stroke-linejoin="round"></path><path d="M524.572 37.0562L532.477 42.0316L556.521 53.5471L581.661 60.6837L607.138 63.7868L632.413 64.6911L657.425 64.8862L682.317 64.9199H707.131L731.929 64.9124L756.682 64.935L781.45 64.9237L806.17 63.768" stroke="white" stroke-width="0.750438" stroke-linecap="round" stroke-linejoin="round"></path><path d="M839.639 -8.728L834.904 -1.445L830.213 4.4009L825.617 10.1042L797.701 10.093L769.781 10.0855L741.842 10.093L713.918 10.0705L685.991 10.078L658.063 10.0667L630.139 10.0592L602.208 10.0667L574.28 10.048L546.353 10.063L518.425 10.048H490.498L462.57 10.0592L434.646 10.0404L406.723 10.0555H378.799L350.871 10.048L322.944 10.0667L295.012 10.0517L267.085 10.0667L239.157 10.063L211.23 10.0667L183.302 10.078H155.375L127.447 10.0817L99.5196 10.0855L95.5385 4.3934L91.4899 -1.42625L87.37 -8.75803" stroke="white" stroke-width="0.750438" stroke-linecap="round" stroke-linejoin="round"></path><path d="M868.523 -9.6248L863.424 -2.74328L834.903 -1.44502L806.308 -1.42626L801.94 4.41965L773.687 4.40464L769.78 10.0854L765.923 15.6462L762.194 21.0756L758.513 26.3925L754.952 31.5742L751.429 36.6584L748.018 41.6263L744.648 46.4817L741.384 51.2395L738.15 55.8959L735.009 60.4661L731.928 64.9124L728.9 69.2987L725.959 73.5837L723.043 77.7787L720.218 81.8986L717.419 85.9397L714.702 89.887L712.012 93.7668L688.906 93.7743L665.8 93.7593L642.653 93.7442L619.457 93.733L596.227 93.6354L572.903 93.3165L549.561 92.3297L526.245 90.1909L503.112 86.8102L480.265 82.9304L457.587 79.7373L434.95 78.3565L412.321 79.6773L389.65 82.8779L366.807 86.7689L343.674 90.1684L320.34 92.3222L296.971 93.3127L273.636 93.6392L250.406 93.7217L227.214 93.7517H204.071L180.953 93.7743L178.462 89.887L175.944 85.9209L173.363 81.9023L170.717 77.7787L168.046 73.5725L165.299 69.3025L162.493 64.9162L159.652 60.4511L156.722 55.8997L153.761 51.247L150.699 46.4892L147.611 41.6301L144.414 36.6509L141.188 31.5742L137.848 26.3812L134.471 21.0756L130.982 15.6462L127.447 10.0817L123.792 4.40089L95.5385 4.39339L67.2808 4.41214L62.8982 -1.43376L34.3028 -1.44502L5.77488 -2.75828L0.596863 -9.18579" stroke="white" stroke-width="0.750438" stroke-linecap="round" stroke-linejoin="round"></path><path d="M781.776 -8.73927L777.713 -1.43001L773.687 4.40465L745.433 4.38588L717.175 4.39714L688.917 4.37462L660.656 4.38214L632.402 4.37838L604.148 4.36337L575.89 4.37462L547.636 4.35962L519.374 4.36337L491.121 4.37088L462.87 4.35211L434.613 4.37088L406.359 4.35211L378.097 4.37088L349.839 4.36337L321.585 4.37462L293.328 4.36712L265.074 4.38214L236.82 4.37088L208.562 4.38964L180.304 4.37838L152.05 4.38964L123.792 4.40089L120.085 -1.44127L116.299 -8.75053" stroke="white" stroke-width="0.750438" stroke-linecap="round" stroke-linejoin="round"></path><path d="M174.166 -8.77304L177.272 -1.43752L180.304 4.37837L183.302 10.0779L186.195 15.6387L189.058 21.0644L191.823 26.37L194.563 31.5667L197.215 36.6472L199.849 41.6151L202.393 46.4854L204.919 51.2357L207.358 55.8847L209.774 60.4286L212.108 64.8824L214.419 69.2575L216.655 73.5387L218.877 77.7412L221.015 81.8686L223.139 85.8984L225.188 89.872L227.214 93.7518L229.176 97.5565L231.124 101.29L233.011 104.971L234.895 108.565L236.718 112.1L238.538 115.567L240.305 118.966L242.062 122.317L243.788 124.58" stroke="white" stroke-width="0.750438" stroke-linecap="round" stroke-linejoin="round"></path><path d="M203.103 -8.75804L205.86 -1.46002L208.562 4.38964L211.23 10.0667L213.8 15.6199L216.355 21.0606L218.817 26.3737L221.267 31.5742L223.646 36.6435L226.017 41.6114L228.317 46.4554L230.61 51.1832L232.812 55.7834L234.996 60.2897L237.086 64.7136L239.139 69.0474L241.142 73.3474L243.071 77.5686L244.988 81.7373L246.827 85.8347L248.628 89.812L250.406 93.7218L252.114 97.5452L253.828 101.286L255.483 104.952L257.145 108.554L258.759 112.092L260.376 115.559L261.941 118.974L263.502 122.302L265.036 124.584" stroke="white" stroke-width="0.750438" stroke-linecap="round" stroke-linejoin="round"></path><path d="M5.77496 -2.75829L10.8479 3.08386L39.0269 4.39338L67.2808 4.41214L71.5959 10.1005L99.5196 10.0854L103.377 15.65L107.182 21.0794L110.866 26.3887L114.502 31.5892L118.025 36.6585L121.504 41.6188L124.877 46.4892L128.209 51.2395L131.436 55.8959L134.625 60.4698L137.743 64.9199L140.775 69.2987L143.78 73.5912L146.692 77.7787L149.574 81.9023L152.377 85.9284L155.138 89.8983L157.851 93.7668L180.953 93.7743L183.37 97.579L185.771 101.309L188.094 104.975L210.547 104.967L233.011 104.971L255.483 104.952L277.97 104.941L300.453 104.93L322.944 104.9L345.404 104.839L367.842 104.708L390.243 104.543L412.61 104.359L434.958 104.303L457.31 104.367L479.684 104.539L502.088 104.716L524.53 104.843L546.998 104.9L569.478 104.933L591.964 104.941L614.444 104.96L636.916 104.963L659.376 104.975L681.833 104.978L704.294 104.986L706.811 101.312L709.397 97.5865L712.012 93.7668L735.11 93.7893L738.03 89.9058L740.971 85.9359L744.007 81.8986L747.072 77.7974L750.209 73.58L753.432 69.31L756.682 64.9349L760.036 60.4548L763.447 55.9109L766.921 51.2432L770.497 46.4967L774.107 41.6301L777.837 36.6585L781.619 31.5968L785.506 26.3887L789.487 21.0944L793.528 15.6575L797.701 10.093L801.941 4.41965L830.213 4.40088L858.377 3.09887L863.424 -2.74329" stroke="white" stroke-width="0.750438" stroke-linecap="round" stroke-linejoin="round"></path><path d="M232.036 -8.78056L234.452 -1.44502L236.82 4.37087L239.157 10.0629L241.412 15.6312L243.652 21.0569L245.821 26.37L247.997 31.5592L250.125 36.6434L252.279 41.5851L254.384 46.3354L256.489 50.9018L258.515 55.3068L260.488 59.5843L262.35 63.8468L264.151 68.1168L265.865 72.4618L267.501 76.8219L269.115 81.1782L270.646 85.4632L272.173 89.6319L273.636 93.6392L275.107 97.5002L276.544 101.275L277.97 104.941L279.403 108.554L280.799 112.085L282.21 115.548L283.576 118.966L284.945 122.298L286.288 124.58" stroke="white" stroke-width="0.750438" stroke-linecap="round" stroke-linejoin="round"></path><path d="M260.969 -8.76929L263.047 -1.46378L265.074 4.38213L267.085 10.0667L269.021 15.6162L270.957 21.0531L272.841 26.3775L274.769 31.5667L276.69 36.5909L278.672 41.3262L280.671 45.7162L282.626 49.6936L284.54 53.3895L286.304 57.0328L287.97 60.8376L289.467 64.9612L290.881 69.4376L292.179 74.2441L293.448 79.2233L294.637 84.1724L295.819 88.8927L296.971 93.3128L298.115 97.3801L299.29 101.23L300.453 104.93L301.657 108.539L302.839 112.081L304.04 115.559L305.218 118.955L306.385 122.306L307.541 124.568" stroke="white" stroke-width="0.750438" stroke-linecap="round" stroke-linejoin="round"></path><path d="M10.8478 3.08389L15.8007 8.78722L43.6645 10.0892L71.5958 10.1005L75.772 15.6462L79.8881 21.0906L83.8805 26.4037L87.8127 31.5818L91.6325 36.6735L95.3997 41.6451L99.0505 46.4892L102.656 51.262L106.157 55.9072L109.613 60.4586L112.967 64.9387L116.284 69.31L119.507 73.5838L122.674 77.7975L125.796 81.9061L128.824 85.936L131.826 89.9058L134.749 93.7743L157.851 93.7668L160.489 97.5753L163.104 101.316L165.644 104.986L188.094 104.975L190.405 108.58L192.641 112.115L194.87 115.575L197.031 118.978L199.178 122.328L220.618 122.31L222.539 124.591L243.787 124.58L265.036 124.584L286.289 124.58L307.541 124.569L328.79 124.572L350.038 124.569L371.291 124.561L392.539 124.565L413.784 124.561L435.037 124.557L456.285 124.561L477.534 124.557L498.783 124.561H520.031L541.284 124.569H562.536L583.785 124.576H605.037L626.282 124.587L647.534 124.591L649.44 122.31L651.354 118.981L653.32 115.563L655.294 112.1L657.331 108.577L659.376 104.975L661.489 101.301L663.609 97.5753L665.8 93.7593L668.002 89.872L670.28 85.921L672.573 81.8836L674.944 77.7675L677.334 73.5725L679.814 69.2838L682.317 64.92L684.906 60.4474L687.525 55.8959L690.234 51.2395L692.97 46.4667L695.787 41.6189L698.635 36.6472L701.577 31.5705L704.545 26.3737L707.611 21.0719H734.904L762.194 21.0756L789.487 21.0944L816.762 21.0794L821.155 15.65L825.617 10.1042L853.481 8.78346L858.377 3.0989" stroke="white" stroke-width="0.750438" stroke-linecap="round" stroke-linejoin="round"></path><path d="M289.902 -8.78055L291.639 -1.45253L293.328 4.36712L295.012 10.0517L296.633 15.6237L298.266 21.0569L299.879 26.3587L301.579 31.4954L303.331 36.287L305.215 40.4332L307.094 43.7126L308.918 46.1965L310.573 48.3653L312.014 50.6879L313.331 53.6409L314.513 57.5319L315.657 62.3985L316.715 68.1168L317.743 74.3604L318.67 80.7579L319.533 86.8515L320.34 92.3222L321.161 97.0049L322.036 101.125L322.944 104.9L323.912 108.535L324.876 112.077L325.874 115.544L326.846 118.959L327.825 122.287L328.79 124.572" stroke="white" stroke-width="0.750438" stroke-linecap="round" stroke-linejoin="round"></path><path d="M318.835 -8.78429L320.235 -1.47128L321.585 4.37463L322.944 10.0667L324.242 15.6124L325.582 21.0531L326.925 26.3324L328.399 31.2591L330.009 35.4428" stroke="white" stroke-width="0.750438" stroke-linecap="round" stroke-linejoin="round"></path><path d="M347.768 -8.77304L348.826 -1.46003L349.839 4.36337L350.871 10.0479L351.854 15.6237L352.882 21.0343L353.944 26.2011L355.179 30.7488L356.563 33.8331L358.004 34.4597" stroke="white" stroke-width="0.750438" stroke-linecap="round" stroke-linejoin="round"></path><path d="M15.8008 8.7872L20.6411 14.3554L48.1672 15.6612L52.5985 21.0831L56.8985 26.3925L61.1272 31.5968L65.2434 36.6622L69.292 41.6264L73.2318 46.5004L77.104 51.2432L80.875 55.9109L84.5972 60.4736L88.2105 64.9237L91.7788 69.3025L95.2459 73.595L98.6716 77.7824L102 81.9023L105.294 85.9472L108.499 89.8908L111.658 93.7818L134.749 93.7743L137.616 97.594L140.445 101.32L163.104 101.316L185.771 101.309H208.442L231.124 101.29L253.828 101.286L276.544 101.275L299.29 101.23L322.036 101.125L344.763 100.847L367.43 100.352L390.01 99.6915L412.508 99.0986L434.958 98.866L457.415 99.1024L479.928 99.7065L502.516 100.356L525.187 100.855L547.91 101.125L570.648 101.237L593.386 101.264L616.106 101.29L638.807 101.297L661.489 101.301L684.159 101.32L706.811 101.312L729.475 101.331L732.274 97.5827L735.11 93.7893L758.205 93.7743L761.349 89.8908L764.52 85.9435L767.792 81.9099L771.094 77.7787L774.478 73.595L777.942 69.295L781.45 64.9237L785.063 60.4698L788.725 55.8959L792.481 51.2545L796.312 46.4817L800.215 41.6339L804.233 36.666L808.308 31.578L812.499 26.4L816.762 21.0794L844.003 19.8111L848.674 14.363L853.481 8.78344" stroke="white" stroke-width="0.750438" stroke-linecap="round" stroke-linejoin="round"></path><path d="M376.705 -8.7918L377.418 -1.47504L378.097 4.37088L378.799 10.0554L379.455 15.6012L380.168 21.0006L380.907 26.0248L381.823 30.0283L382.862 31.7168" stroke="white" stroke-width="0.750438" stroke-linecap="round" stroke-linejoin="round"></path><path d="M405.638 -8.7918L406.006 -1.46378L406.359 4.35212L406.723 10.0554L407.053 15.6087L407.432 20.9556L407.814 25.8259L408.317 29.353" stroke="white" stroke-width="0.750438" stroke-linecap="round" stroke-linejoin="round"></path><path d="M367.801 32.9288L361.794 36.9549L339.311 51.0181L315.657 62.3985L290.881 69.4376L265.865 72.4619L241.142 73.3474L216.655 73.5387L192.319 73.5763L168.046 73.5725L143.78 73.5913L119.507 73.5838L95.2458 73.595L71.0479 72.4431" stroke="white" stroke-width="0.750438" stroke-linecap="round" stroke-linejoin="round"></path><path d="M20.6411 14.3555L25.3613 19.8074L29.984 25.1317L34.5016 30.3323L38.918 35.4315L43.2442 40.4144L47.473 45.281L51.6116 50.0538L55.664 54.7178L59.63 59.2879L63.5173 63.7718L67.3183 68.1543L71.0479 72.4431L74.7026 76.6606L78.2859 80.7842L81.7942 84.8291L85.2387 88.7989L88.6157 92.6861L111.658 93.7818L114.742 97.579L117.789 101.32H140.445L143.199 104.982L165.644 104.986L168.162 108.573L170.609 112.104L173.036 115.586L175.396 118.993L197.031 118.978L218.667 118.985L240.305 118.966L261.941 118.974L283.576 118.966L305.218 118.955L326.846 118.959H348.481L370.116 118.944L391.747 118.955L413.375 118.951L435.01 118.94L456.642 118.951L478.273 118.948L499.904 118.944L521.539 118.959L543.171 118.951L564.81 118.955L586.445 118.97L608.08 118.959L629.715 118.978L651.354 118.981L672.989 118.978L694.624 118.989L696.984 115.586L699.367 112.104L701.802 108.592L704.294 104.986L726.728 104.982L729.474 101.331L752.138 101.316L755.154 97.594L758.205 93.7743L781.243 92.6937L784.613 88.8026L788.009 84.8253L791.513 80.7805L795.052 76.6606L798.684 72.4393L802.372 68.1543L806.169 63.768L810.008 59.2804L813.947 54.7253L817.966 50.0388L822.064 45.2848L826.273 40.4032L830.536 35.4202L834.941 30.3398L839.402 25.1205L844.003 19.8112" stroke="white" stroke-width="0.750438" stroke-linecap="round" stroke-linejoin="round"></path><path d="M502.809 33.5066L508.193 37.1275L530.661 51.0669L554.176 62.2747L578.768 69.2988L603.701 72.3981L628.44 73.3286L652.945 73.535L677.334 73.5725L701.66 73.5838H725.959L750.209 73.58L774.478 73.595L798.684 72.4393" stroke="white" stroke-width="0.750438" stroke-linecap="round" stroke-linejoin="round"></path><path d="M707.611 21.0719L710.714 15.6349L713.918 10.0705L717.175 4.39713L720.522 -1.44877L723.914 -8.75053" stroke="white" stroke-width="0.750438" stroke-linecap="round" stroke-linejoin="round"></path><path d="M341.566 37.2138L336.737 39.9942L312.014 50.6879L286.304 57.0328L260.488 59.5843L234.996 60.2897L209.774 60.4286L184.691 60.4548L159.652 60.4511L134.625 60.4699L109.613 60.4586L84.5971 60.4736L59.6301 59.2879" stroke="white" stroke-width="0.750438" stroke-linecap="round" stroke-linejoin="round"></path><path d="M88.6158 92.6861L91.9252 96.5096L95.1746 100.251L117.789 101.32L120.753 104.993L143.199 104.982L145.923 108.592L168.162 108.573L190.405 108.58L212.648 108.565H234.895L257.145 108.554H279.403L301.658 108.539L323.912 108.535L346.151 108.524L368.379 108.494L390.592 108.464L412.794 108.415H434.988H457.182L479.388 108.468L501.604 108.49L523.832 108.528L546.075 108.535L568.326 108.543L590.58 108.554L612.834 108.558L635.085 108.562L657.331 108.577L679.574 108.569L701.802 108.592L724.053 108.588L726.728 104.982L749.177 104.997L752.138 101.316L774.737 100.262L777.972 96.5021L781.244 92.6936" stroke="white" stroke-width="0.750438" stroke-linecap="round" stroke-linejoin="round"></path><path d="M95.1746 100.251L98.3639 103.924L120.753 104.993L123.687 108.58L145.923 108.592L148.576 112.126L151.202 115.582L173.036 115.586L194.87 115.574L216.704 115.571L238.538 115.567L260.376 115.559L282.21 115.548L304.04 115.559L325.874 115.544H347.708L369.535 115.548L391.361 115.537L413.188 115.541L435.014 115.537L456.837 115.541L478.663 115.533L500.49 115.548L522.316 115.537L544.15 115.552H565.981L587.814 115.556H609.652L631.486 115.574L653.32 115.563L675.154 115.582L696.984 115.586L718.815 115.582L721.392 112.126L724.053 108.588H746.288L749.177 104.997L771.567 103.924L774.737 100.262" stroke="white" stroke-width="0.750438" stroke-linecap="round" stroke-linejoin="round"></path><path d="M98.364 103.924L101.493 107.537L123.687 108.58L126.543 112.111L148.576 112.126L170.609 112.104L192.641 112.115L214.682 112.096L236.718 112.1L258.759 112.092L280.799 112.085L302.839 112.081L324.876 112.077L346.905 112.07H368.931L390.952 112.062L412.97 112.051L434.984 112.059L457.002 112.047L479.02 112.066H501.041L523.067 112.07L545.1 112.077H567.136L589.177 112.085L611.217 112.092L633.253 112.096L655.294 112.1L677.33 112.115L699.367 112.104L721.392 112.126L743.429 112.115L746.288 108.588L768.471 107.541L771.567 103.924" stroke="white" stroke-width="0.750438" stroke-linecap="round" stroke-linejoin="round"></path><path d="M101.493 107.537L104.566 111.083L126.543 112.111L129.372 115.59L151.202 115.582L153.761 118.989L175.396 118.993L177.734 122.321L180.038 124.602L201.287 124.591H222.539" stroke="white" stroke-width="0.750438" stroke-linecap="round" stroke-linejoin="round"></path><path d="M104.566 111.083L107.583 114.554L129.372 115.59L132.126 119.004L153.761 118.989L156.294 122.34L177.734 122.321L199.178 122.328L201.286 124.591" stroke="white" stroke-width="0.750438" stroke-linecap="round" stroke-linejoin="round"></path><path d="M107.583 114.554L110.547 117.968L113.44 121.338L116.326 123.912L137.544 124.625L158.789 124.606L180.038 124.602" stroke="white" stroke-width="0.750438" stroke-linecap="round" stroke-linejoin="round"></path><path d="M529.573 38.0505L533.168 40.0992L557.771 50.6279L583.316 56.9278L609.029 59.5356L634.488 60.286L659.77 60.4361L684.906 60.4473L709.982 60.4548L735.009 60.4661L760.036 60.4548L785.063 60.4698L810.008 59.2804" stroke="white" stroke-width="0.750438" stroke-linecap="round" stroke-linejoin="round"></path><path d="M562.54 43.7201L564.371 40.4257L566.157 36.287L567.89 31.4954L569.507 26.3624L571.11 21.0569L572.667 15.6087L574.28 10.0479L575.89 4.37462L577.56 -1.47504L579.244 -8.77304" stroke="white" stroke-width="0.750438" stroke-linecap="round" stroke-linejoin="round"></path><path d="M409.724 29.867L409.938 33.5029L410.813 47.8025L411.901 65.0513L412.321 79.6773L412.426 91.2228L412.509 99.0986L412.61 104.359L412.794 108.415L412.97 112.051L413.188 115.541L413.375 118.951L413.593 122.283L413.784 124.561" stroke="white" stroke-width="0.750438" stroke-linecap="round" stroke-linejoin="round"></path><path d="M732.525 124.614L735.208 122.321L756.607 121.323" stroke="white" stroke-width="0.750438" stroke-linecap="round" stroke-linejoin="round"></path><path d="M711.28 124.61L713.764 122.328L735.208 122.321L737.898 118.989L759.481 117.98" stroke="white" stroke-width="0.750438" stroke-linecap="round" stroke-linejoin="round"></path><path d="M512.928 33.8256L514.287 30.7488L515.438 26.2124L516.493 21.0306L517.45 15.6199L518.425 10.048L519.374 4.36338L520.384 -1.46751L521.371 -8.78803" stroke="white" stroke-width="0.750438" stroke-linecap="round" stroke-linejoin="round"></path><path d="M537.854 38.2231L539.501 35.4428L541.066 31.2553L542.465 26.3287L543.797 21.0494L545.058 15.6162L546.353 10.063L547.636 4.35963L548.972 -1.46001L550.308 -8.79179" stroke="white" stroke-width="0.750438" stroke-linecap="round" stroke-linejoin="round"></path><path d="M361.31 33.8781L361.794 36.9549L363.062 45.2922L364.165 54.8678L365.295 65.7304L366.248 76.8069L366.807 86.7689L367.103 94.6298L367.43 100.352L367.842 104.708L368.379 108.494L368.931 112.07L369.535 115.548L370.116 118.944L370.705 122.295L371.291 124.561" stroke="white" stroke-width="0.750438" stroke-linecap="round" stroke-linejoin="round"></path><path d="M668.787 124.591L670.88 122.332L692.324 122.321L713.764 122.328L716.259 119.004L737.898 118.989L740.645 115.597L762.43 114.554L765.413 111.087" stroke="white" stroke-width="0.750438" stroke-linecap="round" stroke-linejoin="round"></path><path d="M626.282 124.587L628 122.306L629.715 118.978L631.486 115.574L633.254 112.096L635.085 108.562L636.916 104.963L638.807 101.297L640.698 97.5602L642.653 93.7443L644.619 89.872L646.649 85.9059L648.69 81.8573L650.806 77.7449L652.945 73.535L655.17 69.2575L657.425 64.8862L659.77 60.4361L662.145 55.8809L664.611 51.232L667.091 46.4855L669.654 41.6226L672.228 36.6435L674.88 31.5668L677.552 26.3775L680.317 21.0569L683.105 15.6312L685.991 10.078L688.917 4.37464L691.93 -1.4375L694.977 -8.77302" stroke="white" stroke-width="0.750438" stroke-linecap="round" stroke-linejoin="round"></path><path d="M605.037 124.576L606.557 122.313L608.08 118.959L609.652 115.556L611.217 112.092L612.834 108.558L614.444 104.96L616.106 101.29L617.765 97.5377L619.457 93.733L621.19 89.8157L622.924 85.8196L624.725 81.7373L626.541 77.5611L628.44 73.3286L630.376 69.0399L632.413 64.6911L634.488 60.286L636.672 55.7946L638.886 51.1794L641.163 46.4667L643.471 41.6038L645.797 36.651L648.18 31.563L650.562 26.3624L653.02 21.0606L655.497 15.6312L658.063 10.0667L660.656 4.38213L663.346 -1.45253L666.04 -8.77304" stroke="white" stroke-width="0.750438" stroke-linecap="round" stroke-linejoin="round"></path><path d="M338.271 38.073L335.881 39.2812L335.75 39.3263L334.2 39.8816L323.788 43.6225L310.573 48.3653L284.54 53.3895L258.515 55.3068L232.812 55.7834L207.357 55.8847L182.015 55.8884L156.722 55.8997L131.436 55.8959L106.157 55.9072L80.875 55.9109L55.664 54.7177" stroke="white" stroke-width="0.750438" stroke-linecap="round" stroke-linejoin="round"></path><path d="M583.785 124.576L585.113 122.295L586.445 118.97L587.815 115.556L589.177 112.085L590.58 108.554L591.964 104.941L593.387 101.264L594.79 97.5115L596.227 93.6355L597.649 89.6244L599.109 85.4669L600.591 81.1519L602.099 76.7806L603.701 72.3981L605.367 68.0493L607.138 63.7868L609.029 59.5356L610.981 55.2693L613.033 50.8943L615.104 46.3279L617.224 41.5813L619.322 36.6435L621.453 31.563L623.558 26.3737L625.723 21.0569L627.892 15.6125L630.139 10.0592L632.402 4.3784L634.747 -1.46376L637.111 -8.76927" stroke="white" stroke-width="0.750438" stroke-linecap="round" stroke-linejoin="round"></path><path d="M562.536 124.568L563.673 122.302L564.81 118.955L565.98 115.552L567.136 112.077L568.326 108.543L569.477 104.933L570.648 101.237L571.789 97.3839L572.903 93.3165L574.033 88.9039L575.136 84.1499L576.291 79.1745L577.477 74.1541L578.768 69.2987L580.164 64.7999L581.661 60.6837L583.316 56.9278L585.068 53.3332L586.963 49.6635L588.891 45.6937L590.865 41.3299L592.782 36.5722L594.692 31.563L596.542 26.3662L598.418 21.0494L600.279 15.6274L602.208 10.0667L604.148 4.36337L606.155 -1.45253L608.178 -8.78805" stroke="white" stroke-width="0.750438" stroke-linecap="round" stroke-linejoin="round"></path><path d="M541.283 124.568L542.233 122.287L543.171 118.951L544.15 115.552L545.099 112.077L546.075 108.535L546.998 104.9L547.91 101.125L548.747 97.0162L549.561 92.3297L550.337 86.8665L551.152 80.7579L552.067 74.3154L553.058 68.0193L554.176 62.2747L555.313 57.4118L556.521 53.5471L557.771 50.6279L559.196 48.3353L560.78 46.2003L562.54 43.7201L588.891 45.6937L615.104 46.3279L641.163 46.4667L667.091 46.4854L692.969 46.4667L718.814 46.4892L744.648 46.4817L770.497 46.4967L796.312 46.4817L822.063 45.2847" stroke="white" stroke-width="0.750438" stroke-linecap="round" stroke-linejoin="round"></path><path d="M350.038 124.568L349.269 122.291L348.481 118.959L347.708 115.544L346.905 112.07L346.151 108.524L345.404 104.839L344.763 100.847L344.185 96.1194L343.675 90.1684L343.097 82.7691L342.324 74.413L341.416 65.9368L340.384 57.9972L339.311 51.0181L338.324 45.5924L337.498 41.9153L336.737 39.9942L335.881 39.2812L334.778 39.3338L333.78 39.6002L308.918 46.1965L282.626 49.6936L256.489 50.9018L230.61 51.1832L204.919 51.2357L179.321 51.2282L153.761 51.247L128.209 51.2395L102.656 51.262L77.1041 51.2432L51.6117 50.0538" stroke="white" stroke-width="0.750438" stroke-linecap="round" stroke-linejoin="round"></path><path d="M520.031 124.561L520.793 122.295L521.54 118.959L522.316 115.537L523.067 112.07L523.832 108.528L524.53 104.843L525.187 100.855L525.731 96.1419L526.245 90.1909L526.8 82.7954L527.543 74.4355L528.477 65.9368L529.517 58.0009L530.661 51.0669L531.648 45.6637L532.477 42.0316L533.168 40.0992L533.989 39.3863L534.984 39.4201L536.293 39.3863L537.854 38.2231L564.371 40.4257L590.865 41.3299L617.224 41.5813L643.471 41.6039L669.654 41.6226L695.788 41.6189L721.91 41.6151L748.018 41.6264L774.107 41.6301L800.215 41.6339L826.274 40.4031" stroke="white" stroke-width="0.750438" stroke-linecap="round" stroke-linejoin="round"></path><path d="M498.783 124.561L499.353 122.283L499.904 118.944L500.49 115.548L501.041 112.066L501.604 108.49L502.088 104.716L502.516 100.356L502.812 94.6448L503.113 86.8102L503.66 76.8632L504.587 65.7829L505.777 54.9616L506.895 45.4161L508.193 37.1275L508.647 34.152" stroke="white" stroke-width="0.750438" stroke-linecap="round" stroke-linejoin="round"></path><path d="M477.534 124.557L477.913 122.295L478.273 118.948L478.663 115.533L479.02 112.066L479.387 108.468L479.684 104.539L479.928 99.7065L480.048 92.8212L480.265 82.9305L480.843 70.3381L481.913 56.7064L483.605 42.4443L484.839 31.5968" stroke="white" stroke-width="0.750438" stroke-linecap="round" stroke-linejoin="round"></path><path d="M456.285 124.561L456.469 122.28L456.642 118.951L456.837 115.541L457.002 112.047L457.182 108.415L457.309 104.367L457.415 99.1024L457.452 91.2415L457.587 79.7373L457.996 65.1338L459.126 47.84L459.91 33.5066L460.109 29.8632" stroke="white" stroke-width="0.750438" stroke-linecap="round" stroke-linejoin="round"></path><path d="M435.037 124.557L435.029 122.295L435.01 118.94L435.014 115.537L434.984 112.059L434.988 108.415L434.958 104.303V98.866L434.932 90.5812L434.95 78.3565L434.965 62.5411L434.95 44.8532L434.928 30.5574L434.917 29.1466" stroke="white" stroke-width="0.750438" stroke-linecap="round" stroke-linejoin="round"></path><path d="M486.595 31.7206L487.623 30.0358L488.468 26.0135L489.207 21.0043L489.845 15.6049L490.498 10.0479L491.12 4.37087L491.785 -1.47505L492.441 -8.78056" stroke="white" stroke-width="0.750438" stroke-linecap="round" stroke-linejoin="round"></path><path d="M460.552 29.8783L461.122 29.3492L461.561 25.8371L461.94 20.9518L462.244 15.6087L462.57 10.0592L462.87 4.35211L463.193 -1.46378L463.508 -8.79555" stroke="white" stroke-width="0.750438" stroke-linecap="round" stroke-linejoin="round"></path><path d="M434.71 29.1428V29.0753V28.4599L434.688 25.7584V20.9443L434.65 15.5974L434.646 10.0404L434.613 4.37088L434.598 -1.47878L434.575 -8.78054" stroke="white" stroke-width="0.750438" stroke-linecap="round" stroke-linejoin="round"></path><path d="M345.048 36.3095L339.345 37.1237L331.731 38.2081L305.215 40.4332L278.672 41.3262L252.279 41.5851L226.017 41.6113L199.849 41.6151L173.719 41.6113L147.611 41.6301L121.504 41.6189L95.3997 41.6451L69.292 41.6264L43.2443 40.4144" stroke="white" stroke-width="0.750438" stroke-linecap="round" stroke-linejoin="round"></path><path d="M537.854 38.2231L527.209 36.7035L524.526 36.3208" stroke="white" stroke-width="0.750438" stroke-linecap="round" stroke-linejoin="round"></path><path d="M512.928 33.8256L503.747 33.0901" stroke="white" stroke-width="0.750438" stroke-linecap="round" stroke-linejoin="round"></path><path d="M383.77 31.653L383.095 32.0995L363.062 45.2922L340.384 57.9971L316.715 68.1168L292.18 74.2441L267.501 76.8219L243.071 77.5686L218.877 77.7412L194.776 77.7749L170.717 77.7787H146.692L122.674 77.7974L98.6716 77.7824L74.7026 76.6605" stroke="white" stroke-width="0.750438" stroke-linecap="round" stroke-linejoin="round"></path><path d="M408.873 29.8933L385.065 31.563L383.77 31.653L382.862 31.7168L367.801 32.9288L365.827 33.0901L361.31 33.8781L358.004 34.4597L354.455 34.9662L346.703 36.0731L345.048 36.3095L341.566 37.2138L338.271 38.073L337.468 38.2832L336.339 38.5796L335.461 38.9285L334.778 39.3338L333.405 39.3413L331.731 38.2081L330.009 35.4428L303.331 36.287L276.69 36.5909L250.125 36.6435H223.646L197.215 36.6472L170.811 36.6547L144.415 36.651L118.025 36.6585L91.6325 36.6735L65.2433 36.6622L38.918 35.4315" stroke="white" stroke-width="0.750438" stroke-linecap="round" stroke-linejoin="round"></path><path d="M337.468 38.2832L335.461 38.9285L333.405 39.3413L307.094 43.7126L280.672 45.7162L254.384 46.3354L228.317 46.4554L202.393 46.4854L176.533 46.4704L150.699 46.4892H124.877H99.0506L73.2318 46.5005L47.473 45.281" stroke="white" stroke-width="0.750438" stroke-linecap="round" stroke-linejoin="round"></path></g><defs><clipPath id="clip0_392_1329"><rect width="868.677" height="135" fill="white" transform="matrix(1 0 0 -1 0.221741 125)"></rect></clipPath></defs></svg>